{
	"patcher" : 	{
		"fileversion" : 1,
		"appversion" : 		{
			"major" : 9,
			"minor" : 0,
			"revision" : 5,
			"architecture" : "x64",
			"modernui" : 1
		}
,
		"classnamespace" : "dsp.gen",
		"rect" : [ 34.0, 100.0, 796.0, 983.0 ],
		"gridsize" : [ 15.0, 15.0 ],
		"boxes" : [ 			{
				"box" : 				{
					"id" : "obj-27",
					"maxclass" : "newobj",
					"numinlets" : 2,
					"numoutlets" : 1,
					"outlettype" : [ "" ],
					"patching_rect" : [ 400.0, 61.0, 90.0, 22.0 ],
					"text" : "scale 0 127 0 1"
				}

			}
, 			{
				"box" : 				{
					"id" : "obj-18",
					"maxclass" : "newobj",
					"numinlets" : 0,
					"numoutlets" : 1,
					"outlettype" : [ "" ],
					"patching_rect" : [ 625.0, 51.0, 86.0, 22.0 ],
					"text" : "param velocity"
				}

			}
, 			{
				"box" : 				{
					"id" : "obj-15",
					"maxclass" : "newobj",
					"numinlets" : 1,
					"numoutlets" : 1,
					"outlettype" : [ "" ],
					"patching_rect" : [ 400.0, 111.0, 102.0, 22.0 ],
					"text" : "setparam velocity"
				}

			}
, 			{
				"box" : 				{
					"id" : "obj-8",
					"maxclass" : "newobj",
					"numinlets" : 0,
					"numoutlets" : 1,
					"outlettype" : [ "" ],
					"patching_rect" : [ 400.0, 14.0, 136.0, 22.0 ],
					"text" : "in 3 @comment velocity"
				}

			}
, 			{
				"box" : 				{
					"id" : "obj-5",
					"maxclass" : "newobj",
					"numinlets" : 0,
					"numoutlets" : 2,
					"outlettype" : [ "", "" ],
					"patching_rect" : [ 855.0, 51.0, 48.0, 22.0 ],
					"text" : "data z2"
				}

			}
, 			{
				"box" : 				{
					"code" : "Param f1;\r\nParam nModes;\r\nParam t60;\r\nParam slope;\r\nParam ringGain;\r\nParam dryMix;\r\nParam ratioSet;\r\n//Param velocity;\r\n\r\nHistory env(0);\r\nHistory cnt(0);\r\n\r\nData bessel(20);\r\nData plate(10);\r\nData z1(64);\r\nData z2(64);\r\n\r\ntrig = in1;\r\n\r\nfs = samplerate;\r\ntwoPi  = 6.28318530718;\r\n\r\nburst = noise();\r\nburstLen = .005 * fs;\r\ndecayEnv = exp(-1 / burstLen);\r\n\r\nif (trig > 0){\r\n\tenv = 1; \r\n\tcnt = burstLen;\r\n}\r\nif (cnt > 0){\r\n\tenv = env * decayEnv;\r\n}\r\nif (cnt <= 0){\r\n\tenv = 0;\r\n}\r\ncnt = max(cnt - 1, 0);\r\n//excitation = burst * env * velocity;\r\nexcitation = burst * env * .7;\r\n\r\n\r\nsum = 0;\r\n\r\nfor (i = 0; i < nModes; i += 1){\r\n\tratio = 0;\r\n\tif (ratioSet == 0) {\r\n\t\t// set bessel ratio\r\n\t\tratio = peek(bessel, i);\r\n\t};\r\n\tif (ratioSet == 1) {\r\n\t\t// set plate ratio\r\n\t\tclampIndex = clamp(i, 0, 9);\r\n\t\tratio = peek(plate, clampIndex);\r\n\t};\r\n\tif (ratioSet == 2) {\r\n\t\t// set rect ratio\r\n\t\tm = floor(sqrt(i)) + 1;\r\n\t\tn = i - (m-1)*(m-1) + 1;\r\n\t\tratio = sqrt((m+1)*(m+1) + (n+1)*(n+1));\r\n\t};\r\n\tif (ratioSet == 3) {\r\n\t\t// set harmonic ratio\r\n\t\tratio = i + 1;\r\n\t}\r\n\t\r\n\tif (ratio <= 0)  continue;\r\n\t\r\n\tf = f1 * ratio;\r\n\tw0  = twoPi * f / fs;\r\n\t\r\n\tt60_i = t60 * pow(10, (slope / 6) * log2(f / f1));\r\n\tr_i   = pow(10, -3 / (t60_i * fs));\r\n\t\r\n\ta1 = -2 * r_i * cos(w0);\r\n\ta2 =  r_i * r_i;\r\n\t\r\n\tyPrev1 = peek(z1, i);\r\n\tyPrev2 = peek(z2, i);\r\n\t\r\n\ty = excitation - a1 * yPrev1 - a2 * yPrev2;\r\n\t\r\n\tpoke(z2, i, yPrev1);\r\n\tpoke(z1, i, y);\r\n\t\r\n\tsum += y;\r\n}\r\n\r\n\r\nout1 = dryMix * excitation + ringGain * sum;",
					"fontface" : 0,
					"fontname" : "<Monospaced>",
					"fontsize" : 12.0,
					"id" : "obj-24",
					"maxclass" : "codebox",
					"numinlets" : 1,
					"numoutlets" : 1,
					"outlettype" : [ "" ],
					"patching_rect" : [ 47.0, 180.0, 687.0, 946.0 ]
				}

			}
, 			{
				"box" : 				{
					"id" : "obj-23",
					"maxclass" : "newobj",
					"numinlets" : 0,
					"numoutlets" : 2,
					"outlettype" : [ "", "" ],
					"patching_rect" : [ 855.0, 14.0, 48.0, 22.0 ],
					"text" : "data z1"
				}

			}
, 			{
				"box" : 				{
					"id" : "obj-22",
					"maxclass" : "newobj",
					"numinlets" : 0,
					"numoutlets" : 2,
					"outlettype" : [ "", "" ],
					"patching_rect" : [ 941.0, 90.263158321380615, 61.0, 22.0 ],
					"text" : "data plate"
				}

			}
, 			{
				"box" : 				{
					"code" : "Data plate(10);\r\n\r\npoke(plate, 1, 0);\r\npoke(plate, 1.220, 1);\r\npoke(plate, 1.536, 2);\r\npoke(plate, 1.854, 3);\r\npoke(plate, 2.173, 4);\r\npoke(plate, 2.479, 5);\r\npoke(plate, 2.825, 6);\r\npoke(plate, 3.155, 7);\r\npoke(plate, 3.492, 8);\r\npoke(plate, 3.829, 9);\r\n\r\n\r\nout1 = peek(bessel,7);",
					"fontface" : 0,
					"fontname" : "<Monospaced>",
					"fontsize" : 12.0,
					"id" : "obj-21",
					"maxclass" : "codebox",
					"numinlets" : 1,
					"numoutlets" : 1,
					"outlettype" : [ "" ],
					"patching_rect" : [ 855.0, 569.210522174835205, 225.0, 255.0 ]
				}

			}
, 			{
				"box" : 				{
					"id" : "obj-17",
					"maxclass" : "newobj",
					"numinlets" : 0,
					"numoutlets" : 2,
					"outlettype" : [ "", "" ],
					"patching_rect" : [ 855.0, 90.263158321380615, 70.0, 22.0 ],
					"text" : "data bessel"
				}

			}
, 			{
				"box" : 				{
					"code" : "Data bessel(20);\r\n\r\npoke(bessel, 1, 0);\r\npoke(bessel, 1.593, 1);\r\npoke(bessel, 2.136, 2);\r\npoke(bessel, 2.650, 3);\r\npoke(bessel, 3.142, 4);\r\npoke(bessel, 3.615, 5);\r\npoke(bessel, 4.072, 6);\r\npoke(bessel, 4.515, 7);\r\npoke(bessel, 4.946, 8);\r\npoke(bessel, 5.368, 9);\r\npoke(bessel, 5.783, 10);\r\npoke(bessel, 6.191, 11);\r\npoke(bessel, 6.592, 12);\r\npoke(bessel, 6.988, 13);\r\npoke(bessel, 7.378, 14);\r\npoke(bessel, 7.764, 15);\r\npoke(bessel, 8.145, 16);\r\npoke(bessel, 8.521, 17);\r\npoke(bessel, 8.894, 18);\r\npoke(bessel, 9.263, 19);\r\n\r\nout1 = peek(bessel,14);",
					"fontface" : 0,
					"fontname" : "<Monospaced>",
					"fontsize" : 12.0,
					"id" : "obj-16",
					"maxclass" : "codebox",
					"numinlets" : 1,
					"numoutlets" : 1,
					"outlettype" : [ "" ],
					"patching_rect" : [ 855.0, 135.0, 240.0, 375.0 ]
				}

			}
, 			{
				"box" : 				{
					"id" : "obj-14",
					"maxclass" : "newobj",
					"numinlets" : 0,
					"numoutlets" : 1,
					"outlettype" : [ "" ],
					"patching_rect" : [ 630.0, 225.0, 87.0, 22.0 ],
					"text" : "param ratioSet"
				}

			}
, 			{
				"box" : 				{
					"id" : "obj-13",
					"maxclass" : "newobj",
					"numinlets" : 0,
					"numoutlets" : 1,
					"outlettype" : [ "" ],
					"patching_rect" : [ 739.0, 180.0, 81.0, 22.0 ],
					"text" : "param dryMix"
				}

			}
, 			{
				"box" : 				{
					"id" : "obj-12",
					"maxclass" : "newobj",
					"numinlets" : 0,
					"numoutlets" : 1,
					"outlettype" : [ "" ],
					"patching_rect" : [ 630.0, 180.0, 97.5, 22.0 ],
					"text" : "param ringGain"
				}

			}
, 			{
				"box" : 				{
					"id" : "obj-11",
					"maxclass" : "newobj",
					"numinlets" : 0,
					"numoutlets" : 1,
					"outlettype" : [ "" ],
					"patching_rect" : [ 742.0, 135.0, 75.0, 22.0 ],
					"text" : "param slope"
				}

			}
, 			{
				"box" : 				{
					"id" : "obj-10",
					"maxclass" : "newobj",
					"numinlets" : 0,
					"numoutlets" : 1,
					"outlettype" : [ "" ],
					"patching_rect" : [ 630.0, 135.0, 63.0, 22.0 ],
					"text" : "param t60"
				}

			}
, 			{
				"box" : 				{
					"id" : "obj-9",
					"maxclass" : "comment",
					"numinlets" : 1,
					"numoutlets" : 0,
					"patching_rect" : [ 1106.0, 226.0, 150.0, 20.0 ]
				}

			}
, 			{
				"box" : 				{
					"id" : "obj-7",
					"maxclass" : "newobj",
					"numinlets" : 0,
					"numoutlets" : 1,
					"outlettype" : [ "" ],
					"patching_rect" : [ 735.0, 90.0, 89.0, 22.0 ],
					"text" : "param nModes"
				}

			}
, 			{
				"box" : 				{
					"id" : "obj-6",
					"maxclass" : "newobj",
					"numinlets" : 0,
					"numoutlets" : 1,
					"outlettype" : [ "" ],
					"patching_rect" : [ 630.0, 90.0, 56.0, 22.0 ],
					"text" : "param f1"
				}

			}
, 			{
				"box" : 				{
					"id" : "obj-1",
					"maxclass" : "newobj",
					"numinlets" : 0,
					"numoutlets" : 1,
					"outlettype" : [ "" ],
					"patching_rect" : [ 50.0, 14.0, 136.0, 22.0 ],
					"text" : "in 1 @comment params"
				}

			}
, 			{
				"box" : 				{
					"id" : "obj-2",
					"maxclass" : "newobj",
					"numinlets" : 0,
					"numoutlets" : 1,
					"outlettype" : [ "" ],
					"patching_rect" : [ 236.0, 14.0, 113.0, 22.0 ],
					"text" : "in 2 @comment trig"
				}

			}
, 			{
				"box" : 				{
					"id" : "obj-4",
					"maxclass" : "newobj",
					"numinlets" : 1,
					"numoutlets" : 0,
					"patching_rect" : [ 47.0, 1184.0, 35.0, 22.0 ],
					"text" : "out 1"
				}

			}
 ],
		"lines" : [ 			{
				"patchline" : 				{
					"destination" : [ "obj-24", 0 ],
					"source" : [ "obj-2", 0 ]
				}

			}
, 			{
				"patchline" : 				{
					"destination" : [ "obj-4", 0 ],
					"source" : [ "obj-24", 0 ]
				}

			}
, 			{
				"patchline" : 				{
					"destination" : [ "obj-15", 0 ],
					"source" : [ "obj-27", 0 ]
				}

			}
, 			{
				"patchline" : 				{
					"destination" : [ "obj-27", 0 ],
					"source" : [ "obj-8", 0 ]
				}

			}
 ],
		"originid" : "pat-12",
		"saved_attribute_attributes" : 		{
			"default_plcolor" : 			{
				"expression" : ""
			}

		}

	}

}
