{
	"patcher" : 	{
		"fileversion" : 1,
		"appversion" : 		{
			"major" : 9,
			"minor" : 0,
			"revision" : 8,
			"architecture" : "x64",
			"modernui" : 1
		}
,
		"classnamespace" : "box",
		"rect" : [ 34.0, 100.0, 1196.0, 983.0 ],
		"gridsize" : [ 15.0, 15.0 ],
		"boxes" : [ 			{
				"box" : 				{
					"comment" : "thisPatcher",
					"id" : "obj-59",
					"index" : 1,
					"maxclass" : "inlet",
					"numinlets" : 0,
					"numoutlets" : 1,
					"outlettype" : [ "" ],
					"patching_rect" : [ 509.0, 193.0, 30.0, 30.0 ]
				}

			}
, 			{
				"box" : 				{
					"focusbordercolor" : [ 0.631372549019608, 0.63921568627451, 0.662745098039216, 0.0 ],
					"id" : "obj-20",
					"maxclass" : "live.dial",
					"numinlets" : 1,
					"numoutlets" : 2,
					"outlettype" : [ "", "float" ],
					"parameter_enable" : 1,
					"patching_rect" : [ 193.5, 213.0, 27.0, 37.0 ],
					"saved_attribute_attributes" : 					{
						"focusbordercolor" : 						{
							"expression" : ""
						}
,
						"valueof" : 						{
							"parameter_initial" : [ 1.0 ],
							"parameter_initial_enable" : 1,
							"parameter_longname" : "live.dial[50]",
							"parameter_mmax" : 16.0,
							"parameter_mmin" : 1.0,
							"parameter_modmax" : 1.0,
							"parameter_modmode" : 4,
							"parameter_shortname" : "live.dial",
							"parameter_type" : 1,
							"parameter_unitstyle" : 0
						}

					}
,
					"showname" : 0,
					"varname" : "live.dial[28]"
				}

			}
, 			{
				"box" : 				{
					"id" : "obj-50",
					"maxclass" : "comment",
					"numinlets" : 1,
					"numoutlets" : 0,
					"patching_rect" : [ 184.5, 191.0, 46.0, 20.0 ],
					"text" : "unison",
					"textjustification" : 1
				}

			}
, 			{
				"box" : 				{
					"id" : "obj-51",
					"maxclass" : "comment",
					"numinlets" : 1,
					"numoutlets" : 0,
					"patching_rect" : [ 286.5, 191.0, 46.0, 20.0 ],
					"text" : "blend",
					"textjustification" : 1
				}

			}
, 			{
				"box" : 				{
					"focusbordercolor" : [ 0.631372549019608, 0.63921568627451, 0.662745098039216, 0.0 ],
					"id" : "obj-52",
					"maxclass" : "live.dial",
					"numinlets" : 1,
					"numoutlets" : 2,
					"outlettype" : [ "", "float" ],
					"parameter_enable" : 1,
					"patching_rect" : [ 295.5, 211.0, 27.0, 28.0 ],
					"saved_attribute_attributes" : 					{
						"focusbordercolor" : 						{
							"expression" : ""
						}
,
						"valueof" : 						{
							"parameter_longname" : "live.dial[51]",
							"parameter_mmax" : 1.0,
							"parameter_modmax" : 1.0,
							"parameter_modmode" : 4,
							"parameter_shortname" : "live.dial",
							"parameter_type" : 0,
							"parameter_unitstyle" : 1
						}

					}
,
					"showname" : 0,
					"shownumber" : 0,
					"varname" : "live.dial[29]"
				}

			}
, 			{
				"box" : 				{
					"id" : "obj-53",
					"maxclass" : "comment",
					"numinlets" : 1,
					"numoutlets" : 0,
					"patching_rect" : [ 235.0, 191.0, 47.0, 20.0 ],
					"text" : "detune",
					"textjustification" : 1
				}

			}
, 			{
				"box" : 				{
					"focusbordercolor" : [ 0.631372549019608, 0.63921568627451, 0.662745098039216, 0.0 ],
					"id" : "obj-54",
					"maxclass" : "live.dial",
					"numinlets" : 1,
					"numoutlets" : 2,
					"outlettype" : [ "", "float" ],
					"parameter_enable" : 1,
					"patching_rect" : [ 244.0, 211.0, 27.0, 28.0 ],
					"saved_attribute_attributes" : 					{
						"focusbordercolor" : 						{
							"expression" : ""
						}
,
						"valueof" : 						{
							"parameter_longname" : "live.dial[52]",
							"parameter_mmax" : 1.0,
							"parameter_modmax" : 1.0,
							"parameter_modmode" : 4,
							"parameter_shortname" : "live.dial",
							"parameter_type" : 0,
							"parameter_unitstyle" : 1
						}

					}
,
					"showname" : 0,
					"shownumber" : 0,
					"varname" : "live.dial[30]"
				}

			}
, 			{
				"box" : 				{
					"id" : "obj-55",
					"maxclass" : "comment",
					"numinlets" : 1,
					"numoutlets" : 0,
					"patching_rect" : [ 237.974808074533939, 252.0, 39.050383850932121, 20.0 ],
					"text" : "dec",
					"textjustification" : 1
				}

			}
, 			{
				"box" : 				{
					"focusbordercolor" : [ 0.631372549019608, 0.63921568627451, 0.662745098039216, 0.0 ],
					"id" : "obj-56",
					"maxclass" : "live.dial",
					"numinlets" : 1,
					"numoutlets" : 2,
					"outlettype" : [ "", "float" ],
					"parameter_enable" : 1,
					"patching_rect" : [ 243.974808074533939, 272.0, 27.0, 28.0 ],
					"saved_attribute_attributes" : 					{
						"focusbordercolor" : 						{
							"expression" : ""
						}
,
						"valueof" : 						{
							"parameter_longname" : "live.dial[53]",
							"parameter_mmax" : 1.0,
							"parameter_modmax" : 1.0,
							"parameter_modmode" : 4,
							"parameter_shortname" : "live.dial",
							"parameter_type" : 0,
							"parameter_unitstyle" : 1
						}

					}
,
					"showname" : 0,
					"shownumber" : 0,
					"varname" : "live.dial[31]"
				}

			}
, 			{
				"box" : 				{
					"id" : "obj-57",
					"maxclass" : "comment",
					"numinlets" : 1,
					"numoutlets" : 0,
					"patching_rect" : [ 186.141474731266499, 252.0, 41.717050537467003, 20.0 ],
					"text" : "p env",
					"textjustification" : 1
				}

			}
, 			{
				"box" : 				{
					"focusbordercolor" : [ 0.631372549019608, 0.63921568627451, 0.662745098039216, 0.0 ],
					"id" : "obj-58",
					"maxclass" : "live.dial",
					"numinlets" : 1,
					"numoutlets" : 2,
					"outlettype" : [ "", "float" ],
					"parameter_enable" : 1,
					"patching_rect" : [ 193.141474731266499, 273.0, 27.0, 28.0 ],
					"saved_attribute_attributes" : 					{
						"focusbordercolor" : 						{
							"expression" : ""
						}
,
						"valueof" : 						{
							"parameter_initial" : [ 0.498897637795275 ],
							"parameter_initial_enable" : 1,
							"parameter_longname" : "live.dial[54]",
							"parameter_mmax" : 0.99,
							"parameter_modmax" : 1.0,
							"parameter_modmode" : 4,
							"parameter_shortname" : "live.dial",
							"parameter_type" : 0,
							"parameter_unitstyle" : 1
						}

					}
,
					"showname" : 0,
					"shownumber" : 0,
					"varname" : "live.dial[32]"
				}

			}
, 			{
				"box" : 				{
					"id" : "obj-18",
					"maxclass" : "message",
					"numinlets" : 2,
					"numoutlets" : 1,
					"outlettype" : [ "" ],
					"patching_rect" : [ 334.0, 437.0, 50.0, 22.0 ],
					"text" : "set $1"
				}

			}
, 			{
				"box" : 				{
					"id" : "obj-19",
					"maxclass" : "message",
					"numinlets" : 2,
					"numoutlets" : 1,
					"outlettype" : [ "" ],
					"patching_rect" : [ 149.0, 437.0, 50.0, 22.0 ],
					"text" : "set $1"
				}

			}
, 			{
				"box" : 				{
					"focusbordercolor" : [ 0.631372549019608, 0.63921568627451, 0.662745098039216, 0.0 ],
					"id" : "obj-16",
					"maxclass" : "live.tab",
					"num_lines_patching" : 2,
					"num_lines_presentation" : 0,
					"numinlets" : 1,
					"numoutlets" : 3,
					"outlettype" : [ "", "", "float" ],
					"parameter_enable" : 1,
					"patching_rect" : [ 334.0, 279.0, 24.5, 67.5 ],
					"saved_attribute_attributes" : 					{
						"focusbordercolor" : 						{
							"expression" : ""
						}
,
						"valueof" : 						{
							"parameter_enum" : [ "I", "II" ],
							"parameter_invisible" : 2,
							"parameter_longname" : "live.tab[6]",
							"parameter_mmax" : 1,
							"parameter_modmode" : 0,
							"parameter_shortname" : "live.tab[2]",
							"parameter_type" : 2,
							"parameter_unitstyle" : 9
						}

					}
,
					"varname" : "live.tab[2]"
				}

			}
, 			{
				"box" : 				{
					"focusbordercolor" : [ 0.631372549019608, 0.63921568627451, 0.662745098039216, 0.0 ],
					"id" : "obj-17",
					"maxclass" : "live.tab",
					"num_lines_patching" : 2,
					"num_lines_presentation" : 0,
					"numinlets" : 1,
					"numoutlets" : 3,
					"outlettype" : [ "", "", "float" ],
					"parameter_enable" : 1,
					"patching_rect" : [ 149.0, 279.0, 24.5, 67.5 ],
					"saved_attribute_attributes" : 					{
						"focusbordercolor" : 						{
							"expression" : ""
						}
,
						"valueof" : 						{
							"parameter_enum" : [ "I", "II" ],
							"parameter_invisible" : 2,
							"parameter_longname" : "live.tab[7]",
							"parameter_mmax" : 1,
							"parameter_modmode" : 0,
							"parameter_shortname" : "live.tab[2]",
							"parameter_type" : 2,
							"parameter_unitstyle" : 9
						}

					}
,
					"varname" : "live.tab[3]"
				}

			}
, 			{
				"box" : 				{
					"focusbordercolor" : [ 0.631372549019608, 0.63921568627451, 0.662745098039216, 0.0 ],
					"id" : "obj-102",
					"maxclass" : "live.dial",
					"numinlets" : 1,
					"numoutlets" : 2,
					"outlettype" : [ "", "float" ],
					"parameter_enable" : 1,
					"patching_rect" : [ 10.5, 213.0, 27.0, 37.0 ],
					"saved_attribute_attributes" : 					{
						"focusbordercolor" : 						{
							"expression" : ""
						}
,
						"valueof" : 						{
							"parameter_initial" : [ 1.0 ],
							"parameter_initial_enable" : 1,
							"parameter_longname" : "live.dial[45]",
							"parameter_mmax" : 16.0,
							"parameter_mmin" : 1.0,
							"parameter_modmax" : 1.0,
							"parameter_modmode" : 4,
							"parameter_shortname" : "live.dial",
							"parameter_type" : 1,
							"parameter_unitstyle" : 0
						}

					}
,
					"showname" : 0,
					"varname" : "live.dial[22]"
				}

			}
, 			{
				"box" : 				{
					"id" : "obj-86",
					"maxclass" : "comment",
					"numinlets" : 1,
					"numoutlets" : 0,
					"patching_rect" : [ 1.5, 191.0, 46.0, 20.0 ],
					"text" : "unison",
					"textjustification" : 1
				}

			}
, 			{
				"box" : 				{
					"id" : "obj-84",
					"maxclass" : "comment",
					"numinlets" : 1,
					"numoutlets" : 0,
					"patching_rect" : [ 103.5, 191.0, 46.0, 20.0 ],
					"text" : "blend",
					"textjustification" : 1
				}

			}
, 			{
				"box" : 				{
					"focusbordercolor" : [ 0.631372549019608, 0.63921568627451, 0.662745098039216, 0.0 ],
					"id" : "obj-85",
					"maxclass" : "live.dial",
					"numinlets" : 1,
					"numoutlets" : 2,
					"outlettype" : [ "", "float" ],
					"parameter_enable" : 1,
					"patching_rect" : [ 112.5, 211.0, 27.0, 28.0 ],
					"saved_attribute_attributes" : 					{
						"focusbordercolor" : 						{
							"expression" : ""
						}
,
						"valueof" : 						{
							"parameter_longname" : "live.dial[46]",
							"parameter_mmax" : 1.0,
							"parameter_modmax" : 1.0,
							"parameter_modmode" : 4,
							"parameter_shortname" : "live.dial",
							"parameter_type" : 0,
							"parameter_unitstyle" : 1
						}

					}
,
					"showname" : 0,
					"shownumber" : 0,
					"varname" : "live.dial[23]"
				}

			}
, 			{
				"box" : 				{
					"id" : "obj-63",
					"maxclass" : "comment",
					"numinlets" : 1,
					"numoutlets" : 0,
					"patching_rect" : [ 51.5, 191.0, 47.0, 20.0 ],
					"text" : "detune",
					"textjustification" : 1
				}

			}
, 			{
				"box" : 				{
					"focusbordercolor" : [ 0.631372549019608, 0.63921568627451, 0.662745098039216, 0.0 ],
					"id" : "obj-83",
					"maxclass" : "live.dial",
					"numinlets" : 1,
					"numoutlets" : 2,
					"outlettype" : [ "", "float" ],
					"parameter_enable" : 1,
					"patching_rect" : [ 60.5, 211.0, 27.0, 28.0 ],
					"saved_attribute_attributes" : 					{
						"focusbordercolor" : 						{
							"expression" : ""
						}
,
						"valueof" : 						{
							"parameter_longname" : "live.dial[47]",
							"parameter_mmax" : 1.0,
							"parameter_modmax" : 1.0,
							"parameter_modmode" : 4,
							"parameter_shortname" : "live.dial",
							"parameter_type" : 0,
							"parameter_unitstyle" : 1
						}

					}
,
					"showname" : 0,
					"shownumber" : 0,
					"varname" : "live.dial[25]"
				}

			}
, 			{
				"box" : 				{
					"id" : "obj-12",
					"maxclass" : "comment",
					"numinlets" : 1,
					"numoutlets" : 0,
					"patching_rect" : [ 54.141474731266499, 252.0, 39.050383850932121, 20.0 ],
					"text" : "dec",
					"textjustification" : 1
				}

			}
, 			{
				"box" : 				{
					"focusbordercolor" : [ 0.631372549019608, 0.63921568627451, 0.662745098039216, 0.0 ],
					"id" : "obj-13",
					"maxclass" : "live.dial",
					"numinlets" : 1,
					"numoutlets" : 2,
					"outlettype" : [ "", "float" ],
					"parameter_enable" : 1,
					"patching_rect" : [ 60.141474731266499, 272.0, 27.0, 28.0 ],
					"saved_attribute_attributes" : 					{
						"focusbordercolor" : 						{
							"expression" : ""
						}
,
						"valueof" : 						{
							"parameter_longname" : "live.dial[48]",
							"parameter_mmax" : 1.0,
							"parameter_modmax" : 1.0,
							"parameter_modmode" : 4,
							"parameter_shortname" : "live.dial",
							"parameter_type" : 0,
							"parameter_unitstyle" : 1
						}

					}
,
					"showname" : 0,
					"shownumber" : 0,
					"varname" : "live.dial[26]"
				}

			}
, 			{
				"box" : 				{
					"id" : "obj-14",
					"maxclass" : "comment",
					"numinlets" : 1,
					"numoutlets" : 0,
					"patching_rect" : [ 3.141474731266499, 252.0, 41.717050537467003, 20.0 ],
					"text" : "p env",
					"textjustification" : 1
				}

			}
, 			{
				"box" : 				{
					"focusbordercolor" : [ 0.631372549019608, 0.63921568627451, 0.662745098039216, 0.0 ],
					"id" : "obj-15",
					"maxclass" : "live.dial",
					"numinlets" : 1,
					"numoutlets" : 2,
					"outlettype" : [ "", "float" ],
					"parameter_enable" : 1,
					"patching_rect" : [ 10.141474731266499, 273.0, 27.0, 28.0 ],
					"saved_attribute_attributes" : 					{
						"focusbordercolor" : 						{
							"expression" : ""
						}
,
						"valueof" : 						{
							"parameter_initial" : [ 0.498897637795275 ],
							"parameter_initial_enable" : 1,
							"parameter_longname" : "live.dial[49]",
							"parameter_mmax" : 0.99,
							"parameter_modmax" : 1.0,
							"parameter_modmode" : 4,
							"parameter_shortname" : "live.dial",
							"parameter_type" : 0,
							"parameter_unitstyle" : 1
						}

					}
,
					"showname" : 0,
					"shownumber" : 0,
					"varname" : "live.dial[27]"
				}

			}
, 			{
				"box" : 				{
					"id" : "obj-11",
					"maxclass" : "message",
					"numinlets" : 2,
					"numoutlets" : 1,
					"outlettype" : [ "" ],
					"patching_rect" : [ 334.0, 373.0, 50.0, 22.0 ],
					"text" : "set $1"
				}

			}
, 			{
				"box" : 				{
					"id" : "obj-7",
					"maxclass" : "message",
					"numinlets" : 2,
					"numoutlets" : 1,
					"outlettype" : [ "" ],
					"patching_rect" : [ 149.0, 373.0, 50.0, 22.0 ],
					"text" : "set $1"
				}

			}
, 			{
				"box" : 				{
					"focusbordercolor" : [ 0.631372549019608, 0.63921568627451, 0.662745098039216, 0.0 ],
					"id" : "obj-5",
					"maxclass" : "live.tab",
					"num_lines_patching" : 2,
					"num_lines_presentation" : 0,
					"numinlets" : 1,
					"numoutlets" : 3,
					"outlettype" : [ "", "", "float" ],
					"parameter_enable" : 1,
					"patching_rect" : [ 334.0, 85.0, 24.5, 67.5 ],
					"saved_attribute_attributes" : 					{
						"focusbordercolor" : 						{
							"expression" : ""
						}
,
						"valueof" : 						{
							"parameter_enum" : [ "I", "II" ],
							"parameter_invisible" : 2,
							"parameter_longname" : "live.tab[5]",
							"parameter_mmax" : 1,
							"parameter_modmode" : 0,
							"parameter_shortname" : "live.tab[2]",
							"parameter_type" : 2,
							"parameter_unitstyle" : 9
						}

					}
,
					"varname" : "live.tab[1]"
				}

			}
, 			{
				"box" : 				{
					"focusbordercolor" : [ 0.631372549019608, 0.63921568627451, 0.662745098039216, 0.0 ],
					"id" : "obj-70",
					"maxclass" : "live.tab",
					"num_lines_patching" : 2,
					"num_lines_presentation" : 0,
					"numinlets" : 1,
					"numoutlets" : 3,
					"outlettype" : [ "", "", "float" ],
					"parameter_enable" : 1,
					"patching_rect" : [ 149.0, 85.0, 24.5, 67.5 ],
					"saved_attribute_attributes" : 					{
						"focusbordercolor" : 						{
							"expression" : ""
						}
,
						"valueof" : 						{
							"parameter_enum" : [ "I", "II" ],
							"parameter_invisible" : 2,
							"parameter_longname" : "live.tab[4]",
							"parameter_mmax" : 1,
							"parameter_modmode" : 0,
							"parameter_shortname" : "live.tab[2]",
							"parameter_type" : 2,
							"parameter_unitstyle" : 9
						}

					}
,
					"varname" : "live.tab"
				}

			}
, 			{
				"box" : 				{
					"comment" : "handleTab",
					"id" : "obj-4",
					"index" : 1,
					"maxclass" : "outlet",
					"numinlets" : 1,
					"numoutlets" : 0,
					"patching_rect" : [ 109.0, 564.0, 30.0, 30.0 ]
				}

			}
, 			{
				"box" : 				{
					"id" : "obj-3",
					"maxclass" : "newobj",
					"numinlets" : 1,
					"numoutlets" : 2,
					"outlettype" : [ "", "" ],
					"patching_rect" : [ 509.0, 289.0, 100.0, 22.0 ],
					"save" : [ "#N", "thispatcher", ";", "#Q", "end", ";" ],
					"text" : "thispatcher"
				}

			}
, 			{
				"box" : 				{
					"id" : "obj-48",
					"maxclass" : "comment",
					"numinlets" : 1,
					"numoutlets" : 0,
					"patching_rect" : [ 456.0, -1.0, 47.0, 20.0 ],
					"text" : "rand",
					"textjustification" : 1
				}

			}
, 			{
				"box" : 				{
					"focusbordercolor" : [ 0.631372549019608, 0.63921568627451, 0.662745098039216, 0.0 ],
					"id" : "obj-49",
					"maxclass" : "live.dial",
					"numinlets" : 1,
					"numoutlets" : 2,
					"outlettype" : [ "", "float" ],
					"parameter_enable" : 1,
					"patching_rect" : [ 466.0, 20.0, 27.0, 28.0 ],
					"saved_attribute_attributes" : 					{
						"focusbordercolor" : 						{
							"expression" : ""
						}
,
						"valueof" : 						{
							"parameter_longname" : "live.dial[28]",
							"parameter_mmax" : 1.0,
							"parameter_modmax" : 1.0,
							"parameter_modmode" : 4,
							"parameter_shortname" : "live.dial",
							"parameter_type" : 0,
							"parameter_unitstyle" : 1
						}

					}
,
					"showname" : 0,
					"shownumber" : 0,
					"varname" : "live.dial[21]"
				}

			}
, 			{
				"box" : 				{
					"focusbordercolor" : [ 0.631372549019608, 0.63921568627451, 0.662745098039216, 0.0 ],
					"id" : "obj-46",
					"maxclass" : "live.dial",
					"numinlets" : 1,
					"numoutlets" : 2,
					"outlettype" : [ "", "float" ],
					"parameter_enable" : 1,
					"patching_rect" : [ 466.0, 73.0, 27.0, 28.0 ],
					"saved_attribute_attributes" : 					{
						"focusbordercolor" : 						{
							"expression" : ""
						}
,
						"valueof" : 						{
							"parameter_longname" : "live.dial[35]",
							"parameter_mmax" : 1.0,
							"parameter_modmax" : 1.0,
							"parameter_modmode" : 4,
							"parameter_shortname" : "live.dial",
							"parameter_type" : 0,
							"parameter_unitstyle" : 1
						}

					}
,
					"showname" : 0,
					"shownumber" : 0,
					"varname" : "live.dial[19]"
				}

			}
, 			{
				"box" : 				{
					"id" : "obj-44",
					"maxclass" : "comment",
					"numinlets" : 1,
					"numoutlets" : 0,
					"patching_rect" : [ 456.0, 52.0, 47.0, 20.0 ],
					"text" : "fine",
					"textjustification" : 1
				}

			}
, 			{
				"box" : 				{
					"id" : "obj-39",
					"maxclass" : "comment",
					"numinlets" : 1,
					"numoutlets" : 0,
					"patching_rect" : [ 405.0, 52.0, 47.0, 20.0 ],
					"text" : "pitch",
					"textjustification" : 1
				}

			}
, 			{
				"box" : 				{
					"focusbordercolor" : [ 0.631372549019608, 0.63921568627451, 0.662745098039216, 0.0 ],
					"id" : "obj-40",
					"maxclass" : "live.dial",
					"numinlets" : 1,
					"numoutlets" : 2,
					"outlettype" : [ "", "float" ],
					"parameter_enable" : 1,
					"patching_rect" : [ 415.0, 73.0, 27.0, 28.0 ],
					"saved_attribute_attributes" : 					{
						"focusbordercolor" : 						{
							"expression" : ""
						}
,
						"valueof" : 						{
							"parameter_longname" : "live.dial[29]",
							"parameter_mmax" : 1.0,
							"parameter_modmax" : 1.0,
							"parameter_modmode" : 4,
							"parameter_shortname" : "live.dial",
							"parameter_type" : 0,
							"parameter_unitstyle" : 1
						}

					}
,
					"showname" : 0,
					"shownumber" : 0,
					"varname" : "live.dial[17]"
				}

			}
, 			{
				"box" : 				{
					"id" : "obj-42",
					"maxclass" : "comment",
					"numinlets" : 1,
					"numoutlets" : 0,
					"patching_rect" : [ 405.0, -1.0, 47.0, 20.0 ],
					"text" : "start",
					"textjustification" : 1
				}

			}
, 			{
				"box" : 				{
					"focusbordercolor" : [ 0.631372549019608, 0.63921568627451, 0.662745098039216, 0.0 ],
					"id" : "obj-43",
					"maxclass" : "live.dial",
					"numinlets" : 1,
					"numoutlets" : 2,
					"outlettype" : [ "", "float" ],
					"parameter_enable" : 1,
					"patching_rect" : [ 415.0, 20.0, 27.0, 28.0 ],
					"saved_attribute_attributes" : 					{
						"focusbordercolor" : 						{
							"expression" : ""
						}
,
						"valueof" : 						{
							"parameter_longname" : "live.dial[42]",
							"parameter_mmax" : 1.0,
							"parameter_modmax" : 1.0,
							"parameter_modmode" : 4,
							"parameter_shortname" : "live.dial",
							"parameter_type" : 0,
							"parameter_unitstyle" : 1
						}

					}
,
					"showname" : 0,
					"shownumber" : 0,
					"varname" : "live.dial[18]"
				}

			}
, 			{
				"box" : 				{
					"id" : "obj-21",
					"maxclass" : "comment",
					"numinlets" : 1,
					"numoutlets" : 0,
					"patching_rect" : [ 194.0, 105.0, 26.5, 20.0 ],
					"text" : "vel",
					"textjustification" : 1
				}

			}
, 			{
				"box" : 				{
					"focusbordercolor" : [ 0.631372549019608, 0.63921568627451, 0.662745098039216, 0.0 ],
					"id" : "obj-22",
					"maxclass" : "live.dial",
					"numinlets" : 1,
					"numoutlets" : 2,
					"outlettype" : [ "", "float" ],
					"parameter_enable" : 1,
					"patching_rect" : [ 194.0, 125.0, 27.0, 28.0 ],
					"saved_attribute_attributes" : 					{
						"focusbordercolor" : 						{
							"expression" : ""
						}
,
						"valueof" : 						{
							"parameter_initial" : [ 0.498897637795276 ],
							"parameter_initial_enable" : 1,
							"parameter_longname" : "live.dial[37]",
							"parameter_mmax" : 0.99,
							"parameter_modmax" : 0.99,
							"parameter_modmode" : 4,
							"parameter_shortname" : "live.dial",
							"parameter_type" : 0,
							"parameter_unitstyle" : 1
						}

					}
,
					"showname" : 0,
					"shownumber" : 0,
					"varname" : "live.dial[1]"
				}

			}
, 			{
				"box" : 				{
					"id" : "obj-23",
					"maxclass" : "comment",
					"numinlets" : 1,
					"numoutlets" : 0,
					"patching_rect" : [ 186.0, 52.0, 47.0, 20.0 ],
					"text" : "wt",
					"textjustification" : 1
				}

			}
, 			{
				"box" : 				{
					"focusbordercolor" : [ 0.631372549019608, 0.63921568627451, 0.662745098039216, 0.0 ],
					"id" : "obj-24",
					"maxclass" : "live.dial",
					"numinlets" : 1,
					"numoutlets" : 2,
					"outlettype" : [ "", "float" ],
					"parameter_enable" : 1,
					"patching_rect" : [ 196.0, 73.0, 27.0, 28.0 ],
					"saved_attribute_attributes" : 					{
						"focusbordercolor" : 						{
							"expression" : ""
						}
,
						"valueof" : 						{
							"parameter_longname" : "live.dial[23]",
							"parameter_mmax" : 1.0,
							"parameter_modmax" : 1.0,
							"parameter_modmode" : 4,
							"parameter_shortname" : "live.dial",
							"parameter_type" : 0,
							"parameter_unitstyle" : 1
						}

					}
,
					"showname" : 0,
					"shownumber" : 0,
					"varname" : "live.dial[2]"
				}

			}
, 			{
				"box" : 				{
					"id" : "obj-25",
					"maxclass" : "comment",
					"numinlets" : 1,
					"numoutlets" : 0,
					"patching_rect" : [ 297.0, 105.0, 25.0, 20.0 ],
					"text" : "vel",
					"textjustification" : 1
				}

			}
, 			{
				"box" : 				{
					"focusbordercolor" : [ 0.631372549019608, 0.63921568627451, 0.662745098039216, 0.0 ],
					"id" : "obj-26",
					"maxclass" : "live.dial",
					"numinlets" : 1,
					"numoutlets" : 2,
					"outlettype" : [ "", "float" ],
					"parameter_enable" : 1,
					"patching_rect" : [ 296.0, 125.0, 27.0, 28.0 ],
					"saved_attribute_attributes" : 					{
						"focusbordercolor" : 						{
							"expression" : ""
						}
,
						"valueof" : 						{
							"parameter_initial" : [ 0.498898 ],
							"parameter_initial_enable" : 1,
							"parameter_longname" : "live.dial[41]",
							"parameter_mmax" : 0.99,
							"parameter_modmax" : 0.99,
							"parameter_modmode" : 4,
							"parameter_shortname" : "live.dial",
							"parameter_type" : 0,
							"parameter_unitstyle" : 1
						}

					}
,
					"showname" : 0,
					"shownumber" : 0,
					"varname" : "live.dial[3]"
				}

			}
, 			{
				"box" : 				{
					"id" : "obj-27",
					"maxclass" : "comment",
					"numinlets" : 1,
					"numoutlets" : 0,
					"patching_rect" : [ 286.0, 52.0, 47.0, 20.0 ],
					"text" : "warp 2",
					"textjustification" : 1
				}

			}
, 			{
				"box" : 				{
					"focusbordercolor" : [ 0.631372549019608, 0.63921568627451, 0.662745098039216, 0.0 ],
					"id" : "obj-28",
					"maxclass" : "live.dial",
					"numinlets" : 1,
					"numoutlets" : 2,
					"outlettype" : [ "", "float" ],
					"parameter_enable" : 1,
					"patching_rect" : [ 296.0, 73.0, 27.0, 28.0 ],
					"saved_attribute_attributes" : 					{
						"focusbordercolor" : 						{
							"expression" : ""
						}
,
						"valueof" : 						{
							"parameter_longname" : "live.dial[40]",
							"parameter_mmax" : 1.0,
							"parameter_modmax" : 1.0,
							"parameter_modmode" : 4,
							"parameter_shortname" : "live.dial",
							"parameter_type" : 0,
							"parameter_unitstyle" : 1
						}

					}
,
					"showname" : 0,
					"shownumber" : 0,
					"varname" : "live.dial[4]"
				}

			}
, 			{
				"box" : 				{
					"id" : "obj-29",
					"maxclass" : "comment",
					"numinlets" : 1,
					"numoutlets" : 0,
					"patching_rect" : [ 245.0, 105.0, 26.5, 20.0 ],
					"text" : "vel",
					"textjustification" : 1
				}

			}
, 			{
				"box" : 				{
					"focusbordercolor" : [ 0.631372549019608, 0.63921568627451, 0.662745098039216, 0.0 ],
					"id" : "obj-30",
					"maxclass" : "live.dial",
					"numinlets" : 1,
					"numoutlets" : 2,
					"outlettype" : [ "", "float" ],
					"parameter_enable" : 1,
					"patching_rect" : [ 245.0, 125.0, 27.0, 28.0 ],
					"saved_attribute_attributes" : 					{
						"focusbordercolor" : 						{
							"expression" : ""
						}
,
						"valueof" : 						{
							"parameter_initial" : [ 0.498897637795276 ],
							"parameter_initial_enable" : 1,
							"parameter_longname" : "live.dial[33]",
							"parameter_mmax" : 0.99,
							"parameter_modmax" : 0.99,
							"parameter_modmode" : 4,
							"parameter_shortname" : "live.dial",
							"parameter_type" : 0,
							"parameter_unitstyle" : 1
						}

					}
,
					"showname" : 0,
					"shownumber" : 0,
					"varname" : "live.dial[5]"
				}

			}
, 			{
				"box" : 				{
					"id" : "obj-31",
					"maxclass" : "comment",
					"numinlets" : 1,
					"numoutlets" : 0,
					"patching_rect" : [ 235.0, 52.0, 47.0, 20.0 ],
					"text" : "warp 1",
					"textjustification" : 1
				}

			}
, 			{
				"box" : 				{
					"focusbordercolor" : [ 0.631372549019608, 0.63921568627451, 0.662745098039216, 0.0 ],
					"id" : "obj-32",
					"maxclass" : "live.dial",
					"numinlets" : 1,
					"numoutlets" : 2,
					"outlettype" : [ "", "float" ],
					"parameter_enable" : 1,
					"patching_rect" : [ 245.0, 73.0, 27.0, 28.0 ],
					"saved_attribute_attributes" : 					{
						"focusbordercolor" : 						{
							"expression" : ""
						}
,
						"valueof" : 						{
							"parameter_longname" : "live.dial[38]",
							"parameter_mmax" : 1.0,
							"parameter_modmax" : 1.0,
							"parameter_modmode" : 4,
							"parameter_shortname" : "live.dial",
							"parameter_type" : 0,
							"parameter_unitstyle" : 1
						}

					}
,
					"showname" : 0,
					"shownumber" : 0,
					"varname" : "live.dial[6]"
				}

			}
, 			{
				"box" : 				{
					"id" : "obj-33",
					"maxclass" : "comment",
					"numinlets" : 1,
					"numoutlets" : 0,
					"patching_rect" : [ 293.0, -1.0, 33.5, 20.0 ],
					"text" : "fine",
					"textjustification" : 1
				}

			}
, 			{
				"box" : 				{
					"focusbordercolor" : [ 0.631372549019608, 0.63921568627451, 0.662745098039216, 0.0 ],
					"id" : "obj-34",
					"maxclass" : "live.dial",
					"numinlets" : 1,
					"numoutlets" : 2,
					"outlettype" : [ "", "float" ],
					"parameter_enable" : 1,
					"patching_rect" : [ 296.0, 20.0, 27.0, 28.0 ],
					"saved_attribute_attributes" : 					{
						"focusbordercolor" : 						{
							"expression" : ""
						}
,
						"valueof" : 						{
							"parameter_initial" : [ 13.0 ],
							"parameter_initial_enable" : 1,
							"parameter_longname" : "live.dial[44]",
							"parameter_mmax" : 26.0,
							"parameter_modmode" : 4,
							"parameter_shortname" : "live.dial",
							"parameter_type" : 1,
							"parameter_unitstyle" : 0
						}

					}
,
					"showname" : 0,
					"shownumber" : 0,
					"varname" : "live.dial[7]"
				}

			}
, 			{
				"box" : 				{
					"id" : "obj-35",
					"maxclass" : "comment",
					"numinlets" : 1,
					"numoutlets" : 0,
					"patching_rect" : [ 240.0, -1.0, 37.0, 20.0 ],
					"text" : "semi",
					"textjustification" : 1
				}

			}
, 			{
				"box" : 				{
					"focusbordercolor" : [ 0.631372549019608, 0.63921568627451, 0.662745098039216, 0.0 ],
					"id" : "obj-36",
					"maxclass" : "live.dial",
					"numinlets" : 1,
					"numoutlets" : 2,
					"outlettype" : [ "", "float" ],
					"parameter_enable" : 1,
					"patching_rect" : [ 245.0, 20.0, 27.0, 28.0 ],
					"saved_attribute_attributes" : 					{
						"focusbordercolor" : 						{
							"expression" : ""
						}
,
						"valueof" : 						{
							"parameter_initial" : [ 13.0 ],
							"parameter_initial_enable" : 1,
							"parameter_longname" : "live.dial[24]",
							"parameter_mmax" : 26.0,
							"parameter_modmode" : 4,
							"parameter_shortname" : "live.dial",
							"parameter_type" : 1,
							"parameter_unitstyle" : 0
						}

					}
,
					"showname" : 0,
					"shownumber" : 0,
					"varname" : "live.dial[8]"
				}

			}
, 			{
				"box" : 				{
					"id" : "obj-37",
					"maxclass" : "comment",
					"numinlets" : 1,
					"numoutlets" : 0,
					"patching_rect" : [ 195.0, -1.0, 26.5, 20.0 ],
					"text" : "oct",
					"textjustification" : 1
				}

			}
, 			{
				"box" : 				{
					"focusbordercolor" : [ 0.631372549019608, 0.63921568627451, 0.662745098039216, 0.0 ],
					"id" : "obj-38",
					"maxclass" : "live.dial",
					"numinlets" : 1,
					"numoutlets" : 2,
					"outlettype" : [ "", "float" ],
					"parameter_enable" : 1,
					"patching_rect" : [ 194.0, 20.0, 27.0, 28.0 ],
					"saved_attribute_attributes" : 					{
						"focusbordercolor" : 						{
							"expression" : ""
						}
,
						"valueof" : 						{
							"parameter_longname" : "live.dial[36]",
							"parameter_mmax" : 8.0,
							"parameter_modmode" : 4,
							"parameter_shortname" : "live.dial",
							"parameter_type" : 1,
							"parameter_unitstyle" : 0
						}

					}
,
					"showname" : 0,
					"shownumber" : 0,
					"varname" : "live.dial[9]"
				}

			}
, 			{
				"box" : 				{
					"id" : "obj-103",
					"maxclass" : "comment",
					"numinlets" : 1,
					"numoutlets" : 0,
					"patching_rect" : [ 9.0, 105.0, 26.5, 20.0 ],
					"text" : "vel",
					"textjustification" : 1
				}

			}
, 			{
				"box" : 				{
					"focusbordercolor" : [ 0.631372549019608, 0.63921568627451, 0.662745098039216, 0.0 ],
					"id" : "obj-104",
					"maxclass" : "live.dial",
					"numinlets" : 1,
					"numoutlets" : 2,
					"outlettype" : [ "", "float" ],
					"parameter_enable" : 1,
					"patching_rect" : [ 9.0, 125.0, 27.0, 28.0 ],
					"saved_attribute_attributes" : 					{
						"focusbordercolor" : 						{
							"expression" : ""
						}
,
						"valueof" : 						{
							"parameter_initial" : [ 0.498897637795276 ],
							"parameter_initial_enable" : 1,
							"parameter_longname" : "live.dial[34]",
							"parameter_mmax" : 0.99,
							"parameter_modmax" : 0.99,
							"parameter_modmode" : 4,
							"parameter_shortname" : "live.dial",
							"parameter_type" : 0,
							"parameter_unitstyle" : 1
						}

					}
,
					"showname" : 0,
					"shownumber" : 0,
					"varname" : "live.dial[13]"
				}

			}
, 			{
				"box" : 				{
					"id" : "obj-99",
					"maxclass" : "comment",
					"numinlets" : 1,
					"numoutlets" : 0,
					"patching_rect" : [ 1.0, 52.0, 47.0, 20.0 ],
					"text" : "wt",
					"textjustification" : 1
				}

			}
, 			{
				"box" : 				{
					"focusbordercolor" : [ 0.631372549019608, 0.63921568627451, 0.662745098039216, 0.0 ],
					"id" : "obj-2",
					"maxclass" : "live.dial",
					"numinlets" : 1,
					"numoutlets" : 2,
					"outlettype" : [ "", "float" ],
					"parameter_enable" : 1,
					"patching_rect" : [ 11.0, 73.0, 27.0, 28.0 ],
					"saved_attribute_attributes" : 					{
						"focusbordercolor" : 						{
							"expression" : ""
						}
,
						"valueof" : 						{
							"parameter_longname" : "live.dial[32]",
							"parameter_mmax" : 1.0,
							"parameter_modmax" : 1.0,
							"parameter_modmode" : 4,
							"parameter_shortname" : "live.dial",
							"parameter_type" : 0,
							"parameter_unitstyle" : 1
						}

					}
,
					"showname" : 0,
					"shownumber" : 0,
					"varname" : "live.dial[12]"
				}

			}
, 			{
				"box" : 				{
					"id" : "obj-71",
					"maxclass" : "comment",
					"numinlets" : 1,
					"numoutlets" : 0,
					"patching_rect" : [ 112.0, 105.0, 25.0, 20.0 ],
					"text" : "vel",
					"textjustification" : 1
				}

			}
, 			{
				"box" : 				{
					"focusbordercolor" : [ 0.631372549019608, 0.63921568627451, 0.662745098039216, 0.0 ],
					"id" : "obj-72",
					"maxclass" : "live.dial",
					"numinlets" : 1,
					"numoutlets" : 2,
					"outlettype" : [ "", "float" ],
					"parameter_enable" : 1,
					"patching_rect" : [ 111.0, 125.0, 27.0, 28.0 ],
					"saved_attribute_attributes" : 					{
						"focusbordercolor" : 						{
							"expression" : ""
						}
,
						"valueof" : 						{
							"parameter_initial" : [ 0.498898 ],
							"parameter_initial_enable" : 1,
							"parameter_longname" : "live.dial[26]",
							"parameter_mmax" : 0.99,
							"parameter_modmax" : 0.99,
							"parameter_modmode" : 4,
							"parameter_shortname" : "live.dial",
							"parameter_type" : 0,
							"parameter_unitstyle" : 1
						}

					}
,
					"showname" : 0,
					"shownumber" : 0,
					"varname" : "live.dial[15]"
				}

			}
, 			{
				"box" : 				{
					"id" : "obj-73",
					"maxclass" : "comment",
					"numinlets" : 1,
					"numoutlets" : 0,
					"patching_rect" : [ 101.0, 52.0, 47.0, 20.0 ],
					"text" : "warp 2",
					"textjustification" : 1
				}

			}
, 			{
				"box" : 				{
					"focusbordercolor" : [ 0.631372549019608, 0.63921568627451, 0.662745098039216, 0.0 ],
					"id" : "obj-74",
					"maxclass" : "live.dial",
					"numinlets" : 1,
					"numoutlets" : 2,
					"outlettype" : [ "", "float" ],
					"parameter_enable" : 1,
					"patching_rect" : [ 111.0, 73.0, 27.0, 28.0 ],
					"saved_attribute_attributes" : 					{
						"focusbordercolor" : 						{
							"expression" : ""
						}
,
						"valueof" : 						{
							"parameter_longname" : "live.dial[27]",
							"parameter_mmax" : 1.0,
							"parameter_modmax" : 1.0,
							"parameter_modmode" : 4,
							"parameter_shortname" : "live.dial",
							"parameter_type" : 0,
							"parameter_unitstyle" : 1
						}

					}
,
					"showname" : 0,
					"shownumber" : 0,
					"varname" : "live.dial[16]"
				}

			}
, 			{
				"box" : 				{
					"id" : "obj-75",
					"maxclass" : "comment",
					"numinlets" : 1,
					"numoutlets" : 0,
					"patching_rect" : [ 60.0, 105.0, 26.5, 20.0 ],
					"text" : "vel",
					"textjustification" : 1
				}

			}
, 			{
				"box" : 				{
					"focusbordercolor" : [ 0.631372549019608, 0.63921568627451, 0.662745098039216, 0.0 ],
					"id" : "obj-76",
					"maxclass" : "live.dial",
					"numinlets" : 1,
					"numoutlets" : 2,
					"outlettype" : [ "", "float" ],
					"parameter_enable" : 1,
					"patching_rect" : [ 60.0, 125.0, 27.0, 28.0 ],
					"saved_attribute_attributes" : 					{
						"focusbordercolor" : 						{
							"expression" : ""
						}
,
						"valueof" : 						{
							"parameter_initial" : [ 0.498897637795276 ],
							"parameter_initial_enable" : 1,
							"parameter_longname" : "live.dial[39]",
							"parameter_mmax" : 0.99,
							"parameter_modmax" : 0.99,
							"parameter_modmode" : 4,
							"parameter_shortname" : "live.dial",
							"parameter_type" : 0,
							"parameter_unitstyle" : 1
						}

					}
,
					"showname" : 0,
					"shownumber" : 0,
					"varname" : "live.dial[20]"
				}

			}
, 			{
				"box" : 				{
					"id" : "obj-77",
					"maxclass" : "comment",
					"numinlets" : 1,
					"numoutlets" : 0,
					"patching_rect" : [ 50.0, 52.0, 47.0, 20.0 ],
					"text" : "warp 1",
					"textjustification" : 1
				}

			}
, 			{
				"box" : 				{
					"focusbordercolor" : [ 0.631372549019608, 0.63921568627451, 0.662745098039216, 0.0 ],
					"id" : "obj-78",
					"maxclass" : "live.dial",
					"numinlets" : 1,
					"numoutlets" : 2,
					"outlettype" : [ "", "float" ],
					"parameter_enable" : 1,
					"patching_rect" : [ 60.0, 73.0, 27.0, 28.0 ],
					"saved_attribute_attributes" : 					{
						"focusbordercolor" : 						{
							"expression" : ""
						}
,
						"valueof" : 						{
							"parameter_longname" : "live.dial[43]",
							"parameter_mmax" : 1.0,
							"parameter_modmax" : 1.0,
							"parameter_modmode" : 4,
							"parameter_shortname" : "live.dial",
							"parameter_type" : 0,
							"parameter_unitstyle" : 1
						}

					}
,
					"showname" : 0,
					"shownumber" : 0,
					"varname" : "live.dial[24]"
				}

			}
, 			{
				"box" : 				{
					"id" : "obj-67",
					"maxclass" : "comment",
					"numinlets" : 1,
					"numoutlets" : 0,
					"patching_rect" : [ 108.0, -1.0, 33.5, 20.0 ],
					"text" : "fine",
					"textjustification" : 1
				}

			}
, 			{
				"box" : 				{
					"focusbordercolor" : [ 0.631372549019608, 0.63921568627451, 0.662745098039216, 0.0 ],
					"id" : "obj-68",
					"maxclass" : "live.dial",
					"numinlets" : 1,
					"numoutlets" : 2,
					"outlettype" : [ "", "float" ],
					"parameter_enable" : 1,
					"patching_rect" : [ 111.0, 20.0, 27.0, 28.0 ],
					"saved_attribute_attributes" : 					{
						"focusbordercolor" : 						{
							"expression" : ""
						}
,
						"valueof" : 						{
							"parameter_initial" : [ 13.0 ],
							"parameter_initial_enable" : 1,
							"parameter_longname" : "live.dial[25]",
							"parameter_mmax" : 26.0,
							"parameter_modmode" : 4,
							"parameter_shortname" : "live.dial",
							"parameter_type" : 1,
							"parameter_unitstyle" : 0
						}

					}
,
					"showname" : 0,
					"shownumber" : 0,
					"varname" : "live.dial[14]"
				}

			}
, 			{
				"box" : 				{
					"id" : "obj-8",
					"maxclass" : "comment",
					"numinlets" : 1,
					"numoutlets" : 0,
					"patching_rect" : [ 55.0, -1.0, 37.0, 20.0 ],
					"text" : "semi",
					"textjustification" : 1
				}

			}
, 			{
				"box" : 				{
					"focusbordercolor" : [ 0.631372549019608, 0.63921568627451, 0.662745098039216, 0.0 ],
					"id" : "obj-41",
					"maxclass" : "live.dial",
					"numinlets" : 1,
					"numoutlets" : 2,
					"outlettype" : [ "", "float" ],
					"parameter_enable" : 1,
					"patching_rect" : [ 60.0, 20.0, 27.0, 28.0 ],
					"saved_attribute_attributes" : 					{
						"focusbordercolor" : 						{
							"expression" : ""
						}
,
						"valueof" : 						{
							"parameter_initial" : [ 13.0 ],
							"parameter_initial_enable" : 1,
							"parameter_longname" : "live.dial[19]",
							"parameter_mmax" : 26.0,
							"parameter_modmode" : 4,
							"parameter_shortname" : "live.dial",
							"parameter_type" : 1,
							"parameter_unitstyle" : 0
						}

					}
,
					"showname" : 0,
					"shownumber" : 0,
					"varname" : "live.dial[10]"
				}

			}
, 			{
				"box" : 				{
					"id" : "obj-45",
					"maxclass" : "comment",
					"numinlets" : 1,
					"numoutlets" : 0,
					"patching_rect" : [ 10.0, -1.0, 26.5, 20.0 ],
					"text" : "oct",
					"textjustification" : 1
				}

			}
, 			{
				"box" : 				{
					"focusbordercolor" : [ 0.631372549019608, 0.63921568627451, 0.662745098039216, 0.0 ],
					"id" : "obj-47",
					"maxclass" : "live.dial",
					"numinlets" : 1,
					"numoutlets" : 2,
					"outlettype" : [ "", "float" ],
					"parameter_enable" : 1,
					"patching_rect" : [ 9.0, 20.0, 27.0, 28.0 ],
					"saved_attribute_attributes" : 					{
						"focusbordercolor" : 						{
							"expression" : ""
						}
,
						"valueof" : 						{
							"parameter_longname" : "live.dial[20]",
							"parameter_mmax" : 8.0,
							"parameter_modmode" : 4,
							"parameter_shortname" : "live.dial",
							"parameter_type" : 1,
							"parameter_unitstyle" : 0
						}

					}
,
					"showname" : 0,
					"shownumber" : 0,
					"varname" : "live.dial[11]"
				}

			}
 ],
		"lines" : [ 			{
				"patchline" : 				{
					"destination" : [ "obj-16", 0 ],
					"hidden" : 1,
					"midpoints" : [ 343.5, 396.0, 321.0, 396.0, 321.0, 225.0, 343.5, 225.0 ],
					"order" : 0,
					"source" : [ "obj-11", 0 ]
				}

			}
, 			{
				"patchline" : 				{
					"destination" : [ "obj-17", 0 ],
					"hidden" : 1,
					"midpoints" : [ 343.5, 396.0, 210.0, 396.0, 210.0, 225.0, 158.5, 225.0 ],
					"order" : 1,
					"source" : [ "obj-11", 0 ]
				}

			}
, 			{
				"patchline" : 				{
					"destination" : [ "obj-70", 0 ],
					"hidden" : 1,
					"midpoints" : [ 343.5, 396.0, 210.0, 396.0, 210.0, 165.0, 174.0, 165.0, 174.0, 81.0, 158.5, 81.0 ],
					"order" : 2,
					"source" : [ "obj-11", 0 ]
				}

			}
, 			{
				"patchline" : 				{
					"destination" : [ "obj-18", 0 ],
					"hidden" : 1,
					"midpoints" : [ 343.5, 360.0, 321.0, 360.0, 321.0, 423.0, 343.5, 423.0 ],
					"order" : 0,
					"source" : [ "obj-16", 0 ]
				}

			}
, 			{
				"patchline" : 				{
					"destination" : [ "obj-4", 0 ],
					"hidden" : 1,
					"midpoints" : [ 343.5, 360.0, 118.5, 360.0 ],
					"order" : 1,
					"source" : [ "obj-16", 0 ]
				}

			}
, 			{
				"patchline" : 				{
					"destination" : [ "obj-19", 0 ],
					"hidden" : 1,
					"midpoints" : [ 158.5, 360.0, 135.0, 360.0, 135.0, 423.0, 158.5, 423.0 ],
					"order" : 0,
					"source" : [ "obj-17", 0 ]
				}

			}
, 			{
				"patchline" : 				{
					"destination" : [ "obj-4", 0 ],
					"hidden" : 1,
					"midpoints" : [ 158.5, 360.0, 118.5, 360.0 ],
					"order" : 1,
					"source" : [ "obj-17", 0 ]
				}

			}
, 			{
				"patchline" : 				{
					"destination" : [ "obj-17", 0 ],
					"hidden" : 1,
					"midpoints" : [ 343.5, 462.0, 210.0, 462.0, 210.0, 225.0, 158.5, 225.0 ],
					"order" : 1,
					"source" : [ "obj-18", 0 ]
				}

			}
, 			{
				"patchline" : 				{
					"destination" : [ "obj-5", 0 ],
					"hidden" : 1,
					"midpoints" : [ 343.5, 462.0, 321.0, 462.0, 321.0, 165.0, 369.0, 165.0, 369.0, 81.0, 343.5, 81.0 ],
					"order" : 0,
					"source" : [ "obj-18", 0 ]
				}

			}
, 			{
				"patchline" : 				{
					"destination" : [ "obj-70", 0 ],
					"hidden" : 1,
					"midpoints" : [ 343.5, 462.0, 210.0, 462.0, 210.0, 165.0, 174.0, 165.0, 174.0, 81.0, 158.5, 81.0 ],
					"order" : 2,
					"source" : [ "obj-18", 0 ]
				}

			}
, 			{
				"patchline" : 				{
					"destination" : [ "obj-16", 0 ],
					"hidden" : 1,
					"midpoints" : [ 158.5, 471.0, 321.0, 471.0, 321.0, 225.0, 343.5, 225.0 ],
					"order" : 0,
					"source" : [ "obj-19", 0 ]
				}

			}
, 			{
				"patchline" : 				{
					"destination" : [ "obj-5", 0 ],
					"hidden" : 1,
					"midpoints" : [ 158.5, 471.0, 321.0, 471.0, 321.0, 165.0, 369.0, 165.0, 369.0, 81.0, 343.5, 81.0 ],
					"order" : 1,
					"source" : [ "obj-19", 0 ]
				}

			}
, 			{
				"patchline" : 				{
					"destination" : [ "obj-70", 0 ],
					"hidden" : 1,
					"midpoints" : [ 158.5, 462.0, 135.0, 462.0, 135.0, 306.0, 183.0, 306.0, 183.0, 165.0, 174.0, 165.0, 174.0, 81.0, 158.5, 81.0 ],
					"order" : 2,
					"source" : [ "obj-19", 0 ]
				}

			}
, 			{
				"patchline" : 				{
					"destination" : [ "obj-11", 0 ],
					"hidden" : 1,
					"midpoints" : [ 343.5, 213.0, 321.0, 213.0, 321.0, 360.0, 343.5, 360.0 ],
					"order" : 0,
					"source" : [ "obj-5", 0 ]
				}

			}
, 			{
				"patchline" : 				{
					"destination" : [ "obj-4", 0 ],
					"hidden" : 1,
					"midpoints" : [ 343.5, 213.0, 369.0, 213.0, 369.0, 360.0, 118.5, 360.0 ],
					"order" : 1,
					"source" : [ "obj-5", 0 ]
				}

			}
, 			{
				"patchline" : 				{
					"destination" : [ "obj-3", 0 ],
					"source" : [ "obj-59", 0 ]
				}

			}
, 			{
				"patchline" : 				{
					"destination" : [ "obj-16", 0 ],
					"hidden" : 1,
					"midpoints" : [ 158.5, 405.0, 321.0, 405.0, 321.0, 225.0, 343.5, 225.0 ],
					"order" : 0,
					"source" : [ "obj-7", 0 ]
				}

			}
, 			{
				"patchline" : 				{
					"destination" : [ "obj-17", 0 ],
					"hidden" : 1,
					"midpoints" : [ 158.5, 396.0, 135.0, 396.0, 135.0, 240.0, 144.0, 240.0, 144.0, 225.0, 158.5, 225.0 ],
					"order" : 2,
					"source" : [ "obj-7", 0 ]
				}

			}
, 			{
				"patchline" : 				{
					"destination" : [ "obj-5", 0 ],
					"hidden" : 1,
					"midpoints" : [ 158.5, 405.0, 321.0, 405.0, 321.0, 165.0, 369.0, 165.0, 369.0, 81.0, 343.5, 81.0 ],
					"order" : 1,
					"source" : [ "obj-7", 0 ]
				}

			}
, 			{
				"patchline" : 				{
					"destination" : [ "obj-4", 0 ],
					"hidden" : 1,
					"midpoints" : [ 158.5, 177.0, 147.0, 177.0, 147.0, 225.0, 138.0, 225.0, 138.0, 249.0, 118.5, 249.0 ],
					"order" : 1,
					"source" : [ "obj-70", 0 ]
				}

			}
, 			{
				"patchline" : 				{
					"destination" : [ "obj-7", 0 ],
					"hidden" : 1,
					"midpoints" : [ 158.5, 213.0, 183.0, 213.0, 183.0, 360.0, 158.5, 360.0 ],
					"order" : 0,
					"source" : [ "obj-70", 0 ]
				}

			}
 ]
	}

}
