{
	"patcher" : 	{
		"fileversion" : 1,
		"appversion" : 		{
			"major" : 9,
			"minor" : 0,
			"revision" : 9,
			"architecture" : "x64",
			"modernui" : 1
		}
,
		"classnamespace" : "box",
		"rect" : [ 34.0, 96.0, 796.0, 987.0 ],
		"gridsize" : [ 15.0, 15.0 ],
		"boxes" : [ 			{
				"box" : 				{
					"focusbordercolor" : [ 0.631372549019608, 0.63921568627451, 0.662745098039216, 0.0 ],
					"id" : "obj-106",
					"maxclass" : "live.button",
					"numinlets" : 1,
					"numoutlets" : 1,
					"outlettype" : [ "" ],
					"parameter_enable" : 1,
					"patching_rect" : [ 67.506410866975784, 147.75086373090744, 11.987178266048431, 11.025641039013863 ],
					"saved_attribute_attributes" : 					{
						"focusbordercolor" : 						{
							"expression" : ""
						}
,
						"valueof" : 						{
							"parameter_enum" : [ "off", "on" ],
							"parameter_invisible" : 2,
							"parameter_longname" : "a_ampVel[3]",
							"parameter_mmax" : 1,
							"parameter_modmode" : 0,
							"parameter_shortname" : "a_ampVel",
							"parameter_type" : 2
						}

					}
,
					"varname" : "live.button[1]"
				}

			}
, 			{
				"box" : 				{
					"id" : "obj-153",
					"maxclass" : "message",
					"numinlets" : 2,
					"numoutlets" : 1,
					"outlettype" : [ "" ],
					"patching_rect" : [ 752.92552661895752, 54.808511584997177, 50.0, 22.0 ],
					"text" : "100"
				}

			}
, 			{
				"box" : 				{
					"focusbordercolor" : [ 0.631372549019608, 0.63921568627451, 0.662745098039216, 0.0 ],
					"id" : "obj-119",
					"maxclass" : "live.button",
					"numinlets" : 1,
					"numoutlets" : 1,
					"outlettype" : [ "" ],
					"parameter_enable" : 1,
					"patching_rect" : [ 442.777798891067505, 146.66667366027832, 11.987178266048431, 11.025641039013863 ],
					"saved_attribute_attributes" : 					{
						"focusbordercolor" : 						{
							"expression" : ""
						}
,
						"valueof" : 						{
							"parameter_enum" : [ "off", "on" ],
							"parameter_invisible" : 2,
							"parameter_longname" : "a_ampVel[17]",
							"parameter_mmax" : 1,
							"parameter_modmode" : 0,
							"parameter_shortname" : "a_ampVel",
							"parameter_type" : 2
						}

					}
,
					"varname" : "live.button[19]"
				}

			}
, 			{
				"box" : 				{
					"bgcolor" : [ 0.094117647058824, 0.098039215686275, 0.117647058823529, 0.0 ],
					"id" : "obj-150",
					"maxclass" : "dial",
					"min" : -100.0,
					"mode" : 5,
					"needlecolor" : [ 0.4, 0.92156862745098, 1.0, 1.0 ],
					"numinlets" : 1,
					"numoutlets" : 1,
					"outlettype" : [ "float" ],
					"outlinecolor" : [ 0.066666666666667, 0.070588235294118, 0.07843137254902, 1.0 ],
					"parameter_enable" : 1,
					"patching_rect" : [ 432.222242832183838, 122.222228050231934, 33.617021977901459, 33.617021977901459 ],
					"saved_attribute_attributes" : 					{
						"valueof" : 						{
							"parameter_initial" : [ 0 ],
							"parameter_initial_enable" : 1,
							"parameter_longname" : "n_ampDecCrv",
							"parameter_mmax" : 100.0,
							"parameter_mmin" : -100.0,
							"parameter_modmax" : 100.0,
							"parameter_modmin" : -100.0,
							"parameter_modmode" : 4,
							"parameter_shortname" : "n_ampDecCrv",
							"parameter_type" : 1,
							"parameter_unitstyle" : 0
						}

					}
,
					"size" : 201.0,
					"thickness" : 60.0,
					"varname" : "dial[20]"
				}

			}
, 			{
				"box" : 				{
					"id" : "obj-114",
					"maxclass" : "message",
					"numinlets" : 2,
					"numoutlets" : 1,
					"outlettype" : [ "" ],
					"patching_rect" : [ 252.256410866975784, 362.962968587875366, 50.0, 22.0 ],
					"text" : "100"
				}

			}
, 			{
				"box" : 				{
					"focusbordercolor" : [ 0.631372549019608, 0.63921568627451, 0.662745098039216, 0.0 ],
					"id" : "obj-111",
					"maxclass" : "live.button",
					"numinlets" : 1,
					"numoutlets" : 1,
					"outlettype" : [ "" ],
					"parameter_enable" : 1,
					"patching_rect" : [ 120.273499757051468, 282.530113726854324, 11.987178266048431, 11.025641039013863 ],
					"saved_attribute_attributes" : 					{
						"focusbordercolor" : 						{
							"expression" : ""
						}
,
						"valueof" : 						{
							"parameter_enum" : [ "off", "on" ],
							"parameter_invisible" : 2,
							"parameter_longname" : "a_ampVel[16]",
							"parameter_mmax" : 1,
							"parameter_modmode" : 0,
							"parameter_shortname" : "a_ampVel",
							"parameter_type" : 2
						}

					}
,
					"varname" : "live.button[18]"
				}

			}
, 			{
				"box" : 				{
					"bgcolor" : [ 0.094117647058824, 0.098039215686275, 0.117647058823529, 0.0 ],
					"id" : "obj-112",
					"maxclass" : "dial",
					"min" : -100.0,
					"mode" : 5,
					"needlecolor" : [ 0.4, 0.92156862745098, 1.0, 1.0 ],
					"numinlets" : 1,
					"numoutlets" : 1,
					"outlettype" : [ "float" ],
					"outlinecolor" : [ 0.066666666666667, 0.070588235294118, 0.07843137254902, 1.0 ],
					"parameter_enable" : 1,
					"patching_rect" : [ 109.691489011049271, 258.191489011049271, 33.617021977901459, 33.617021977901459 ],
					"saved_attribute_attributes" : 					{
						"valueof" : 						{
							"parameter_initial" : [ 0 ],
							"parameter_initial_enable" : 1,
							"parameter_longname" : "b_pitchCrv",
							"parameter_mmax" : 100.0,
							"parameter_mmin" : -100.0,
							"parameter_modmax" : 100.0,
							"parameter_modmin" : -100.0,
							"parameter_modmode" : 4,
							"parameter_shortname" : "b_pitchCrv",
							"parameter_type" : 1,
							"parameter_unitstyle" : 0
						}

					}
,
					"size" : 201.0,
					"thickness" : 60.0,
					"varname" : "dial[19]"
				}

			}
, 			{
				"box" : 				{
					"id" : "obj-49",
					"maxclass" : "message",
					"numinlets" : 2,
					"numoutlets" : 1,
					"outlettype" : [ "" ],
					"patching_rect" : [ 62.000001847743988, 587.333350837230682, 50.0, 22.0 ],
					"text" : "255"
				}

			}
, 			{
				"box" : 				{
					"focusbordercolor" : [ 0.631372549019608, 0.63921568627451, 0.662745098039216, 0.0 ],
					"id" : "obj-24",
					"maxclass" : "live.button",
					"numinlets" : 1,
					"numoutlets" : 1,
					"outlettype" : [ "" ],
					"parameter_enable" : 1,
					"patching_rect" : [ 67.191489309072495, 282.191489726305008, 11.987178266048431, 11.025641039013863 ],
					"saved_attribute_attributes" : 					{
						"focusbordercolor" : 						{
							"expression" : ""
						}
,
						"valueof" : 						{
							"parameter_enum" : [ "off", "on" ],
							"parameter_invisible" : 2,
							"parameter_longname" : "live.button[23]",
							"parameter_mmax" : 1,
							"parameter_modmode" : 0,
							"parameter_shortname" : "live.button",
							"parameter_type" : 2
						}

					}
,
					"varname" : "live.button[17]"
				}

			}
, 			{
				"box" : 				{
					"bgcolor" : [ 0.094117647058824, 0.098039215686275, 0.117647058823529, 0.0 ],
					"id" : "obj-46",
					"maxclass" : "dial",
					"mode" : 5,
					"needlecolor" : [ 0.4, 0.92156862745098, 1.0, 1.0 ],
					"numinlets" : 1,
					"numoutlets" : 1,
					"outlettype" : [ "float" ],
					"outlinecolor" : [ 0.066666666666667, 0.070588235294118, 0.07843137254902, 1.0 ],
					"parameter_enable" : 1,
					"patching_rect" : [ 57.191489011049271, 258.191489011049271, 33.617021977901459, 33.617021977901459 ],
					"saved_attribute_attributes" : 					{
						"valueof" : 						{
							"parameter_initial" : [ 0 ],
							"parameter_initial_enable" : 1,
							"parameter_longname" : "b_pitchEnvDec",
							"parameter_mmax" : 510.0,
							"parameter_modmax" : 510.0,
							"parameter_modmode" : 4,
							"parameter_shortname" : "b_pitchEnvDec",
							"parameter_type" : 0,
							"parameter_unitstyle" : 0
						}

					}
,
					"size" : 511.0,
					"thickness" : 60.0,
					"varname" : "dial[18]"
				}

			}
, 			{
				"box" : 				{
					"bgcolor" : [ 0.094117647058824, 0.098039215686275, 0.117647058823529, 0.0 ],
					"id" : "obj-51",
					"maxclass" : "dial",
					"mode" : 5,
					"needlecolor" : [ 0.4, 0.92156862745098, 1.0, 1.0 ],
					"numinlets" : 1,
					"numoutlets" : 1,
					"outlettype" : [ "float" ],
					"outlinecolor" : [ 0.066666666666667, 0.070588235294118, 0.07843137254902, 1.0 ],
					"parameter_enable" : 1,
					"patching_rect" : [ 192.691489011049271, 70.191489011049271, 33.617021977901459, 33.617021977901459 ],
					"saved_attribute_attributes" : 					{
						"valueof" : 						{
							"parameter_initial" : [ 0 ],
							"parameter_initial_enable" : 1,
							"parameter_longname" : "c_wt",
							"parameter_mmax" : 255.0,
							"parameter_modmax" : 255.0,
							"parameter_modmode" : 4,
							"parameter_shortname" : "c_wt",
							"parameter_type" : 1,
							"parameter_unitstyle" : 0
						}

					}
,
					"size" : 256.0,
					"thickness" : 60.0,
					"varname" : "dial[17]"
				}

			}
, 			{
				"box" : 				{
					"id" : "obj-179",
					"maxclass" : "message",
					"numinlets" : 2,
					"numoutlets" : 1,
					"outlettype" : [ "" ],
					"patching_rect" : [ 592.333350986242294, 161.000004798173904, 29.5, 22.0 ],
					"text" : "100"
				}

			}
, 			{
				"box" : 				{
					"focusbordercolor" : [ 0.631372549019608, 0.63921568627451, 0.662745098039216, 0.0 ],
					"id" : "obj-178",
					"maxclass" : "live.button",
					"numinlets" : 1,
					"numoutlets" : 1,
					"outlettype" : [ "" ],
					"parameter_enable" : 1,
					"patching_rect" : [ 483.888911962509155, 146.66667366027832, 11.987178266048431, 11.025641039013863 ],
					"saved_attribute_attributes" : 					{
						"focusbordercolor" : 						{
							"expression" : ""
						}
,
						"valueof" : 						{
							"parameter_enum" : [ "off", "on" ],
							"parameter_invisible" : 2,
							"parameter_longname" : "a_ampVel[15]",
							"parameter_mmax" : 1,
							"parameter_modmode" : 0,
							"parameter_shortname" : "a_ampVel",
							"parameter_type" : 2
						}

					}
,
					"varname" : "live.button[16]"
				}

			}
, 			{
				"box" : 				{
					"bgcolor" : [ 0.094117647058824, 0.098039215686275, 0.117647058823529, 0.0 ],
					"id" : "obj-127",
					"maxclass" : "dial",
					"min" : -100.0,
					"mode" : 5,
					"needlecolor" : [ 0.4, 0.92156862745098, 1.0, 1.0 ],
					"numinlets" : 1,
					"numoutlets" : 1,
					"outlettype" : [ "float" ],
					"outlinecolor" : [ 0.066666666666667, 0.070588235294118, 0.07843137254902, 1.0 ],
					"parameter_enable" : 1,
					"patching_rect" : [ 472.777800321578979, 122.222228050231934, 33.617021977901459, 33.617021977901459 ],
					"saved_attribute_attributes" : 					{
						"valueof" : 						{
							"parameter_initial" : [ 0 ],
							"parameter_initial_enable" : 1,
							"parameter_longname" : "n_ampDecVel",
							"parameter_mmax" : 100.0,
							"parameter_mmin" : -100.0,
							"parameter_modmax" : 100.0,
							"parameter_modmin" : -100.0,
							"parameter_modmode" : 4,
							"parameter_shortname" : "n_ampDecVel",
							"parameter_type" : 1,
							"parameter_unitstyle" : 0
						}

					}
,
					"size" : 201.0,
					"thickness" : 60.0,
					"varname" : "dial[15]"
				}

			}
, 			{
				"box" : 				{
					"focusbordercolor" : [ 0.631372549019608, 0.63921568627451, 0.662745098039216, 0.0 ],
					"id" : "obj-121",
					"maxclass" : "live.button",
					"numinlets" : 1,
					"numoutlets" : 1,
					"outlettype" : [ "" ],
					"parameter_enable" : 1,
					"patching_rect" : [ 402.48160719871521, 146.66667366027832, 11.987178266048431, 11.025641039013863 ],
					"saved_attribute_attributes" : 					{
						"focusbordercolor" : 						{
							"expression" : ""
						}
,
						"valueof" : 						{
							"parameter_enum" : [ "0.", "127." ],
							"parameter_initial" : [ 63.0 ],
							"parameter_invisible" : 2,
							"parameter_longname" : "n_ampDec[1]",
							"parameter_mmax" : 1,
							"parameter_modmode" : 0,
							"parameter_shortname" : "a_ampVel",
							"parameter_type" : 2
						}

					}
,
					"varname" : "live.button[14]"
				}

			}
, 			{
				"box" : 				{
					"id" : "obj-91",
					"maxclass" : "message",
					"numinlets" : 2,
					"numoutlets" : 1,
					"outlettype" : [ "" ],
					"patching_rect" : [ 459.121828645467758, 201.5, 50.0, 22.0 ],
					"text" : "256"
				}

			}
, 			{
				"box" : 				{
					"bgcolor" : [ 0.094117647058824, 0.098039215686275, 0.117647058823529, 0.0 ],
					"id" : "obj-76",
					"maxclass" : "dial",
					"mode" : 5,
					"needlecolor" : [ 0.4, 0.92156862745098, 1.0, 1.0 ],
					"numinlets" : 1,
					"numoutlets" : 1,
					"outlettype" : [ "float" ],
					"outlinecolor" : [ 0.066666666666667, 0.070588235294118, 0.07843137254902, 1.0 ],
					"parameter_enable" : 1,
					"patching_rect" : [ 391.666685342788696, 122.222228050231934, 33.617021977901459, 33.617021977901459 ],
					"saved_attribute_attributes" : 					{
						"valueof" : 						{
							"parameter_initial" : [ 0 ],
							"parameter_initial_enable" : 1,
							"parameter_longname" : "n_ampDec",
							"parameter_mmax" : 510.0,
							"parameter_modmax" : 510.0,
							"parameter_modmode" : 4,
							"parameter_shortname" : "n_ampDec",
							"parameter_type" : 0,
							"parameter_unitstyle" : 0
						}

					}
,
					"size" : 511.0,
					"thickness" : 60.0,
					"varname" : "dial[14]"
				}

			}
, 			{
				"box" : 				{
					"id" : "obj-72",
					"maxclass" : "message",
					"numinlets" : 2,
					"numoutlets" : 1,
					"outlettype" : [ "" ],
					"patching_rect" : [ 379.930792450904846, 198.269894421100616, 29.5, 22.0 ],
					"text" : "0"
				}

			}
, 			{
				"box" : 				{
					"focusbordercolor" : [ 0.631372549019608, 0.63921568627451, 0.662745098039216, 0.0 ],
					"id" : "obj-55",
					"maxclass" : "live.button",
					"numinlets" : 1,
					"numoutlets" : 1,
					"outlettype" : [ "" ],
					"parameter_enable" : 1,
					"patching_rect" : [ 402.81493353843689, 91.25, 11.987178266048431, 11.025641039013863 ],
					"saved_attribute_attributes" : 					{
						"focusbordercolor" : 						{
							"expression" : ""
						}
,
						"valueof" : 						{
							"parameter_enum" : [ "0.", "127." ],
							"parameter_invisible" : 2,
							"parameter_longname" : "n_ampAtk",
							"parameter_mmax" : 1,
							"parameter_modmode" : 0,
							"parameter_shortname" : "a_ampVel",
							"parameter_type" : 2
						}

					}
,
					"varname" : "live.button[13]"
				}

			}
, 			{
				"box" : 				{
					"bgcolor" : [ 0.094117647058824, 0.098039215686275, 0.117647058823529, 0.0 ],
					"id" : "obj-40",
					"maxclass" : "dial",
					"mode" : 5,
					"needlecolor" : [ 0.4, 0.92156862745098, 1.0, 1.0 ],
					"numinlets" : 1,
					"numoutlets" : 1,
					"outlettype" : [ "float" ],
					"outlinecolor" : [ 0.066666666666667, 0.070588235294118, 0.07843137254902, 1.0 ],
					"parameter_enable" : 1,
					"patching_rect" : [ 392.000011682510376, 63.333335220813751, 33.617021977901459, 33.617021977901459 ],
					"saved_attribute_attributes" : 					{
						"valueof" : 						{
							"parameter_initial" : [ 0 ],
							"parameter_longname" : "n_ampAtk_",
							"parameter_mmax" : 510.0,
							"parameter_modmax" : 510.0,
							"parameter_modmode" : 4,
							"parameter_shortname" : "n_ampAtk",
							"parameter_type" : 0,
							"parameter_unitstyle" : 0
						}

					}
,
					"size" : 511.0,
					"thickness" : 60.0,
					"varname" : "dial[13]"
				}

			}
, 			{
				"box" : 				{
					"id" : "obj-30",
					"maxclass" : "message",
					"numinlets" : 2,
					"numoutlets" : 1,
					"outlettype" : [ "" ],
					"patching_rect" : [ 553.469406723976135, 194.285720944404602, 29.5, 22.0 ],
					"text" : "100"
				}

			}
, 			{
				"box" : 				{
					"focusbordercolor" : [ 0.631372549019608, 0.63921568627451, 0.662745098039216, 0.0 ],
					"id" : "obj-26",
					"maxclass" : "live.button",
					"numinlets" : 1,
					"numoutlets" : 1,
					"outlettype" : [ "" ],
					"parameter_enable" : 1,
					"patching_rect" : [ 460.66668039560318, 42.00000125169754, 11.987178266048431, 11.025641039013863 ],
					"saved_attribute_attributes" : 					{
						"focusbordercolor" : 						{
							"expression" : ""
						}
,
						"valueof" : 						{
							"parameter_enum" : [ "off", "on" ],
							"parameter_invisible" : 2,
							"parameter_longname" : "a_ampVel[11]",
							"parameter_mmax" : 1,
							"parameter_modmode" : 0,
							"parameter_shortname" : "a_ampVel",
							"parameter_type" : 2
						}

					}
,
					"varname" : "live.button[12]"
				}

			}
, 			{
				"box" : 				{
					"bgcolor" : [ 0.094117647058824, 0.098039215686275, 0.117647058823529, 0.0 ],
					"id" : "obj-22",
					"maxclass" : "dial",
					"min" : -100.0,
					"mode" : 5,
					"needlecolor" : [ 0.4, 0.92156862745098, 1.0, 1.0 ],
					"numinlets" : 1,
					"numoutlets" : 1,
					"outlettype" : [ "float" ],
					"outlinecolor" : [ 0.066666666666667, 0.070588235294118, 0.07843137254902, 1.0 ],
					"parameter_enable" : 1,
					"patching_rect" : [ 450.000013411045074, 17.333333849906921, 33.617021977901459, 33.617021977901459 ],
					"saved_attribute_attributes" : 					{
						"valueof" : 						{
							"parameter_initial" : [ 0 ],
							"parameter_initial_enable" : 1,
							"parameter_longname" : "n_pitch",
							"parameter_mmax" : 100.0,
							"parameter_mmin" : -100.0,
							"parameter_modmax" : 100.0,
							"parameter_modmin" : -100.0,
							"parameter_modmode" : 4,
							"parameter_shortname" : "n_pitch",
							"parameter_type" : 1,
							"parameter_unitstyle" : 0
						}

					}
,
					"size" : 201.0,
					"thickness" : 60.0,
					"varname" : "dial[12]"
				}

			}
, 			{
				"box" : 				{
					"id" : "obj-16",
					"maxclass" : "message",
					"numinlets" : 2,
					"numoutlets" : 1,
					"outlettype" : [ "" ],
					"patching_rect" : [ 670.000019967556, 54.808511584997177, 50.0, 22.0 ],
					"text" : "100"
				}

			}
, 			{
				"box" : 				{
					"focusbordercolor" : [ 0.631372549019608, 0.63921568627451, 0.662745098039216, 0.0 ],
					"id" : "obj-15",
					"maxclass" : "live.button",
					"numinlets" : 1,
					"numoutlets" : 1,
					"outlettype" : [ "" ],
					"parameter_enable" : 1,
					"patching_rect" : [ 520.814937055110931, 91.25, 11.987178266048431, 11.025641039013863 ],
					"saved_attribute_attributes" : 					{
						"focusbordercolor" : 						{
							"expression" : ""
						}
,
						"valueof" : 						{
							"parameter_enum" : [ "off", "on" ],
							"parameter_invisible" : 2,
							"parameter_longname" : "a_ampVel[10]",
							"parameter_mmax" : 1,
							"parameter_modmode" : 0,
							"parameter_shortname" : "a_ampVel",
							"parameter_type" : 2
						}

					}
,
					"varname" : "live.button[11]"
				}

			}
, 			{
				"box" : 				{
					"bgcolor" : [ 0.094117647058824, 0.098039215686275, 0.117647058823529, 0.0 ],
					"id" : "obj-2",
					"maxclass" : "dial",
					"min" : -100.0,
					"mode" : 5,
					"needlecolor" : [ 0.4, 0.92156862745098, 1.0, 1.0 ],
					"numinlets" : 1,
					"numoutlets" : 1,
					"outlettype" : [ "float" ],
					"outlinecolor" : [ 0.066666666666667, 0.070588235294118, 0.07843137254902, 1.0 ],
					"parameter_enable" : 1,
					"patching_rect" : [ 510.000015199184418, 63.333335220813751, 33.617021977901459, 33.617021977901459 ],
					"saved_attribute_attributes" : 					{
						"valueof" : 						{
							"parameter_initial" : [ 0 ],
							"parameter_initial_enable" : 1,
							"parameter_longname" : "n_ampAtkVel",
							"parameter_mmax" : 100.0,
							"parameter_mmin" : -100.0,
							"parameter_modmax" : 100.0,
							"parameter_modmin" : -100.0,
							"parameter_modmode" : 4,
							"parameter_shortname" : "n_ampAtkVel",
							"parameter_type" : 1,
							"parameter_unitstyle" : 0
						}

					}
,
					"size" : 201.0,
					"thickness" : 60.0,
					"varname" : "dial[11]"
				}

			}
, 			{
				"box" : 				{
					"id" : "obj-176",
					"maxclass" : "message",
					"numinlets" : 2,
					"numoutlets" : 1,
					"outlettype" : [ "" ],
					"patching_rect" : [ 324.800004839897156, 294.80000439286232, 50.0, 22.0 ],
					"text" : "100"
				}

			}
, 			{
				"box" : 				{
					"focusbordercolor" : [ 0.631372549019608, 0.63921568627451, 0.662745098039216, 0.0 ],
					"id" : "obj-172",
					"maxclass" : "live.button",
					"numinlets" : 1,
					"numoutlets" : 1,
					"outlettype" : [ "" ],
					"parameter_enable" : 1,
					"patching_rect" : [ 17.498254209756851, 282.191489726305008, 11.987178266048431, 11.025641039013863 ],
					"saved_attribute_attributes" : 					{
						"focusbordercolor" : 						{
							"expression" : ""
						}
,
						"valueof" : 						{
							"parameter_enum" : [ "off", "on" ],
							"parameter_invisible" : 2,
							"parameter_longname" : "a_ampVel[9]",
							"parameter_mmax" : 1,
							"parameter_modmode" : 0,
							"parameter_shortname" : "a_ampVel",
							"parameter_type" : 2
						}

					}
,
					"varname" : "live.button[10]"
				}

			}
, 			{
				"box" : 				{
					"bgcolor" : [ 0.094117647058824, 0.098039215686275, 0.117647058823529, 0.0 ],
					"id" : "obj-173",
					"maxclass" : "dial",
					"min" : -100.0,
					"mode" : 5,
					"needlecolor" : [ 0.4, 0.92156862745098, 1.0, 1.0 ],
					"numinlets" : 1,
					"numoutlets" : 1,
					"outlettype" : [ "float" ],
					"outlinecolor" : [ 0.066666666666667, 0.070588235294118, 0.07843137254902, 1.0 ],
					"parameter_enable" : 1,
					"patching_rect" : [ 6.683332353830338, 258.191489011049271, 33.617021977901459, 33.617021977901459 ],
					"saved_attribute_attributes" : 					{
						"valueof" : 						{
							"parameter_initial" : [ 0 ],
							"parameter_initial_enable" : 1,
							"parameter_longname" : "b_pitchEnv",
							"parameter_mmax" : 100.0,
							"parameter_mmin" : -100.0,
							"parameter_modmax" : 100.0,
							"parameter_modmin" : -100.0,
							"parameter_modmode" : 4,
							"parameter_shortname" : "b_pitchEnv",
							"parameter_type" : 1,
							"parameter_unitstyle" : 0
						}

					}
,
					"size" : 201.0,
					"thickness" : 60.0,
					"varname" : "dial[10]"
				}

			}
, 			{
				"box" : 				{
					"focusbordercolor" : [ 0.631372549019608, 0.63921568627451, 0.662745098039216, 0.0 ],
					"id" : "obj-158",
					"maxclass" : "live.button",
					"numinlets" : 1,
					"numoutlets" : 1,
					"outlettype" : [ "" ],
					"parameter_enable" : 1,
					"patching_rect" : [ 521.111126840114594, 146.66667366027832, 11.987178266048431, 11.025641039013863 ],
					"saved_attribute_attributes" : 					{
						"focusbordercolor" : 						{
							"expression" : ""
						}
,
						"valueof" : 						{
							"parameter_enum" : [ "off", "on" ],
							"parameter_invisible" : 2,
							"parameter_longname" : "live.button[7]",
							"parameter_mmax" : 1,
							"parameter_modmode" : 0,
							"parameter_shortname" : "live.button",
							"parameter_type" : 2
						}

					}
,
					"varname" : "live.button[7]"
				}

			}
, 			{
				"box" : 				{
					"id" : "obj-161",
					"maxclass" : "message",
					"numinlets" : 2,
					"numoutlets" : 1,
					"outlettype" : [ "" ],
					"patching_rect" : [ 94.488193988800049, 785.039411723613739, 50.0, 22.0 ],
					"text" : "90"
				}

			}
, 			{
				"box" : 				{
					"focusbordercolor" : [ 0.631372549019608, 0.63921568627451, 0.662745098039216, 0.0 ],
					"id" : "obj-162",
					"maxclass" : "live.button",
					"numinlets" : 1,
					"numoutlets" : 1,
					"outlettype" : [ "" ],
					"parameter_enable" : 1,
					"patching_rect" : [ 460.75, 91.25, 11.987178266048431, 11.025641039013863 ],
					"saved_attribute_attributes" : 					{
						"focusbordercolor" : 						{
							"expression" : ""
						}
,
						"valueof" : 						{
							"parameter_enum" : [ "off", "on" ],
							"parameter_invisible" : 2,
							"parameter_longname" : "live.button[8]",
							"parameter_mmax" : 1,
							"parameter_modmode" : 0,
							"parameter_shortname" : "live.button",
							"parameter_type" : 2
						}

					}
,
					"varname" : "live.button[8]"
				}

			}
, 			{
				"box" : 				{
					"bgcolor" : [ 0.094117647058824, 0.098039215686275, 0.117647058823529, 0.0 ],
					"id" : "obj-164",
					"maxclass" : "dial",
					"min" : -100.0,
					"mode" : 5,
					"needlecolor" : [ 0.4, 0.92156862745098, 1.0, 1.0 ],
					"numinlets" : 1,
					"numoutlets" : 1,
					"outlettype" : [ "float" ],
					"outlinecolor" : [ 0.066666666666667, 0.070588235294118, 0.07843137254902, 1.0 ],
					"parameter_enable" : 1,
					"patching_rect" : [ 449.935078144073486, 63.333335220813751, 33.617021977901459, 33.617021977901459 ],
					"saved_attribute_attributes" : 					{
						"valueof" : 						{
							"parameter_initial" : [ 0 ],
							"parameter_initial_enable" : 1,
							"parameter_longname" : "n_ampAtkCrv",
							"parameter_mmax" : 100.0,
							"parameter_mmin" : -100.0,
							"parameter_modmax" : 100.0,
							"parameter_modmin" : -100.0,
							"parameter_modmode" : 4,
							"parameter_shortname" : "n_ampAtkCrv",
							"parameter_type" : 1,
							"parameter_unitstyle" : 0
						}

					}
,
					"size" : 201.0,
					"thickness" : 60.0,
					"varname" : "dial[9]"
				}

			}
, 			{
				"box" : 				{
					"id" : "obj-165",
					"maxclass" : "message",
					"numinlets" : 2,
					"numoutlets" : 1,
					"outlettype" : [ "" ],
					"patching_rect" : [ 170.078749179840088, 747.244134128093719, 50.0, 22.0 ],
					"text" : "100"
				}

			}
, 			{
				"box" : 				{
					"bgcolor" : [ 0.094117647058824, 0.098039215686275, 0.117647058823529, 0.0 ],
					"id" : "obj-166",
					"maxclass" : "dial",
					"mode" : 5,
					"needlecolor" : [ 0.4, 0.92156862745098, 1.0, 1.0 ],
					"numinlets" : 1,
					"numoutlets" : 1,
					"outlettype" : [ "float" ],
					"outlinecolor" : [ 0.066666666666667, 0.070588235294118, 0.07843137254902, 1.0 ],
					"parameter_enable" : 1,
					"patching_rect" : [ 510.29620498418808, 122.222228050231934, 33.617021977901459, 33.617021977901459 ],
					"saved_attribute_attributes" : 					{
						"valueof" : 						{
							"parameter_initial" : [ 0 ],
							"parameter_initial_enable" : 1,
							"parameter_longname" : "b_ampAtk",
							"parameter_mmax" : 510.0,
							"parameter_modmax" : 510.0,
							"parameter_modmode" : 4,
							"parameter_shortname" : "n_ampRel",
							"parameter_type" : 0,
							"parameter_unitstyle" : 0
						}

					}
,
					"size" : 511.0,
					"thickness" : 60.0,
					"varname" : "dial[7]"
				}

			}
, 			{
				"box" : 				{
					"id" : "obj-145",
					"maxclass" : "message",
					"numinlets" : 2,
					"numoutlets" : 1,
					"outlettype" : [ "" ],
					"patching_rect" : [ 257.222234487533569, 553.494107067584991, 50.0, 22.0 ],
					"text" : "100"
				}

			}
, 			{
				"box" : 				{
					"focusbordercolor" : [ 0.631372549019608, 0.63921568627451, 0.662745098039216, 0.0 ],
					"id" : "obj-146",
					"maxclass" : "live.button",
					"numinlets" : 1,
					"numoutlets" : 1,
					"outlettype" : [ "" ],
					"parameter_enable" : 1,
					"patching_rect" : [ 303.262918055057526, 147.620061576366425, 11.987178266048431, 11.025641039013863 ],
					"saved_attribute_attributes" : 					{
						"focusbordercolor" : 						{
							"expression" : ""
						}
,
						"valueof" : 						{
							"parameter_enum" : [ "off", "on" ],
							"parameter_invisible" : 2,
							"parameter_longname" : "a_ampVel[5]",
							"parameter_mmax" : 1,
							"parameter_modmode" : 0,
							"parameter_shortname" : "a_ampVel",
							"parameter_type" : 2
						}

					}
,
					"varname" : "live.button[3]"
				}

			}
, 			{
				"box" : 				{
					"bgcolor" : [ 0.094117647058824, 0.098039215686275, 0.117647058823529, 0.0 ],
					"id" : "obj-148",
					"maxclass" : "dial",
					"min" : -100.0,
					"mode" : 5,
					"needlecolor" : [ 0.4, 0.92156862745098, 1.0, 1.0 ],
					"numinlets" : 1,
					"numoutlets" : 1,
					"outlettype" : [ "float" ],
					"outlinecolor" : [ 0.066666666666667, 0.070588235294118, 0.07843137254902, 1.0 ],
					"parameter_enable" : 1,
					"patching_rect" : [ 292.691489011049271, 122.191489011049271, 33.617021977901459, 33.617021977901459 ],
					"saved_attribute_attributes" : 					{
						"valueof" : 						{
							"parameter_initial" : [ 0 ],
							"parameter_initial_enable" : 1,
							"parameter_longname" : "c_warp2Vel",
							"parameter_mmax" : 100.0,
							"parameter_mmin" : -100.0,
							"parameter_modmax" : 100.0,
							"parameter_modmin" : -100.0,
							"parameter_modmode" : 4,
							"parameter_shortname" : "c_warp2Vel",
							"parameter_type" : 1,
							"parameter_unitstyle" : 0
						}

					}
,
					"size" : 201.0,
					"thickness" : 60.0,
					"varname" : "dial[3]"
				}

			}
, 			{
				"box" : 				{
					"id" : "obj-149",
					"maxclass" : "message",
					"numinlets" : 2,
					"numoutlets" : 1,
					"outlettype" : [ "" ],
					"patching_rect" : [ 257.222234487533569, 519.049660980701447, 50.0, 22.0 ],
					"text" : "100"
				}

			}
, 			{
				"box" : 				{
					"focusbordercolor" : [ 0.631372549019608, 0.63921568627451, 0.662745098039216, 0.0 ],
					"id" : "obj-151",
					"maxclass" : "live.button",
					"numinlets" : 1,
					"numoutlets" : 1,
					"outlettype" : [ "" ],
					"parameter_enable" : 1,
					"patching_rect" : [ 252.256410866975784, 147.75086373090744, 11.987178266048431, 11.025641039013863 ],
					"saved_attribute_attributes" : 					{
						"focusbordercolor" : 						{
							"expression" : ""
						}
,
						"valueof" : 						{
							"parameter_enum" : [ "off", "on" ],
							"parameter_invisible" : 2,
							"parameter_longname" : "a_ampVel[6]",
							"parameter_mmax" : 1,
							"parameter_modmode" : 0,
							"parameter_shortname" : "a_ampVel",
							"parameter_type" : 2
						}

					}
,
					"varname" : "live.button[4]"
				}

			}
, 			{
				"box" : 				{
					"bgcolor" : [ 0.094117647058824, 0.098039215686275, 0.117647058823529, 0.0 ],
					"id" : "obj-152",
					"maxclass" : "dial",
					"min" : -100.0,
					"mode" : 5,
					"needlecolor" : [ 0.4, 0.92156862745098, 1.0, 1.0 ],
					"numinlets" : 1,
					"numoutlets" : 1,
					"outlettype" : [ "float" ],
					"outlinecolor" : [ 0.066666666666667, 0.070588235294118, 0.07843137254902, 1.0 ],
					"parameter_enable" : 1,
					"patching_rect" : [ 241.441489011049271, 122.191489011049271, 33.617021977901459, 33.617021977901459 ],
					"saved_attribute_attributes" : 					{
						"valueof" : 						{
							"parameter_initial" : [ 0 ],
							"parameter_initial_enable" : 1,
							"parameter_longname" : "c_warp1Vel",
							"parameter_mmax" : 100.0,
							"parameter_mmin" : -100.0,
							"parameter_modmax" : 100.0,
							"parameter_modmin" : -100.0,
							"parameter_modmode" : 4,
							"parameter_shortname" : "c_warp1Vel",
							"parameter_type" : 1,
							"parameter_unitstyle" : 0
						}

					}
,
					"size" : 201.0,
					"thickness" : 60.0,
					"varname" : "dial[4]"
				}

			}
, 			{
				"box" : 				{
					"id" : "obj-154",
					"maxclass" : "message",
					"numinlets" : 2,
					"numoutlets" : 1,
					"outlettype" : [ "" ],
					"patching_rect" : [ 257.222234487533569, 457.93854695558548, 50.0, 22.0 ],
					"text" : "100"
				}

			}
, 			{
				"box" : 				{
					"focusbordercolor" : [ 0.631372549019608, 0.63921568627451, 0.662745098039216, 0.0 ],
					"id" : "obj-155",
					"maxclass" : "live.button",
					"numinlets" : 1,
					"numoutlets" : 1,
					"outlettype" : [ "" ],
					"parameter_enable" : 1,
					"patching_rect" : [ 203.506410866975784, 147.75086373090744, 11.987178266048431, 11.025641039013863 ],
					"saved_attribute_attributes" : 					{
						"focusbordercolor" : 						{
							"expression" : ""
						}
,
						"valueof" : 						{
							"parameter_enum" : [ "off", "on" ],
							"parameter_invisible" : 2,
							"parameter_longname" : "a_ampVel[7]",
							"parameter_mmax" : 1,
							"parameter_modmode" : 0,
							"parameter_shortname" : "a_ampVel",
							"parameter_type" : 2
						}

					}
,
					"varname" : "live.button[5]"
				}

			}
, 			{
				"box" : 				{
					"bgcolor" : [ 0.094117647058824, 0.098039215686275, 0.117647058823529, 0.0 ],
					"id" : "obj-157",
					"maxclass" : "dial",
					"min" : -100.0,
					"mode" : 5,
					"needlecolor" : [ 0.4, 0.92156862745098, 1.0, 1.0 ],
					"numinlets" : 1,
					"numoutlets" : 1,
					"outlettype" : [ "float" ],
					"outlinecolor" : [ 0.066666666666667, 0.070588235294118, 0.07843137254902, 1.0 ],
					"parameter_enable" : 1,
					"patching_rect" : [ 192.691489011049271, 122.191489011049271, 33.617021977901459, 33.617021977901459 ],
					"saved_attribute_attributes" : 					{
						"valueof" : 						{
							"parameter_initial" : [ 0 ],
							"parameter_initial_enable" : 1,
							"parameter_longname" : "c_wtVel",
							"parameter_mmax" : 100.0,
							"parameter_mmin" : -100.0,
							"parameter_modmax" : 100.0,
							"parameter_modmin" : -100.0,
							"parameter_modmode" : 4,
							"parameter_shortname" : "c_wtVel",
							"parameter_type" : 1,
							"parameter_unitstyle" : 0
						}

					}
,
					"size" : 201.0,
					"thickness" : 60.0,
					"varname" : "dial[5]"
				}

			}
, 			{
				"box" : 				{
					"id" : "obj-143",
					"maxclass" : "message",
					"numinlets" : 2,
					"numoutlets" : 1,
					"outlettype" : [ "" ],
					"patching_rect" : [ 57.222224950790405, 498.333357095718384, 50.0, 22.0 ],
					"text" : "100"
				}

			}
, 			{
				"box" : 				{
					"focusbordercolor" : [ 0.631372549019608, 0.63921568627451, 0.662745098039216, 0.0 ],
					"id" : "obj-142",
					"maxclass" : "live.button",
					"numinlets" : 1,
					"numoutlets" : 1,
					"outlettype" : [ "" ],
					"parameter_enable" : 1,
					"patching_rect" : [ 118.506410866975784, 147.75086373090744, 11.987178266048431, 11.025641039013863 ],
					"saved_attribute_attributes" : 					{
						"focusbordercolor" : 						{
							"expression" : ""
						}
,
						"valueof" : 						{
							"parameter_enum" : [ "off", "on" ],
							"parameter_invisible" : 2,
							"parameter_longname" : "a_ampVel[4]",
							"parameter_mmax" : 1,
							"parameter_modmode" : 0,
							"parameter_shortname" : "a_ampVel",
							"parameter_type" : 2
						}

					}
,
					"varname" : "live.button[2]"
				}

			}
, 			{
				"box" : 				{
					"bgcolor" : [ 0.094117647058824, 0.098039215686275, 0.117647058823529, 0.0 ],
					"id" : "obj-140",
					"maxclass" : "dial",
					"min" : -100.0,
					"mode" : 5,
					"needlecolor" : [ 0.4, 0.92156862745098, 1.0, 1.0 ],
					"numinlets" : 1,
					"numoutlets" : 1,
					"outlettype" : [ "float" ],
					"outlinecolor" : [ 0.066666666666667, 0.070588235294118, 0.07843137254902, 1.0 ],
					"parameter_enable" : 1,
					"patching_rect" : [ 107.691489011049271, 122.191489011049271, 33.617021977901459, 33.617021977901459 ],
					"saved_attribute_attributes" : 					{
						"valueof" : 						{
							"parameter_initial" : [ 0 ],
							"parameter_initial_enable" : 1,
							"parameter_longname" : "b_warp2Vel",
							"parameter_mmax" : 100.0,
							"parameter_mmin" : -100.0,
							"parameter_modmax" : 100.0,
							"parameter_modmin" : -100.0,
							"parameter_modmode" : 4,
							"parameter_shortname" : "b_warp2Vel",
							"parameter_type" : 1,
							"parameter_unitstyle" : 0
						}

					}
,
					"size" : 201.0,
					"thickness" : 60.0,
					"varname" : "dial[2]"
				}

			}
, 			{
				"box" : 				{
					"id" : "obj-139",
					"maxclass" : "message",
					"numinlets" : 2,
					"numoutlets" : 1,
					"outlettype" : [ "" ],
					"patching_rect" : [ 57.222224950790405, 463.888911008834839, 50.0, 22.0 ],
					"text" : "100"
				}

			}
, 			{
				"box" : 				{
					"id" : "obj-95",
					"maxclass" : "message",
					"numinlets" : 2,
					"numoutlets" : 1,
					"outlettype" : [ "" ],
					"patching_rect" : [ 57.222224950790405, 402.777796983718872, 50.0, 22.0 ],
					"text" : "100"
				}

			}
, 			{
				"box" : 				{
					"focusbordercolor" : [ 0.631372549019608, 0.63921568627451, 0.662745098039216, 0.0 ],
					"id" : "obj-89",
					"maxclass" : "live.button",
					"numinlets" : 1,
					"numoutlets" : 1,
					"outlettype" : [ "" ],
					"parameter_enable" : 1,
					"patching_rect" : [ 18.339100182056427, 147.75086373090744, 11.987178266048431, 11.025641039013863 ],
					"saved_attribute_attributes" : 					{
						"focusbordercolor" : 						{
							"expression" : ""
						}
,
						"valueof" : 						{
							"parameter_enum" : [ "off", "on" ],
							"parameter_invisible" : 2,
							"parameter_longname" : "a_ampVel[2]",
							"parameter_mmax" : 1,
							"parameter_modmode" : 0,
							"parameter_shortname" : "a_ampVel",
							"parameter_type" : 2
						}

					}
,
					"varname" : "live.button[6]"
				}

			}
, 			{
				"box" : 				{
					"bgcolor" : [ 0.094117647058824, 0.098039215686275, 0.117647058823529, 0.0 ],
					"id" : "obj-53",
					"maxclass" : "dial",
					"min" : -100.0,
					"mode" : 5,
					"needlecolor" : [ 0.4, 0.92156862745098, 1.0, 1.0 ],
					"numinlets" : 1,
					"numoutlets" : 1,
					"outlettype" : [ "float" ],
					"outlinecolor" : [ 0.066666666666667, 0.070588235294118, 0.07843137254902, 1.0 ],
					"parameter_enable" : 1,
					"patching_rect" : [ 7.691489011049271, 122.191489011049271, 33.617021977901459, 33.617021977901459 ],
					"saved_attribute_attributes" : 					{
						"valueof" : 						{
							"parameter_initial" : [ 0 ],
							"parameter_initial_enable" : 1,
							"parameter_longname" : "b_wtVel",
							"parameter_mmax" : 100.0,
							"parameter_mmin" : -100.0,
							"parameter_modmax" : 100.0,
							"parameter_modmin" : -100.0,
							"parameter_modmode" : 4,
							"parameter_shortname" : "b_wtVel",
							"parameter_type" : 1,
							"parameter_unitstyle" : 0
						}

					}
,
					"size" : 201.0,
					"thickness" : 60.0,
					"varname" : "dial[8]"
				}

			}
, 			{
				"box" : 				{
					"bgcolor" : [ 0.094117647058824, 0.098039215686275, 0.117647058823529, 0.0 ],
					"id" : "obj-52",
					"maxclass" : "dial",
					"mode" : 5,
					"needlecolor" : [ 0.4, 0.92156862745098, 1.0, 1.0 ],
					"numinlets" : 1,
					"numoutlets" : 1,
					"outlettype" : [ "float" ],
					"outlinecolor" : [ 0.066666666666667, 0.070588235294118, 0.07843137254902, 1.0 ],
					"parameter_enable" : 1,
					"patching_rect" : [ 7.691489011049271, 70.191489011049271, 33.617021977901459, 33.617021977901459 ],
					"saved_attribute_attributes" : 					{
						"valueof" : 						{
							"parameter_initial" : [ 0 ],
							"parameter_initial_enable" : 1,
							"parameter_longname" : "b_wt",
							"parameter_mmax" : 255.0,
							"parameter_modmax" : 255.0,
							"parameter_modmode" : 4,
							"parameter_shortname" : "b_wt",
							"parameter_type" : 1,
							"parameter_unitstyle" : 0
						}

					}
,
					"size" : 256.0,
					"thickness" : 60.0,
					"varname" : "dial"
				}

			}
, 			{
				"box" : 				{
					"id" : "obj-50",
					"linecount" : 2,
					"maxclass" : "newobj",
					"numinlets" : 6,
					"numoutlets" : 1,
					"outlettype" : [ "" ],
					"patching_rect" : [ 419.000000298023224, 246.691487550735474, 100.0, 35.0 ],
					"text" : "scale -100 100 0. 1."
				}

			}
, 			{
				"box" : 				{
					"id" : "obj-5",
					"maxclass" : "comment",
					"numinlets" : 1,
					"numoutlets" : 0,
					"patching_rect" : [ 513.333348631858826, 47.333334743976593, 26.71232682466507, 20.0 ],
					"text" : "vel",
					"textjustification" : 1
				}

			}
, 			{
				"box" : 				{
					"id" : "obj-138",
					"maxclass" : "newobj",
					"numinlets" : 1,
					"numoutlets" : 1,
					"outlettype" : [ "" ],
					"patching_rect" : [ 64.966011524200439, 839.655216455459595, 100.0, 22.0 ],
					"text" : "loadmess 0"
				}

			}
, 			{
				"box" : 				{
					"id" : "obj-128",
					"maxclass" : "comment",
					"numinlets" : 1,
					"numoutlets" : 0,
					"patching_rect" : [ 515.808526188135147, 101.1111159324646, 22.0, 20.0 ],
					"text" : "rel",
					"textjustification" : 1
				}

			}
, 			{
				"box" : 				{
					"id" : "obj-131",
					"maxclass" : "comment",
					"numinlets" : 1,
					"numoutlets" : 0,
					"patching_rect" : [ 445.160269528627396, 47.333334743976593, 43.0, 20.0 ],
					"text" : "crv",
					"textjustification" : 1
				}

			}
, 			{
				"box" : 				{
					"id" : "obj-41",
					"maxclass" : "comment",
					"numinlets" : 1,
					"numoutlets" : 0,
					"patching_rect" : [ 437.222243070602417, 101.1111159324646, 24.0, 20.0 ],
					"text" : "crv",
					"textjustification" : 1
				}

			}
, 			{
				"box" : 				{
					"id" : "obj-117",
					"maxclass" : "comment",
					"numinlets" : 1,
					"numoutlets" : 0,
					"patching_rect" : [ 396.000011801719666, 47.333334743976593, 25.0, 20.0 ],
					"text" : "atk",
					"textjustification" : 1
				}

			}
, 			{
				"box" : 				{
					"id" : "obj-118",
					"maxclass" : "comment",
					"numinlets" : 1,
					"numoutlets" : 0,
					"patching_rect" : [ 477.777800559997559, 101.1111159324646, 24.0, 20.0 ],
					"text" : "vel",
					"textjustification" : 1
				}

			}
, 			{
				"box" : 				{
					"id" : "obj-120",
					"maxclass" : "comment",
					"numinlets" : 1,
					"numoutlets" : 0,
					"patching_rect" : [ 394.808522671461105, 101.1111159324646, 28.0, 20.0 ],
					"text" : "dec",
					"textjustification" : 1
				}

			}
, 			{
				"box" : 				{
					"focusbordercolor" : [ 0.631372549019608, 0.63921568627451, 0.662745098039216, 0.0 ],
					"id" : "obj-94",
					"maxclass" : "live.dial",
					"numinlets" : 1,
					"numoutlets" : 2,
					"outlettype" : [ "", "float" ],
					"parameter_enable" : 1,
					"patching_rect" : [ 245.0, 20.0, 27.0, 28.0 ],
					"saved_attribute_attributes" : 					{
						"focusbordercolor" : 						{
							"expression" : ""
						}
,
						"valueof" : 						{
							"parameter_initial" : [ 0 ],
							"parameter_initial_enable" : 1,
							"parameter_longname" : "c_semi",
							"parameter_mmax" : 12.0,
							"parameter_mmin" : -12.0,
							"parameter_modmax" : 12.0,
							"parameter_modmin" : -12.0,
							"parameter_modmode" : 4,
							"parameter_shortname" : "c_semi",
							"parameter_type" : 1,
							"parameter_unitstyle" : 0
						}

					}
,
					"showname" : 0,
					"shownumber" : 0,
					"varname" : "live.dial[8]"
				}

			}
, 			{
				"box" : 				{
					"focusbordercolor" : [ 0.631372549019608, 0.63921568627451, 0.662745098039216, 0.0 ],
					"id" : "obj-96",
					"maxclass" : "live.dial",
					"numinlets" : 1,
					"numoutlets" : 2,
					"outlettype" : [ "", "float" ],
					"parameter_enable" : 1,
					"patching_rect" : [ 196.0, 20.0, 27.0, 28.0 ],
					"saved_attribute_attributes" : 					{
						"focusbordercolor" : 						{
							"expression" : ""
						}
,
						"valueof" : 						{
							"parameter_initial" : [ 0 ],
							"parameter_initial_enable" : 1,
							"parameter_longname" : "c_oct",
							"parameter_mmax" : 4.0,
							"parameter_mmin" : -4.0,
							"parameter_modmax" : 4.0,
							"parameter_modmin" : -4.0,
							"parameter_modmode" : 4,
							"parameter_shortname" : "c_oct",
							"parameter_type" : 1,
							"parameter_unitstyle" : 0
						}

					}
,
					"showname" : 0,
					"shownumber" : 0,
					"varname" : "live.dial[9]"
				}

			}
, 			{
				"box" : 				{
					"focusbordercolor" : [ 0.631372549019608, 0.63921568627451, 0.662745098039216, 0.0 ],
					"id" : "obj-90",
					"maxclass" : "live.dial",
					"numinlets" : 1,
					"numoutlets" : 2,
					"outlettype" : [ "", "float" ],
					"parameter_enable" : 1,
					"patching_rect" : [ 60.0, 20.0, 27.0, 28.0 ],
					"saved_attribute_attributes" : 					{
						"focusbordercolor" : 						{
							"expression" : ""
						}
,
						"valueof" : 						{
							"parameter_initial" : [ 0 ],
							"parameter_initial_enable" : 1,
							"parameter_longname" : "b_semi",
							"parameter_mmax" : 12.0,
							"parameter_mmin" : -12.0,
							"parameter_modmax" : 12.0,
							"parameter_modmin" : -12.0,
							"parameter_modmode" : 4,
							"parameter_shortname" : "b_semi",
							"parameter_type" : 1,
							"parameter_unitstyle" : 0
						}

					}
,
					"showname" : 0,
					"shownumber" : 0,
					"varname" : "live.dial[31]"
				}

			}
, 			{
				"box" : 				{
					"focusbordercolor" : [ 0.631372549019608, 0.63921568627451, 0.662745098039216, 0.0 ],
					"id" : "obj-92",
					"maxclass" : "live.dial",
					"numinlets" : 1,
					"numoutlets" : 2,
					"outlettype" : [ "", "float" ],
					"parameter_enable" : 1,
					"patching_rect" : [ 11.0, 20.0, 27.0, 28.0 ],
					"saved_attribute_attributes" : 					{
						"focusbordercolor" : 						{
							"expression" : ""
						}
,
						"valueof" : 						{
							"parameter_initial" : [ 0 ],
							"parameter_initial_enable" : 1,
							"parameter_longname" : "b_oct",
							"parameter_mmax" : 4.0,
							"parameter_mmin" : -4.0,
							"parameter_modmax" : 4.0,
							"parameter_modmin" : -4.0,
							"parameter_modmode" : 4,
							"parameter_shortname" : "b_oct",
							"parameter_type" : 1,
							"parameter_unitstyle" : 0
						}

					}
,
					"showname" : 0,
					"shownumber" : 0,
					"varname" : "live.dial"
				}

			}
, 			{
				"box" : 				{
					"id" : "obj-56",
					"maxclass" : "comment",
					"numinlets" : 1,
					"numoutlets" : 0,
					"patching_rect" : [ 573.586727857589722, 1534.482839107513428, 150.0, 20.0 ]
				}

			}
, 			{
				"box" : 				{
					"id" : "obj-79",
					"maxclass" : "comment",
					"numinlets" : 1,
					"numoutlets" : 0,
					"patching_rect" : [ 106.974808074533939, 241.0, 39.050383850932121, 20.0 ],
					"text" : "crv",
					"textjustification" : 1
				}

			}
, 			{
				"box" : 				{
					"id" : "obj-1",
					"maxclass" : "newobj",
					"numinlets" : 0,
					"numoutlets" : 1,
					"outlettype" : [ "" ],
					"patching_rect" : [ 361.517751216888428, 720.689692974090576, 100.0, 22.0 ],
					"text" : "r ---serumJS"
				}

			}
, 			{
				"box" : 				{
					"comment" : "thisPatcher",
					"id" : "obj-59",
					"index" : 1,
					"maxclass" : "inlet",
					"numinlets" : 0,
					"numoutlets" : 1,
					"outlettype" : [ "" ],
					"patching_rect" : [ 658.440000000000055, 5.0, 30.0, 30.0 ]
				}

			}
, 			{
				"box" : 				{
					"id" : "obj-19",
					"maxclass" : "message",
					"numinlets" : 2,
					"numoutlets" : 1,
					"outlettype" : [ "" ],
					"patching_rect" : [ 148.818905532360077, 479.527584493160248, 50.0, 22.0 ],
					"text" : "set $1"
				}

			}
, 			{
				"box" : 				{
					"focusbordercolor" : [ 0.631372549019608, 0.63921568627451, 0.662745098039216, 0.0 ],
					"id" : "obj-17",
					"maxclass" : "live.tab",
					"num_lines_patching" : 2,
					"num_lines_presentation" : 0,
					"numinlets" : 1,
					"numoutlets" : 3,
					"outlettype" : [ "", "", "float" ],
					"parameter_enable" : 1,
					"patching_rect" : [ 149.0, 279.0, 24.5, 67.5 ],
					"saved_attribute_attributes" : 					{
						"focusbordercolor" : 						{
							"expression" : ""
						}
,
						"valueof" : 						{
							"parameter_enum" : [ "I", "II" ],
							"parameter_invisible" : 2,
							"parameter_longname" : "live.tab[7]",
							"parameter_mmax" : 1,
							"parameter_modmode" : 0,
							"parameter_shortname" : "live.tab[2]",
							"parameter_type" : 2,
							"parameter_unitstyle" : 9
						}

					}
,
					"varname" : "live.tab[3]"
				}

			}
, 			{
				"box" : 				{
					"id" : "obj-12",
					"maxclass" : "comment",
					"numinlets" : 1,
					"numoutlets" : 0,
					"patching_rect" : [ 54.474808074533939, 241.0, 39.050383850932121, 20.0 ],
					"text" : "dec",
					"textjustification" : 1
				}

			}
, 			{
				"box" : 				{
					"id" : "obj-14",
					"maxclass" : "comment",
					"numinlets" : 1,
					"numoutlets" : 0,
					"patching_rect" : [ -0.502512574195862, 241.0, 49.0, 20.0 ],
					"text" : "p mod4",
					"textjustification" : 1
				}

			}
, 			{
				"box" : 				{
					"id" : "obj-11",
					"maxclass" : "message",
					"numinlets" : 2,
					"numoutlets" : 1,
					"outlettype" : [ "" ],
					"patching_rect" : [ 334.0, 373.0, 50.0, 22.0 ],
					"text" : "set $1"
				}

			}
, 			{
				"box" : 				{
					"id" : "obj-7",
					"maxclass" : "message",
					"numinlets" : 2,
					"numoutlets" : 1,
					"outlettype" : [ "" ],
					"patching_rect" : [ 148.818905532360077, 415.748053550720215, 50.0, 22.0 ],
					"text" : "set $1"
				}

			}
, 			{
				"box" : 				{
					"focusbordercolor" : [ 0.631372549019608, 0.63921568627451, 0.662745098039216, 0.0 ],
					"id" : "obj-70",
					"maxclass" : "live.tab",
					"num_lines_patching" : 2,
					"num_lines_presentation" : 0,
					"numinlets" : 1,
					"numoutlets" : 3,
					"outlettype" : [ "", "", "float" ],
					"parameter_enable" : 1,
					"patching_rect" : [ 149.0, 85.0, 24.5, 67.5 ],
					"saved_attribute_attributes" : 					{
						"focusbordercolor" : 						{
							"expression" : ""
						}
,
						"valueof" : 						{
							"parameter_enum" : [ "I", "II" ],
							"parameter_invisible" : 2,
							"parameter_longname" : "live.tab[4]",
							"parameter_mmax" : 1,
							"parameter_modmode" : 0,
							"parameter_shortname" : "live.tab[2]",
							"parameter_type" : 2,
							"parameter_unitstyle" : 9
						}

					}
,
					"varname" : "live.tab"
				}

			}
, 			{
				"box" : 				{
					"comment" : "handleTab",
					"id" : "obj-4",
					"index" : 1,
					"maxclass" : "outlet",
					"numinlets" : 1,
					"numoutlets" : 0,
					"patching_rect" : [ 109.0, 564.0, 30.0, 30.0 ]
				}

			}
, 			{
				"box" : 				{
					"id" : "obj-3",
					"maxclass" : "newobj",
					"numinlets" : 1,
					"numoutlets" : 2,
					"outlettype" : [ "", "" ],
					"patching_rect" : [ 658.440000000000055, 101.0, 100.0, 22.0 ],
					"save" : [ "#N", "thispatcher", ";", "#Q", "end", ";" ],
					"text" : "thispatcher"
				}

			}
, 			{
				"box" : 				{
					"id" : "obj-39",
					"maxclass" : "comment",
					"numinlets" : 1,
					"numoutlets" : 0,
					"patching_rect" : [ 450.000013411045074, 0.0, 34.0, 20.0 ],
					"text" : "pitch",
					"textjustification" : 1
				}

			}
, 			{
				"box" : 				{
					"id" : "obj-21",
					"maxclass" : "comment",
					"numinlets" : 1,
					"numoutlets" : 0,
					"patching_rect" : [ 196.25, 105.0, 26.5, 20.0 ],
					"text" : "vel",
					"textjustification" : 1
				}

			}
, 			{
				"box" : 				{
					"id" : "obj-23",
					"maxclass" : "comment",
					"numinlets" : 1,
					"numoutlets" : 0,
					"patching_rect" : [ 199.5, 52.0, 20.0, 20.0 ],
					"text" : "wt",
					"textjustification" : 1
				}

			}
, 			{
				"box" : 				{
					"id" : "obj-25",
					"maxclass" : "comment",
					"numinlets" : 1,
					"numoutlets" : 0,
					"patching_rect" : [ 297.0, 105.0, 25.0, 20.0 ],
					"text" : "vel",
					"textjustification" : 1
				}

			}
, 			{
				"box" : 				{
					"id" : "obj-27",
					"maxclass" : "comment",
					"numinlets" : 1,
					"numoutlets" : 0,
					"patching_rect" : [ 286.5, 52.0, 45.0, 20.0 ],
					"text" : "warp 2",
					"textjustification" : 1
				}

			}
, 			{
				"box" : 				{
					"focusbordercolor" : [ 0.631372549019608, 0.63921568627451, 0.662745098039216, 0.0 ],
					"id" : "obj-28",
					"maxclass" : "live.dial",
					"numinlets" : 1,
					"numoutlets" : 2,
					"outlettype" : [ "", "float" ],
					"parameter_enable" : 1,
					"patching_rect" : [ 295.5, 73.0, 27.0, 28.0 ],
					"saved_attribute_attributes" : 					{
						"focusbordercolor" : 						{
							"expression" : ""
						}
,
						"valueof" : 						{
							"parameter_initial" : [ 0 ],
							"parameter_initial_enable" : 1,
							"parameter_longname" : "c_warp2",
							"parameter_mmax" : 255.0,
							"parameter_modmode" : 4,
							"parameter_shortname" : "c_warp2",
							"parameter_type" : 1,
							"parameter_unitstyle" : 0
						}

					}
,
					"showname" : 0,
					"shownumber" : 0,
					"varname" : "live.dial[5]"
				}

			}
, 			{
				"box" : 				{
					"id" : "obj-29",
					"maxclass" : "comment",
					"numinlets" : 1,
					"numoutlets" : 0,
					"patching_rect" : [ 245.0, 105.0, 26.5, 20.0 ],
					"text" : "vel",
					"textjustification" : 1
				}

			}
, 			{
				"box" : 				{
					"id" : "obj-31",
					"maxclass" : "comment",
					"numinlets" : 1,
					"numoutlets" : 0,
					"patching_rect" : [ 236.205461621284485, 52.0, 45.0, 20.0 ],
					"text" : "warp 1",
					"textjustification" : 1
				}

			}
, 			{
				"box" : 				{
					"focusbordercolor" : [ 0.631372549019608, 0.63921568627451, 0.662745098039216, 0.0 ],
					"id" : "obj-32",
					"maxclass" : "live.dial",
					"numinlets" : 1,
					"numoutlets" : 2,
					"outlettype" : [ "", "float" ],
					"parameter_enable" : 1,
					"patching_rect" : [ 245.205461621284485, 73.0, 27.0, 28.0 ],
					"saved_attribute_attributes" : 					{
						"focusbordercolor" : 						{
							"expression" : ""
						}
,
						"valueof" : 						{
							"parameter_initial" : [ 0 ],
							"parameter_initial_enable" : 1,
							"parameter_longname" : "c_warp1",
							"parameter_mmax" : 255.0,
							"parameter_modmode" : 4,
							"parameter_shortname" : "c_warp1",
							"parameter_type" : 1,
							"parameter_unitstyle" : 0
						}

					}
,
					"showname" : 0,
					"shownumber" : 0,
					"varname" : "live.dial[7]"
				}

			}
, 			{
				"box" : 				{
					"id" : "obj-35",
					"maxclass" : "comment",
					"numinlets" : 1,
					"numoutlets" : 0,
					"patching_rect" : [ 240.0, -1.0, 37.0, 20.0 ],
					"text" : "semi",
					"textjustification" : 1
				}

			}
, 			{
				"box" : 				{
					"id" : "obj-37",
					"maxclass" : "comment",
					"numinlets" : 1,
					"numoutlets" : 0,
					"patching_rect" : [ 196.25, -1.0, 26.5, 20.0 ],
					"text" : "oct",
					"textjustification" : 1
				}

			}
, 			{
				"box" : 				{
					"id" : "obj-103",
					"maxclass" : "comment",
					"numinlets" : 1,
					"numoutlets" : 0,
					"patching_rect" : [ 11.25, 105.0, 26.5, 20.0 ],
					"text" : "vel",
					"textjustification" : 1
				}

			}
, 			{
				"box" : 				{
					"id" : "obj-99",
					"maxclass" : "comment",
					"numinlets" : 1,
					"numoutlets" : 0,
					"patching_rect" : [ 14.5, 52.0, 20.0, 20.0 ],
					"text" : "wt",
					"textjustification" : 1
				}

			}
, 			{
				"box" : 				{
					"id" : "obj-71",
					"maxclass" : "comment",
					"numinlets" : 1,
					"numoutlets" : 0,
					"patching_rect" : [ 112.0, 105.0, 25.0, 20.0 ],
					"text" : "vel",
					"textjustification" : 1
				}

			}
, 			{
				"box" : 				{
					"id" : "obj-73",
					"maxclass" : "comment",
					"numinlets" : 1,
					"numoutlets" : 0,
					"patching_rect" : [ 102.25, 52.0, 45.0, 20.0 ],
					"text" : "warp 2",
					"textjustification" : 1
				}

			}
, 			{
				"box" : 				{
					"focusbordercolor" : [ 0.631372549019608, 0.63921568627451, 0.662745098039216, 0.0 ],
					"id" : "obj-74",
					"maxclass" : "live.dial",
					"numinlets" : 1,
					"numoutlets" : 2,
					"outlettype" : [ "", "float" ],
					"parameter_enable" : 1,
					"patching_rect" : [ 110.273964583873749, 72.602734446525574, 27.0, 28.0 ],
					"saved_attribute_attributes" : 					{
						"focusbordercolor" : 						{
							"expression" : ""
						}
,
						"valueof" : 						{
							"parameter_initial" : [ 0 ],
							"parameter_initial_enable" : 1,
							"parameter_longname" : "b_warp2",
							"parameter_mmax" : 255.0,
							"parameter_modmax" : 255.0,
							"parameter_modmode" : 4,
							"parameter_shortname" : "b_warp2",
							"parameter_type" : 1,
							"parameter_unitstyle" : 0
						}

					}
,
					"showname" : 0,
					"shownumber" : 0,
					"varname" : "live.dial[16]"
				}

			}
, 			{
				"box" : 				{
					"id" : "obj-75",
					"maxclass" : "comment",
					"numinlets" : 1,
					"numoutlets" : 0,
					"patching_rect" : [ 60.0, 105.0, 26.5, 20.0 ],
					"text" : "vel",
					"textjustification" : 1
				}

			}
, 			{
				"box" : 				{
					"id" : "obj-77",
					"maxclass" : "comment",
					"numinlets" : 1,
					"numoutlets" : 0,
					"patching_rect" : [ 51.0, 52.0, 45.0, 20.0 ],
					"text" : "warp 1",
					"textjustification" : 1
				}

			}
, 			{
				"box" : 				{
					"focusbordercolor" : [ 0.631372549019608, 0.63921568627451, 0.662745098039216, 0.0 ],
					"id" : "obj-78",
					"maxclass" : "live.dial",
					"numinlets" : 1,
					"numoutlets" : 2,
					"outlettype" : [ "", "float" ],
					"parameter_enable" : 1,
					"patching_rect" : [ 60.0, 73.0, 27.0, 28.0 ],
					"saved_attribute_attributes" : 					{
						"focusbordercolor" : 						{
							"expression" : ""
						}
,
						"valueof" : 						{
							"parameter_initial" : [ 0 ],
							"parameter_initial_enable" : 1,
							"parameter_longname" : "b_warp1",
							"parameter_mmax" : 100.0,
							"parameter_modmax" : 100.0,
							"parameter_modmode" : 4,
							"parameter_shortname" : "b_warp1",
							"parameter_type" : 1,
							"parameter_unitstyle" : 0
						}

					}
,
					"showname" : 0,
					"shownumber" : 0,
					"varname" : "live.dial[24]"
				}

			}
, 			{
				"box" : 				{
					"id" : "obj-8",
					"maxclass" : "comment",
					"numinlets" : 1,
					"numoutlets" : 0,
					"patching_rect" : [ 55.0, -1.0, 37.0, 20.0 ],
					"text" : "semi",
					"textjustification" : 1
				}

			}
, 			{
				"box" : 				{
					"id" : "obj-45",
					"maxclass" : "comment",
					"numinlets" : 1,
					"numoutlets" : 0,
					"patching_rect" : [ 11.25, -1.0, 26.5, 20.0 ],
					"text" : "oct",
					"textjustification" : 1
				}

			}
, 			{
				"box" : 				{
					"id" : "obj-93",
					"linecount" : 2,
					"maxclass" : "newobj",
					"numinlets" : 6,
					"numoutlets" : 1,
					"outlettype" : [ "" ],
					"patching_rect" : [ 3864.0, 583.0, 73.0, 35.0 ],
					"text" : "scale -100 100 0. 1."
				}

			}
, 			{
				"box" : 				{
					"id" : "obj-137",
					"linecount" : 2,
					"maxclass" : "newobj",
					"numinlets" : 6,
					"numoutlets" : 1,
					"outlettype" : [ "" ],
					"patching_rect" : [ 3759.0, 583.0, 73.0, 35.0 ],
					"text" : "scale -100 100 0. 1."
				}

			}
, 			{
				"box" : 				{
					"id" : "obj-141",
					"linecount" : 2,
					"maxclass" : "newobj",
					"numinlets" : 6,
					"numoutlets" : 1,
					"outlettype" : [ "" ],
					"patching_rect" : [ 3639.0, 583.0, 73.0, 35.0 ],
					"text" : "scale 0 510 0. 0.69"
				}

			}
, 			{
				"box" : 				{
					"id" : "obj-144",
					"linecount" : 2,
					"maxclass" : "newobj",
					"numinlets" : 6,
					"numoutlets" : 1,
					"outlettype" : [ "" ],
					"patching_rect" : [ 3534.0, 583.0, 73.0, 35.0 ],
					"text" : "scale 0 510 1. 0."
				}

			}
, 			{
				"box" : 				{
					"id" : "obj-147",
					"linecount" : 2,
					"maxclass" : "newobj",
					"numinlets" : 6,
					"numoutlets" : 1,
					"outlettype" : [ "" ],
					"patching_rect" : [ 3429.0, 583.0, 73.0, 35.0 ],
					"text" : "scale -100 100 0. 1."
				}

			}
, 			{
				"box" : 				{
					"id" : "obj-156",
					"linecount" : 2,
					"maxclass" : "newobj",
					"numinlets" : 6,
					"numoutlets" : 1,
					"outlettype" : [ "" ],
					"patching_rect" : [ 3129.0, 583.0, 77.0, 35.0 ],
					"text" : "scale 0 100 0. 1."
				}

			}
, 			{
				"box" : 				{
					"id" : "obj-159",
					"linecount" : 2,
					"maxclass" : "newobj",
					"numinlets" : 6,
					"numoutlets" : 1,
					"outlettype" : [ "" ],
					"patching_rect" : [ 3039.0, 583.0, 73.0, 35.0 ],
					"text" : "scale 0 100 0. 1."
				}

			}
, 			{
				"box" : 				{
					"id" : "obj-163",
					"linecount" : 2,
					"maxclass" : "newobj",
					"numinlets" : 6,
					"numoutlets" : 1,
					"outlettype" : [ "" ],
					"patching_rect" : [ 2874.0, 583.0, 60.106402397155762, 35.0 ],
					"text" : "scale 1 16 0. 1."
				}

			}
, 			{
				"box" : 				{
					"id" : "obj-168",
					"linecount" : 2,
					"maxclass" : "newobj",
					"numinlets" : 6,
					"numoutlets" : 1,
					"outlettype" : [ "" ],
					"patching_rect" : [ 2769.0, 583.0, 73.0, 35.0 ],
					"text" : "scale -100 100 0. 1."
				}

			}
, 			{
				"box" : 				{
					"id" : "obj-171",
					"linecount" : 2,
					"maxclass" : "newobj",
					"numinlets" : 6,
					"numoutlets" : 1,
					"outlettype" : [ "" ],
					"patching_rect" : [ 2679.0, 583.0, 73.0, 35.0 ],
					"text" : "scale -100 100 1. 0."
				}

			}
, 			{
				"box" : 				{
					"id" : "obj-174",
					"linecount" : 2,
					"maxclass" : "newobj",
					"numinlets" : 6,
					"numoutlets" : 1,
					"outlettype" : [ "" ],
					"patching_rect" : [ 2589.0, 583.0, 77.0, 35.0 ],
					"text" : "scale 0 510 0. 1."
				}

			}
, 			{
				"box" : 				{
					"id" : "obj-177",
					"linecount" : 2,
					"maxclass" : "newobj",
					"numinlets" : 6,
					"numoutlets" : 1,
					"outlettype" : [ "" ],
					"patching_rect" : [ 2499.0, 583.0, 73.0, 35.0 ],
					"text" : "scale 0 510 0. 0.5"
				}

			}
, 			{
				"box" : 				{
					"id" : "obj-180",
					"linecount" : 2,
					"maxclass" : "newobj",
					"numinlets" : 6,
					"numoutlets" : 1,
					"outlettype" : [ "" ],
					"patching_rect" : [ 2397.0, 583.0, 73.0, 35.0 ],
					"text" : "scale -100 100 0. 1."
				}

			}
, 			{
				"box" : 				{
					"id" : "obj-183",
					"linecount" : 2,
					"maxclass" : "newobj",
					"numinlets" : 6,
					"numoutlets" : 1,
					"outlettype" : [ "" ],
					"patching_rect" : [ 2305.0, 583.0, 73.0, 35.0 ],
					"text" : "scale -100 100 0. 1."
				}

			}
, 			{
				"box" : 				{
					"id" : "obj-189",
					"linecount" : 2,
					"maxclass" : "newobj",
					"numinlets" : 6,
					"numoutlets" : 1,
					"outlettype" : [ "" ],
					"patching_rect" : [ 2124.0, 583.0, 73.0, 35.0 ],
					"text" : "scale 0 100 0. 1."
				}

			}
, 			{
				"box" : 				{
					"id" : "obj-192",
					"linecount" : 2,
					"maxclass" : "newobj",
					"numinlets" : 6,
					"numoutlets" : 1,
					"outlettype" : [ "" ],
					"patching_rect" : [ 2003.0, 583.0, 73.0, 35.0 ],
					"text" : "scale -100 100 0. 1."
				}

			}
, 			{
				"box" : 				{
					"id" : "obj-195",
					"linecount" : 2,
					"maxclass" : "newobj",
					"numinlets" : 6,
					"numoutlets" : 1,
					"outlettype" : [ "" ],
					"patching_rect" : [ 1901.0, 583.0, 73.0, 35.0 ],
					"text" : "scale -100 100 0. 1."
				}

			}
, 			{
				"box" : 				{
					"id" : "obj-198",
					"linecount" : 2,
					"maxclass" : "newobj",
					"numinlets" : 6,
					"numoutlets" : 1,
					"outlettype" : [ "" ],
					"patching_rect" : [ 1809.0, 583.0, 73.0, 35.0 ],
					"text" : "scale -100 100 0. 1."
				}

			}
, 			{
				"box" : 				{
					"id" : "obj-201",
					"linecount" : 2,
					"maxclass" : "newobj",
					"numinlets" : 6,
					"numoutlets" : 1,
					"outlettype" : [ "" ],
					"patching_rect" : [ 1719.0, 583.0, 73.0, 35.0 ],
					"text" : "scale 0 255 0. 1."
				}

			}
, 			{
				"box" : 				{
					"id" : "obj-204",
					"linecount" : 2,
					"maxclass" : "newobj",
					"numinlets" : 6,
					"numoutlets" : 1,
					"outlettype" : [ "" ],
					"patching_rect" : [ 1628.0, 583.0, 73.0, 35.0 ],
					"text" : "scale 0 255 0. 1."
				}

			}
, 			{
				"box" : 				{
					"id" : "obj-207",
					"linecount" : 2,
					"maxclass" : "newobj",
					"numinlets" : 6,
					"numoutlets" : 1,
					"outlettype" : [ "" ],
					"patching_rect" : [ 1539.0, 583.0, 73.0, 35.0 ],
					"text" : "scale 0 255 0. 1."
				}

			}
, 			{
				"box" : 				{
					"id" : "obj-210",
					"linecount" : 2,
					"maxclass" : "newobj",
					"numinlets" : 6,
					"numoutlets" : 1,
					"outlettype" : [ "" ],
					"patching_rect" : [ 1434.0, 583.0, 73.0, 35.0 ],
					"text" : "scale -100 100 0. 1."
				}

			}
, 			{
				"box" : 				{
					"id" : "obj-213",
					"linecount" : 2,
					"maxclass" : "newobj",
					"numinlets" : 6,
					"numoutlets" : 1,
					"outlettype" : [ "" ],
					"patching_rect" : [ 1331.0, 583.0, 73.0, 35.0 ],
					"text" : "scale -100 100 0. 1."
				}

			}
, 			{
				"box" : 				{
					"id" : "obj-216",
					"linecount" : 2,
					"maxclass" : "newobj",
					"numinlets" : 6,
					"numoutlets" : 1,
					"outlettype" : [ "" ],
					"patching_rect" : [ 1239.0, 583.0, 73.0, 35.0 ],
					"text" : "scale -100 100 0. 1."
				}

			}
, 			{
				"box" : 				{
					"id" : "obj-219",
					"linecount" : 2,
					"maxclass" : "newobj",
					"numinlets" : 6,
					"numoutlets" : 1,
					"outlettype" : [ "" ],
					"patching_rect" : [ 1134.0, 583.0, 73.0, 35.0 ],
					"text" : "scale 0 255 0. 1."
				}

			}
, 			{
				"box" : 				{
					"id" : "obj-222",
					"linecount" : 2,
					"maxclass" : "newobj",
					"numinlets" : 6,
					"numoutlets" : 1,
					"outlettype" : [ "" ],
					"patching_rect" : [ 1044.0, 583.0, 73.0, 35.0 ],
					"text" : "scale 0 100 0. 1."
				}

			}
, 			{
				"box" : 				{
					"id" : "obj-225",
					"linecount" : 2,
					"maxclass" : "newobj",
					"numinlets" : 6,
					"numoutlets" : 1,
					"outlettype" : [ "" ],
					"patching_rect" : [ 954.0, 583.0, 73.0, 35.0 ],
					"text" : "scale 0 255 0. 1."
				}

			}
, 			{
				"box" : 				{
					"id" : "obj-228",
					"linecount" : 2,
					"maxclass" : "newobj",
					"numinlets" : 6,
					"numoutlets" : 1,
					"outlettype" : [ "" ],
					"patching_rect" : [ 864.0, 583.0, 73.0, 35.0 ],
					"text" : "scale -100 100 0. 1."
				}

			}
, 			{
				"box" : 				{
					"id" : "obj-231",
					"linecount" : 2,
					"maxclass" : "newobj",
					"numinlets" : 6,
					"numoutlets" : 1,
					"outlettype" : [ "" ],
					"patching_rect" : [ 772.0, 583.0, 73.0, 35.0 ],
					"text" : "scale -100 100 0. 1."
				}

			}
, 			{
				"box" : 				{
					"id" : "obj-234",
					"linecount" : 2,
					"maxclass" : "newobj",
					"numinlets" : 6,
					"numoutlets" : 1,
					"outlettype" : [ "" ],
					"patching_rect" : [ 678.0, 583.0, 72.0, 35.0 ],
					"text" : "scale -12 12 0. 1."
				}

			}
, 			{
				"box" : 				{
					"id" : "obj-237",
					"linecount" : 2,
					"maxclass" : "newobj",
					"numinlets" : 6,
					"numoutlets" : 1,
					"outlettype" : [ "" ],
					"patching_rect" : [ 581.0, 584.0, 72.0, 35.0 ],
					"text" : "scale -12 12 0. 1."
				}

			}
, 			{
				"box" : 				{
					"id" : "obj-240",
					"linecount" : 2,
					"maxclass" : "newobj",
					"numinlets" : 6,
					"numoutlets" : 1,
					"outlettype" : [ "" ],
					"patching_rect" : [ 486.0, 584.0, 64.0, 35.0 ],
					"text" : "scale -4 4 0. 1."
				}

			}
, 			{
				"box" : 				{
					"id" : "obj-241",
					"linecount" : 2,
					"maxclass" : "newobj",
					"numinlets" : 6,
					"numoutlets" : 1,
					"outlettype" : [ "" ],
					"patching_rect" : [ 403.0, 584.0, 64.0, 35.0 ],
					"text" : "scale -4 4 0. 1."
				}

			}
, 			{
				"box" : 				{
					"bgcolor" : [ 0.094117647058824, 0.098039215686275, 0.117647058823529, 0.0 ],
					"id" : "obj-160",
					"maxclass" : "dial",
					"min" : -100.0,
					"mode" : 5,
					"needlecolor" : [ 0.4, 0.92156862745098, 1.0, 1.0 ],
					"numinlets" : 1,
					"numoutlets" : 1,
					"outlettype" : [ "float" ],
					"outlinecolor" : [ 0.066666666666667, 0.070588235294118, 0.07843137254902, 1.0 ],
					"parameter_enable" : 1,
					"patching_rect" : [ 56.691489011049271, 122.191489011049271, 33.617021977901459, 33.617021977901459 ],
					"saved_attribute_attributes" : 					{
						"valueof" : 						{
							"parameter_initial" : [ 0 ],
							"parameter_initial_enable" : 1,
							"parameter_longname" : "b_warp1Vel",
							"parameter_mmax" : 100.0,
							"parameter_mmin" : -100.0,
							"parameter_modmax" : 100.0,
							"parameter_modmin" : -100.0,
							"parameter_modmode" : 4,
							"parameter_shortname" : "b_warp1Vel",
							"parameter_type" : 1,
							"parameter_unitstyle" : 0
						}

					}
,
					"size" : 201.0,
					"thickness" : 60.0,
					"varname" : "dial[23]"
				}

			}
 ],
		"lines" : [ 			{
				"patchline" : 				{
					"destination" : [ "obj-139", 0 ],
					"hidden" : 1,
					"midpoints" : [ 73.493589133024216, 177.0, 183.0, 177.0, 183.0, 402.0, 117.0, 402.0, 117.0, 450.0, 66.722224950790405, 450.0 ],
					"source" : [ "obj-106", 0 ]
				}

			}
, 			{
				"patchline" : 				{
					"destination" : [ "obj-17", 0 ],
					"hidden" : 1,
					"midpoints" : [ 343.5, 396.0, 210.0, 396.0, 210.0, 276.0, 158.5, 276.0 ],
					"order" : 0,
					"source" : [ "obj-11", 0 ]
				}

			}
, 			{
				"patchline" : 				{
					"destination" : [ "obj-70", 0 ],
					"hidden" : 1,
					"midpoints" : [ 343.5, 396.0, 210.0, 396.0, 210.0, 165.0, 183.0, 165.0, 183.0, 81.0, 158.5, 81.0 ],
					"order" : 1,
					"source" : [ "obj-11", 0 ]
				}

			}
, 			{
				"patchline" : 				{
					"destination" : [ "obj-114", 0 ],
					"hidden" : 1,
					"midpoints" : [ 126.260678023099899, 348.0, 261.756410866975784, 348.0 ],
					"source" : [ "obj-111", 0 ]
				}

			}
, 			{
				"patchline" : 				{
					"destination" : [ "obj-93", 0 ],
					"hidden" : 1,
					"midpoints" : [ 119.191489011049271, 428.808510988950729, 3873.5, 428.808510988950729 ],
					"source" : [ "obj-112", 0 ]
				}

			}
, 			{
				"patchline" : 				{
					"destination" : [ "obj-112", 0 ],
					"hidden" : 1,
					"midpoints" : [ 261.756410866975784, 387.0, 201.0, 387.0, 201.0, 237.0, 119.191489011049271, 237.0 ],
					"source" : [ "obj-114", 0 ]
				}

			}
, 			{
				"patchline" : 				{
					"destination" : [ "obj-153", 0 ],
					"hidden" : 1,
					"midpoints" : [ 448.764977157115936, 168.0, 579.0, 168.0, 579.0, 87.0, 738.0, 87.0, 738.0, 51.0, 762.42552661895752, 51.0 ],
					"source" : [ "obj-119", 0 ]
				}

			}
, 			{
				"patchline" : 				{
					"destination" : [ "obj-91", 0 ],
					"hidden" : 1,
					"midpoints" : [ 408.468785464763641, 186.0, 468.621828645467758, 186.0 ],
					"source" : [ "obj-121", 0 ]
				}

			}
, 			{
				"patchline" : 				{
					"destination" : [ "obj-168", 0 ],
					"hidden" : 1,
					"midpoints" : [ 482.277800321578979, 365.906089246273041, 2778.5, 365.906089246273041 ],
					"source" : [ "obj-127", 0 ]
				}

			}
, 			{
				"patchline" : 				{
					"destination" : [ "obj-17", 0 ],
					"hidden" : 1,
					"midpoints" : [ 74.466011524200439, 873.0, 210.0, 873.0, 210.0, 276.0, 158.5, 276.0 ],
					"order" : 0,
					"source" : [ "obj-138", 0 ]
				}

			}
, 			{
				"patchline" : 				{
					"destination" : [ "obj-70", 0 ],
					"hidden" : 1,
					"midpoints" : [ 74.466011524200439, 873.0, 210.0, 873.0, 210.0, 165.0, 183.0, 165.0, 183.0, 81.0, 158.5, 81.0 ],
					"order" : 1,
					"source" : [ "obj-138", 0 ]
				}

			}
, 			{
				"patchline" : 				{
					"destination" : [ "obj-160", 0 ],
					"hidden" : 1,
					"midpoints" : [ 66.722224950790405, 486.0, 42.0, 486.0, 42.0, 366.0, 48.0, 366.0, 48.0, 267.0, 51.0, 267.0, 51.0, 213.0, 48.0, 213.0, 48.0, 117.0, 66.191489011049271, 117.0 ],
					"source" : [ "obj-139", 0 ]
				}

			}
, 			{
				"patchline" : 				{
					"destination" : [ "obj-210", 0 ],
					"hidden" : 1,
					"midpoints" : [ 117.191489011049271, 177.0, 540.0, 177.0, 540.0, 570.0, 1443.5, 570.0 ],
					"source" : [ "obj-140", 0 ]
				}

			}
, 			{
				"patchline" : 				{
					"destination" : [ "obj-143", 0 ],
					"hidden" : 1,
					"midpoints" : [ 124.493589133024216, 177.0, 183.0, 177.0, 183.0, 402.0, 117.0, 402.0, 117.0, 495.0, 66.722224950790405, 495.0 ],
					"source" : [ "obj-142", 0 ]
				}

			}
, 			{
				"patchline" : 				{
					"destination" : [ "obj-140", 0 ],
					"hidden" : 1,
					"midpoints" : [ 66.722224950790405, 531.0, 135.0, 531.0, 135.0, 369.0, 183.0, 369.0, 183.0, 168.0, 102.0, 168.0, 102.0, 117.0, 117.191489011049271, 117.0 ],
					"source" : [ "obj-143", 0 ]
				}

			}
, 			{
				"patchline" : 				{
					"destination" : [ "obj-148", 0 ],
					"hidden" : 1,
					"midpoints" : [ 266.722234487533569, 576.0, 237.0, 576.0, 237.0, 168.0, 288.0, 168.0, 288.0, 117.0, 302.191489011049271, 117.0 ],
					"source" : [ "obj-145", 0 ]
				}

			}
, 			{
				"patchline" : 				{
					"destination" : [ "obj-145", 0 ],
					"hidden" : 1,
					"midpoints" : [ 309.250096321105957, 183.0, 237.0, 183.0, 237.0, 549.0, 266.722234487533569, 549.0 ],
					"source" : [ "obj-146", 0 ]
				}

			}
, 			{
				"patchline" : 				{
					"destination" : [ "obj-192", 0 ],
					"hidden" : 1,
					"midpoints" : [ 302.191489011049271, 177.0, 540.0, 177.0, 540.0, 570.0, 2012.5, 570.0 ],
					"source" : [ "obj-148", 0 ]
				}

			}
, 			{
				"patchline" : 				{
					"destination" : [ "obj-152", 0 ],
					"hidden" : 1,
					"midpoints" : [ 266.722234487533569, 543.0, 237.0, 543.0, 237.0, 117.0, 250.941489011049271, 117.0 ],
					"source" : [ "obj-149", 0 ]
				}

			}
, 			{
				"patchline" : 				{
					"destination" : [ "obj-16", 0 ],
					"hidden" : 1,
					"midpoints" : [ 526.802115321159363, 81.0, 390.0, 81.0, 390.0, 78.0, 366.0, 78.0, 366.0, 168.0, 579.0, 168.0, 579.0, 51.0, 679.500019967556, 51.0 ],
					"source" : [ "obj-15", 0 ]
				}

			}
, 			{
				"patchline" : 				{
					"destination" : [ "obj-171", 0 ],
					"hidden" : 1,
					"midpoints" : [ 441.722242832183838, 365.906089246273041, 2688.5, 365.906089246273041 ],
					"source" : [ "obj-150", 0 ]
				}

			}
, 			{
				"patchline" : 				{
					"destination" : [ "obj-149", 0 ],
					"hidden" : 1,
					"midpoints" : [ 258.243589133024216, 348.0, 237.0, 348.0, 237.0, 504.0, 266.722234487533569, 504.0 ],
					"source" : [ "obj-151", 0 ]
				}

			}
, 			{
				"patchline" : 				{
					"destination" : [ "obj-195", 0 ],
					"hidden" : 1,
					"midpoints" : [ 250.941489011049271, 177.0, 540.0, 177.0, 540.0, 570.0, 1910.5, 570.0 ],
					"source" : [ "obj-152", 0 ]
				}

			}
, 			{
				"patchline" : 				{
					"destination" : [ "obj-150", 0 ],
					"hidden" : 1,
					"midpoints" : [ 762.42552661895752, 87.0, 561.0, 87.0, 561.0, 168.0, 471.0, 168.0, 471.0, 114.0, 441.722242832183838, 114.0 ],
					"source" : [ "obj-153", 0 ]
				}

			}
, 			{
				"patchline" : 				{
					"destination" : [ "obj-157", 0 ],
					"hidden" : 1,
					"midpoints" : [ 266.722234487533569, 480.0, 210.0, 480.0, 210.0, 285.0, 189.0, 285.0, 189.0, 117.0, 202.191489011049271, 117.0 ],
					"source" : [ "obj-154", 0 ]
				}

			}
, 			{
				"patchline" : 				{
					"destination" : [ "obj-154", 0 ],
					"hidden" : 1,
					"midpoints" : [ 209.493589133024216, 228.0, 201.0, 228.0, 201.0, 402.0, 266.722234487533569, 402.0 ],
					"source" : [ "obj-155", 0 ]
				}

			}
, 			{
				"patchline" : 				{
					"destination" : [ "obj-198", 0 ],
					"hidden" : 1,
					"midpoints" : [ 202.191489011049271, 360.0, 636.0, 360.0, 636.0, 570.0, 1818.5, 570.0 ],
					"source" : [ "obj-157", 0 ]
				}

			}
, 			{
				"patchline" : 				{
					"destination" : [ "obj-161", 0 ],
					"hidden" : 1,
					"midpoints" : [ 527.098305106163025, 771.0, 103.988193988800049, 771.0 ],
					"source" : [ "obj-158", 0 ]
				}

			}
, 			{
				"patchline" : 				{
					"destination" : [ "obj-2", 0 ],
					"hidden" : 1,
					"midpoints" : [ 679.500019967556, 87.0, 561.0, 87.0, 561.0, 168.0, 366.0, 168.0, 366.0, 39.0, 519.500015199184418, 39.0 ],
					"source" : [ "obj-16", 0 ]
				}

			}
, 			{
				"patchline" : 				{
					"destination" : [ "obj-213", 0 ],
					"hidden" : 1,
					"midpoints" : [ 66.191489011049271, 177.0, 540.0, 177.0, 540.0, 570.0, 1340.5, 570.0 ],
					"source" : [ "obj-160", 0 ]
				}

			}
, 			{
				"patchline" : 				{
					"destination" : [ "obj-166", 0 ],
					"hidden" : 1,
					"midpoints" : [ 103.988193988800049, 819.0, 237.0, 819.0, 237.0, 168.0, 579.0, 168.0, 579.0, 105.0, 519.79620498418808, 105.0 ],
					"source" : [ "obj-161", 0 ]
				}

			}
, 			{
				"patchline" : 				{
					"destination" : [ "obj-165", 0 ],
					"hidden" : 1,
					"midpoints" : [ 466.737178266048431, 387.0, 135.0, 387.0, 135.0, 549.0, 179.578749179840088, 549.0 ],
					"source" : [ "obj-162", 0 ]
				}

			}
, 			{
				"patchline" : 				{
					"destination" : [ "obj-137", 0 ],
					"hidden" : 1,
					"midpoints" : [ 459.435078144073486, 387.0, 321.0, 387.0, 321.0, 549.0, 3768.5, 549.0 ],
					"source" : [ "obj-164", 0 ]
				}

			}
, 			{
				"patchline" : 				{
					"destination" : [ "obj-164", 0 ],
					"hidden" : 1,
					"midpoints" : [ 179.578749179840088, 780.0, 237.0, 780.0, 237.0, 168.0, 378.0, 168.0, 378.0, 0.0, 387.0, 0.0, 387.0, -3.0, 426.0, -3.0, 426.0, 0.0, 459.435078144073486, 0.0 ],
					"source" : [ "obj-165", 0 ]
				}

			}
, 			{
				"patchline" : 				{
					"destination" : [ "obj-141", 0 ],
					"hidden" : 1,
					"midpoints" : [ 519.79620498418808, 387.0, 321.0, 387.0, 321.0, 549.0, 3648.5, 549.0 ],
					"source" : [ "obj-166", 0 ]
				}

			}
, 			{
				"patchline" : 				{
					"destination" : [ "obj-19", 0 ],
					"hidden" : 1,
					"midpoints" : [ 158.5, 402.0, 135.0, 402.0, 135.0, 465.0, 158.318905532360077, 465.0 ],
					"order" : 0,
					"source" : [ "obj-17", 0 ]
				}

			}
, 			{
				"patchline" : 				{
					"destination" : [ "obj-4", 0 ],
					"hidden" : 1,
					"midpoints" : [ 158.5, 402.0, 118.5, 402.0 ],
					"order" : 1,
					"source" : [ "obj-17", 0 ]
				}

			}
, 			{
				"patchline" : 				{
					"destination" : [ "obj-176", 0 ],
					"hidden" : 1,
					"midpoints" : [ 23.485432475805283, 297.0, 144.0, 297.0, 144.0, 276.0, 334.300004839897156, 276.0 ],
					"source" : [ "obj-172", 0 ]
				}

			}
, 			{
				"patchline" : 				{
					"destination" : [ "obj-147", 0 ],
					"hidden" : 1,
					"midpoints" : [ 16.183332353830338, 294.0, 45.0, 294.0, 45.0, 387.0, 321.0, 387.0, 321.0, 549.0, 3438.5, 549.0 ],
					"source" : [ "obj-173", 0 ]
				}

			}
, 			{
				"patchline" : 				{
					"destination" : [ "obj-173", 0 ],
					"hidden" : 1,
					"midpoints" : [ 334.300004839897156, 333.0, 183.0, 333.0, 183.0, 177.0, 0.0, 177.0, 0.0, 186.0, -3.0, 186.0, -3.0, 213.0, 6.0, 213.0, 6.0, 255.0, 16.183332353830338, 255.0 ],
					"source" : [ "obj-176", 0 ]
				}

			}
, 			{
				"patchline" : 				{
					"destination" : [ "obj-179", 0 ],
					"hidden" : 1,
					"midpoints" : [ 489.876090228557587, 159.0, 588.0, 159.0, 588.0, 156.0, 601.833350986242294, 156.0 ],
					"source" : [ "obj-178", 0 ]
				}

			}
, 			{
				"patchline" : 				{
					"destination" : [ "obj-127", 0 ],
					"hidden" : 1,
					"midpoints" : [ 601.833350986242294, 186.0, 579.0, 186.0, 579.0, 107.007813185686246, 519.0, 107.007813185686246, 519.0, 114.0, 482.277800321578979, 114.0 ],
					"source" : [ "obj-179", 0 ]
				}

			}
, 			{
				"patchline" : 				{
					"destination" : [ "obj-70", 0 ],
					"hidden" : 1,
					"midpoints" : [ 158.318905532360077, 504.0, 135.0, 504.0, 135.0, 369.0, 183.0, 369.0, 183.0, 81.0, 158.5, 81.0 ],
					"source" : [ "obj-19", 0 ]
				}

			}
, 			{
				"patchline" : 				{
					"destination" : [ "obj-50", 0 ],
					"hidden" : 1,
					"midpoints" : [ 519.500015199184418, 78.0, 366.0, 78.0, 366.0, 231.0, 428.500000298023224, 231.0 ],
					"source" : [ "obj-2", 0 ]
				}

			}
, 			{
				"patchline" : 				{
					"destination" : [ "obj-183", 0 ],
					"hidden" : 1,
					"midpoints" : [ 459.500013411045074, 102.0, 423.0, 102.0, 423.0, 231.0, 630.0, 231.0, 630.0, 570.0, 2314.5, 570.0 ],
					"source" : [ "obj-22", 0 ]
				}

			}
, 			{
				"patchline" : 				{
					"destination" : [ "obj-49", 0 ],
					"hidden" : 1,
					"midpoints" : [ 73.178667575120926, 294.0, 48.0, 294.0, 48.0, 387.0, 42.0, 387.0, 42.0, 573.0, 71.500001847743988, 573.0 ],
					"source" : [ "obj-24", 0 ]
				}

			}
, 			{
				"patchline" : 				{
					"destination" : [ "obj-30", 0 ],
					"hidden" : 1,
					"midpoints" : [ 466.653858661651611, 75.736430890101474, 423.0, 75.736430890101474, 423.0, 180.0, 562.969406723976135, 180.0 ],
					"source" : [ "obj-26", 0 ]
				}

			}
, 			{
				"patchline" : 				{
					"destination" : [ "obj-201", 0 ],
					"hidden" : 1,
					"midpoints" : [ 305.0, 102.0, 366.0, 102.0, 366.0, 231.0, 630.0, 231.0, 630.0, 570.0, 1728.5, 570.0 ],
					"source" : [ "obj-28", 0 ]
				}

			}
, 			{
				"patchline" : 				{
					"destination" : [ "obj-22", 0 ],
					"hidden" : 1,
					"midpoints" : [ 562.969406723976135, 219.0, 366.0, 219.0, 366.0, 15.0, 414.0, 15.0, 414.0, 39.0, 426.0, 39.0, 426.0, 63.0, 459.500013411045074, 63.0 ],
					"source" : [ "obj-30", 0 ]
				}

			}
, 			{
				"patchline" : 				{
					"destination" : [ "obj-204", 0 ],
					"hidden" : 1,
					"midpoints" : [ 254.705461621284485, 102.0, 366.0, 102.0, 366.0, 177.0, 540.0, 177.0, 540.0, 570.0, 1637.5, 570.0 ],
					"source" : [ "obj-32", 0 ]
				}

			}
, 			{
				"patchline" : 				{
					"destination" : [ "obj-177", 0 ],
					"hidden" : 1,
					"midpoints" : [ 401.500011682510376, 367.904255494475365, 2508.5, 367.904255494475365 ],
					"source" : [ "obj-40", 0 ]
				}

			}
, 			{
				"patchline" : 				{
					"destination" : [ "obj-144", 0 ],
					"hidden" : 1,
					"midpoints" : [ 66.691489011049271, 297.0, 96.0, 297.0, 96.0, 387.0, 321.0, 387.0, 321.0, 549.0, 3543.5, 549.0 ],
					"source" : [ "obj-46", 0 ]
				}

			}
, 			{
				"patchline" : 				{
					"destination" : [ "obj-46", 0 ],
					"hidden" : 1,
					"midpoints" : [ 71.500001847743988, 612.0, 42.0, 612.0, 42.0, 366.0, 48.0, 366.0, 48.0, 267.0, 54.0, 267.0, 54.0, 258.0, 66.691489011049271, 258.0 ],
					"source" : [ "obj-49", 0 ]
				}

			}
, 			{
				"patchline" : 				{
					"destination" : [ "obj-207", 0 ],
					"hidden" : 1,
					"midpoints" : [ 202.191489011049271, 105.0, 189.0, 105.0, 189.0, 177.0, 540.0, 177.0, 540.0, 570.0, 1548.5, 570.0 ],
					"source" : [ "obj-51", 0 ]
				}

			}
, 			{
				"patchline" : 				{
					"destination" : [ "obj-225", 0 ],
					"hidden" : 1,
					"midpoints" : [ 17.191489011049271, 105.0, 3.0, 105.0, 3.0, 177.0, 540.0, 177.0, 540.0, 570.0, 963.5, 570.0 ],
					"source" : [ "obj-52", 0 ]
				}

			}
, 			{
				"patchline" : 				{
					"destination" : [ "obj-216", 0 ],
					"hidden" : 1,
					"midpoints" : [ 17.191489011049271, 177.0, 540.0, 177.0, 540.0, 570.0, 1248.5, 570.0 ],
					"source" : [ "obj-53", 0 ]
				}

			}
, 			{
				"patchline" : 				{
					"destination" : [ "obj-72", 0 ],
					"hidden" : 1,
					"midpoints" : [ 408.802111804485321, 177.0, 389.430792450904846, 177.0 ],
					"source" : [ "obj-55", 0 ]
				}

			}
, 			{
				"patchline" : 				{
					"destination" : [ "obj-3", 0 ],
					"source" : [ "obj-59", 0 ]
				}

			}
, 			{
				"patchline" : 				{
					"destination" : [ "obj-17", 0 ],
					"hidden" : 1,
					"midpoints" : [ 158.318905532360077, 438.0, 135.0, 438.0, 135.0, 369.0, 183.0, 369.0, 183.0, 276.0, 158.5, 276.0 ],
					"source" : [ "obj-7", 0 ]
				}

			}
, 			{
				"patchline" : 				{
					"destination" : [ "obj-4", 0 ],
					"hidden" : 1,
					"midpoints" : [ 158.5, 264.0, 183.0, 264.0, 183.0, 402.0, 118.5, 402.0 ],
					"order" : 1,
					"source" : [ "obj-70", 0 ]
				}

			}
, 			{
				"patchline" : 				{
					"destination" : [ "obj-7", 0 ],
					"hidden" : 1,
					"midpoints" : [ 158.5, 264.0, 183.0, 264.0, 183.0, 402.0, 158.318905532360077, 402.0 ],
					"order" : 0,
					"source" : [ "obj-70", 0 ]
				}

			}
, 			{
				"patchline" : 				{
					"destination" : [ "obj-40", 0 ],
					"hidden" : 1,
					"midpoints" : [ 389.430792450904846, 213.0, 366.0, 213.0, 366.0, 85.920956133399159, 401.500011682510376, 85.920956133399159 ],
					"source" : [ "obj-72", 0 ]
				}

			}
, 			{
				"patchline" : 				{
					"destination" : [ "obj-219", 0 ],
					"hidden" : 1,
					"midpoints" : [ 119.773964583873749, 102.0, 141.0, 102.0, 141.0, 177.0, 540.0, 177.0, 540.0, 570.0, 1143.5, 570.0 ],
					"source" : [ "obj-74", 0 ]
				}

			}
, 			{
				"patchline" : 				{
					"destination" : [ "obj-174", 0 ],
					"hidden" : 1,
					"midpoints" : [ 401.166685342788696, 367.904255494475365, 2598.5, 367.904255494475365 ],
					"source" : [ "obj-76", 0 ]
				}

			}
, 			{
				"patchline" : 				{
					"destination" : [ "obj-222", 0 ],
					"hidden" : 1,
					"midpoints" : [ 69.5, 102.0, 90.0, 102.0, 90.0, 177.0, 540.0, 177.0, 540.0, 570.0, 1053.5, 570.0 ],
					"source" : [ "obj-78", 0 ]
				}

			}
, 			{
				"patchline" : 				{
					"destination" : [ "obj-95", 0 ],
					"hidden" : 1,
					"midpoints" : [ 24.326278448104858, 177.0, 48.0, 177.0, 48.0, 240.0, 51.0, 240.0, 51.0, 297.0, 48.0, 297.0, 48.0, 387.0, 66.722224950790405, 387.0 ],
					"source" : [ "obj-89", 0 ]
				}

			}
, 			{
				"patchline" : 				{
					"destination" : [ "obj-237", 0 ],
					"hidden" : 1,
					"midpoints" : [ 69.5, 48.0, 171.0, 48.0, 171.0, 81.0, 183.0, 81.0, 183.0, 360.0, 590.5, 360.0 ],
					"source" : [ "obj-90", 0 ]
				}

			}
, 			{
				"patchline" : 				{
					"destination" : [ "obj-76", 0 ],
					"hidden" : 1,
					"midpoints" : [ 468.621828645467758, 225.0, 426.0, 225.0, 426.0, 117.0, 401.166685342788696, 117.0 ],
					"source" : [ "obj-91", 0 ]
				}

			}
, 			{
				"patchline" : 				{
					"destination" : [ "obj-240", 0 ],
					"hidden" : 1,
					"midpoints" : [ 20.5, 48.0, 171.0, 48.0, 171.0, 81.0, 183.0, 81.0, 183.0, 360.0, 495.5, 360.0 ],
					"source" : [ "obj-92", 0 ]
				}

			}
, 			{
				"patchline" : 				{
					"destination" : [ "obj-234", 0 ],
					"hidden" : 1,
					"midpoints" : [ 254.5, 74.030135092209093, 366.0, 74.030135092209093, 366.0, 177.0, 540.0, 177.0, 540.0, 570.0, 687.5, 570.0 ],
					"source" : [ "obj-94", 0 ]
				}

			}
, 			{
				"patchline" : 				{
					"destination" : [ "obj-53", 0 ],
					"hidden" : 1,
					"midpoints" : [ 66.722224950790405, 426.0, 42.0, 426.0, 42.0, 366.0, 48.0, 366.0, 48.0, 267.0, 51.0, 267.0, 51.0, 213.0, 48.0, 213.0, 48.0, 168.0, 3.0, 168.0, 3.0, 117.0, 17.191489011049271, 117.0 ],
					"source" : [ "obj-95", 0 ]
				}

			}
, 			{
				"patchline" : 				{
					"destination" : [ "obj-241", 0 ],
					"hidden" : 1,
					"midpoints" : [ 205.5, 48.0, 183.0, 48.0, 183.0, 360.0, 412.5, 360.0 ],
					"source" : [ "obj-96", 0 ]
				}

			}
 ],
		"saved_attribute_attributes" : 		{
			"default_plcolor" : 			{
				"expression" : ""
			}

		}

	}

}
