{
	"patcher" : 	{
		"fileversion" : 1,
		"appversion" : 		{
			"major" : 9,
			"minor" : 0,
			"revision" : 9,
			"architecture" : "x64",
			"modernui" : 1
		}
,
		"classnamespace" : "box",
		"rect" : [ 898.0, 96.0, 495.0, 987.0 ],
		"gridsize" : [ 15.0, 15.0 ],
		"boxes" : [ 			{
				"box" : 				{
					"id" : "obj-85",
					"maxclass" : "message",
					"numinlets" : 2,
					"numoutlets" : 1,
					"outlettype" : [ "" ],
					"patching_rect" : [ 431.606216073036194, 241.559805482625961, 29.5, 22.0 ],
					"text" : "255"
				}

			}
, 			{
				"box" : 				{
					"focusbordercolor" : [ 0.631372549019608, 0.63921568627451, 0.662745098039216, 0.0 ],
					"id" : "obj-80",
					"maxclass" : "live.button",
					"numinlets" : 1,
					"numoutlets" : 1,
					"outlettype" : [ "" ],
					"parameter_enable" : 1,
					"patching_rect" : [ 349.611666887998581, 153.432845652103424, 11.987178266048431, 11.025641039013863 ],
					"saved_attribute_attributes" : 					{
						"focusbordercolor" : 						{
							"expression" : ""
						}
,
						"valueof" : 						{
							"parameter_enum" : [ "off", "on" ],
							"parameter_invisible" : 2,
							"parameter_longname" : "live.button[36]",
							"parameter_mmax" : 1,
							"parameter_modmode" : 0,
							"parameter_shortname" : "live.button",
							"parameter_type" : 2
						}

					}
,
					"varname" : "live.button[7]"
				}

			}
, 			{
				"box" : 				{
					"bgcolor" : [ 0.094117647058824, 0.098039215686275, 0.117647058823529, 0.0 ],
					"id" : "obj-81",
					"maxclass" : "dial",
					"mode" : 5,
					"needlecolor" : [ 0.4, 0.92156862745098, 1.0, 1.0 ],
					"numinlets" : 1,
					"numoutlets" : 1,
					"outlettype" : [ "float" ],
					"outlinecolor" : [ 0.066666666666667, 0.070588235294118, 0.07843137254902, 1.0 ],
					"parameter_enable" : 1,
					"patching_rect" : [ 338.796745032072067, 128.331838637590408, 33.617021977901459, 33.617021977901459 ],
					"saved_attribute_attributes" : 					{
						"valueof" : 						{
							"parameter_initial" : [ 0 ],
							"parameter_initial_enable" : 1,
							"parameter_longname" : "eqB_bellGain",
							"parameter_mmax" : 510.0,
							"parameter_modmax" : 510.0,
							"parameter_modmode" : 4,
							"parameter_shortname" : "eqB_bellGain",
							"parameter_type" : 0,
							"parameter_unitstyle" : 0
						}

					}
,
					"size" : 511.0,
					"thickness" : 60.0,
					"varname" : "dial[7]"
				}

			}
, 			{
				"box" : 				{
					"id" : "obj-57",
					"maxclass" : "message",
					"numinlets" : 2,
					"numoutlets" : 1,
					"outlettype" : [ "" ],
					"patching_rect" : [ 287.564765810966492, 231.088082075119019, 29.5, 22.0 ],
					"text" : "255"
				}

			}
, 			{
				"box" : 				{
					"focusbordercolor" : [ 0.631372549019608, 0.63921568627451, 0.662745098039216, 0.0 ],
					"id" : "obj-44",
					"maxclass" : "live.button",
					"numinlets" : 1,
					"numoutlets" : 1,
					"outlettype" : [ "" ],
					"parameter_enable" : 1,
					"patching_rect" : [ 265.6716588139534, 153.432845652103424, 11.987178266048431, 11.025641039013863 ],
					"saved_attribute_attributes" : 					{
						"focusbordercolor" : 						{
							"expression" : ""
						}
,
						"valueof" : 						{
							"parameter_enum" : [ "off", "on" ],
							"parameter_invisible" : 2,
							"parameter_longname" : "live.button[35]",
							"parameter_mmax" : 1,
							"parameter_modmode" : 0,
							"parameter_shortname" : "live.button",
							"parameter_type" : 2
						}

					}
,
					"varname" : "live.button[6]"
				}

			}
, 			{
				"box" : 				{
					"bgcolor" : [ 0.094117647058824, 0.098039215686275, 0.117647058823529, 0.0 ],
					"id" : "obj-54",
					"maxclass" : "dial",
					"mode" : 5,
					"needlecolor" : [ 0.4, 0.92156862745098, 1.0, 1.0 ],
					"numinlets" : 1,
					"numoutlets" : 1,
					"outlettype" : [ "float" ],
					"outlinecolor" : [ 0.066666666666667, 0.070588235294118, 0.07843137254902, 1.0 ],
					"parameter_enable" : 1,
					"patching_rect" : [ 254.925389468669891, 127.164187252521515, 33.617021977901459, 33.617021977901459 ],
					"saved_attribute_attributes" : 					{
						"valueof" : 						{
							"parameter_initial" : [ 0 ],
							"parameter_initial_enable" : 1,
							"parameter_longname" : "eqB_bellFreq",
							"parameter_mmax" : 510.0,
							"parameter_modmax" : 510.0,
							"parameter_modmode" : 4,
							"parameter_shortname" : "eqB_bellFreq",
							"parameter_type" : 0,
							"parameter_unitstyle" : 0
						}

					}
,
					"size" : 511.0,
					"thickness" : 60.0,
					"varname" : "dial[6]"
				}

			}
, 			{
				"box" : 				{
					"id" : "obj-43",
					"maxclass" : "message",
					"numinlets" : 2,
					"numoutlets" : 1,
					"outlettype" : [ "" ],
					"patching_rect" : [ 431.606216073036194, 206.735750555992126, 29.5, 22.0 ],
					"text" : "510"
				}

			}
, 			{
				"box" : 				{
					"focusbordercolor" : [ 0.631372549019608, 0.63921568627451, 0.662745098039216, 0.0 ],
					"id" : "obj-37",
					"maxclass" : "live.button",
					"numinlets" : 1,
					"numoutlets" : 1,
					"outlettype" : [ "" ],
					"parameter_enable" : 1,
					"patching_rect" : [ 330.24437603354454, 123.616357296705246, 11.987178266048431, 11.025641039013863 ],
					"saved_attribute_attributes" : 					{
						"focusbordercolor" : 						{
							"expression" : ""
						}
,
						"valueof" : 						{
							"parameter_enum" : [ "off", "on" ],
							"parameter_invisible" : 2,
							"parameter_longname" : "live.button[34]",
							"parameter_mmax" : 1,
							"parameter_modmode" : 0,
							"parameter_shortname" : "live.button",
							"parameter_type" : 2
						}

					}
,
					"varname" : "live.button[5]"
				}

			}
, 			{
				"box" : 				{
					"bgcolor" : [ 0.094117647058824, 0.098039215686275, 0.117647058823529, 0.0 ],
					"id" : "obj-39",
					"maxclass" : "dial",
					"mode" : 5,
					"needlecolor" : [ 0.4, 0.92156862745098, 1.0, 1.0 ],
					"numinlets" : 1,
					"numoutlets" : 1,
					"outlettype" : [ "float" ],
					"outlinecolor" : [ 0.066666666666667, 0.070588235294118, 0.07843137254902, 1.0 ],
					"parameter_enable" : 1,
					"patching_rect" : [ 319.403005540370941, 95.223886698484421, 33.617021977901459, 33.617021977901459 ],
					"saved_attribute_attributes" : 					{
						"valueof" : 						{
							"parameter_initial" : [ 0 ],
							"parameter_initial_enable" : 1,
							"parameter_longname" : "eqB_lp",
							"parameter_mmax" : 510.0,
							"parameter_modmax" : 510.0,
							"parameter_modmode" : 4,
							"parameter_shortname" : "eqB_lp",
							"parameter_type" : 0,
							"parameter_unitstyle" : 0
						}

					}
,
					"size" : 511.0,
					"thickness" : 60.0,
					"varname" : "dial[5]"
				}

			}
, 			{
				"box" : 				{
					"id" : "obj-36",
					"maxclass" : "message",
					"numinlets" : 2,
					"numoutlets" : 1,
					"outlettype" : [ "" ],
					"patching_rect" : [ 382.383418321609497, 235.751294493675232, 29.5, 22.0 ],
					"text" : "0"
				}

			}
, 			{
				"box" : 				{
					"focusbordercolor" : [ 0.631372549019608, 0.63921568627451, 0.662745098039216, 0.0 ],
					"id" : "obj-31",
					"maxclass" : "live.button",
					"numinlets" : 1,
					"numoutlets" : 1,
					"outlettype" : [ "" ],
					"parameter_enable" : 1,
					"patching_rect" : [ 245.069276601076126, 123.616357296705246, 11.987178266048431, 11.025641039013863 ],
					"saved_attribute_attributes" : 					{
						"focusbordercolor" : 						{
							"expression" : ""
						}
,
						"valueof" : 						{
							"parameter_enum" : [ "off", "on" ],
							"parameter_invisible" : 2,
							"parameter_longname" : "live.button[33]",
							"parameter_mmax" : 1,
							"parameter_modmode" : 0,
							"parameter_shortname" : "live.button",
							"parameter_type" : 2
						}

					}
,
					"varname" : "live.button[4]"
				}

			}
, 			{
				"box" : 				{
					"bgcolor" : [ 0.094117647058824, 0.098039215686275, 0.117647058823529, 0.0 ],
					"id" : "obj-33",
					"maxclass" : "dial",
					"mode" : 5,
					"needlecolor" : [ 0.4, 0.92156862745098, 1.0, 1.0 ],
					"numinlets" : 1,
					"numoutlets" : 1,
					"outlettype" : [ "float" ],
					"outlinecolor" : [ 0.066666666666667, 0.070588235294118, 0.07843137254902, 1.0 ],
					"parameter_enable" : 1,
					"patching_rect" : [ 234.328373223543167, 95.223886698484421, 33.617021977901459, 33.617021977901459 ],
					"saved_attribute_attributes" : 					{
						"valueof" : 						{
							"parameter_initial" : [ 0 ],
							"parameter_initial_enable" : 1,
							"parameter_longname" : "eqB_hp",
							"parameter_mmax" : 510.0,
							"parameter_modmax" : 510.0,
							"parameter_modmode" : 4,
							"parameter_shortname" : "eqB_hp",
							"parameter_type" : 0,
							"parameter_unitstyle" : 0
						}

					}
,
					"size" : 511.0,
					"thickness" : 60.0,
					"varname" : "dial[4]"
				}

			}
, 			{
				"box" : 				{
					"id" : "obj-30",
					"maxclass" : "message",
					"numinlets" : 2,
					"numoutlets" : 1,
					"outlettype" : [ "" ],
					"patching_rect" : [ 568.75, 219.170983672142029, 29.5, 22.0 ],
					"text" : "255"
				}

			}
, 			{
				"box" : 				{
					"focusbordercolor" : [ 0.631372549019608, 0.63921568627451, 0.662745098039216, 0.0 ],
					"id" : "obj-23",
					"maxclass" : "live.button",
					"numinlets" : 1,
					"numoutlets" : 1,
					"outlettype" : [ "" ],
					"parameter_enable" : 1,
					"patching_rect" : [ 352.24437603354454, 80.116359382867813, 11.987178266048431, 11.025641039013863 ],
					"saved_attribute_attributes" : 					{
						"focusbordercolor" : 						{
							"expression" : ""
						}
,
						"valueof" : 						{
							"parameter_enum" : [ "off", "on" ],
							"parameter_invisible" : 2,
							"parameter_longname" : "live.button[32]",
							"parameter_mmax" : 1,
							"parameter_modmode" : 0,
							"parameter_shortname" : "live.button",
							"parameter_type" : 2
						}

					}
,
					"varname" : "live.button[3]"
				}

			}
, 			{
				"box" : 				{
					"bgcolor" : [ 0.094117647058824, 0.098039215686275, 0.117647058823529, 0.0 ],
					"id" : "obj-26",
					"maxclass" : "dial",
					"mode" : 5,
					"needlecolor" : [ 0.4, 0.92156862745098, 1.0, 1.0 ],
					"numinlets" : 1,
					"numoutlets" : 1,
					"outlettype" : [ "float" ],
					"outlinecolor" : [ 0.066666666666667, 0.070588235294118, 0.07843137254902, 1.0 ],
					"parameter_enable" : 1,
					"patching_rect" : [ 341.363547056913376, 53.691489011049271, 33.617021977901459, 33.617021977901459 ],
					"saved_attribute_attributes" : 					{
						"valueof" : 						{
							"parameter_initial" : [ 0 ],
							"parameter_initial_enable" : 1,
							"parameter_longname" : "eqA_bellGain",
							"parameter_mmax" : 510.0,
							"parameter_modmax" : 510.0,
							"parameter_modmode" : 4,
							"parameter_shortname" : "eqA_bellGain",
							"parameter_type" : 0,
							"parameter_unitstyle" : 0
						}

					}
,
					"size" : 511.0,
					"thickness" : 60.0,
					"varname" : "dial[3]"
				}

			}
, 			{
				"box" : 				{
					"id" : "obj-86",
					"maxclass" : "message",
					"numinlets" : 2,
					"numoutlets" : 1,
					"outlettype" : [ "" ],
					"patching_rect" : [ 322.66667628288269, 231.333340227603912, 29.5, 22.0 ],
					"text" : "255"
				}

			}
, 			{
				"box" : 				{
					"focusbordercolor" : [ 0.631372549019608, 0.63921568627451, 0.662745098039216, 0.0 ],
					"id" : "obj-83",
					"maxclass" : "live.button",
					"numinlets" : 1,
					"numoutlets" : 1,
					"outlettype" : [ "" ],
					"parameter_enable" : 1,
					"patching_rect" : [ 265.863547384738922, 80.024823129177094, 11.987178266048431, 11.025641039013863 ],
					"saved_attribute_attributes" : 					{
						"focusbordercolor" : 						{
							"expression" : ""
						}
,
						"valueof" : 						{
							"parameter_enum" : [ "off", "on" ],
							"parameter_invisible" : 2,
							"parameter_longname" : "live.button[31]",
							"parameter_mmax" : 1,
							"parameter_modmode" : 0,
							"parameter_shortname" : "live.button",
							"parameter_type" : 2
						}

					}
,
					"varname" : "live.button[2]"
				}

			}
, 			{
				"box" : 				{
					"bgcolor" : [ 0.094117647058824, 0.098039215686275, 0.117647058823529, 0.0 ],
					"id" : "obj-84",
					"maxclass" : "dial",
					"mode" : 5,
					"needlecolor" : [ 0.4, 0.92156862745098, 1.0, 1.0 ],
					"numinlets" : 1,
					"numoutlets" : 1,
					"outlettype" : [ "float" ],
					"outlinecolor" : [ 0.066666666666667, 0.070588235294118, 0.07843137254902, 1.0 ],
					"parameter_enable" : 1,
					"patching_rect" : [ 254.863547056913376, 53.691489011049271, 33.617021977901459, 33.617021977901459 ],
					"saved_attribute_attributes" : 					{
						"valueof" : 						{
							"parameter_initial" : [ 0 ],
							"parameter_initial_enable" : 1,
							"parameter_longname" : "eqA_bellFreq",
							"parameter_mmax" : 510.0,
							"parameter_modmax" : 510.0,
							"parameter_modmode" : 4,
							"parameter_shortname" : "eqA_bellFreq",
							"parameter_type" : 0,
							"parameter_unitstyle" : 0
						}

					}
,
					"size" : 511.0,
					"thickness" : 60.0,
					"varname" : "dial[2]"
				}

			}
, 			{
				"box" : 				{
					"id" : "obj-82",
					"maxclass" : "message",
					"numinlets" : 2,
					"numoutlets" : 1,
					"outlettype" : [ "" ],
					"patching_rect" : [ 389.66667827963829, 197.333339214324951, 29.5, 22.0 ],
					"text" : "510"
				}

			}
, 			{
				"box" : 				{
					"focusbordercolor" : [ 0.631372549019608, 0.63921568627451, 0.662745098039216, 0.0 ],
					"id" : "obj-78",
					"maxclass" : "live.button",
					"numinlets" : 1,
					"numoutlets" : 1,
					"outlettype" : [ "" ],
					"parameter_enable" : 1,
					"patching_rect" : [ 330.17846891283989, 44.687179766595364, 11.987178266048431, 11.025641039013863 ],
					"saved_attribute_attributes" : 					{
						"focusbordercolor" : 						{
							"expression" : ""
						}
,
						"valueof" : 						{
							"parameter_enum" : [ "off", "on" ],
							"parameter_invisible" : 2,
							"parameter_longname" : "live.button[30]",
							"parameter_mmax" : 1,
							"parameter_modmode" : 0,
							"parameter_shortname" : "live.button",
							"parameter_type" : 2
						}

					}
,
					"varname" : "live.button[1]"
				}

			}
, 			{
				"box" : 				{
					"bgcolor" : [ 0.094117647058824, 0.098039215686275, 0.117647058823529, 0.0 ],
					"id" : "obj-77",
					"maxclass" : "dial",
					"mode" : 5,
					"needlecolor" : [ 0.4, 0.92156862745098, 1.0, 1.0 ],
					"numinlets" : 1,
					"numoutlets" : 1,
					"outlettype" : [ "float" ],
					"outlinecolor" : [ 0.066666666666667, 0.070588235294118, 0.07843137254902, 1.0 ],
					"parameter_enable" : 1,
					"patching_rect" : [ 319.363547056913376, 17.191489011049271, 33.617021977901459, 33.617021977901459 ],
					"saved_attribute_attributes" : 					{
						"valueof" : 						{
							"parameter_initial" : [ 0 ],
							"parameter_initial_enable" : 1,
							"parameter_longname" : "eqA_lp",
							"parameter_mmax" : 510.0,
							"parameter_modmax" : 510.0,
							"parameter_modmode" : 4,
							"parameter_shortname" : "eqA_lp",
							"parameter_type" : 0,
							"parameter_unitstyle" : 0
						}

					}
,
					"size" : 511.0,
					"thickness" : 60.0,
					"varname" : "dial[1]"
				}

			}
, 			{
				"box" : 				{
					"id" : "obj-32",
					"maxclass" : "message",
					"numinlets" : 2,
					"numoutlets" : 1,
					"outlettype" : [ "" ],
					"patching_rect" : [ 218.666673183441162, 197.666672557592392, 24.666667401790619, 22.0 ],
					"text" : "0"
				}

			}
, 			{
				"box" : 				{
					"focusbordercolor" : [ 0.631372549019608, 0.63921568627451, 0.662745098039216, 0.0 ],
					"id" : "obj-150",
					"maxclass" : "live.button",
					"numinlets" : 1,
					"numoutlets" : 1,
					"outlettype" : [ "" ],
					"parameter_enable" : 1,
					"patching_rect" : [ 245.17846891283989, 43.487179480493069, 11.987178266048431, 11.025641039013863 ],
					"saved_attribute_attributes" : 					{
						"focusbordercolor" : 						{
							"expression" : ""
						}
,
						"valueof" : 						{
							"parameter_enum" : [ "off", "on" ],
							"parameter_invisible" : 2,
							"parameter_longname" : "live.button[29]",
							"parameter_mmax" : 1,
							"parameter_modmode" : 0,
							"parameter_shortname" : "live.button",
							"parameter_type" : 2
						}

					}
,
					"varname" : "live.button[14]"
				}

			}
, 			{
				"box" : 				{
					"bgcolor" : [ 0.094117647058824, 0.098039215686275, 0.117647058823529, 0.0 ],
					"id" : "obj-109",
					"maxclass" : "dial",
					"mode" : 5,
					"needlecolor" : [ 0.4, 0.92156862745098, 1.0, 1.0 ],
					"numinlets" : 1,
					"numoutlets" : 1,
					"outlettype" : [ "float" ],
					"outlinecolor" : [ 0.066666666666667, 0.070588235294118, 0.07843137254902, 1.0 ],
					"parameter_enable" : 1,
					"patching_rect" : [ 234.363547056913376, 17.191489011049271, 33.617021977901459, 33.617021977901459 ],
					"saved_attribute_attributes" : 					{
						"valueof" : 						{
							"parameter_initial" : [ 0 ],
							"parameter_initial_enable" : 1,
							"parameter_longname" : "eqA_hp",
							"parameter_mmax" : 510.0,
							"parameter_modmax" : 510.0,
							"parameter_modmode" : 4,
							"parameter_shortname" : "eqA_hp",
							"parameter_type" : 0,
							"parameter_unitstyle" : 0
						}

					}
,
					"size" : 511.0,
					"thickness" : 60.0,
					"varname" : "dial[9]"
				}

			}
, 			{
				"box" : 				{
					"fontsize" : 11.0,
					"id" : "obj-14",
					"maxclass" : "comment",
					"numinlets" : 1,
					"numoutlets" : 0,
					"patching_rect" : [ 105.500003010034561, 147.0, 36.000000536441803, 19.0 ],
					"text" : "b_m5"
				}

			}
, 			{
				"box" : 				{
					"fontsize" : 11.0,
					"id" : "obj-12",
					"maxclass" : "comment",
					"numinlets" : 1,
					"numoutlets" : 0,
					"patching_rect" : [ 60.366668328642845, 147.0, 36.0, 19.0 ],
					"text" : "n_m3"
				}

			}
, 			{
				"box" : 				{
					"fontsize" : 11.0,
					"id" : "obj-7",
					"maxclass" : "comment",
					"numinlets" : 1,
					"numoutlets" : 0,
					"patching_rect" : [ 12.166666895151138, 147.0, 36.000000536441803, 19.0 ],
					"text" : "a_m1"
				}

			}
, 			{
				"box" : 				{
					"id" : "obj-48",
					"maxclass" : "comment",
					"numinlets" : 1,
					"numoutlets" : 0,
					"patching_rect" : [ 338.105256021022797, 115.223887979984283, 35.0, 20.0 ],
					"text" : "gain "
				}

			}
, 			{
				"box" : 				{
					"id" : "obj-49",
					"maxclass" : "comment",
					"numinlets" : 1,
					"numoutlets" : 0,
					"patching_rect" : [ 303.947365522384644, 113.157893657684326, 19.0, 20.0 ],
					"text" : "q"
				}

			}
, 			{
				"box" : 				{
					"id" : "obj-50",
					"maxclass" : "comment",
					"numinlets" : 1,
					"numoutlets" : 0,
					"patching_rect" : [ 257.910464286804199, 115.223887979984283, 29.0, 20.0 ],
					"text" : "freq"
				}

			}
, 			{
				"box" : 				{
					"focusbordercolor" : [ 0.631372549019608, 0.63921568627451, 0.662745098039216, 0.0 ],
					"id" : "obj-51",
					"maxclass" : "live.dial",
					"numinlets" : 1,
					"numoutlets" : 2,
					"outlettype" : [ "", "float" ],
					"parameter_enable" : 1,
					"patching_rect" : [ 362.686590403318405, 98.208961516618729, 27.0, 28.0 ],
					"saved_attribute_attributes" : 					{
						"focusbordercolor" : 						{
							"expression" : ""
						}
,
						"valueof" : 						{
							"parameter_initial" : [ 43 ],
							"parameter_initial_enable" : 1,
							"parameter_longname" : "eqB_lpRes",
							"parameter_mmax" : 100.0,
							"parameter_modmax" : 100.0,
							"parameter_modmode" : 4,
							"parameter_shortname" : "eqB_lpRes",
							"parameter_type" : 1,
							"parameter_unitstyle" : 0
						}

					}
,
					"showname" : 0,
					"shownumber" : 0,
					"varname" : "live.dial[9]"
				}

			}
, 			{
				"box" : 				{
					"id" : "obj-52",
					"maxclass" : "comment",
					"numinlets" : 1,
					"numoutlets" : 0,
					"patching_rect" : [ 363.753028869628906, 80.971658229827881, 25.0, 20.0 ],
					"text" : "res"
				}

			}
, 			{
				"box" : 				{
					"id" : "obj-53",
					"maxclass" : "comment",
					"numinlets" : 1,
					"numoutlets" : 0,
					"patching_rect" : [ 327.172058045864105, 80.971658229827881, 18.0, 20.0 ],
					"text" : "lp"
				}

			}
, 			{
				"box" : 				{
					"focusbordercolor" : [ 0.631372549019608, 0.63921568627451, 0.662745098039216, 0.0 ],
					"id" : "obj-56",
					"maxclass" : "live.dial",
					"numinlets" : 1,
					"numoutlets" : 2,
					"outlettype" : [ "", "float" ],
					"parameter_enable" : 1,
					"patching_rect" : [ 299.999997138977051, 131.140349626541138, 27.0, 28.0 ],
					"saved_attribute_attributes" : 					{
						"focusbordercolor" : 						{
							"expression" : ""
						}
,
						"valueof" : 						{
							"parameter_initial" : [ 50 ],
							"parameter_initial_enable" : 1,
							"parameter_longname" : "eqB_bellQ",
							"parameter_mmax" : 100.0,
							"parameter_modmax" : 100.0,
							"parameter_modmode" : 4,
							"parameter_shortname" : "eqB_bellQ",
							"parameter_type" : 1,
							"parameter_unitstyle" : 0
						}

					}
,
					"showname" : 0,
					"shownumber" : 0,
					"varname" : "live.dial[12]"
				}

			}
, 			{
				"box" : 				{
					"focusbordercolor" : [ 0.631372549019608, 0.63921568627451, 0.662745098039216, 0.0 ],
					"id" : "obj-58",
					"maxclass" : "live.dial",
					"numinlets" : 1,
					"numoutlets" : 2,
					"outlettype" : [ "", "float" ],
					"parameter_enable" : 1,
					"patching_rect" : [ 278.507480531930923, 98.208961516618729, 27.0, 28.0 ],
					"saved_attribute_attributes" : 					{
						"focusbordercolor" : 						{
							"expression" : ""
						}
,
						"valueof" : 						{
							"parameter_initial" : [ 43 ],
							"parameter_initial_enable" : 1,
							"parameter_longname" : "eqB_hpRes",
							"parameter_mmax" : 100.0,
							"parameter_modmax" : 100.0,
							"parameter_modmode" : 4,
							"parameter_shortname" : "eqB_hpRes",
							"parameter_type" : 1,
							"parameter_unitstyle" : 0
						}

					}
,
					"showname" : 0,
					"shownumber" : 0,
					"varname" : "live.dial[14]"
				}

			}
, 			{
				"box" : 				{
					"id" : "obj-59",
					"maxclass" : "comment",
					"numinlets" : 1,
					"numoutlets" : 0,
					"patching_rect" : [ 279.29250431060791, 80.971658229827881, 25.5, 20.0 ],
					"text" : "res"
				}

			}
, 			{
				"box" : 				{
					"id" : "obj-60",
					"maxclass" : "comment",
					"numinlets" : 1,
					"numoutlets" : 0,
					"patching_rect" : [ 239.996958613395691, 80.971658229827881, 22.0, 20.0 ],
					"text" : "hp"
				}

			}
, 			{
				"box" : 				{
					"id" : "obj-47",
					"maxclass" : "comment",
					"numinlets" : 1,
					"numoutlets" : 0,
					"patching_rect" : [ 340.672058045864105, 39.0, 35.0, 20.0 ],
					"text" : "gain "
				}

			}
, 			{
				"box" : 				{
					"id" : "obj-46",
					"maxclass" : "comment",
					"numinlets" : 1,
					"numoutlets" : 0,
					"patching_rect" : [ 306.172058045864105, 39.0, 18.141594380140305, 20.0 ],
					"text" : "q"
				}

			}
, 			{
				"box" : 				{
					"id" : "obj-45",
					"maxclass" : "comment",
					"numinlets" : 1,
					"numoutlets" : 0,
					"patching_rect" : [ 257.172058045864105, 39.0, 29.0, 20.0 ],
					"text" : "freq"
				}

			}
, 			{
				"box" : 				{
					"focusbordercolor" : [ 0.631372549019608, 0.63921568627451, 0.662745098039216, 0.0 ],
					"id" : "obj-40",
					"maxclass" : "live.dial",
					"numinlets" : 1,
					"numoutlets" : 2,
					"outlettype" : [ "", "float" ],
					"parameter_enable" : 1,
					"patching_rect" : [ 363.172058045864105, 20.0, 27.0, 28.0 ],
					"saved_attribute_attributes" : 					{
						"focusbordercolor" : 						{
							"expression" : ""
						}
,
						"valueof" : 						{
							"parameter_initial" : [ 43 ],
							"parameter_initial_enable" : 1,
							"parameter_longname" : "eqA_lpRes",
							"parameter_mmax" : 100.0,
							"parameter_modmax" : 100.0,
							"parameter_modmode" : 4,
							"parameter_shortname" : "eqA_lpRes",
							"parameter_type" : 1,
							"parameter_unitstyle" : 0
						}

					}
,
					"showname" : 0,
					"shownumber" : 0,
					"varname" : "live.dial[4]"
				}

			}
, 			{
				"box" : 				{
					"id" : "obj-41",
					"maxclass" : "comment",
					"numinlets" : 1,
					"numoutlets" : 0,
					"patching_rect" : [ 364.172058045864105, 1.0, 25.0, 20.0 ],
					"text" : "res"
				}

			}
, 			{
				"box" : 				{
					"id" : "obj-42",
					"maxclass" : "comment",
					"numinlets" : 1,
					"numoutlets" : 0,
					"patching_rect" : [ 327.172058045864105, 1.0, 18.0, 20.0 ],
					"text" : "lp"
				}

			}
, 			{
				"box" : 				{
					"focusbordercolor" : [ 0.631372549019608, 0.63921568627451, 0.662745098039216, 0.0 ],
					"id" : "obj-38",
					"maxclass" : "live.dial",
					"numinlets" : 1,
					"numoutlets" : 2,
					"outlettype" : [ "", "float" ],
					"parameter_enable" : 1,
					"patching_rect" : [ 301.172058045864105, 56.5, 27.0, 28.0 ],
					"saved_attribute_attributes" : 					{
						"focusbordercolor" : 						{
							"expression" : ""
						}
,
						"valueof" : 						{
							"parameter_initial" : [ 50 ],
							"parameter_initial_enable" : 1,
							"parameter_longname" : "eqA_bellQ",
							"parameter_mmax" : 100.0,
							"parameter_modmax" : 100.0,
							"parameter_modmode" : 4,
							"parameter_shortname" : "eqA_bellQ",
							"parameter_type" : 1,
							"parameter_unitstyle" : 0
						}

					}
,
					"showname" : 0,
					"shownumber" : 0,
					"varname" : "live.dial[7]"
				}

			}
, 			{
				"box" : 				{
					"focusbordercolor" : [ 0.631372549019608, 0.63921568627451, 0.662745098039216, 0.0 ],
					"id" : "obj-29",
					"maxclass" : "live.dial",
					"numinlets" : 1,
					"numoutlets" : 2,
					"outlettype" : [ "", "float" ],
					"parameter_enable" : 1,
					"patching_rect" : [ 278.672058045864105, 20.0, 27.0, 28.0 ],
					"saved_attribute_attributes" : 					{
						"focusbordercolor" : 						{
							"expression" : ""
						}
,
						"valueof" : 						{
							"parameter_initial" : [ 43 ],
							"parameter_initial_enable" : 1,
							"parameter_longname" : "eqA_hpRes",
							"parameter_mmax" : 100.0,
							"parameter_modmax" : 100.0,
							"parameter_modmode" : 4,
							"parameter_shortname" : "eqA_hpRes",
							"parameter_type" : 1,
							"parameter_unitstyle" : 0
						}

					}
,
					"showname" : 0,
					"shownumber" : 0,
					"varname" : "live.dial[3]"
				}

			}
, 			{
				"box" : 				{
					"id" : "obj-28",
					"maxclass" : "comment",
					"numinlets" : 1,
					"numoutlets" : 0,
					"patching_rect" : [ 279.172058045864105, 1.0, 26.0, 20.0 ],
					"text" : "res"
				}

			}
, 			{
				"box" : 				{
					"id" : "obj-21",
					"maxclass" : "comment",
					"numinlets" : 1,
					"numoutlets" : 0,
					"patching_rect" : [ 240.172058045864105, 1.0, 22.0, 20.0 ],
					"text" : "hp"
				}

			}
, 			{
				"box" : 				{
					"id" : "obj-16",
					"maxclass" : "newobj",
					"numinlets" : 1,
					"numoutlets" : 2,
					"outlettype" : [ "", "" ],
					"patching_rect" : [ 986.131381571292877, 167.883210778236389, 100.0, 22.0 ],
					"save" : [ "#N", "thispatcher", ";", "#Q", "end", ";" ],
					"text" : "thispatcher"
				}

			}
, 			{
				"box" : 				{
					"comment" : "",
					"id" : "obj-13",
					"index" : 1,
					"maxclass" : "inlet",
					"numinlets" : 0,
					"numoutlets" : 1,
					"outlettype" : [ "" ],
					"patching_rect" : [ 986.131381571292877, 78.102189362049103, 30.0, 30.0 ]
				}

			}
, 			{
				"box" : 				{
					"focusbordercolor" : [ 0.631372549019608, 0.63921568627451, 0.662745098039216, 0.0 ],
					"id" : "obj-35",
					"lastchannelcount" : 0,
					"maxclass" : "live.gain~",
					"numinlets" : 2,
					"numoutlets" : 5,
					"outlettype" : [ "signal", "signal", "", "float", "list" ],
					"parameter_enable" : 1,
					"patching_rect" : [ 143.333337604999542, 2.000003516674042, 45.0, 150.0 ],
					"saved_attribute_attributes" : 					{
						"focusbordercolor" : 						{
							"expression" : ""
						}
,
						"valueof" : 						{
							"parameter_initial" : [ -32.0 ],
							"parameter_initial_enable" : 1,
							"parameter_longname" : "mxr-mstr_lvl",
							"parameter_mmax" : 6.0,
							"parameter_mmin" : -70.0,
							"parameter_modmode" : 3,
							"parameter_shortname" : "mxr-mstr_lvl",
							"parameter_type" : 0,
							"parameter_unitstyle" : 4
						}

					}
,
					"showname" : 0,
					"shownumber" : 0,
					"varname" : "live.gain~[4]"
				}

			}
, 			{
				"box" : 				{
					"id" : "obj-1",
					"maxclass" : "newobj",
					"numinlets" : 0,
					"numoutlets" : 1,
					"outlettype" : [ "" ],
					"patching_rect" : [ 225.580000000000013, 480.160000000000025, 100.0, 22.0 ],
					"text" : "r ---serumJS"
				}

			}
, 			{
				"box" : 				{
					"focusbordercolor" : [ 0.631372549019608, 0.63921568627451, 0.662745098039216, 0.0 ],
					"id" : "obj-27",
					"lastchannelcount" : 0,
					"maxclass" : "live.gain~",
					"numinlets" : 2,
					"numoutlets" : 5,
					"outlettype" : [ "signal", "signal", "", "float", "list" ],
					"parameter_enable" : 1,
					"patching_rect" : [ 99.600001484155655, 10.800000160932541, 48.0, 135.0 ],
					"saved_attribute_attributes" : 					{
						"focusbordercolor" : 						{
							"expression" : ""
						}
,
						"valueof" : 						{
							"parameter_initial" : [ -70 ],
							"parameter_initial_enable" : 1,
							"parameter_longname" : "mxr-b_lvl",
							"parameter_mmax" : 6.0,
							"parameter_mmin" : -70.0,
							"parameter_modmode" : 3,
							"parameter_shortname" : "mxr-b_lvl",
							"parameter_type" : 0,
							"parameter_unitstyle" : 4
						}

					}
,
					"showname" : 0,
					"shownumber" : 0,
					"varname" : "live.gain~[2]"
				}

			}
, 			{
				"box" : 				{
					"focusbordercolor" : [ 0.631372549019608, 0.63921568627451, 0.662745098039216, 0.0 ],
					"id" : "obj-24",
					"lastchannelcount" : 0,
					"maxclass" : "live.gain~",
					"numinlets" : 2,
					"numoutlets" : 5,
					"outlettype" : [ "signal", "signal", "", "float", "list" ],
					"parameter_enable" : 1,
					"patching_rect" : [ 54.800000816583633, 10.800000160932541, 48.0, 135.0 ],
					"saved_attribute_attributes" : 					{
						"focusbordercolor" : 						{
							"expression" : ""
						}
,
						"valueof" : 						{
							"parameter_initial" : [ -70 ],
							"parameter_initial_enable" : 1,
							"parameter_longname" : "mxr-n_lvl",
							"parameter_mmax" : 6.0,
							"parameter_mmin" : -70.0,
							"parameter_modmode" : 3,
							"parameter_shortname" : "mxr-n_lvl",
							"parameter_type" : 0,
							"parameter_unitstyle" : 4
						}

					}
,
					"showname" : 0,
					"shownumber" : 0,
					"varname" : "live.gain~[1]"
				}

			}
, 			{
				"box" : 				{
					"focusbordercolor" : [ 0.631372549019608, 0.63921568627451, 0.662745098039216, 0.0 ],
					"id" : "obj-10",
					"lastchannelcount" : 0,
					"maxclass" : "live.gain~",
					"numinlets" : 2,
					"numoutlets" : 5,
					"outlettype" : [ "signal", "signal", "", "float", "list" ],
					"parameter_enable" : 1,
					"patching_rect" : [ 6.000000089406967, 10.800000160932541, 48.0, 135.0 ],
					"saved_attribute_attributes" : 					{
						"focusbordercolor" : 						{
							"expression" : ""
						}
,
						"valueof" : 						{
							"parameter_longname" : "mxr-a_lvl",
							"parameter_mmax" : 6.0,
							"parameter_mmin" : -70.0,
							"parameter_modmode" : 3,
							"parameter_shortname" : "mxr-a_lvl",
							"parameter_type" : 0,
							"parameter_unitstyle" : 4
						}

					}
,
					"showname" : 0,
					"shownumber" : 0,
					"varname" : "live.gain~"
				}

			}
, 			{
				"box" : 				{
					"angle" : 270.0,
					"bgcolor" : [ 0.298039215686275, 0.298039215686275, 0.298039215686275, 1.0 ],
					"border" : 2,
					"bordercolor" : [ 0.125490196078431, 0.125490196078431, 0.125490196078431, 0.4 ],
					"id" : "obj-97",
					"maxclass" : "panel",
					"mode" : 0,
					"numinlets" : 1,
					"numoutlets" : 0,
					"patching_rect" : [ -1.0, 0.0, 189.0, 167.0 ],
					"proportion" : 0.39,
					"saved_attribute_attributes" : 					{
						"bgfillcolor" : 						{
							"expression" : ""
						}

					}

				}

			}
, 			{
				"box" : 				{
					"angle" : 270.0,
					"bgcolor" : [ 0.298039215686275, 0.298039215686275, 0.298039215686275, 1.0 ],
					"border" : 2,
					"bordercolor" : [ 0.125490196078431, 0.125490196078431, 0.125490196078431, 0.4 ],
					"id" : "obj-18",
					"maxclass" : "panel",
					"mode" : 0,
					"numinlets" : 1,
					"numoutlets" : 0,
					"patching_rect" : [ 219.0, 0.0, 189.0, 167.0 ],
					"proportion" : 0.39,
					"saved_attribute_attributes" : 					{
						"bgfillcolor" : 						{
							"expression" : ""
						}

					}

				}

			}
, 			{
				"box" : 				{
					"id" : "obj-17",
					"maxclass" : "comment",
					"numinlets" : 1,
					"numoutlets" : 0,
					"patching_rect" : [ 2740.333333611488342, 500.666675329208374, 150.0, 20.0 ]
				}

			}
, 			{
				"box" : 				{
					"id" : "obj-91",
					"linecount" : 2,
					"maxclass" : "newobj",
					"numinlets" : 6,
					"numoutlets" : 1,
					"outlettype" : [ "" ],
					"patching_rect" : [ 2664.333333611488342, 290.666675329208374, 67.0, 35.0 ],
					"text" : "scale -100 100 0. 1."
				}

			}
, 			{
				"box" : 				{
					"id" : "obj-94",
					"linecount" : 2,
					"maxclass" : "newobj",
					"numinlets" : 6,
					"numoutlets" : 1,
					"outlettype" : [ "" ],
					"patching_rect" : [ 2574.333333611488342, 290.666675329208374, 72.0, 35.0 ],
					"text" : "scale -100 100 0. 1."
				}

			}
, 			{
				"box" : 				{
					"id" : "obj-2",
					"linecount" : 2,
					"maxclass" : "newobj",
					"numinlets" : 6,
					"numoutlets" : 1,
					"outlettype" : [ "" ],
					"patching_rect" : [ 2499.333333611488342, 290.666675329208374, 67.0, 35.0 ],
					"text" : "scale -100 100 0. 1."
				}

			}
, 			{
				"box" : 				{
					"id" : "obj-100",
					"linecount" : 2,
					"maxclass" : "newobj",
					"numinlets" : 6,
					"numoutlets" : 1,
					"outlettype" : [ "" ],
					"patching_rect" : [ 2424.333333611488342, 290.666675329208374, 67.0, 35.0 ],
					"text" : "scale -100 100 0. 1."
				}

			}
, 			{
				"box" : 				{
					"id" : "obj-79",
					"linecount" : 2,
					"maxclass" : "newobj",
					"numinlets" : 6,
					"numoutlets" : 1,
					"outlettype" : [ "" ],
					"patching_rect" : [ 2349.333333611488342, 290.666675329208374, 67.0, 35.0 ],
					"text" : "scale -100 100 0. 1."
				}

			}
, 			{
				"box" : 				{
					"id" : "obj-5",
					"linecount" : 2,
					"maxclass" : "newobj",
					"numinlets" : 6,
					"numoutlets" : 1,
					"outlettype" : [ "" ],
					"patching_rect" : [ 2259.333333611488342, 290.666675329208374, 60.0, 35.0 ],
					"text" : "scale 0. 126. 0. 1."
				}

			}
, 			{
				"box" : 				{
					"id" : "obj-9",
					"linecount" : 2,
					"maxclass" : "newobj",
					"numinlets" : 6,
					"numoutlets" : 1,
					"outlettype" : [ "" ],
					"patching_rect" : [ 2184.333333611488342, 290.666675329208374, 67.0, 35.0 ],
					"text" : "scale -100 100 0. 1."
				}

			}
, 			{
				"box" : 				{
					"id" : "obj-88",
					"linecount" : 2,
					"maxclass" : "newobj",
					"numinlets" : 6,
					"numoutlets" : 1,
					"outlettype" : [ "" ],
					"patching_rect" : [ 2109.333333611488342, 290.666675329208374, 60.0, 35.0 ],
					"text" : "scale 0. 126. 0. 1."
				}

			}
, 			{
				"box" : 				{
					"id" : "obj-67",
					"linecount" : 2,
					"maxclass" : "newobj",
					"numinlets" : 6,
					"numoutlets" : 1,
					"outlettype" : [ "" ],
					"patching_rect" : [ 2019.333333611488342, 290.666675329208374, 60.0, 35.0 ],
					"text" : "scale 0. 127. 0. 1."
				}

			}
, 			{
				"box" : 				{
					"id" : "obj-70",
					"linecount" : 2,
					"maxclass" : "newobj",
					"numinlets" : 6,
					"numoutlets" : 1,
					"outlettype" : [ "" ],
					"patching_rect" : [ 1929.333333611488342, 290.666675329208374, 60.0, 35.0 ],
					"text" : "scale 0. 127. 0. 1."
				}

			}
, 			{
				"box" : 				{
					"id" : "obj-73",
					"linecount" : 2,
					"maxclass" : "newobj",
					"numinlets" : 6,
					"numoutlets" : 1,
					"outlettype" : [ "" ],
					"patching_rect" : [ 1854.333333611488342, 290.666675329208374, 60.0, 35.0 ],
					"text" : "scale 0. 127. 0. 1."
				}

			}
, 			{
				"box" : 				{
					"id" : "obj-76",
					"linecount" : 2,
					"maxclass" : "newobj",
					"numinlets" : 6,
					"numoutlets" : 1,
					"outlettype" : [ "" ],
					"patching_rect" : [ 1779.333333611488342, 290.666675329208374, 60.0, 35.0 ],
					"text" : "scale 0. 127. 0. 1."
				}

			}
, 			{
				"box" : 				{
					"id" : "obj-64",
					"linecount" : 2,
					"maxclass" : "newobj",
					"numinlets" : 6,
					"numoutlets" : 1,
					"outlettype" : [ "" ],
					"patching_rect" : [ 1689.333333611488342, 290.666675329208374, 61.0, 35.0 ],
					"text" : "scale -50 50 0. 1."
				}

			}
, 			{
				"box" : 				{
					"id" : "obj-61",
					"linecount" : 2,
					"maxclass" : "newobj",
					"numinlets" : 6,
					"numoutlets" : 1,
					"outlettype" : [ "" ],
					"patching_rect" : [ 1599.333333611488342, 290.666675329208374, 61.0, 35.0 ],
					"text" : "scale -50 50 0. 1."
				}

			}
, 			{
				"box" : 				{
					"id" : "obj-20",
					"linecount" : 2,
					"maxclass" : "newobj",
					"numinlets" : 6,
					"numoutlets" : 1,
					"outlettype" : [ "" ],
					"patching_rect" : [ 1524.333333611488342, 290.666675329208374, 61.0, 35.0 ],
					"text" : "scale -50 50 0. 1."
				}

			}
, 			{
				"box" : 				{
					"id" : "obj-34",
					"linecount" : 2,
					"maxclass" : "newobj",
					"numinlets" : 6,
					"numoutlets" : 1,
					"outlettype" : [ "" ],
					"patching_rect" : [ 1449.333333611488342, 290.666675329208374, 60.0, 35.0 ],
					"text" : "scale 0 510 0. 1."
				}

			}
, 			{
				"box" : 				{
					"id" : "obj-104",
					"linecount" : 2,
					"maxclass" : "newobj",
					"numinlets" : 6,
					"numoutlets" : 1,
					"outlettype" : [ "" ],
					"patching_rect" : [ 1374.333333611488342, 290.666675329208374, 60.0, 35.0 ],
					"text" : "scale 0 100 0. 1."
				}

			}
, 			{
				"box" : 				{
					"id" : "obj-107",
					"linecount" : 2,
					"maxclass" : "newobj",
					"numinlets" : 6,
					"numoutlets" : 1,
					"outlettype" : [ "" ],
					"patching_rect" : [ 1299.333333611488342, 290.666675329208374, 60.0, 35.0 ],
					"text" : "scale 0. 127. 0. 1."
				}

			}
, 			{
				"box" : 				{
					"id" : "obj-111",
					"linecount" : 2,
					"maxclass" : "newobj",
					"numinlets" : 6,
					"numoutlets" : 1,
					"outlettype" : [ "" ],
					"patching_rect" : [ 1209.333333611488342, 290.666675329208374, 60.0, 35.0 ],
					"text" : "scale 0 100 0. 1."
				}

			}
, 			{
				"box" : 				{
					"id" : "obj-114",
					"linecount" : 2,
					"maxclass" : "newobj",
					"numinlets" : 6,
					"numoutlets" : 1,
					"outlettype" : [ "" ],
					"patching_rect" : [ 1134.333333611488342, 290.666675329208374, 60.0, 35.0 ],
					"text" : "scale 0 510 0. 1."
				}

			}
, 			{
				"box" : 				{
					"id" : "obj-117",
					"linecount" : 2,
					"maxclass" : "newobj",
					"numinlets" : 6,
					"numoutlets" : 1,
					"outlettype" : [ "" ],
					"patching_rect" : [ 1059.333333611488342, 290.666675329208374, 60.0, 35.0 ],
					"text" : "scale 0 100 0. 1."
				}

			}
, 			{
				"box" : 				{
					"id" : "obj-120",
					"linecount" : 2,
					"maxclass" : "newobj",
					"numinlets" : 6,
					"numoutlets" : 1,
					"outlettype" : [ "" ],
					"patching_rect" : [ 969.333333611488342, 290.666675329208374, 60.0, 35.0 ],
					"text" : "scale 0 510 0. 1."
				}

			}
, 			{
				"box" : 				{
					"id" : "obj-123",
					"linecount" : 2,
					"maxclass" : "newobj",
					"numinlets" : 6,
					"numoutlets" : 1,
					"outlettype" : [ "" ],
					"patching_rect" : [ 879.333333611488342, 290.666675329208374, 60.0, 35.0 ],
					"text" : "scale 0 510 0. 1."
				}

			}
, 			{
				"box" : 				{
					"id" : "obj-126",
					"linecount" : 2,
					"maxclass" : "newobj",
					"numinlets" : 6,
					"numoutlets" : 1,
					"outlettype" : [ "" ],
					"patching_rect" : [ 804.333333611488342, 290.666675329208374, 60.0, 35.0 ],
					"text" : "scale 0 100 0. 1."
				}

			}
, 			{
				"box" : 				{
					"id" : "obj-129",
					"linecount" : 2,
					"maxclass" : "newobj",
					"numinlets" : 6,
					"numoutlets" : 1,
					"outlettype" : [ "" ],
					"patching_rect" : [ 729.333333611488342, 290.666675329208374, 60.0, 35.0 ],
					"text" : "scale 0 510 0. 1."
				}

			}
, 			{
				"box" : 				{
					"id" : "obj-132",
					"linecount" : 2,
					"maxclass" : "newobj",
					"numinlets" : 6,
					"numoutlets" : 1,
					"outlettype" : [ "" ],
					"patching_rect" : [ 639.333333611488342, 290.666675329208374, 60.0, 35.0 ],
					"text" : "scale 0 100 0. 1."
				}

			}
, 			{
				"box" : 				{
					"id" : "obj-135",
					"linecount" : 2,
					"maxclass" : "newobj",
					"numinlets" : 6,
					"numoutlets" : 1,
					"outlettype" : [ "" ],
					"patching_rect" : [ 564.333333611488342, 290.666675329208374, 60.0, 35.0 ],
					"text" : "scale 0 510 0. 1."
				}

			}
, 			{
				"box" : 				{
					"id" : "obj-138",
					"linecount" : 2,
					"maxclass" : "newobj",
					"numinlets" : 6,
					"numoutlets" : 1,
					"outlettype" : [ "" ],
					"patching_rect" : [ 489.333333611488342, 290.666675329208374, 60.0, 35.0 ],
					"text" : "scale 0 100 0. 1."
				}

			}
, 			{
				"box" : 				{
					"id" : "obj-141",
					"linecount" : 2,
					"maxclass" : "newobj",
					"numinlets" : 6,
					"numoutlets" : 1,
					"outlettype" : [ "" ],
					"patching_rect" : [ 399.333333611488342, 290.666675329208374, 60.0, 35.0 ],
					"text" : "scale 0 510 0. 1."
				}

			}
, 			{
				"box" : 				{
					"id" : "obj-146",
					"linecount" : 2,
					"maxclass" : "newobj",
					"numinlets" : 6,
					"numoutlets" : 1,
					"outlettype" : [ "" ],
					"patching_rect" : [ 204.333333611488342, 290.666675329208374, 60.0, 35.0 ],
					"text" : "scale 0. 1. 0.5 1."
				}

			}
, 			{
				"box" : 				{
					"id" : "obj-149",
					"linecount" : 2,
					"maxclass" : "newobj",
					"numinlets" : 6,
					"numoutlets" : 1,
					"outlettype" : [ "" ],
					"patching_rect" : [ 99.333333611488342, 290.666675329208374, 60.0, 35.0 ],
					"text" : "scale 0. 1. 0.5 1."
				}

			}
, 			{
				"box" : 				{
					"id" : "obj-153",
					"linecount" : 2,
					"maxclass" : "newobj",
					"numinlets" : 6,
					"numoutlets" : 1,
					"outlettype" : [ "" ],
					"patching_rect" : [ 9.333333611488342, 290.666675329208374, 60.0, 35.0 ],
					"text" : "scale 0. 1. 0.5 1."
				}

			}
 ],
		"lines" : [ 			{
				"patchline" : 				{
					"destination" : [ "obj-153", 0 ],
					"hidden" : 1,
					"midpoints" : [ 37.250000089406967, 147.0, 48.0, 147.0, 48.0, 276.0, 18.833333611488342, 276.0 ],
					"source" : [ "obj-10", 3 ]
				}

			}
, 			{
				"patchline" : 				{
					"destination" : [ "obj-141", 0 ],
					"source" : [ "obj-109", 0 ]
				}

			}
, 			{
				"patchline" : 				{
					"destination" : [ "obj-16", 0 ],
					"source" : [ "obj-13", 0 ]
				}

			}
, 			{
				"patchline" : 				{
					"destination" : [ "obj-32", 0 ],
					"hidden" : 1,
					"midpoints" : [ 251.165647178888321, 57.0, 231.0, 57.0, 231.0, 66.0, 222.0, 66.0, 222.0, 183.0, 228.166673183441162, 183.0 ],
					"source" : [ "obj-150", 0 ]
				}

			}
, 			{
				"patchline" : 				{
					"destination" : [ "obj-30", 0 ],
					"hidden" : 1,
					"midpoints" : [ 358.231554299592972, 93.0, 429.0, 93.0, 429.0, 192.0, 578.25, 192.0 ],
					"source" : [ "obj-23", 0 ]
				}

			}
, 			{
				"patchline" : 				{
					"destination" : [ "obj-149", 0 ],
					"hidden" : 1,
					"midpoints" : [ 86.050000816583633, 147.0, 96.0, 147.0, 96.0, 276.0, 108.833333611488342, 276.0 ],
					"source" : [ "obj-24", 3 ]
				}

			}
, 			{
				"patchline" : 				{
					"destination" : [ "obj-123", 0 ],
					"source" : [ "obj-26", 0 ]
				}

			}
, 			{
				"patchline" : 				{
					"destination" : [ "obj-146", 0 ],
					"hidden" : 1,
					"midpoints" : [ 130.850001484155655, 276.0, 213.833333611488342, 276.0 ],
					"source" : [ "obj-27", 3 ]
				}

			}
, 			{
				"patchline" : 				{
					"destination" : [ "obj-138", 0 ],
					"source" : [ "obj-29", 0 ]
				}

			}
, 			{
				"patchline" : 				{
					"destination" : [ "obj-26", 0 ],
					"hidden" : 1,
					"midpoints" : [ 578.25, 243.0, 471.0, 243.0, 471.0, 177.0, 402.0, 177.0, 402.0, 48.0, 350.863547056913376, 48.0 ],
					"source" : [ "obj-30", 0 ]
				}

			}
, 			{
				"patchline" : 				{
					"destination" : [ "obj-36", 0 ],
					"hidden" : 1,
					"midpoints" : [ 251.056454867124557, 183.0, 375.0, 183.0, 375.0, 231.0, 391.883418321609497, 231.0 ],
					"source" : [ "obj-31", 0 ]
				}

			}
, 			{
				"patchline" : 				{
					"destination" : [ "obj-109", 0 ],
					"hidden" : 1,
					"midpoints" : [ 228.166673183441162, 222.0, 204.0, 222.0, 204.0, 12.0, 243.863547056913376, 12.0 ],
					"source" : [ "obj-32", 0 ]
				}

			}
, 			{
				"patchline" : 				{
					"destination" : [ "obj-120", 0 ],
					"source" : [ "obj-33", 0 ]
				}

			}
, 			{
				"patchline" : 				{
					"destination" : [ "obj-33", 0 ],
					"hidden" : 1,
					"midpoints" : [ 391.883418321609497, 258.0, 363.0, 258.0, 363.0, 174.0, 219.0, 174.0, 219.0, 93.0, 243.828373223543167, 93.0 ],
					"source" : [ "obj-36", 0 ]
				}

			}
, 			{
				"patchline" : 				{
					"destination" : [ "obj-43", 0 ],
					"hidden" : 1,
					"midpoints" : [ 336.231554299592972, 183.0, 441.106216073036194, 183.0 ],
					"source" : [ "obj-37", 0 ]
				}

			}
, 			{
				"patchline" : 				{
					"destination" : [ "obj-126", 0 ],
					"source" : [ "obj-38", 0 ]
				}

			}
, 			{
				"patchline" : 				{
					"destination" : [ "obj-114", 0 ],
					"source" : [ "obj-39", 0 ]
				}

			}
, 			{
				"patchline" : 				{
					"destination" : [ "obj-132", 0 ],
					"source" : [ "obj-40", 0 ]
				}

			}
, 			{
				"patchline" : 				{
					"destination" : [ "obj-39", 0 ],
					"hidden" : 1,
					"midpoints" : [ 441.106216073036194, 231.0, 426.0, 231.0, 426.0, 174.0, 297.0, 174.0, 297.0, 129.0, 306.0, 129.0, 306.0, 93.0, 328.903005540370941, 93.0 ],
					"source" : [ "obj-43", 0 ]
				}

			}
, 			{
				"patchline" : 				{
					"destination" : [ "obj-57", 0 ],
					"hidden" : 1,
					"midpoints" : [ 271.658837080001831, 270.0, 273.0, 270.0, 273.0, 228.0, 297.064765810966492, 228.0 ],
					"source" : [ "obj-44", 0 ]
				}

			}
, 			{
				"patchline" : 				{
					"destination" : [ "obj-111", 0 ],
					"source" : [ "obj-51", 0 ]
				}

			}
, 			{
				"patchline" : 				{
					"destination" : [ "obj-107", 0 ],
					"source" : [ "obj-54", 0 ]
				}

			}
, 			{
				"patchline" : 				{
					"destination" : [ "obj-104", 0 ],
					"source" : [ "obj-56", 0 ]
				}

			}
, 			{
				"patchline" : 				{
					"destination" : [ "obj-54", 0 ],
					"hidden" : 1,
					"midpoints" : [ 297.064765810966492, 255.0, 258.0, 255.0, 258.0, 225.0, 264.425389468669891, 225.0 ],
					"source" : [ "obj-57", 0 ]
				}

			}
, 			{
				"patchline" : 				{
					"destination" : [ "obj-117", 0 ],
					"source" : [ "obj-58", 0 ]
				}

			}
, 			{
				"patchline" : 				{
					"destination" : [ "obj-135", 0 ],
					"source" : [ "obj-77", 0 ]
				}

			}
, 			{
				"patchline" : 				{
					"destination" : [ "obj-82", 0 ],
					"hidden" : 1,
					"midpoints" : [ 336.165647178888321, 57.0, 387.0, 57.0, 387.0, 66.0, 399.16667827963829, 66.0 ],
					"source" : [ "obj-78", 0 ]
				}

			}
, 			{
				"patchline" : 				{
					"destination" : [ "obj-85", 0 ],
					"hidden" : 1,
					"midpoints" : [ 355.598845154047012, 183.0, 426.0, 183.0, 426.0, 237.0, 441.106216073036194, 237.0 ],
					"source" : [ "obj-80", 0 ]
				}

			}
, 			{
				"patchline" : 				{
					"destination" : [ "obj-34", 0 ],
					"source" : [ "obj-81", 0 ]
				}

			}
, 			{
				"patchline" : 				{
					"destination" : [ "obj-77", 0 ],
					"hidden" : 1,
					"midpoints" : [ 399.16667827963829, 222.0, 375.0, 222.0, 375.0, 174.0, 402.0, 174.0, 402.0, 0.0, 390.0, 0.0, 390.0, -3.0, 360.0, -3.0, 360.0, 0.0, 345.0, 0.0, 345.0, -3.0, 324.0, -3.0, 324.0, 12.0, 328.863547056913376, 12.0 ],
					"source" : [ "obj-82", 0 ]
				}

			}
, 			{
				"patchline" : 				{
					"destination" : [ "obj-86", 0 ],
					"hidden" : 1,
					"midpoints" : [ 271.850725650787354, 93.0, 222.0, 93.0, 222.0, 183.0, 332.16667628288269, 183.0 ],
					"source" : [ "obj-83", 0 ]
				}

			}
, 			{
				"patchline" : 				{
					"destination" : [ "obj-129", 0 ],
					"source" : [ "obj-84", 0 ]
				}

			}
, 			{
				"patchline" : 				{
					"destination" : [ "obj-81", 0 ],
					"hidden" : 1,
					"midpoints" : [ 441.106216073036194, 273.0, 369.0, 273.0, 369.0, 171.0, 381.0, 171.0, 381.0, 126.0, 348.296745032072067, 126.0 ],
					"source" : [ "obj-85", 0 ]
				}

			}
, 			{
				"patchline" : 				{
					"destination" : [ "obj-84", 0 ],
					"hidden" : 1,
					"midpoints" : [ 332.16667628288269, 264.0, 258.0, 264.0, 258.0, 150.0, 219.0, 150.0, 219.0, 60.0, 249.0, 60.0, 249.0, 48.0, 264.363547056913376, 48.0 ],
					"source" : [ "obj-86", 0 ]
				}

			}
 ],
		"saved_attribute_attributes" : 		{
			"default_plcolor" : 			{
				"expression" : ""
			}

		}
,
		"oscreceiveudpport" : 0
	}

}
