{
	"patcher" : 	{
		"fileversion" : 1,
		"appversion" : 		{
			"major" : 9,
			"minor" : 0,
			"revision" : 9,
			"architecture" : "x64",
			"modernui" : 1
		}
,
		"classnamespace" : "box",
		"rect" : [ 34.0, 96.0, 796.0, 987.0 ],
		"gridsize" : [ 15.0, 15.0 ],
		"boxes" : [ 			{
				"box" : 				{
					"id" : "obj-3",
					"maxclass" : "newobj",
					"numinlets" : 1,
					"numoutlets" : 2,
					"outlettype" : [ "", "" ],
					"patching_rect" : [ 850.049999999999955, 468.0, 67.0, 22.0 ],
					"save" : [ "#N", "thispatcher", ";", "#Q", "end", ";" ],
					"text" : "thispatcher"
				}

			}
, 			{
				"box" : 				{
					"comment" : "",
					"id" : "obj-2",
					"index" : 1,
					"maxclass" : "inlet",
					"numinlets" : 0,
					"numoutlets" : 1,
					"outlettype" : [ "" ],
					"patching_rect" : [ 850.049999999999955, 384.050000000000011, 30.0, 30.0 ]
				}

			}
, 			{
				"box" : 				{
					"id" : "obj-1",
					"maxclass" : "newobj",
					"numinlets" : 0,
					"numoutlets" : 1,
					"outlettype" : [ "" ],
					"patching_rect" : [ 90.0, 840.0, 76.470591425895691, 22.0 ],
					"text" : "r ---serumJS"
				}

			}
, 			{
				"box" : 				{
					"id" : "obj-147",
					"maxclass" : "newobj",
					"numinlets" : 2,
					"numoutlets" : 1,
					"outlettype" : [ "" ],
					"patching_rect" : [ 562.3404221534729, 750.95744776725769, 74.0, 22.0 ],
					"saved_object_attributes" : 					{
						"_persistence" : 1,
						"normalized" : 0,
						"smoothing" : 1.0
					}
,
					"text" : "live.remote~"
				}

			}
, 			{
				"box" : 				{
					"id" : "obj-148",
					"maxclass" : "newobj",
					"numinlets" : 2,
					"numoutlets" : 1,
					"outlettype" : [ "" ],
					"patching_rect" : [ 647.446804523468018, 706.276597023010254, 74.0, 22.0 ],
					"saved_object_attributes" : 					{
						"_persistence" : 1,
						"normalized" : 0,
						"smoothing" : 1.0
					}
,
					"text" : "live.remote~"
				}

			}
, 			{
				"box" : 				{
					"id" : "obj-150",
					"maxclass" : "newobj",
					"numinlets" : 2,
					"numoutlets" : 1,
					"outlettype" : [ "" ],
					"patching_rect" : [ 562.3404221534729, 706.276597023010254, 74.0, 22.0 ],
					"saved_object_attributes" : 					{
						"_persistence" : 1,
						"normalized" : 0,
						"smoothing" : 1.0
					}
,
					"text" : "live.remote~"
				}

			}
, 			{
				"box" : 				{
					"id" : "obj-151",
					"maxclass" : "newobj",
					"numinlets" : 2,
					"numoutlets" : 1,
					"outlettype" : [ "" ],
					"patching_rect" : [ 477.234039783477783, 706.276597023010254, 74.0, 22.0 ],
					"saved_object_attributes" : 					{
						"_persistence" : 1,
						"normalized" : 0,
						"smoothing" : 1.0
					}
,
					"text" : "live.remote~"
				}

			}
, 			{
				"box" : 				{
					"id" : "obj-152",
					"maxclass" : "newobj",
					"numinlets" : 2,
					"numoutlets" : 1,
					"outlettype" : [ "" ],
					"patching_rect" : [ 647.446804523468018, 659.468086719512939, 74.0, 22.0 ],
					"saved_object_attributes" : 					{
						"_persistence" : 1,
						"normalized" : 0,
						"smoothing" : 1.0
					}
,
					"text" : "live.remote~"
				}

			}
, 			{
				"box" : 				{
					"id" : "obj-153",
					"maxclass" : "newobj",
					"numinlets" : 2,
					"numoutlets" : 1,
					"outlettype" : [ "" ],
					"patching_rect" : [ 562.3404221534729, 659.468086719512939, 74.0, 22.0 ],
					"saved_object_attributes" : 					{
						"_persistence" : 1,
						"normalized" : 0,
						"smoothing" : 1.0
					}
,
					"text" : "live.remote~"
				}

			}
, 			{
				"box" : 				{
					"id" : "obj-154",
					"maxclass" : "newobj",
					"numinlets" : 2,
					"numoutlets" : 1,
					"outlettype" : [ "" ],
					"patching_rect" : [ 477.234039783477783, 659.468086719512939, 74.0, 22.0 ],
					"saved_object_attributes" : 					{
						"_persistence" : 1,
						"normalized" : 0,
						"smoothing" : 1.0
					}
,
					"text" : "live.remote~"
				}

			}
, 			{
				"box" : 				{
					"id" : "obj-81",
					"maxclass" : "newobj",
					"numinlets" : 8,
					"numoutlets" : 8,
					"outlettype" : [ "", "", "", "", "", "", "", "" ],
					"patching_rect" : [ 434.680848598480225, 885.0, 236.0, 22.0 ],
					"text" : "route 59 60 61 62 63 64 65"
				}

			}
, 			{
				"box" : 				{
					"id" : "obj-69",
					"maxclass" : "newobj",
					"numinlets" : 2,
					"numoutlets" : 1,
					"outlettype" : [ "" ],
					"patching_rect" : [ 232.553190469741821, 750.95744776725769, 74.0, 22.0 ],
					"saved_object_attributes" : 					{
						"_persistence" : 1,
						"normalized" : 0,
						"smoothing" : 1.0
					}
,
					"text" : "live.remote~"
				}

			}
, 			{
				"box" : 				{
					"id" : "obj-70",
					"maxclass" : "newobj",
					"numinlets" : 2,
					"numoutlets" : 1,
					"outlettype" : [ "" ],
					"patching_rect" : [ 317.659572839736938, 706.276597023010254, 74.0, 22.0 ],
					"saved_object_attributes" : 					{
						"_persistence" : 1,
						"normalized" : 0,
						"smoothing" : 1.0
					}
,
					"text" : "live.remote~"
				}

			}
, 			{
				"box" : 				{
					"id" : "obj-73",
					"maxclass" : "newobj",
					"numinlets" : 2,
					"numoutlets" : 1,
					"outlettype" : [ "" ],
					"patching_rect" : [ 232.553190469741821, 706.276597023010254, 74.0, 22.0 ],
					"saved_object_attributes" : 					{
						"_persistence" : 1,
						"normalized" : 0,
						"smoothing" : 1.0
					}
,
					"text" : "live.remote~"
				}

			}
, 			{
				"box" : 				{
					"id" : "obj-74",
					"maxclass" : "newobj",
					"numinlets" : 2,
					"numoutlets" : 1,
					"outlettype" : [ "" ],
					"patching_rect" : [ 147.446808099746704, 706.276597023010254, 74.0, 22.0 ],
					"saved_object_attributes" : 					{
						"_persistence" : 1,
						"normalized" : 0,
						"smoothing" : 1.0
					}
,
					"text" : "live.remote~"
				}

			}
, 			{
				"box" : 				{
					"id" : "obj-78",
					"maxclass" : "newobj",
					"numinlets" : 2,
					"numoutlets" : 1,
					"outlettype" : [ "" ],
					"patching_rect" : [ 317.659572839736938, 659.468086719512939, 74.0, 22.0 ],
					"saved_object_attributes" : 					{
						"_persistence" : 1,
						"normalized" : 0,
						"smoothing" : 1.0
					}
,
					"text" : "live.remote~"
				}

			}
, 			{
				"box" : 				{
					"id" : "obj-79",
					"maxclass" : "newobj",
					"numinlets" : 2,
					"numoutlets" : 1,
					"outlettype" : [ "" ],
					"patching_rect" : [ 232.553190469741821, 659.468086719512939, 74.0, 22.0 ],
					"saved_object_attributes" : 					{
						"_persistence" : 1,
						"normalized" : 0,
						"smoothing" : 1.0
					}
,
					"text" : "live.remote~"
				}

			}
, 			{
				"box" : 				{
					"id" : "obj-80",
					"maxclass" : "newobj",
					"numinlets" : 2,
					"numoutlets" : 1,
					"outlettype" : [ "" ],
					"patching_rect" : [ 147.446808099746704, 659.468086719512939, 74.0, 22.0 ],
					"saved_object_attributes" : 					{
						"_persistence" : 1,
						"normalized" : 0,
						"smoothing" : 1.0
					}
,
					"text" : "live.remote~"
				}

			}
, 			{
				"box" : 				{
					"id" : "obj-68",
					"maxclass" : "newobj",
					"numinlets" : 8,
					"numoutlets" : 8,
					"outlettype" : [ "", "", "", "", "", "", "", "" ],
					"patching_rect" : [ 90.0, 885.0, 236.0, 22.0 ],
					"text" : "route 52 53 54 55 56 57 58"
				}

			}
, 			{
				"box" : 				{
					"id" : "obj-112",
					"maxclass" : "newobj",
					"numinlets" : 6,
					"numoutlets" : 1,
					"outlettype" : [ "" ],
					"patching_rect" : [ 147.446808099746704, 602.021278619766235, 90.0, 22.0 ],
					"text" : "scale 0 69 0. 1."
				}

			}
, 			{
				"box" : 				{
					"id" : "obj-113",
					"maxclass" : "incdec",
					"numinlets" : 1,
					"numoutlets" : 1,
					"outlettype" : [ "float" ],
					"parameter_enable" : 0,
					"parameter_mappable" : 0,
					"patching_rect" : [ 104.0, 113.0, 20.0, 24.0 ]
				}

			}
, 			{
				"box" : 				{
					"focusbordercolor" : [ 0.631372549019608, 0.63921568627451, 0.662745098039216, 0.0 ],
					"id" : "obj-114",
					"maxclass" : "live.menu",
					"numinlets" : 1,
					"numoutlets" : 3,
					"outlettype" : [ "", "", "float" ],
					"parameter_enable" : 1,
					"patching_rect" : [ 29.0, 118.0, 74.0, 15.0 ],
					"saved_attribute_attributes" : 					{
						"focusbordercolor" : 						{
							"expression" : ""
						}
,
						"valueof" : 						{
							"parameter_enum" : [ "Off", "Sync", "Bend +", "Bend -", "Bend +/-", "PWM", "Asym +", "Asym -", "Asym +/-", "Flip", "Mirror", "Remap 1", "Remap 2", "Remap 3", "Remap 4", "Quantize", "Odd/Even", "LPF", "HPF", "Tube", "Soft Clip", "Hard Clip", "Diode 1", "Diode 2", "Linear Fold", "Sine Fold", "Zero-Square", "Asym", "Rectify", "Sine Shaper", "Stomp Box", "Tape Sat", "Soft Sat", "FM (B)", "FM (C)", "FM (Noise)", "FM (Sub)", "FM (Filter 1)", "FM (Filter 2)", "FME (B)", "FME (C)", "FME (Noise)", "FME (Sub)", "FME (Filter 1)", "FME (Filter 2)", "FML (B)", "FML (C)", "FML (Noise)", "FML (Sub)", "FML (Filter 1)", "FML (Filter 2)", "PD (B)", "PD (C)", "PD (Noise)", "PD (Sub)", "PD (Filter 1)", "PD (Filter 2)", "PD (Self)", "AM (B)", "AM (C)", "AM (Noise)", "AM (Sub)", "AM (Filter 1)", "AM (Filter 2)", "RM (B)", "RM (C)", "RM (Noise)", "RM (Sub)", "RM (Filter 1)", "RM (Filter 2)" ],
							"parameter_invisible" : 1,
							"parameter_longname" : "live.menu[15]",
							"parameter_mmax" : 69,
							"parameter_modmode" : 0,
							"parameter_shortname" : "live.menu",
							"parameter_type" : 2
						}

					}
,
					"varname" : "live.menu[2]"
				}

			}
, 			{
				"box" : 				{
					"id" : "obj-115",
					"maxclass" : "comment",
					"numinlets" : 1,
					"numoutlets" : 0,
					"patching_rect" : [ 100.0, 55.0, 35.0, 20.0 ],
					"text" : "smth",
					"textjustification" : 1
				}

			}
, 			{
				"box" : 				{
					"id" : "obj-117",
					"linecount" : 2,
					"maxclass" : "newobj",
					"numinlets" : 6,
					"numoutlets" : 1,
					"outlettype" : [ "" ],
					"patching_rect" : [ 196.0, 495.0, 73.0, 35.0 ],
					"text" : "scale 0 255 0. 1."
				}

			}
, 			{
				"box" : 				{
					"bgcolor" : [ 0.094117647058824, 0.098039215686275, 0.117647058823529, 0.0 ],
					"id" : "obj-118",
					"maxclass" : "dial",
					"mode" : 5,
					"needlecolor" : [ 0.4, 0.92156862745098, 1.0, 1.0 ],
					"numinlets" : 1,
					"numoutlets" : 1,
					"outlettype" : [ "float" ],
					"outlinecolor" : [ 0.066666666666667, 0.070588235294118, 0.07843137254902, 1.0 ],
					"parameter_enable" : 1,
					"patching_rect" : [ 100.0, 68.0, 33.617021977901459, 33.617021977901459 ],
					"saved_attribute_attributes" : 					{
						"valueof" : 						{
							"parameter_initial" : [ 0 ],
							"parameter_initial_enable" : 1,
							"parameter_longname" : "b_warp1_mod_smth[1]",
							"parameter_mmax" : 255.0,
							"parameter_modmax" : 255.0,
							"parameter_modmode" : 4,
							"parameter_shortname" : "b_wMod1_smooth",
							"parameter_type" : 1,
							"parameter_unitstyle" : 0
						}

					}
,
					"size" : 256.0,
					"thickness" : 60.0,
					"varname" : "dial[9]"
				}

			}
, 			{
				"box" : 				{
					"id" : "obj-119",
					"maxclass" : "comment",
					"numinlets" : 1,
					"numoutlets" : 0,
					"patching_rect" : [ 58.0, 55.0, 27.333334147930145, 20.0 ],
					"text" : "crv",
					"textjustification" : 1
				}

			}
, 			{
				"box" : 				{
					"focusbordercolor" : [ 0.631372549019608, 0.63921568627451, 0.662745098039216, 0.0 ],
					"id" : "obj-120",
					"maxclass" : "live.button",
					"numinlets" : 1,
					"numoutlets" : 1,
					"outlettype" : [ "" ],
					"parameter_enable" : 1,
					"patching_rect" : [ 65.0, 93.0, 11.987178266048431, 11.025641039013863 ],
					"saved_attribute_attributes" : 					{
						"focusbordercolor" : 						{
							"expression" : ""
						}
,
						"valueof" : 						{
							"parameter_enum" : [ "off", "on" ],
							"parameter_invisible" : 2,
							"parameter_longname" : "live.button[56]",
							"parameter_mmax" : 1,
							"parameter_modmode" : 0,
							"parameter_shortname" : "live.button",
							"parameter_type" : 2
						}

					}
,
					"varname" : "live.button[6]"
				}

			}
, 			{
				"box" : 				{
					"id" : "obj-121",
					"maxclass" : "message",
					"numinlets" : 2,
					"numoutlets" : 1,
					"outlettype" : [ "" ],
					"patching_rect" : [ 128.0, 450.0, 29.5, 22.0 ],
					"text" : "100"
				}

			}
, 			{
				"box" : 				{
					"id" : "obj-122",
					"linecount" : 2,
					"maxclass" : "newobj",
					"numinlets" : 6,
					"numoutlets" : 1,
					"outlettype" : [ "" ],
					"patching_rect" : [ 106.0, 495.0, 71.428567171096802, 35.0 ],
					"text" : "scale -100 100 0. 0.5"
				}

			}
, 			{
				"box" : 				{
					"bgcolor" : [ 0.094117647058824, 0.098039215686275, 0.117647058823529, 0.0 ],
					"id" : "obj-124",
					"maxclass" : "dial",
					"min" : -100.0,
					"mode" : 5,
					"needlecolor" : [ 0.4, 0.92156862745098, 1.0, 1.0 ],
					"numinlets" : 1,
					"numoutlets" : 1,
					"outlettype" : [ "float" ],
					"outlinecolor" : [ 0.066666666666667, 0.070588235294118, 0.07843137254902, 1.0 ],
					"parameter_enable" : 1,
					"patching_rect" : [ 55.0, 68.0, 33.617021977901459, 33.617021977901459 ],
					"saved_attribute_attributes" : 					{
						"valueof" : 						{
							"parameter_initial" : [ 0 ],
							"parameter_initial_enable" : 1,
							"parameter_longname" : "b_warp1_mod_curve",
							"parameter_mmax" : 100.0,
							"parameter_mmin" : -100.0,
							"parameter_modmax" : 100.0,
							"parameter_modmin" : -100.0,
							"parameter_modmode" : 4,
							"parameter_shortname" : "b_wMod1_curve",
							"parameter_type" : 1,
							"parameter_unitstyle" : 0
						}

					}
,
					"size" : 201.0,
					"thickness" : 60.0,
					"varname" : "dial[10]"
				}

			}
, 			{
				"box" : 				{
					"focusbordercolor" : [ 0.631372549019608, 0.63921568627451, 0.662745098039216, 0.0 ],
					"id" : "obj-125",
					"maxclass" : "live.button",
					"numinlets" : 1,
					"numoutlets" : 1,
					"outlettype" : [ "" ],
					"parameter_enable" : 1,
					"patching_rect" : [ 22.0, 93.0, 11.987178266048431, 11.025641039013863 ],
					"saved_attribute_attributes" : 					{
						"focusbordercolor" : 						{
							"expression" : ""
						}
,
						"valueof" : 						{
							"parameter_enum" : [ "off", "on" ],
							"parameter_invisible" : 2,
							"parameter_longname" : "a_warp1[7]",
							"parameter_mmax" : 1,
							"parameter_modmode" : 0,
							"parameter_shortname" : "live.button",
							"parameter_type" : 2
						}

					}
,
					"varname" : "live.button[7]"
				}

			}
, 			{
				"box" : 				{
					"id" : "obj-126",
					"maxclass" : "message",
					"numinlets" : 2,
					"numoutlets" : 1,
					"outlettype" : [ "" ],
					"patching_rect" : [ 19.0, 451.0, 29.5, 22.0 ],
					"text" : "256"
				}

			}
, 			{
				"box" : 				{
					"id" : "obj-127",
					"maxclass" : "comment",
					"numinlets" : 1,
					"numoutlets" : 0,
					"patching_rect" : [ 13.0, 55.0, 28.0, 20.0 ],
					"text" : "dec",
					"textjustification" : 1
				}

			}
, 			{
				"box" : 				{
					"id" : "obj-128",
					"linecount" : 2,
					"maxclass" : "newobj",
					"numinlets" : 6,
					"numoutlets" : 1,
					"outlettype" : [ "" ],
					"patching_rect" : [ 19.0, 495.0, 59.0, 35.0 ],
					"text" : "scale 0 510 1. 0."
				}

			}
, 			{
				"box" : 				{
					"bgcolor" : [ 0.094117647058824, 0.098039215686275, 0.117647058823529, 0.0 ],
					"id" : "obj-129",
					"maxclass" : "dial",
					"mode" : 5,
					"needlecolor" : [ 0.4, 0.92156862745098, 1.0, 1.0 ],
					"numinlets" : 1,
					"numoutlets" : 1,
					"outlettype" : [ "float" ],
					"outlinecolor" : [ 0.066666666666667, 0.070588235294118, 0.07843137254902, 1.0 ],
					"parameter_enable" : 1,
					"patching_rect" : [ 10.0, 68.0, 33.617021977901459, 33.617021977901459 ],
					"saved_attribute_attributes" : 					{
						"valueof" : 						{
							"parameter_initial" : [ 0 ],
							"parameter_initial_enable" : 1,
							"parameter_longname" : "b_warp1_mod_decay",
							"parameter_mmax" : 510.0,
							"parameter_modmax" : 510.0,
							"parameter_modmode" : 4,
							"parameter_shortname" : "b_wMod1_Dec",
							"parameter_type" : 0,
							"parameter_unitstyle" : 0
						}

					}
,
					"size" : 511.0,
					"thickness" : 60.0,
					"varname" : "dial[12]"
				}

			}
, 			{
				"box" : 				{
					"focusbordercolor" : [ 0.631372549019608, 0.63921568627451, 0.662745098039216, 0.0 ],
					"id" : "obj-130",
					"maxclass" : "live.button",
					"numinlets" : 1,
					"numoutlets" : 1,
					"outlettype" : [ "" ],
					"parameter_enable" : 1,
					"patching_rect" : [ 111.0, 45.0, 11.987178266048431, 11.025641039013863 ],
					"saved_attribute_attributes" : 					{
						"focusbordercolor" : 						{
							"expression" : ""
						}
,
						"valueof" : 						{
							"parameter_enum" : [ "off", "on" ],
							"parameter_invisible" : 2,
							"parameter_longname" : "live.button[67]",
							"parameter_mmax" : 1,
							"parameter_modmode" : 0,
							"parameter_shortname" : "live.button",
							"parameter_type" : 2
						}

					}
,
					"varname" : "live.button[10]"
				}

			}
, 			{
				"box" : 				{
					"id" : "obj-131",
					"maxclass" : "message",
					"numinlets" : 2,
					"numoutlets" : 1,
					"outlettype" : [ "" ],
					"patching_rect" : [ 199.0, 329.0, 29.5, 22.0 ],
					"text" : "100"
				}

			}
, 			{
				"box" : 				{
					"id" : "obj-132",
					"linecount" : 2,
					"maxclass" : "newobj",
					"numinlets" : 6,
					"numoutlets" : 1,
					"outlettype" : [ "" ],
					"patching_rect" : [ 199.0, 375.0, 67.0, 35.0 ],
					"text" : "scale -100 100 0. 1."
				}

			}
, 			{
				"box" : 				{
					"id" : "obj-133",
					"maxclass" : "comment",
					"numinlets" : 1,
					"numoutlets" : 0,
					"patching_rect" : [ 103.0, 1.0, 26.5, 20.0 ],
					"text" : "m5",
					"textjustification" : 1
				}

			}
, 			{
				"box" : 				{
					"bgcolor" : [ 0.094117647058824, 0.098039215686275, 0.117647058823529, 0.0 ],
					"id" : "obj-134",
					"maxclass" : "dial",
					"min" : -100.0,
					"mode" : 5,
					"needlecolor" : [ 0.4, 0.92156862745098, 1.0, 1.0 ],
					"numinlets" : 1,
					"numoutlets" : 1,
					"outlettype" : [ "float" ],
					"outlinecolor" : [ 0.066666666666667, 0.070588235294118, 0.07843137254902, 1.0 ],
					"parameter_enable" : 1,
					"patching_rect" : [ 100.0, 19.0, 33.617021977901459, 33.617021977901459 ],
					"saved_attribute_attributes" : 					{
						"valueof" : 						{
							"parameter_initial" : [ 0 ],
							"parameter_initial_enable" : 1,
							"parameter_longname" : "b_warp1_mod",
							"parameter_mmax" : 100.0,
							"parameter_mmin" : -100.0,
							"parameter_modmax" : 100.0,
							"parameter_modmin" : -100.0,
							"parameter_modmode" : 4,
							"parameter_shortname" : "b_warp1_m9",
							"parameter_type" : 1,
							"parameter_unitstyle" : 0
						}

					}
,
					"size" : 201.0,
					"thickness" : 60.0,
					"varname" : "dial[13]"
				}

			}
, 			{
				"box" : 				{
					"id" : "obj-135",
					"maxclass" : "message",
					"numinlets" : 2,
					"numoutlets" : 1,
					"outlettype" : [ "" ],
					"patching_rect" : [ 129.0, 329.0, 29.5, 22.0 ],
					"text" : "100"
				}

			}
, 			{
				"box" : 				{
					"focusbordercolor" : [ 0.631372549019608, 0.63921568627451, 0.662745098039216, 0.0 ],
					"id" : "obj-136",
					"maxclass" : "live.button",
					"numinlets" : 1,
					"numoutlets" : 1,
					"outlettype" : [ "" ],
					"parameter_enable" : 1,
					"patching_rect" : [ 65.0, 45.0, 11.987178266048431, 11.025641039013863 ],
					"saved_attribute_attributes" : 					{
						"focusbordercolor" : 						{
							"expression" : ""
						}
,
						"valueof" : 						{
							"parameter_enum" : [ "off", "on" ],
							"parameter_invisible" : 2,
							"parameter_longname" : "live.button[59]",
							"parameter_mmax" : 1,
							"parameter_modmode" : 0,
							"parameter_shortname" : "live.button",
							"parameter_type" : 2
						}

					}
,
					"varname" : "live.button[11]"
				}

			}
, 			{
				"box" : 				{
					"bgcolor" : [ 0.094117647058824, 0.098039215686275, 0.117647058823529, 0.0 ],
					"id" : "obj-137",
					"maxclass" : "dial",
					"min" : -100.0,
					"mode" : 5,
					"needlecolor" : [ 0.4, 0.92156862745098, 1.0, 1.0 ],
					"numinlets" : 1,
					"numoutlets" : 1,
					"outlettype" : [ "float" ],
					"outlinecolor" : [ 0.066666666666667, 0.070588235294118, 0.07843137254902, 1.0 ],
					"parameter_enable" : 1,
					"patching_rect" : [ 55.0, 19.0, 33.617021977901459, 33.617021977901459 ],
					"saved_attribute_attributes" : 					{
						"valueof" : 						{
							"parameter_initial" : [ 0 ],
							"parameter_initial_enable" : 1,
							"parameter_longname" : "b_warp1_vel",
							"parameter_mmax" : 100.0,
							"parameter_mmin" : -100.0,
							"parameter_modmax" : 100.0,
							"parameter_modmin" : -100.0,
							"parameter_modmode" : 4,
							"parameter_shortname" : "b_warp1Vel",
							"parameter_type" : 1,
							"parameter_unitstyle" : 0
						}

					}
,
					"size" : 201.0,
					"thickness" : 60.0,
					"varname" : "dial[14]"
				}

			}
, 			{
				"box" : 				{
					"id" : "obj-139",
					"maxclass" : "comment",
					"numinlets" : 1,
					"numoutlets" : 0,
					"patching_rect" : [ 59.0, 1.0, 26.5, 20.0 ],
					"text" : "vel",
					"textjustification" : 1
				}

			}
, 			{
				"box" : 				{
					"id" : "obj-141",
					"linecount" : 2,
					"maxclass" : "newobj",
					"numinlets" : 6,
					"numoutlets" : 1,
					"outlettype" : [ "" ],
					"patching_rect" : [ 109.0, 375.0, 68.333310127258301, 35.0 ],
					"text" : "scale -100 100 0. 1."
				}

			}
, 			{
				"box" : 				{
					"focusbordercolor" : [ 0.631372549019608, 0.63921568627451, 0.662745098039216, 0.0 ],
					"id" : "obj-142",
					"maxclass" : "live.dial",
					"numinlets" : 1,
					"numoutlets" : 2,
					"outlettype" : [ "", "float" ],
					"parameter_enable" : 1,
					"patching_rect" : [ 13.0, 22.0, 27.0, 28.0 ],
					"saved_attribute_attributes" : 					{
						"focusbordercolor" : 						{
							"expression" : ""
						}
,
						"valueof" : 						{
							"parameter_initial" : [ 0 ],
							"parameter_initial_enable" : 1,
							"parameter_longname" : "b_warp1[1]",
							"parameter_mmax" : 100.0,
							"parameter_modmax" : 100.0,
							"parameter_modmode" : 4,
							"parameter_shortname" : "b_warp1",
							"parameter_type" : 1,
							"parameter_unitstyle" : 0
						}

					}
,
					"showname" : 0,
					"shownumber" : 0,
					"varname" : "live.dial[3]"
				}

			}
, 			{
				"box" : 				{
					"id" : "obj-143",
					"maxclass" : "comment",
					"numinlets" : 1,
					"numoutlets" : 0,
					"patching_rect" : [ 9.0, 1.0, 35.0, 20.0 ],
					"text" : "wrp1",
					"textjustification" : 1
				}

			}
, 			{
				"box" : 				{
					"id" : "obj-144",
					"linecount" : 2,
					"maxclass" : "newobj",
					"numinlets" : 6,
					"numoutlets" : 1,
					"outlettype" : [ "" ],
					"patching_rect" : [ 19.0, 375.0, 59.0, 35.0 ],
					"text" : "scale 0 100 0. 1."
				}

			}
, 			{
				"box" : 				{
					"id" : "obj-82",
					"maxclass" : "newobj",
					"numinlets" : 6,
					"numoutlets" : 1,
					"outlettype" : [ "" ],
					"patching_rect" : [ 477.234039783477783, 597.765959501266479, 90.0, 22.0 ],
					"text" : "scale 0 69 0. 1."
				}

			}
, 			{
				"box" : 				{
					"id" : "obj-83",
					"maxclass" : "incdec",
					"numinlets" : 1,
					"numoutlets" : 1,
					"outlettype" : [ "float" ],
					"parameter_enable" : 0,
					"parameter_mappable" : 0,
					"patching_rect" : [ 424.0, 113.0, 20.0, 24.0 ]
				}

			}
, 			{
				"box" : 				{
					"focusbordercolor" : [ 0.631372549019608, 0.63921568627451, 0.662745098039216, 0.0 ],
					"id" : "obj-84",
					"maxclass" : "live.menu",
					"numinlets" : 1,
					"numoutlets" : 3,
					"outlettype" : [ "", "", "float" ],
					"parameter_enable" : 1,
					"patching_rect" : [ 349.0, 118.0, 74.0, 15.0 ],
					"saved_attribute_attributes" : 					{
						"focusbordercolor" : 						{
							"expression" : ""
						}
,
						"valueof" : 						{
							"parameter_enum" : [ "Off", "Sync", "Bend +", "Bend -", "Bend +/-", "PWM", "Asym +", "Asym -", "Asym +/-", "Flip", "Mirror", "Remap 1", "Remap 2", "Remap 3", "Remap 4", "Quantize", "Odd/Even", "LPF", "HPF", "Tube", "Soft Clip", "Hard Clip", "Diode 1", "Diode 2", "Linear Fold", "Sine Fold", "Zero-Square", "Asym", "Rectify", "Sine Shaper", "Stomp Box", "Tape Sat", "Soft Sat", "FM (B)", "FM (C)", "FM (Noise)", "FM (Sub)", "FM (Filter 1)", "FM (Filter 2)", "FME (B)", "FME (C)", "FME (Noise)", "FME (Sub)", "FME (Filter 1)", "FME (Filter 2)", "FML (B)", "FML (C)", "FML (Noise)", "FML (Sub)", "FML (Filter 1)", "FML (Filter 2)", "PD (B)", "PD (C)", "PD (Noise)", "PD (Sub)", "PD (Filter 1)", "PD (Filter 2)", "PD (Self)", "AM (B)", "AM (C)", "AM (Noise)", "AM (Sub)", "AM (Filter 1)", "AM (Filter 2)", "RM (B)", "RM (C)", "RM (Noise)", "RM (Sub)", "RM (Filter 1)", "RM (Filter 2)" ],
							"parameter_invisible" : 1,
							"parameter_longname" : "live.menu[12]",
							"parameter_mmax" : 69,
							"parameter_modmode" : 0,
							"parameter_shortname" : "live.menu",
							"parameter_type" : 2
						}

					}
,
					"varname" : "live.menu[3]"
				}

			}
, 			{
				"box" : 				{
					"id" : "obj-85",
					"maxclass" : "comment",
					"numinlets" : 1,
					"numoutlets" : 0,
					"patching_rect" : [ 419.0, 53.0, 35.0, 20.0 ],
					"text" : "smth",
					"textjustification" : 1
				}

			}
, 			{
				"box" : 				{
					"id" : "obj-86",
					"linecount" : 2,
					"maxclass" : "newobj",
					"numinlets" : 6,
					"numoutlets" : 1,
					"outlettype" : [ "" ],
					"patching_rect" : [ 528.0, 494.0, 73.0, 35.0 ],
					"text" : "scale 0 255 0. 1."
				}

			}
, 			{
				"box" : 				{
					"bgcolor" : [ 0.094117647058824, 0.098039215686275, 0.117647058823529, 0.0 ],
					"id" : "obj-87",
					"maxclass" : "dial",
					"mode" : 5,
					"needlecolor" : [ 0.4, 0.92156862745098, 1.0, 1.0 ],
					"numinlets" : 1,
					"numoutlets" : 1,
					"outlettype" : [ "float" ],
					"outlinecolor" : [ 0.066666666666667, 0.070588235294118, 0.07843137254902, 1.0 ],
					"parameter_enable" : 1,
					"patching_rect" : [ 419.691489011049271, 67.0, 33.617021977901459, 33.617021977901459 ],
					"saved_attribute_attributes" : 					{
						"valueof" : 						{
							"parameter_initial" : [ 0 ],
							"parameter_initial_enable" : 1,
							"parameter_longname" : "b_warp2_mod_smth",
							"parameter_mmax" : 255.0,
							"parameter_modmax" : 255.0,
							"parameter_modmode" : 4,
							"parameter_shortname" : "b_warp2_mod_smth",
							"parameter_type" : 1,
							"parameter_unitstyle" : 0
						}

					}
,
					"size" : 256.0,
					"thickness" : 60.0,
					"varname" : "dial[16]"
				}

			}
, 			{
				"box" : 				{
					"id" : "obj-89",
					"maxclass" : "comment",
					"numinlets" : 1,
					"numoutlets" : 0,
					"patching_rect" : [ 378.0, 53.0, 27.333334147930145, 20.0 ],
					"text" : "crv",
					"textjustification" : 1
				}

			}
, 			{
				"box" : 				{
					"focusbordercolor" : [ 0.631372549019608, 0.63921568627451, 0.662745098039216, 0.0 ],
					"id" : "obj-90",
					"maxclass" : "live.button",
					"numinlets" : 1,
					"numoutlets" : 1,
					"outlettype" : [ "" ],
					"parameter_enable" : 1,
					"patching_rect" : [ 385.87570184469223, 90.960450947284698, 11.987178266048431, 11.025641039013863 ],
					"saved_attribute_attributes" : 					{
						"focusbordercolor" : 						{
							"expression" : ""
						}
,
						"valueof" : 						{
							"parameter_enum" : [ "off", "on" ],
							"parameter_invisible" : 2,
							"parameter_longname" : "live.button[64]",
							"parameter_mmax" : 1,
							"parameter_modmode" : 0,
							"parameter_shortname" : "live.button",
							"parameter_type" : 2
						}

					}
,
					"varname" : "live.button[13]"
				}

			}
, 			{
				"box" : 				{
					"id" : "obj-91",
					"maxclass" : "message",
					"numinlets" : 2,
					"numoutlets" : 1,
					"outlettype" : [ "" ],
					"patching_rect" : [ 458.0, 449.0, 29.5, 22.0 ],
					"text" : "100"
				}

			}
, 			{
				"box" : 				{
					"id" : "obj-92",
					"linecount" : 2,
					"maxclass" : "newobj",
					"numinlets" : 6,
					"numoutlets" : 1,
					"outlettype" : [ "" ],
					"patching_rect" : [ 436.0, 494.0, 71.428567171096802, 35.0 ],
					"text" : "scale -100 100 0. 0.5"
				}

			}
, 			{
				"box" : 				{
					"bgcolor" : [ 0.094117647058824, 0.098039215686275, 0.117647058823529, 0.0 ],
					"id" : "obj-93",
					"maxclass" : "dial",
					"min" : -100.0,
					"mode" : 5,
					"needlecolor" : [ 0.4, 0.92156862745098, 1.0, 1.0 ],
					"numinlets" : 1,
					"numoutlets" : 1,
					"outlettype" : [ "float" ],
					"outlinecolor" : [ 0.066666666666667, 0.070588235294118, 0.07843137254902, 1.0 ],
					"parameter_enable" : 1,
					"patching_rect" : [ 374.858156085014343, 67.0, 33.617021977901459, 33.617021977901459 ],
					"saved_attribute_attributes" : 					{
						"valueof" : 						{
							"parameter_initial" : [ 0 ],
							"parameter_initial_enable" : 1,
							"parameter_longname" : "b_warp2_mod_curve",
							"parameter_mmax" : 100.0,
							"parameter_mmin" : -100.0,
							"parameter_modmax" : 100.0,
							"parameter_modmin" : -100.0,
							"parameter_modmode" : 4,
							"parameter_shortname" : "b_warp2_mod_curve",
							"parameter_type" : 1,
							"parameter_unitstyle" : 0
						}

					}
,
					"size" : 201.0,
					"thickness" : 60.0,
					"varname" : "dial[17]"
				}

			}
, 			{
				"box" : 				{
					"focusbordercolor" : [ 0.631372549019608, 0.63921568627451, 0.662745098039216, 0.0 ],
					"id" : "obj-94",
					"maxclass" : "live.button",
					"numinlets" : 1,
					"numoutlets" : 1,
					"outlettype" : [ "" ],
					"parameter_enable" : 1,
					"patching_rect" : [ 339.006410866975784, 91.0, 11.987178266048431, 11.025641039013863 ],
					"saved_attribute_attributes" : 					{
						"focusbordercolor" : 						{
							"expression" : ""
						}
,
						"valueof" : 						{
							"parameter_enum" : [ "off", "on" ],
							"parameter_invisible" : 2,
							"parameter_longname" : "a_warp1[8]",
							"parameter_mmax" : 1,
							"parameter_modmode" : 0,
							"parameter_shortname" : "live.button",
							"parameter_type" : 2
						}

					}
,
					"varname" : "live.button[14]"
				}

			}
, 			{
				"box" : 				{
					"id" : "obj-95",
					"maxclass" : "message",
					"numinlets" : 2,
					"numoutlets" : 1,
					"outlettype" : [ "" ],
					"patching_rect" : [ 350.0, 450.0, 29.5, 22.0 ],
					"text" : "256"
				}

			}
, 			{
				"box" : 				{
					"id" : "obj-96",
					"maxclass" : "comment",
					"numinlets" : 1,
					"numoutlets" : 0,
					"patching_rect" : [ 331.0, 53.0, 28.0, 20.0 ],
					"text" : "dec",
					"textjustification" : 1
				}

			}
, 			{
				"box" : 				{
					"id" : "obj-97",
					"linecount" : 2,
					"maxclass" : "newobj",
					"numinlets" : 6,
					"numoutlets" : 1,
					"outlettype" : [ "" ],
					"patching_rect" : [ 350.0, 494.0, 59.0, 35.0 ],
					"text" : "scale 0 510 1. 0."
				}

			}
, 			{
				"box" : 				{
					"bgcolor" : [ 0.094117647058824, 0.098039215686275, 0.117647058823529, 0.0 ],
					"id" : "obj-98",
					"maxclass" : "dial",
					"mode" : 5,
					"needlecolor" : [ 0.4, 0.92156862745098, 1.0, 1.0 ],
					"numinlets" : 1,
					"numoutlets" : 1,
					"outlettype" : [ "float" ],
					"outlinecolor" : [ 0.066666666666667, 0.070588235294118, 0.07843137254902, 1.0 ],
					"parameter_enable" : 1,
					"patching_rect" : [ 328.191489011049271, 67.0, 33.617021977901459, 33.617021977901459 ],
					"saved_attribute_attributes" : 					{
						"valueof" : 						{
							"parameter_initial" : [ 0 ],
							"parameter_initial_enable" : 1,
							"parameter_longname" : "b_warp2_mod_decay",
							"parameter_mmax" : 510.0,
							"parameter_modmax" : 510.0,
							"parameter_modmode" : 4,
							"parameter_shortname" : "b_warp2_mod_decay",
							"parameter_type" : 0,
							"parameter_unitstyle" : 0
						}

					}
,
					"size" : 511.0,
					"thickness" : 60.0,
					"varname" : "dial[18]"
				}

			}
, 			{
				"box" : 				{
					"focusbordercolor" : [ 0.631372549019608, 0.63921568627451, 0.662745098039216, 0.0 ],
					"id" : "obj-99",
					"maxclass" : "live.button",
					"numinlets" : 1,
					"numoutlets" : 1,
					"outlettype" : [ "" ],
					"parameter_enable" : 1,
					"patching_rect" : [ 431.256410866975784, 47.23223951458931, 11.987178266048431, 11.025641039013863 ],
					"saved_attribute_attributes" : 					{
						"focusbordercolor" : 						{
							"expression" : ""
						}
,
						"valueof" : 						{
							"parameter_enum" : [ "off", "on" ],
							"parameter_invisible" : 2,
							"parameter_longname" : "live.button[63]",
							"parameter_mmax" : 1,
							"parameter_modmode" : 0,
							"parameter_shortname" : "live.button",
							"parameter_type" : 2
						}

					}
,
					"varname" : "live.button[15]"
				}

			}
, 			{
				"box" : 				{
					"id" : "obj-100",
					"maxclass" : "message",
					"numinlets" : 2,
					"numoutlets" : 1,
					"outlettype" : [ "" ],
					"patching_rect" : [ 531.0, 328.0, 29.5, 22.0 ],
					"text" : "100"
				}

			}
, 			{
				"box" : 				{
					"id" : "obj-101",
					"linecount" : 2,
					"maxclass" : "newobj",
					"numinlets" : 6,
					"numoutlets" : 1,
					"outlettype" : [ "" ],
					"patching_rect" : [ 531.0, 373.0, 67.0, 35.0 ],
					"text" : "scale -100 100 0. 1."
				}

			}
, 			{
				"box" : 				{
					"id" : "obj-102",
					"maxclass" : "comment",
					"numinlets" : 1,
					"numoutlets" : 0,
					"patching_rect" : [ 424.0, 1.0, 26.5, 20.0 ],
					"text" : "m6",
					"textjustification" : 1
				}

			}
, 			{
				"box" : 				{
					"bgcolor" : [ 0.094117647058824, 0.098039215686275, 0.117647058823529, 0.0 ],
					"id" : "obj-103",
					"maxclass" : "dial",
					"min" : -100.0,
					"mode" : 5,
					"needlecolor" : [ 0.4, 0.92156862745098, 1.0, 1.0 ],
					"numinlets" : 1,
					"numoutlets" : 1,
					"outlettype" : [ "float" ],
					"outlinecolor" : [ 0.066666666666667, 0.070588235294118, 0.07843137254902, 1.0 ],
					"parameter_enable" : 1,
					"patching_rect" : [ 420.441489011049271, 19.548624008893967, 33.617021977901459, 33.617021977901459 ],
					"saved_attribute_attributes" : 					{
						"valueof" : 						{
							"parameter_initial" : [ 0 ],
							"parameter_initial_enable" : 1,
							"parameter_longname" : "b_warp2_mod",
							"parameter_mmax" : 100.0,
							"parameter_mmin" : -100.0,
							"parameter_modmax" : 100.0,
							"parameter_modmin" : -100.0,
							"parameter_modmode" : 4,
							"parameter_shortname" : "b_warp2_mod",
							"parameter_type" : 1,
							"parameter_unitstyle" : 0
						}

					}
,
					"size" : 201.0,
					"thickness" : 60.0,
					"varname" : "dial[19]"
				}

			}
, 			{
				"box" : 				{
					"id" : "obj-104",
					"maxclass" : "message",
					"numinlets" : 2,
					"numoutlets" : 1,
					"outlettype" : [ "" ],
					"patching_rect" : [ 459.0, 328.0, 29.5, 22.0 ],
					"text" : "100"
				}

			}
, 			{
				"box" : 				{
					"focusbordercolor" : [ 0.631372549019608, 0.63921568627451, 0.662745098039216, 0.0 ],
					"id" : "obj-105",
					"maxclass" : "live.button",
					"numinlets" : 1,
					"numoutlets" : 1,
					"outlettype" : [ "" ],
					"parameter_enable" : 1,
					"patching_rect" : [ 384.542372286319733, 47.23223951458931, 11.987178266048431, 11.025641039013863 ],
					"saved_attribute_attributes" : 					{
						"focusbordercolor" : 						{
							"expression" : ""
						}
,
						"valueof" : 						{
							"parameter_enum" : [ "off", "on" ],
							"parameter_invisible" : 2,
							"parameter_longname" : "live.button[60]",
							"parameter_mmax" : 1,
							"parameter_modmode" : 0,
							"parameter_shortname" : "live.button",
							"parameter_type" : 2
						}

					}
,
					"varname" : "live.button[16]"
				}

			}
, 			{
				"box" : 				{
					"bgcolor" : [ 0.094117647058824, 0.098039215686275, 0.117647058823529, 0.0 ],
					"id" : "obj-106",
					"maxclass" : "dial",
					"min" : -100.0,
					"mode" : 5,
					"needlecolor" : [ 0.4, 0.92156862745098, 1.0, 1.0 ],
					"numinlets" : 1,
					"numoutlets" : 1,
					"outlettype" : [ "float" ],
					"outlinecolor" : [ 0.066666666666667, 0.070588235294118, 0.07843137254902, 1.0 ],
					"parameter_enable" : 1,
					"patching_rect" : [ 373.80790913105011, 19.548624008893967, 33.617021977901459, 33.617021977901459 ],
					"saved_attribute_attributes" : 					{
						"valueof" : 						{
							"parameter_initial" : [ 0 ],
							"parameter_initial_enable" : 1,
							"parameter_longname" : "b_warp2_vel",
							"parameter_mmax" : 100.0,
							"parameter_mmin" : -100.0,
							"parameter_modmax" : 100.0,
							"parameter_modmin" : -100.0,
							"parameter_modmode" : 4,
							"parameter_shortname" : "b_warp2_vel",
							"parameter_type" : 1,
							"parameter_unitstyle" : 0
						}

					}
,
					"size" : 201.0,
					"thickness" : 60.0,
					"varname" : "dial[20]"
				}

			}
, 			{
				"box" : 				{
					"id" : "obj-107",
					"maxclass" : "comment",
					"numinlets" : 1,
					"numoutlets" : 0,
					"patching_rect" : [ 376.0, 1.0, 26.5, 20.0 ],
					"text" : "vel",
					"textjustification" : 1
				}

			}
, 			{
				"box" : 				{
					"id" : "obj-108",
					"linecount" : 2,
					"maxclass" : "newobj",
					"numinlets" : 6,
					"numoutlets" : 1,
					"outlettype" : [ "" ],
					"patching_rect" : [ 441.0, 373.0, 68.333310127258301, 35.0 ],
					"text" : "scale -100 100 0. 1."
				}

			}
, 			{
				"box" : 				{
					"focusbordercolor" : [ 0.631372549019608, 0.63921568627451, 0.662745098039216, 0.0 ],
					"id" : "obj-109",
					"maxclass" : "live.dial",
					"numinlets" : 1,
					"numoutlets" : 2,
					"outlettype" : [ "", "float" ],
					"parameter_enable" : 1,
					"patching_rect" : [ 332.0, 21.808510988950729, 27.0, 28.0 ],
					"saved_attribute_attributes" : 					{
						"focusbordercolor" : 						{
							"expression" : ""
						}
,
						"valueof" : 						{
							"parameter_initial" : [ 0 ],
							"parameter_initial_enable" : 1,
							"parameter_longname" : "b_warp2",
							"parameter_mmax" : 100.0,
							"parameter_modmax" : 100.0,
							"parameter_modmode" : 4,
							"parameter_shortname" : "b_warp2",
							"parameter_type" : 1,
							"parameter_unitstyle" : 0
						}

					}
,
					"showname" : 0,
					"shownumber" : 0,
					"varname" : "live.dial[4]"
				}

			}
, 			{
				"box" : 				{
					"id" : "obj-110",
					"maxclass" : "comment",
					"numinlets" : 1,
					"numoutlets" : 0,
					"patching_rect" : [ 328.0, 1.0, 35.0, 20.0 ],
					"text" : "wrp2",
					"textjustification" : 1
				}

			}
, 			{
				"box" : 				{
					"id" : "obj-111",
					"linecount" : 2,
					"maxclass" : "newobj",
					"numinlets" : 6,
					"numoutlets" : 1,
					"outlettype" : [ "" ],
					"patching_rect" : [ 350.0, 373.0, 59.0, 35.0 ],
					"text" : "scale 0 100 0. 1."
				}

			}
 ],
		"lines" : [ 			{
				"patchline" : 				{
					"destination" : [ "obj-68", 0 ],
					"source" : [ "obj-1", 0 ]
				}

			}
, 			{
				"patchline" : 				{
					"destination" : [ "obj-103", 0 ],
					"hidden" : 1,
					"midpoints" : [ 540.5, 351.0, 498.0, 351.0, 498.0, 12.0, 438.0, 12.0, 438.0, 27.0, 429.941489011049271, 27.0 ],
					"source" : [ "obj-100", 0 ]
				}

			}
, 			{
				"patchline" : 				{
					"destination" : [ "obj-152", 0 ],
					"midpoints" : [ 540.5, 480.0, 656.946804523468018, 480.0 ],
					"source" : [ "obj-101", 0 ]
				}

			}
, 			{
				"patchline" : 				{
					"destination" : [ "obj-101", 0 ],
					"hidden" : 1,
					"midpoints" : [ 429.941489011049271, 66.0, 432.0, 66.0, 432.0, 114.0, 516.0, 114.0, 516.0, 360.0, 540.5, 360.0 ],
					"source" : [ "obj-103", 0 ]
				}

			}
, 			{
				"patchline" : 				{
					"destination" : [ "obj-106", 0 ],
					"hidden" : 1,
					"midpoints" : [ 468.5, 351.0, 498.0, 351.0, 498.0, 0.0, 390.0, 0.0, 390.0, 27.0, 383.30790913105011, 27.0 ],
					"source" : [ "obj-104", 0 ]
				}

			}
, 			{
				"patchline" : 				{
					"destination" : [ "obj-104", 0 ],
					"hidden" : 1,
					"midpoints" : [ 390.529550552368164, 72.0, 387.0, 72.0, 387.0, 123.0, 471.0, 123.0, 471.0, 324.0, 468.5, 324.0 ],
					"source" : [ "obj-105", 0 ]
				}

			}
, 			{
				"patchline" : 				{
					"destination" : [ "obj-108", 0 ],
					"hidden" : 1,
					"midpoints" : [ 383.30790913105011, 66.0, 378.0, 66.0, 378.0, 129.0, 363.0, 129.0, 363.0, 360.0, 450.5, 360.0 ],
					"source" : [ "obj-106", 0 ]
				}

			}
, 			{
				"patchline" : 				{
					"destination" : [ "obj-153", 0 ],
					"midpoints" : [ 450.5, 435.0, 423.0, 435.0, 423.0, 645.0, 571.8404221534729, 645.0 ],
					"source" : [ "obj-108", 0 ]
				}

			}
, 			{
				"patchline" : 				{
					"destination" : [ "obj-111", 0 ],
					"hidden" : 1,
					"midpoints" : [ 341.5, 66.0, 330.0, 66.0, 330.0, 360.0, 359.5, 360.0 ],
					"source" : [ "obj-109", 0 ]
				}

			}
, 			{
				"patchline" : 				{
					"destination" : [ "obj-154", 0 ],
					"midpoints" : [ 359.5, 435.0, 423.0, 435.0, 423.0, 645.0, 486.734039783477783, 645.0 ],
					"source" : [ "obj-111", 0 ]
				}

			}
, 			{
				"patchline" : 				{
					"destination" : [ "obj-69", 0 ],
					"midpoints" : [ 156.946808099746704, 644.331706315279007, 131.446804523468018, 644.331706315279007, 131.446804523468018, 746.331706315279007, 242.053190469741821, 746.331706315279007 ],
					"source" : [ "obj-112", 0 ]
				}

			}
, 			{
				"patchline" : 				{
					"destination" : [ "obj-114", 0 ],
					"hidden" : 1,
					"midpoints" : [ 113.5, 147.262612164020538, 25.040404736995697, 147.262612164020538, 25.040404736995697, 114.262612164020538, 38.5, 114.262612164020538 ],
					"source" : [ "obj-113", 0 ]
				}

			}
, 			{
				"patchline" : 				{
					"destination" : [ "obj-112", 0 ],
					"hidden" : 1,
					"midpoints" : [ 38.5, 360.0, 93.0, 360.0, 93.0, 588.0, 156.946808099746704, 588.0 ],
					"order" : 0,
					"source" : [ "obj-114", 0 ]
				}

			}
, 			{
				"patchline" : 				{
					"destination" : [ "obj-113", 0 ],
					"hidden" : 1,
					"midpoints" : [ 38.5, 147.262612164020538, 124.040404736995697, 147.262612164020538, 124.040404736995697, 108.262612164020538, 113.5, 108.262612164020538 ],
					"order" : 1,
					"source" : [ "obj-114", 0 ]
				}

			}
, 			{
				"patchline" : 				{
					"destination" : [ "obj-70", 0 ],
					"midpoints" : [ 205.5, 588.0, 312.0, 588.0, 312.0, 693.0, 327.159572839736938, 693.0 ],
					"source" : [ "obj-117", 0 ]
				}

			}
, 			{
				"patchline" : 				{
					"destination" : [ "obj-117", 0 ],
					"hidden" : 1,
					"midpoints" : [ 109.5, 117.0, 186.0, 117.0, 186.0, 480.0, 205.5, 480.0 ],
					"source" : [ "obj-118", 0 ]
				}

			}
, 			{
				"patchline" : 				{
					"destination" : [ "obj-121", 0 ],
					"hidden" : 1,
					"midpoints" : [ 70.987178266048431, 120.0, 141.0, 120.0, 141.0, 315.0, 96.0, 315.0, 96.0, 435.0, 137.5, 435.0 ],
					"source" : [ "obj-120", 0 ]
				}

			}
, 			{
				"patchline" : 				{
					"destination" : [ "obj-124", 0 ],
					"hidden" : 1,
					"midpoints" : [ 137.5, 474.0, 90.0, 474.0, 90.0, 159.0, 21.0, 159.0, 21.0, 120.0, 57.0, 120.0, 57.0, 78.0, 64.5, 78.0 ],
					"source" : [ "obj-121", 0 ]
				}

			}
, 			{
				"patchline" : 				{
					"destination" : [ "obj-73", 0 ],
					"midpoints" : [ 115.5, 693.0, 242.053190469741821, 693.0 ],
					"source" : [ "obj-122", 0 ]
				}

			}
, 			{
				"patchline" : 				{
					"destination" : [ "obj-122", 0 ],
					"hidden" : 1,
					"midpoints" : [ 64.5, 129.0, 21.0, 129.0, 21.0, 360.0, 96.0, 360.0, 96.0, 480.0, 115.5, 480.0 ],
					"source" : [ "obj-124", 0 ]
				}

			}
, 			{
				"patchline" : 				{
					"destination" : [ "obj-126", 0 ],
					"hidden" : 1,
					"midpoints" : [ 27.987178266048431, 120.0, 21.0, 120.0, 21.0, 360.0, 6.0, 360.0, 6.0, 438.0, 28.5, 438.0 ],
					"source" : [ "obj-125", 0 ]
				}

			}
, 			{
				"patchline" : 				{
					"destination" : [ "obj-129", 0 ],
					"hidden" : 1,
					"midpoints" : [ 28.5, 474.0, 3.0, 474.0, 3.0, 78.0, 19.5, 78.0 ],
					"source" : [ "obj-126", 0 ]
				}

			}
, 			{
				"patchline" : 				{
					"destination" : [ "obj-74", 0 ],
					"midpoints" : [ 28.5, 693.0, 156.946808099746704, 693.0 ],
					"source" : [ "obj-128", 0 ]
				}

			}
, 			{
				"patchline" : 				{
					"destination" : [ "obj-128", 0 ],
					"hidden" : 1,
					"midpoints" : [ 19.5, 360.0, 6.0, 360.0, 6.0, 492.0, 28.5, 492.0 ],
					"source" : [ "obj-129", 0 ]
				}

			}
, 			{
				"patchline" : 				{
					"destination" : [ "obj-131", 0 ],
					"hidden" : 1,
					"midpoints" : [ 116.987178266048431, 72.0, 114.0, 72.0, 114.0, 66.0, 102.0, 66.0, 102.0, 117.0, 208.5, 117.0 ],
					"source" : [ "obj-130", 0 ]
				}

			}
, 			{
				"patchline" : 				{
					"destination" : [ "obj-134", 0 ],
					"hidden" : 1,
					"midpoints" : [ 208.5, 354.0, 168.0, 354.0, 168.0, 12.0, 105.0, 12.0, 105.0, 30.0, 109.5, 30.0 ],
					"source" : [ "obj-131", 0 ]
				}

			}
, 			{
				"patchline" : 				{
					"destination" : [ "obj-78", 0 ],
					"midpoints" : [ 208.5, 480.0, 327.159572839736938, 480.0 ],
					"source" : [ "obj-132", 0 ]
				}

			}
, 			{
				"patchline" : 				{
					"destination" : [ "obj-132", 0 ],
					"hidden" : 1,
					"midpoints" : [ 109.5, 66.0, 102.0, 66.0, 102.0, 117.0, 186.12109375, 117.0, 186.12109375, 372.0, 208.5, 372.0 ],
					"source" : [ "obj-134", 0 ]
				}

			}
, 			{
				"patchline" : 				{
					"destination" : [ "obj-137", 0 ],
					"hidden" : 1,
					"midpoints" : [ 138.5, 354.0, 168.0, 354.0, 168.0, 0.0, 60.0, 0.0, 60.0, 30.0, 64.5, 30.0 ],
					"source" : [ "obj-135", 0 ]
				}

			}
, 			{
				"patchline" : 				{
					"destination" : [ "obj-135", 0 ],
					"hidden" : 1,
					"midpoints" : [ 70.987178266048431, 72.0, 57.0, 72.0, 57.0, 123.0, 141.0, 123.0, 141.0, 324.0, 138.5, 324.0 ],
					"source" : [ "obj-136", 0 ]
				}

			}
, 			{
				"patchline" : 				{
					"destination" : [ "obj-141", 0 ],
					"hidden" : 1,
					"midpoints" : [ 64.5, 69.0, 66.0, 69.0, 66.0, 66.0, 3.0, 66.0, 3.0, 360.0, 114.0, 360.0, 114.0, 372.0, 118.5, 372.0 ],
					"source" : [ "obj-137", 0 ]
				}

			}
, 			{
				"patchline" : 				{
					"destination" : [ "obj-79", 0 ],
					"midpoints" : [ 118.5, 435.0, 192.0, 435.0, 192.0, 588.0, 249.0, 588.0, 249.0, 645.0, 242.053190469741821, 645.0 ],
					"source" : [ "obj-141", 0 ]
				}

			}
, 			{
				"patchline" : 				{
					"destination" : [ "obj-144", 0 ],
					"hidden" : 1,
					"midpoints" : [ 22.5, 66.0, 3.0, 66.0, 3.0, 360.0, 28.5, 360.0 ],
					"source" : [ "obj-142", 0 ]
				}

			}
, 			{
				"patchline" : 				{
					"destination" : [ "obj-80", 0 ],
					"midpoints" : [ 28.5, 438.0, 93.0, 438.0, 93.0, 645.0, 156.946808099746704, 645.0 ],
					"source" : [ "obj-144", 0 ]
				}

			}
, 			{
				"patchline" : 				{
					"destination" : [ "obj-3", 0 ],
					"source" : [ "obj-2", 0 ]
				}

			}
, 			{
				"patchline" : 				{
					"destination" : [ "obj-69", 1 ],
					"midpoints" : [ 285.5, 917.331706315279007, 335.446804523468018, 917.331706315279007, 335.446804523468018, 746.331706315279007, 297.053190469741821, 746.331706315279007 ],
					"source" : [ "obj-68", 6 ]
				}

			}
, 			{
				"patchline" : 				{
					"destination" : [ "obj-70", 1 ],
					"midpoints" : [ 254.5, 917.331706315279007, 389.446804523468018, 917.331706315279007, 389.446804523468018, 701.331706315279007, 382.159572839736938, 701.331706315279007 ],
					"source" : [ "obj-68", 5 ]
				}

			}
, 			{
				"patchline" : 				{
					"destination" : [ "obj-73", 1 ],
					"midpoints" : [ 223.5, 917.331706315279007, 335.446804523468018, 917.331706315279007, 335.446804523468018, 737.331706315279007, 305.446804523468018, 737.331706315279007, 305.446804523468018, 701.331706315279007, 297.053190469741821, 701.331706315279007 ],
					"source" : [ "obj-68", 4 ]
				}

			}
, 			{
				"patchline" : 				{
					"destination" : [ "obj-74", 1 ],
					"midpoints" : [ 192.5, 917.331706315279007, 74.446804523468018, 917.331706315279007, 74.446804523468018, 701.331706315279007, 211.946808099746704, 701.331706315279007 ],
					"source" : [ "obj-68", 3 ]
				}

			}
, 			{
				"patchline" : 				{
					"destination" : [ "obj-78", 1 ],
					"midpoints" : [ 161.5, 917.331706315279007, 401.446804523468018, 917.331706315279007, 401.446804523468018, 656.331706315279007, 382.159572839736938, 656.331706315279007 ],
					"source" : [ "obj-68", 2 ]
				}

			}
, 			{
				"patchline" : 				{
					"destination" : [ "obj-79", 1 ],
					"midpoints" : [ 130.5, 917.331706315279007, 74.446804523468018, 917.331706315279007, 74.446804523468018, 644.331706315279007, 297.053190469741821, 644.331706315279007 ],
					"source" : [ "obj-68", 1 ]
				}

			}
, 			{
				"patchline" : 				{
					"destination" : [ "obj-80", 1 ],
					"midpoints" : [ 99.5, 908.331706315279007, 74.446804523468018, 908.331706315279007, 74.446804523468018, 644.331706315279007, 211.946808099746704, 644.331706315279007 ],
					"source" : [ "obj-68", 0 ]
				}

			}
, 			{
				"patchline" : 				{
					"destination" : [ "obj-81", 0 ],
					"midpoints" : [ 316.5, 908.331706315279007, 419.446804523468018, 908.331706315279007, 419.446804523468018, 881.331706315279007, 444.180848598480225, 881.331706315279007 ],
					"source" : [ "obj-68", 7 ]
				}

			}
, 			{
				"patchline" : 				{
					"destination" : [ "obj-147", 1 ],
					"midpoints" : [ 630.180848598480225, 917.331706315279007, 680.446804523468018, 917.331706315279007, 680.446804523468018, 746.331706315279007, 626.8404221534729, 746.331706315279007 ],
					"source" : [ "obj-81", 6 ]
				}

			}
, 			{
				"patchline" : 				{
					"destination" : [ "obj-148", 1 ],
					"midpoints" : [ 599.180848598480225, 917.331706315279007, 731.446804523468018, 917.331706315279007, 731.446804523468018, 701.331706315279007, 711.946804523468018, 701.331706315279007 ],
					"source" : [ "obj-81", 5 ]
				}

			}
, 			{
				"patchline" : 				{
					"destination" : [ "obj-150", 1 ],
					"midpoints" : [ 568.180848598480225, 917.331706315279007, 680.446804523468018, 917.331706315279007, 680.446804523468018, 737.331706315279007, 635.446804523468018, 737.331706315279007, 635.446804523468018, 701.331706315279007, 626.8404221534729, 701.331706315279007 ],
					"source" : [ "obj-81", 4 ]
				}

			}
, 			{
				"patchline" : 				{
					"destination" : [ "obj-151", 1 ],
					"midpoints" : [ 537.180848598480225, 917.331706315279007, 419.446804523468018, 917.331706315279007, 419.446804523468018, 701.331706315279007, 541.734039783477783, 701.331706315279007 ],
					"source" : [ "obj-81", 3 ]
				}

			}
, 			{
				"patchline" : 				{
					"destination" : [ "obj-152", 1 ],
					"midpoints" : [ 506.180848598480225, 917.331706315279007, 731.446804523468018, 917.331706315279007, 731.446804523468018, 656.331706315279007, 711.946804523468018, 656.331706315279007 ],
					"source" : [ "obj-81", 2 ]
				}

			}
, 			{
				"patchline" : 				{
					"destination" : [ "obj-153", 1 ],
					"midpoints" : [ 475.180848598480225, 917.331706315279007, 419.446804523468018, 917.331706315279007, 419.446804523468018, 644.331706315279007, 626.8404221534729, 644.331706315279007 ],
					"source" : [ "obj-81", 1 ]
				}

			}
, 			{
				"patchline" : 				{
					"destination" : [ "obj-154", 1 ],
					"midpoints" : [ 444.180848598480225, 908.331706315279007, 419.446804523468018, 908.331706315279007, 419.446804523468018, 644.331706315279007, 541.734039783477783, 644.331706315279007 ],
					"source" : [ "obj-81", 0 ]
				}

			}
, 			{
				"patchline" : 				{
					"destination" : [ "obj-147", 0 ],
					"midpoints" : [ 486.734039783477783, 644.331706315279007, 461.446804523468018, 644.331706315279007, 461.446804523468018, 746.331706315279007, 571.8404221534729, 746.331706315279007 ],
					"source" : [ "obj-82", 0 ]
				}

			}
, 			{
				"patchline" : 				{
					"destination" : [ "obj-84", 0 ],
					"hidden" : 1,
					"midpoints" : [ 433.5, 144.842102706432343, 343.733039379119873, 144.842102706432343, 343.733039379119873, 111.842102706432343, 358.5, 111.842102706432343 ],
					"source" : [ "obj-83", 0 ]
				}

			}
, 			{
				"patchline" : 				{
					"destination" : [ "obj-82", 0 ],
					"hidden" : 1,
					"midpoints" : [ 358.5, 360.0, 423.0, 360.0, 423.0, 582.0, 486.734039783477783, 582.0 ],
					"order" : 0,
					"source" : [ "obj-84", 0 ]
				}

			}
, 			{
				"patchline" : 				{
					"destination" : [ "obj-83", 0 ],
					"hidden" : 1,
					"midpoints" : [ 358.5, 144.842102706432343, 442.733039379119873, 144.842102706432343, 442.733039379119873, 105.842102706432343, 433.5, 105.842102706432343 ],
					"order" : 1,
					"source" : [ "obj-84", 0 ]
				}

			}
, 			{
				"patchline" : 				{
					"destination" : [ "obj-148", 0 ],
					"midpoints" : [ 537.5, 582.0, 642.0, 582.0, 642.0, 693.0, 656.946804523468018, 693.0 ],
					"source" : [ "obj-86", 0 ]
				}

			}
, 			{
				"patchline" : 				{
					"destination" : [ "obj-86", 0 ],
					"hidden" : 1,
					"midpoints" : [ 429.191489011049271, 117.0, 516.0, 117.0, 516.0, 480.0, 537.5, 480.0 ],
					"source" : [ "obj-87", 0 ]
				}

			}
, 			{
				"patchline" : 				{
					"destination" : [ "obj-91", 0 ],
					"hidden" : 1,
					"midpoints" : [ 391.862880110740662, 123.0, 471.0, 123.0, 471.0, 315.0, 426.0, 315.0, 426.0, 435.0, 467.5, 435.0 ],
					"source" : [ "obj-90", 0 ]
				}

			}
, 			{
				"patchline" : 				{
					"destination" : [ "obj-93", 0 ],
					"hidden" : 1,
					"midpoints" : [ 467.5, 474.0, 420.0, 474.0, 420.0, 159.0, 363.0, 159.0, 363.0, 117.0, 387.0, 117.0, 387.0, 78.0, 384.358156085014343, 78.0 ],
					"source" : [ "obj-91", 0 ]
				}

			}
, 			{
				"patchline" : 				{
					"destination" : [ "obj-150", 0 ],
					"midpoints" : [ 445.5, 693.0, 571.8404221534729, 693.0 ],
					"source" : [ "obj-92", 0 ]
				}

			}
, 			{
				"patchline" : 				{
					"destination" : [ "obj-92", 0 ],
					"hidden" : 1,
					"midpoints" : [ 384.358156085014343, 129.0, 363.0, 129.0, 363.0, 360.0, 426.0, 360.0, 426.0, 480.0, 445.5, 480.0 ],
					"source" : [ "obj-93", 0 ]
				}

			}
, 			{
				"patchline" : 				{
					"destination" : [ "obj-95", 0 ],
					"hidden" : 1,
					"midpoints" : [ 344.993589133024216, 117.0, 351.0, 117.0, 351.0, 360.0, 336.0, 360.0, 336.0, 435.0, 359.5, 435.0 ],
					"source" : [ "obj-94", 0 ]
				}

			}
, 			{
				"patchline" : 				{
					"destination" : [ "obj-98", 0 ],
					"hidden" : 1,
					"midpoints" : [ 359.5, 474.0, 330.0, 474.0, 330.0, 78.0, 337.691489011049271, 78.0 ],
					"source" : [ "obj-95", 0 ]
				}

			}
, 			{
				"patchline" : 				{
					"destination" : [ "obj-151", 0 ],
					"midpoints" : [ 359.5, 645.0, 462.0, 645.0, 462.0, 693.0, 486.734039783477783, 693.0 ],
					"source" : [ "obj-97", 0 ]
				}

			}
, 			{
				"patchline" : 				{
					"destination" : [ "obj-97", 0 ],
					"hidden" : 1,
					"midpoints" : [ 337.691489011049271, 360.0, 336.0, 360.0, 336.0, 489.0, 359.5, 489.0 ],
					"source" : [ "obj-98", 0 ]
				}

			}
, 			{
				"patchline" : 				{
					"destination" : [ "obj-100", 0 ],
					"hidden" : 1,
					"midpoints" : [ 437.243589133024216, 72.0, 432.0, 72.0, 432.0, 114.0, 540.5, 114.0 ],
					"source" : [ "obj-99", 0 ]
				}

			}
 ],
		"saved_attribute_attributes" : 		{
			"default_plcolor" : 			{
				"expression" : ""
			}

		}

	}

}
