{
	"patcher" : 	{
		"fileversion" : 1,
		"appversion" : 		{
			"major" : 9,
			"minor" : 0,
			"revision" : 9,
			"architecture" : "x64",
			"modernui" : 1
		}
,
		"classnamespace" : "box",
		"rect" : [ 898.0, 96.0, 488.0, 987.0 ],
		"gridsize" : [ 15.0, 15.0 ],
		"boxes" : [ 			{
				"box" : 				{
					"id" : "obj-30",
					"maxclass" : "message",
					"numinlets" : 2,
					"numoutlets" : 1,
					"outlettype" : [ "" ],
					"patching_rect" : [ 564.44447135925293, 143.600002154707909, 29.5, 22.0 ],
					"text" : "100"
				}

			}
, 			{
				"box" : 				{
					"id" : "obj-25",
					"linecount" : 2,
					"maxclass" : "comment",
					"numinlets" : 1,
					"numoutlets" : 0,
					"patching_rect" : [ 257.014536321163177, 39.833334684371948, 38.333335161209106, 33.0 ],
					"presentation_linecount" : 3,
					"text" : "m1 pitch",
					"textjustification" : 1
				}

			}
, 			{
				"box" : 				{
					"id" : "obj-23",
					"maxclass" : "newobj",
					"numinlets" : 2,
					"numoutlets" : 1,
					"outlettype" : [ "" ],
					"patching_rect" : [ 686.666699409484863, 137.132268160581589, 74.0, 22.0 ],
					"saved_object_attributes" : 					{
						"_persistence" : 1,
						"normalized" : 0,
						"smoothing" : 1.0
					}
,
					"text" : "live.remote~"
				}

			}
, 			{
				"box" : 				{
					"focusbordercolor" : [ 0.631372549019608, 0.63921568627451, 0.662745098039216, 0.0 ],
					"id" : "obj-185",
					"maxclass" : "live.button",
					"numinlets" : 1,
					"numoutlets" : 1,
					"outlettype" : [ "" ],
					"parameter_enable" : 1,
					"patching_rect" : [ 270.347870290279388, 98.72222638130188, 11.987178266048431, 11.025641039013863 ],
					"saved_attribute_attributes" : 					{
						"focusbordercolor" : 						{
							"expression" : ""
						}
,
						"valueof" : 						{
							"parameter_enum" : [ "off", "on" ],
							"parameter_invisible" : 2,
							"parameter_longname" : "live.button[72]",
							"parameter_mmax" : 1,
							"parameter_modmode" : 0,
							"parameter_shortname" : "live.button",
							"parameter_type" : 2
						}

					}
,
					"varname" : "live.button[25]"
				}

			}
, 			{
				"box" : 				{
					"bgcolor" : [ 0.094117647058824, 0.098039215686275, 0.117647058823529, 0.0 ],
					"id" : "obj-187",
					"maxclass" : "dial",
					"min" : -100.0,
					"mode" : 5,
					"needlecolor" : [ 0.4, 0.92156862745098, 1.0, 1.0 ],
					"numinlets" : 1,
					"numoutlets" : 1,
					"outlettype" : [ "float" ],
					"outlinecolor" : [ 0.066666666666667, 0.070588235294118, 0.07843137254902, 1.0 ],
					"parameter_enable" : 1,
					"patching_rect" : [ 259.792314231395721, 72.611114025115967, 33.617021977901459, 33.617021977901459 ],
					"saved_attribute_attributes" : 					{
						"valueof" : 						{
							"parameter_initial" : [ 0 ],
							"parameter_initial_enable" : 1,
							"parameter_longname" : "pitchAll_m1",
							"parameter_mmax" : 100.0,
							"parameter_mmin" : -100.0,
							"parameter_modmax" : 100.0,
							"parameter_modmin" : -100.0,
							"parameter_modmode" : 4,
							"parameter_shortname" : "pitchAll_m1",
							"parameter_type" : 1,
							"parameter_unitstyle" : 0
						}

					}
,
					"size" : 201.0,
					"thickness" : 60.0,
					"varname" : "dial[25]"
				}

			}
, 			{
				"box" : 				{
					"id" : "obj-72",
					"maxclass" : "message",
					"numinlets" : 2,
					"numoutlets" : 1,
					"outlettype" : [ "" ],
					"patching_rect" : [ 445.0, 143.600002154707909, 29.5, 22.0 ],
					"text" : "100"
				}

			}
, 			{
				"box" : 				{
					"focusbordercolor" : [ 0.631372549019608, 0.63921568627451, 0.662745098039216, 0.0 ],
					"id" : "obj-70",
					"maxclass" : "live.button",
					"numinlets" : 1,
					"numoutlets" : 1,
					"outlettype" : [ "" ],
					"parameter_enable" : 1,
					"patching_rect" : [ 236.0, 155.0, 11.987178266048431, 11.025641039013863 ],
					"saved_attribute_attributes" : 					{
						"focusbordercolor" : 						{
							"expression" : ""
						}
,
						"valueof" : 						{
							"parameter_enum" : [ "off", "on" ],
							"parameter_invisible" : 2,
							"parameter_longname" : "live.button[71]",
							"parameter_mmax" : 1,
							"parameter_modmode" : 0,
							"parameter_shortname" : "live.button",
							"parameter_type" : 2
						}

					}
,
					"varname" : "live.button[4]"
				}

			}
, 			{
				"box" : 				{
					"bgcolor" : [ 0.094117647058824, 0.098039215686275, 0.117647058823529, 0.0 ],
					"id" : "obj-71",
					"maxclass" : "dial",
					"min" : -100.0,
					"mode" : 5,
					"needlecolor" : [ 0.4, 0.92156862745098, 1.0, 1.0 ],
					"numinlets" : 1,
					"numoutlets" : 1,
					"outlettype" : [ "float" ],
					"outlinecolor" : [ 0.066666666666667, 0.070588235294118, 0.07843137254902, 1.0 ],
					"parameter_enable" : 1,
					"patching_rect" : [ 228.5, 134.75, 26.764536321163177, 26.764536321163177 ],
					"saved_attribute_attributes" : 					{
						"valueof" : 						{
							"parameter_initial" : [ 0 ],
							"parameter_initial_enable" : 1,
							"parameter_longname" : "n_ampMod_m9",
							"parameter_mmax" : 100.0,
							"parameter_mmin" : -100.0,
							"parameter_modmax" : 100.0,
							"parameter_modmin" : -100.0,
							"parameter_modmode" : 4,
							"parameter_shortname" : "n_ampMod_m9",
							"parameter_type" : 1,
							"parameter_unitstyle" : 0
						}

					}
,
					"size" : 201.0,
					"thickness" : 60.0,
					"varname" : "dial[4]"
				}

			}
, 			{
				"box" : 				{
					"id" : "obj-69",
					"maxclass" : "message",
					"numinlets" : 2,
					"numoutlets" : 1,
					"outlettype" : [ "" ],
					"patching_rect" : [ 445.0, 108.665981858968735, 29.5, 22.0 ],
					"text" : "100"
				}

			}
, 			{
				"box" : 				{
					"focusbordercolor" : [ 0.631372549019608, 0.63921568627451, 0.662745098039216, 0.0 ],
					"id" : "obj-67",
					"maxclass" : "live.button",
					"numinlets" : 1,
					"numoutlets" : 1,
					"outlettype" : [ "" ],
					"parameter_enable" : 1,
					"patching_rect" : [ 236.0, 113.75, 11.987178266048431, 11.025641039013863 ],
					"saved_attribute_attributes" : 					{
						"focusbordercolor" : 						{
							"expression" : ""
						}
,
						"valueof" : 						{
							"parameter_enum" : [ "off", "on" ],
							"parameter_invisible" : 2,
							"parameter_longname" : "live.button[70]",
							"parameter_mmax" : 1,
							"parameter_modmode" : 0,
							"parameter_shortname" : "live.button",
							"parameter_type" : 2
						}

					}
,
					"varname" : "live.button[2]"
				}

			}
, 			{
				"box" : 				{
					"bgcolor" : [ 0.094117647058824, 0.098039215686275, 0.117647058823529, 0.0 ],
					"id" : "obj-68",
					"maxclass" : "dial",
					"min" : -100.0,
					"mode" : 5,
					"needlecolor" : [ 0.4, 0.92156862745098, 1.0, 1.0 ],
					"numinlets" : 1,
					"numoutlets" : 1,
					"outlettype" : [ "float" ],
					"outlinecolor" : [ 0.066666666666667, 0.070588235294118, 0.07843137254902, 1.0 ],
					"parameter_enable" : 1,
					"patching_rect" : [ 228.5, 94.5, 26.764536321163177, 26.764536321163177 ],
					"saved_attribute_attributes" : 					{
						"valueof" : 						{
							"parameter_initial" : [ 0 ],
							"parameter_initial_enable" : 1,
							"parameter_longname" : "c_ampMod_m9",
							"parameter_mmax" : 100.0,
							"parameter_mmin" : -100.0,
							"parameter_modmax" : 100.0,
							"parameter_modmin" : -100.0,
							"parameter_modmode" : 4,
							"parameter_shortname" : "c_ampMod_m9",
							"parameter_type" : 1,
							"parameter_unitstyle" : 0
						}

					}
,
					"size" : 201.0,
					"thickness" : 60.0,
					"varname" : "dial[2]"
				}

			}
, 			{
				"box" : 				{
					"id" : "obj-66",
					"maxclass" : "message",
					"numinlets" : 2,
					"numoutlets" : 1,
					"outlettype" : [ "" ],
					"patching_rect" : [ 445.0, 75.407797574996948, 29.5, 22.0 ],
					"text" : "100"
				}

			}
, 			{
				"box" : 				{
					"focusbordercolor" : [ 0.631372549019608, 0.63921568627451, 0.662745098039216, 0.0 ],
					"id" : "obj-64",
					"maxclass" : "live.button",
					"numinlets" : 1,
					"numoutlets" : 1,
					"outlettype" : [ "" ],
					"parameter_enable" : 1,
					"patching_rect" : [ 235.75, 73.75, 11.987178266048431, 11.025641039013863 ],
					"saved_attribute_attributes" : 					{
						"focusbordercolor" : 						{
							"expression" : ""
						}
,
						"valueof" : 						{
							"parameter_enum" : [ "off", "on" ],
							"parameter_invisible" : 2,
							"parameter_longname" : "live.button[69]",
							"parameter_mmax" : 1,
							"parameter_modmode" : 0,
							"parameter_shortname" : "live.button",
							"parameter_type" : 2
						}

					}
,
					"varname" : "live.button[1]"
				}

			}
, 			{
				"box" : 				{
					"bgcolor" : [ 0.094117647058824, 0.098039215686275, 0.117647058823529, 0.0 ],
					"id" : "obj-65",
					"maxclass" : "dial",
					"min" : -100.0,
					"mode" : 5,
					"needlecolor" : [ 0.4, 0.92156862745098, 1.0, 1.0 ],
					"numinlets" : 1,
					"numoutlets" : 1,
					"outlettype" : [ "float" ],
					"outlinecolor" : [ 0.066666666666667, 0.070588235294118, 0.07843137254902, 1.0 ],
					"parameter_enable" : 1,
					"patching_rect" : [ 228.25, 54.5, 26.764536321163177, 26.764536321163177 ],
					"saved_attribute_attributes" : 					{
						"valueof" : 						{
							"parameter_initial" : [ 0 ],
							"parameter_initial_enable" : 1,
							"parameter_longname" : "b_ampMod_m8",
							"parameter_mmax" : 100.0,
							"parameter_mmin" : -100.0,
							"parameter_modmax" : 100.0,
							"parameter_modmin" : -100.0,
							"parameter_modmode" : 4,
							"parameter_shortname" : "b_ampMod_m8",
							"parameter_type" : 1,
							"parameter_unitstyle" : 0
						}

					}
,
					"size" : 201.0,
					"thickness" : 60.0,
					"varname" : "dial[1]"
				}

			}
, 			{
				"box" : 				{
					"id" : "obj-49",
					"maxclass" : "message",
					"numinlets" : 2,
					"numoutlets" : 1,
					"outlettype" : [ "" ],
					"patching_rect" : [ 445.0, 45.333334684371948, 29.5, 22.0 ],
					"text" : "100"
				}

			}
, 			{
				"box" : 				{
					"focusbordercolor" : [ 0.631372549019608, 0.63921568627451, 0.662745098039216, 0.0 ],
					"id" : "obj-22",
					"maxclass" : "live.button",
					"numinlets" : 1,
					"numoutlets" : 1,
					"outlettype" : [ "" ],
					"parameter_enable" : 1,
					"patching_rect" : [ 235.75, 33.0, 11.987178266048431, 11.025641039013863 ],
					"saved_attribute_attributes" : 					{
						"focusbordercolor" : 						{
							"expression" : ""
						}
,
						"valueof" : 						{
							"parameter_enum" : [ "off", "on" ],
							"parameter_invisible" : 2,
							"parameter_longname" : "live.button[68]",
							"parameter_mmax" : 1,
							"parameter_modmode" : 0,
							"parameter_shortname" : "live.button",
							"parameter_type" : 2
						}

					}
,
					"varname" : "live.button[3]"
				}

			}
, 			{
				"box" : 				{
					"bgcolor" : [ 0.094117647058824, 0.098039215686275, 0.117647058823529, 0.0 ],
					"id" : "obj-24",
					"maxclass" : "dial",
					"min" : -100.0,
					"mode" : 5,
					"needlecolor" : [ 0.4, 0.92156862745098, 1.0, 1.0 ],
					"numinlets" : 1,
					"numoutlets" : 1,
					"outlettype" : [ "float" ],
					"outlinecolor" : [ 0.066666666666667, 0.070588235294118, 0.07843137254902, 1.0 ],
					"parameter_enable" : 1,
					"patching_rect" : [ 228.25, 13.75, 26.764536321163177, 26.764536321163177 ],
					"saved_attribute_attributes" : 					{
						"valueof" : 						{
							"parameter_initial" : [ 0 ],
							"parameter_initial_enable" : 1,
							"parameter_longname" : "a_ampMod_m7",
							"parameter_mmax" : 100.0,
							"parameter_mmin" : -100.0,
							"parameter_modmax" : 100.0,
							"parameter_modmin" : -100.0,
							"parameter_modmode" : 4,
							"parameter_shortname" : "a_ampMod_m7",
							"parameter_type" : 1,
							"parameter_unitstyle" : 0
						}

					}
,
					"size" : 201.0,
					"thickness" : 60.0,
					"varname" : "dial[3]"
				}

			}
, 			{
				"box" : 				{
					"id" : "obj-61",
					"maxclass" : "newobj",
					"numinlets" : 2,
					"numoutlets" : 1,
					"outlettype" : [ "" ],
					"patching_rect" : [ 150.434777677059174, 799.130408585071564, 74.0, 22.0 ],
					"saved_object_attributes" : 					{
						"_persistence" : 1,
						"normalized" : 0,
						"smoothing" : 1.0
					}
,
					"text" : "live.remote~"
				}

			}
, 			{
				"box" : 				{
					"id" : "obj-60",
					"maxclass" : "newobj",
					"numinlets" : 0,
					"numoutlets" : 1,
					"outlettype" : [ "" ],
					"patching_rect" : [ 221.848726272583008, 189.565211176872253, 75.0, 22.0 ],
					"text" : "r ---serumJS"
				}

			}
, 			{
				"box" : 				{
					"id" : "obj-59",
					"maxclass" : "newobj",
					"numinlets" : 2,
					"numoutlets" : 1,
					"outlettype" : [ "" ],
					"patching_rect" : [ 59.162305533885956, 778.260844051837921, 74.0, 22.0 ],
					"saved_object_attributes" : 					{
						"_persistence" : 1,
						"normalized" : 0,
						"smoothing" : 1.0
					}
,
					"text" : "live.remote~"
				}

			}
, 			{
				"box" : 				{
					"id" : "obj-58",
					"maxclass" : "comment",
					"numinlets" : 1,
					"numoutlets" : 0,
					"patching_rect" : [ 187.282113820314407, 144.600002154707909, 19.0, 20.0 ],
					"text" : "s",
					"textjustification" : 1
				}

			}
, 			{
				"box" : 				{
					"focusbordercolor" : [ 0.631372549019608, 0.63921568627451, 0.662745098039216, 0.0 ],
					"id" : "obj-55",
					"maxclass" : "live.toggle",
					"numinlets" : 1,
					"numoutlets" : 1,
					"outlettype" : [ "" ],
					"parameter_enable" : 1,
					"patching_rect" : [ 186.806343108415604, 5.025716513395309, 20.942409038543701, 13.612565875053406 ],
					"saved_attribute_attributes" : 					{
						"focusbordercolor" : 						{
							"expression" : ""
						}
,
						"valueof" : 						{
							"parameter_enum" : [ "off", "on" ],
							"parameter_longname" : "mxr-s_active",
							"parameter_mmax" : 1,
							"parameter_modmode" : 0,
							"parameter_shortname" : "mxr-s_active",
							"parameter_type" : 2
						}

					}
,
					"varname" : "live.toggle[4]"
				}

			}
, 			{
				"box" : 				{
					"focusbordercolor" : [ 0.631372549019608, 0.63921568627451, 0.662745098039216, 0.0 ],
					"id" : "obj-57",
					"lastchannelcount" : 0,
					"maxclass" : "live.gain~",
					"numinlets" : 2,
					"numoutlets" : 5,
					"outlettype" : [ "signal", "signal", "", "float", "list" ],
					"parameter_enable" : 1,
					"patching_rect" : [ 172.268897294998169, 17.801047682762146, 49.0, 102.0 ],
					"saved_attribute_attributes" : 					{
						"focusbordercolor" : 						{
							"expression" : ""
						}
,
						"valueof" : 						{
							"parameter_initial" : [ -17 ],
							"parameter_initial_enable" : 1,
							"parameter_longname" : "mxr-s_lvl",
							"parameter_mmax" : 6.0,
							"parameter_mmin" : -70.0,
							"parameter_modmode" : 3,
							"parameter_shortname" : "mxr-s_lvl",
							"parameter_type" : 0,
							"parameter_unitstyle" : 4
						}

					}
,
					"showname" : 0,
					"shownumber" : 0,
					"varname" : "live.gain~[5]"
				}

			}
, 			{
				"box" : 				{
					"id" : "obj-54",
					"maxclass" : "comment",
					"numinlets" : 1,
					"numoutlets" : 0,
					"patching_rect" : [ 145.800002172589302, 144.600002154707909, 19.0, 20.0 ],
					"text" : "n",
					"textjustification" : 1
				}

			}
, 			{
				"box" : 				{
					"id" : "obj-53",
					"maxclass" : "comment",
					"numinlets" : 1,
					"numoutlets" : 0,
					"patching_rect" : [ 103.476442933082581, 144.600002154707909, 19.0, 20.0 ],
					"text" : "c",
					"textjustification" : 1
				}

			}
, 			{
				"box" : 				{
					"id" : "obj-52",
					"maxclass" : "comment",
					"numinlets" : 1,
					"numoutlets" : 0,
					"patching_rect" : [ 63.162305533885956, 144.600002154707909, 19.0, 20.0 ],
					"text" : "b",
					"textjustification" : 1
				}

			}
, 			{
				"box" : 				{
					"id" : "obj-51",
					"maxclass" : "comment",
					"numinlets" : 1,
					"numoutlets" : 0,
					"patching_rect" : [ 20.66666716337204, 144.600002154707909, 19.0, 20.0 ],
					"text" : "a",
					"textjustification" : 1
				}

			}
, 			{
				"box" : 				{
					"id" : "obj-50",
					"maxclass" : "newobj",
					"numinlets" : 2,
					"numoutlets" : 1,
					"outlettype" : [ "" ],
					"patching_rect" : [ 322.689056396484375, 726.050376892089844, 74.0, 22.0 ],
					"saved_object_attributes" : 					{
						"_persistence" : 1,
						"normalized" : 0,
						"smoothing" : 1.0
					}
,
					"text" : "live.remote~"
				}

			}
, 			{
				"box" : 				{
					"id" : "obj-45",
					"maxclass" : "newobj",
					"numinlets" : 2,
					"numoutlets" : 1,
					"outlettype" : [ "" ],
					"patching_rect" : [ 297.659646034240723, 676.470547914505005, 74.0, 22.0 ],
					"saved_object_attributes" : 					{
						"_persistence" : 1,
						"normalized" : 0,
						"smoothing" : 1.0
					}
,
					"text" : "live.remote~"
				}

			}
, 			{
				"box" : 				{
					"id" : "obj-46",
					"linecount" : 2,
					"maxclass" : "newobj",
					"numinlets" : 6,
					"numoutlets" : 1,
					"outlettype" : [ "" ],
					"patching_rect" : [ 297.659646034240723, 615.12601375579834, 77.0, 35.0 ],
					"text" : "scale -100 100 0. 1."
				}

			}
, 			{
				"box" : 				{
					"id" : "obj-47",
					"maxclass" : "newobj",
					"numinlets" : 2,
					"numoutlets" : 1,
					"outlettype" : [ "" ],
					"patching_rect" : [ 209.424357175827026, 676.470547914505005, 74.0, 22.0 ],
					"saved_object_attributes" : 					{
						"_persistence" : 1,
						"normalized" : 0,
						"smoothing" : 1.0
					}
,
					"text" : "live.remote~"
				}

			}
, 			{
				"box" : 				{
					"id" : "obj-48",
					"linecount" : 2,
					"maxclass" : "newobj",
					"numinlets" : 6,
					"numoutlets" : 1,
					"outlettype" : [ "" ],
					"patching_rect" : [ 209.424357175827026, 615.12601375579834, 77.0, 35.0 ],
					"text" : "scale -50 50 0. 1."
				}

			}
, 			{
				"box" : 				{
					"id" : "obj-43",
					"maxclass" : "newobj",
					"numinlets" : 2,
					"numoutlets" : 1,
					"outlettype" : [ "" ],
					"patching_rect" : [ 115.306715726852417, 676.470547914505005, 74.0, 22.0 ],
					"saved_object_attributes" : 					{
						"_persistence" : 1,
						"normalized" : 0,
						"smoothing" : 1.0
					}
,
					"text" : "live.remote~"
				}

			}
, 			{
				"box" : 				{
					"id" : "obj-44",
					"linecount" : 2,
					"maxclass" : "newobj",
					"numinlets" : 6,
					"numoutlets" : 1,
					"outlettype" : [ "" ],
					"patching_rect" : [ 115.306715726852417, 615.12601375579834, 77.0, 35.0 ],
					"text" : "scale -100 100 0. 1."
				}

			}
, 			{
				"box" : 				{
					"id" : "obj-41",
					"maxclass" : "newobj",
					"numinlets" : 2,
					"numoutlets" : 1,
					"outlettype" : [ "" ],
					"patching_rect" : [ 27.071426868438721, 676.470547914505005, 74.0, 22.0 ],
					"saved_object_attributes" : 					{
						"_persistence" : 1,
						"normalized" : 0,
						"smoothing" : 1.0
					}
,
					"text" : "live.remote~"
				}

			}
, 			{
				"box" : 				{
					"id" : "obj-42",
					"linecount" : 2,
					"maxclass" : "newobj",
					"numinlets" : 6,
					"numoutlets" : 1,
					"outlettype" : [ "" ],
					"patching_rect" : [ 27.071426868438721, 615.12601375579834, 77.0, 35.0 ],
					"text" : "scale -100 100 0. 1."
				}

			}
, 			{
				"box" : 				{
					"id" : "obj-37",
					"maxclass" : "newobj",
					"numinlets" : 2,
					"numoutlets" : 1,
					"outlettype" : [ "" ],
					"patching_rect" : [ 299.159646034240723, 566.386520862579346, 74.0, 22.0 ],
					"saved_object_attributes" : 					{
						"_persistence" : 1,
						"normalized" : 0,
						"smoothing" : 1.0
					}
,
					"text" : "live.remote~"
				}

			}
, 			{
				"box" : 				{
					"id" : "obj-38",
					"maxclass" : "newobj",
					"numinlets" : 2,
					"numoutlets" : 1,
					"outlettype" : [ "" ],
					"patching_rect" : [ 116.806715726852417, 566.386520862579346, 74.0, 22.0 ],
					"saved_object_attributes" : 					{
						"_persistence" : 1,
						"normalized" : 0,
						"smoothing" : 1.0
					}
,
					"text" : "live.remote~"
				}

			}
, 			{
				"box" : 				{
					"id" : "obj-39",
					"maxclass" : "newobj",
					"numinlets" : 2,
					"numoutlets" : 1,
					"outlettype" : [ "" ],
					"patching_rect" : [ 210.924357175827026, 566.386520862579346, 74.0, 22.0 ],
					"saved_object_attributes" : 					{
						"_persistence" : 1,
						"normalized" : 0,
						"smoothing" : 1.0
					}
,
					"text" : "live.remote~"
				}

			}
, 			{
				"box" : 				{
					"id" : "obj-40",
					"maxclass" : "newobj",
					"numinlets" : 2,
					"numoutlets" : 1,
					"outlettype" : [ "" ],
					"patching_rect" : [ 28.571426868438721, 566.386520862579346, 74.0, 22.0 ],
					"saved_object_attributes" : 					{
						"_persistence" : 1,
						"normalized" : 0,
						"smoothing" : 1.0
					}
,
					"text" : "live.remote~"
				}

			}
, 			{
				"box" : 				{
					"id" : "obj-34",
					"linecount" : 2,
					"maxclass" : "newobj",
					"numinlets" : 6,
					"numoutlets" : 1,
					"outlettype" : [ "" ],
					"patching_rect" : [ 299.159646034240723, 505.041986703872681, 77.0, 35.0 ],
					"text" : "scale -50 50 0. 1."
				}

			}
, 			{
				"box" : 				{
					"id" : "obj-36",
					"linecount" : 2,
					"maxclass" : "newobj",
					"numinlets" : 6,
					"numoutlets" : 1,
					"outlettype" : [ "" ],
					"patching_rect" : [ 210.924357175827026, 505.041986703872681, 77.0, 35.0 ],
					"text" : "scale -50 50 0. 1."
				}

			}
, 			{
				"box" : 				{
					"id" : "obj-33",
					"linecount" : 2,
					"maxclass" : "newobj",
					"numinlets" : 6,
					"numoutlets" : 1,
					"outlettype" : [ "" ],
					"patching_rect" : [ 116.670163154602051, 505.041986703872681, 77.0, 35.0 ],
					"text" : "scale -50 50 0. 1."
				}

			}
, 			{
				"box" : 				{
					"id" : "obj-32",
					"linecount" : 2,
					"maxclass" : "newobj",
					"numinlets" : 6,
					"numoutlets" : 1,
					"outlettype" : [ "" ],
					"patching_rect" : [ 28.571426868438721, 505.041986703872681, 77.0, 35.0 ],
					"text" : "scale -50 50 0. 1."
				}

			}
, 			{
				"box" : 				{
					"id" : "obj-28",
					"maxclass" : "comment",
					"numinlets" : 1,
					"numoutlets" : 0,
					"patching_rect" : [ 226.0, 121.75, 32.0, 20.0 ],
					"text" : "m10"
				}

			}
, 			{
				"box" : 				{
					"id" : "obj-29",
					"maxclass" : "comment",
					"numinlets" : 1,
					"numoutlets" : 0,
					"patching_rect" : [ 229.5, 80.5, 25.0, 20.0 ],
					"text" : "m9"
				}

			}
, 			{
				"box" : 				{
					"id" : "obj-27",
					"maxclass" : "comment",
					"numinlets" : 1,
					"numoutlets" : 0,
					"patching_rect" : [ 229.25, 41.0, 25.0, 20.0 ],
					"text" : "m8"
				}

			}
, 			{
				"box" : 				{
					"id" : "obj-26",
					"maxclass" : "comment",
					"numinlets" : 1,
					"numoutlets" : 0,
					"patching_rect" : [ 229.25, -0.75, 25.0, 20.0 ],
					"text" : "m7"
				}

			}
, 			{
				"box" : 				{
					"id" : "obj-17",
					"maxclass" : "newobj",
					"numinlets" : 2,
					"numoutlets" : 1,
					"outlettype" : [ "" ],
					"patching_rect" : [ 172.268897294998169, 443.697452545166016, 74.0, 22.0 ],
					"saved_object_attributes" : 					{
						"_persistence" : 1,
						"normalized" : 0,
						"smoothing" : 1.0
					}
,
					"text" : "live.remote~"
				}

			}
, 			{
				"box" : 				{
					"id" : "obj-18",
					"maxclass" : "newobj",
					"numinlets" : 2,
					"numoutlets" : 1,
					"outlettype" : [ "" ],
					"patching_rect" : [ 172.268897294998169, 390.756279230117798, 74.0, 22.0 ],
					"saved_object_attributes" : 					{
						"_persistence" : 1,
						"normalized" : 0,
						"smoothing" : 1.0
					}
,
					"text" : "live.remote~"
				}

			}
, 			{
				"box" : 				{
					"id" : "obj-19",
					"maxclass" : "newobj",
					"numinlets" : 2,
					"numoutlets" : 1,
					"outlettype" : [ "" ],
					"patching_rect" : [ 172.268897294998169, 340.336114168167114, 74.0, 22.0 ],
					"saved_object_attributes" : 					{
						"_persistence" : 1,
						"normalized" : 0,
						"smoothing" : 1.0
					}
,
					"text" : "live.remote~"
				}

			}
, 			{
				"box" : 				{
					"id" : "obj-21",
					"maxclass" : "newobj",
					"numinlets" : 2,
					"numoutlets" : 1,
					"outlettype" : [ "" ],
					"patching_rect" : [ 172.268897294998169, 289.075613021850586, 74.0, 22.0 ],
					"saved_object_attributes" : 					{
						"_persistence" : 1,
						"normalized" : 0,
						"smoothing" : 1.0
					}
,
					"text" : "live.remote~"
				}

			}
, 			{
				"box" : 				{
					"id" : "obj-16",
					"maxclass" : "newobj",
					"numinlets" : 2,
					"numoutlets" : 1,
					"outlettype" : [ "" ],
					"patching_rect" : [ 28.16666716337204, 443.697452545166016, 74.0, 22.0 ],
					"saved_object_attributes" : 					{
						"_persistence" : 1,
						"normalized" : 0,
						"smoothing" : 1.0
					}
,
					"text" : "live.remote~"
				}

			}
, 			{
				"box" : 				{
					"id" : "obj-15",
					"maxclass" : "newobj",
					"numinlets" : 2,
					"numoutlets" : 1,
					"outlettype" : [ "" ],
					"patching_rect" : [ 28.16666716337204, 390.756279230117798, 74.0, 22.0 ],
					"saved_object_attributes" : 					{
						"_persistence" : 1,
						"normalized" : 0,
						"smoothing" : 1.0
					}
,
					"text" : "live.remote~"
				}

			}
, 			{
				"box" : 				{
					"id" : "obj-14",
					"maxclass" : "newobj",
					"numinlets" : 2,
					"numoutlets" : 1,
					"outlettype" : [ "" ],
					"patching_rect" : [ 28.16666716337204, 340.336114168167114, 74.0, 22.0 ],
					"saved_object_attributes" : 					{
						"_persistence" : 1,
						"normalized" : 0,
						"smoothing" : 1.0
					}
,
					"text" : "live.remote~"
				}

			}
, 			{
				"box" : 				{
					"id" : "obj-13",
					"maxclass" : "newobj",
					"numinlets" : 2,
					"numoutlets" : 1,
					"outlettype" : [ "" ],
					"patching_rect" : [ 28.166667163372033, 289.075613021850586, 74.0, 22.0 ],
					"saved_object_attributes" : 					{
						"_persistence" : 1,
						"normalized" : 0,
						"smoothing" : 1.0
					}
,
					"text" : "live.remote~"
				}

			}
, 			{
				"box" : 				{
					"id" : "obj-12",
					"maxclass" : "newobj",
					"numinlets" : 21,
					"numoutlets" : 21,
					"outlettype" : [ "", "", "", "", "", "", "", "", "", "", "", "", "", "", "", "", "", "", "", "", "" ],
					"patching_rect" : [ 221.848726272583008, 226.050406694412231, 513.445347547531128, 22.0 ],
					"text" : "route 108 109 110 111 112 113 114 115 116 117 118 119 120 121 122 123 124 125 126 127"
				}

			}
, 			{
				"box" : 				{
					"focusbordercolor" : [ 0.631372549019608, 0.63921568627451, 0.662745098039216, 0.0 ],
					"id" : "obj-8",
					"maxclass" : "live.toggle",
					"numinlets" : 1,
					"numoutlets" : 1,
					"outlettype" : [ "" ],
					"parameter_enable" : 1,
					"patching_rect" : [ 145.026182591915131, 4.712042033672333, 20.942409038543701, 13.612565875053406 ],
					"saved_attribute_attributes" : 					{
						"focusbordercolor" : 						{
							"expression" : ""
						}
,
						"valueof" : 						{
							"parameter_enum" : [ "off", "on" ],
							"parameter_longname" : "mxr-n_active",
							"parameter_mmax" : 1,
							"parameter_modmode" : 0,
							"parameter_shortname" : "mxr-n_active",
							"parameter_type" : 2
						}

					}
,
					"varname" : "live.toggle[3]"
				}

			}
, 			{
				"box" : 				{
					"focusbordercolor" : [ 0.631372549019608, 0.63921568627451, 0.662745098039216, 0.0 ],
					"id" : "obj-9",
					"maxclass" : "live.dial",
					"numinlets" : 1,
					"numoutlets" : 2,
					"outlettype" : [ "", "float" ],
					"parameter_enable" : 1,
					"patching_rect" : [ 141.670163154602051, 117.801050841808319, 27.0, 34.0 ],
					"saved_attribute_attributes" : 					{
						"focusbordercolor" : 						{
							"expression" : ""
						}
,
						"valueof" : 						{
							"parameter_initial" : [ 0 ],
							"parameter_initial_enable" : 1,
							"parameter_longname" : "mxr-n_pan",
							"parameter_mmax" : 50.0,
							"parameter_mmin" : -50.0,
							"parameter_modmode" : 4,
							"parameter_shortname" : "mxr-n_pan",
							"parameter_type" : 1,
							"parameter_unitstyle" : 0
						}

					}
,
					"showname" : 0,
					"shownumber" : 0,
					"triangle" : 1,
					"varname" : "live.dial[3]"
				}

			}
, 			{
				"box" : 				{
					"focusbordercolor" : [ 0.631372549019608, 0.63921568627451, 0.662745098039216, 0.0 ],
					"id" : "obj-11",
					"lastchannelcount" : 0,
					"maxclass" : "live.gain~",
					"numinlets" : 2,
					"numoutlets" : 5,
					"outlettype" : [ "signal", "signal", "", "float", "list" ],
					"parameter_enable" : 1,
					"patching_rect" : [ 130.675398409366608, 17.801047682762146, 49.0, 102.0 ],
					"saved_attribute_attributes" : 					{
						"focusbordercolor" : 						{
							"expression" : ""
						}
,
						"valueof" : 						{
							"parameter_initial" : [ -17 ],
							"parameter_initial_enable" : 1,
							"parameter_longname" : "mxr-n_lvl",
							"parameter_mmax" : 6.0,
							"parameter_mmin" : -70.0,
							"parameter_modmode" : 3,
							"parameter_shortname" : "mxr-n_lvl",
							"parameter_type" : 0,
							"parameter_unitstyle" : 4
						}

					}
,
					"showname" : 0,
					"shownumber" : 0,
					"varname" : "live.gain~[3]"
				}

			}
, 			{
				"box" : 				{
					"focusbordercolor" : [ 0.631372549019608, 0.63921568627451, 0.662745098039216, 0.0 ],
					"id" : "obj-5",
					"maxclass" : "live.toggle",
					"numinlets" : 1,
					"numoutlets" : 1,
					"outlettype" : [ "" ],
					"parameter_enable" : 1,
					"patching_rect" : [ 102.617804288864136, 4.712042033672333, 20.942409038543701, 13.612565875053406 ],
					"saved_attribute_attributes" : 					{
						"focusbordercolor" : 						{
							"expression" : ""
						}
,
						"valueof" : 						{
							"parameter_enum" : [ "off", "on" ],
							"parameter_longname" : "mxr-c_active",
							"parameter_mmax" : 1,
							"parameter_modmode" : 0,
							"parameter_shortname" : "mxr-c_active",
							"parameter_type" : 2
						}

					}
,
					"varname" : "live.toggle[2]"
				}

			}
, 			{
				"box" : 				{
					"focusbordercolor" : [ 0.631372549019608, 0.63921568627451, 0.662745098039216, 0.0 ],
					"id" : "obj-6",
					"maxclass" : "live.dial",
					"numinlets" : 1,
					"numoutlets" : 2,
					"outlettype" : [ "", "float" ],
					"parameter_enable" : 1,
					"patching_rect" : [ 99.476442933082581, 117.801050841808319, 27.0, 34.0 ],
					"saved_attribute_attributes" : 					{
						"focusbordercolor" : 						{
							"expression" : ""
						}
,
						"valueof" : 						{
							"parameter_initial" : [ 0 ],
							"parameter_initial_enable" : 1,
							"parameter_longname" : "mxr-c_pan",
							"parameter_mmax" : 50.0,
							"parameter_mmin" : -50.0,
							"parameter_modmode" : 4,
							"parameter_shortname" : "mxr-c_pan",
							"parameter_type" : 1,
							"parameter_unitstyle" : 0
						}

					}
,
					"showname" : 0,
					"shownumber" : 0,
					"triangle" : 1,
					"varname" : "live.dial[2]"
				}

			}
, 			{
				"box" : 				{
					"focusbordercolor" : [ 0.631372549019608, 0.63921568627451, 0.662745098039216, 0.0 ],
					"id" : "obj-7",
					"lastchannelcount" : 0,
					"maxclass" : "live.gain~",
					"numinlets" : 2,
					"numoutlets" : 5,
					"outlettype" : [ "signal", "signal", "", "float", "list" ],
					"parameter_enable" : 1,
					"patching_rect" : [ 88.481678187847137, 17.801047682762146, 49.0, 102.0 ],
					"saved_attribute_attributes" : 					{
						"focusbordercolor" : 						{
							"expression" : ""
						}
,
						"valueof" : 						{
							"parameter_initial" : [ -17 ],
							"parameter_initial_enable" : 1,
							"parameter_longname" : "mxr-c_lvl",
							"parameter_mmax" : 6.0,
							"parameter_mmin" : -70.0,
							"parameter_modmode" : 3,
							"parameter_shortname" : "mxr-c_lvl",
							"parameter_type" : 0,
							"parameter_unitstyle" : 4
						}

					}
,
					"showname" : 0,
					"shownumber" : 0,
					"varname" : "live.gain~[2]"
				}

			}
, 			{
				"box" : 				{
					"focusbordercolor" : [ 0.631372549019608, 0.63921568627451, 0.662745098039216, 0.0 ],
					"id" : "obj-2",
					"maxclass" : "live.toggle",
					"numinlets" : 1,
					"numoutlets" : 1,
					"outlettype" : [ "" ],
					"parameter_enable" : 1,
					"patching_rect" : [ 62.303666889667511, 4.712042033672333, 20.942409038543701, 13.612565875053406 ],
					"saved_attribute_attributes" : 					{
						"focusbordercolor" : 						{
							"expression" : ""
						}
,
						"valueof" : 						{
							"parameter_enum" : [ "off", "on" ],
							"parameter_longname" : "mxr-b_active",
							"parameter_mmax" : 1,
							"parameter_modmode" : 0,
							"parameter_shortname" : "mxr-b_active",
							"parameter_type" : 2
						}

					}
,
					"varname" : "live.toggle[1]"
				}

			}
, 			{
				"box" : 				{
					"focusbordercolor" : [ 0.631372549019608, 0.63921568627451, 0.662745098039216, 0.0 ],
					"id" : "obj-3",
					"maxclass" : "live.dial",
					"numinlets" : 1,
					"numoutlets" : 2,
					"outlettype" : [ "", "float" ],
					"parameter_enable" : 1,
					"patching_rect" : [ 59.162305533885956, 117.801050841808319, 27.0, 34.0 ],
					"saved_attribute_attributes" : 					{
						"focusbordercolor" : 						{
							"expression" : ""
						}
,
						"valueof" : 						{
							"parameter_initial" : [ 0 ],
							"parameter_initial_enable" : 1,
							"parameter_longname" : "mxr-b_pan",
							"parameter_mmax" : 50.0,
							"parameter_mmin" : -50.0,
							"parameter_modmode" : 4,
							"parameter_shortname" : "mxr-b_pan",
							"parameter_type" : 1,
							"parameter_unitstyle" : 0
						}

					}
,
					"showname" : 0,
					"shownumber" : 0,
					"triangle" : 1,
					"varname" : "live.dial[1]"
				}

			}
, 			{
				"box" : 				{
					"focusbordercolor" : [ 0.631372549019608, 0.63921568627451, 0.662745098039216, 0.0 ],
					"id" : "obj-4",
					"lastchannelcount" : 0,
					"maxclass" : "live.gain~",
					"numinlets" : 2,
					"numoutlets" : 5,
					"outlettype" : [ "signal", "signal", "", "float", "list" ],
					"parameter_enable" : 1,
					"patching_rect" : [ 48.167540788650513, 17.801047682762146, 49.0, 102.0 ],
					"saved_attribute_attributes" : 					{
						"focusbordercolor" : 						{
							"expression" : ""
						}
,
						"valueof" : 						{
							"parameter_initial" : [ -17 ],
							"parameter_initial_enable" : 1,
							"parameter_longname" : "mxr-b_lvl",
							"parameter_mmax" : 6.0,
							"parameter_mmin" : -70.0,
							"parameter_modmode" : 3,
							"parameter_shortname" : "mxr-b_lvl",
							"parameter_type" : 0,
							"parameter_unitstyle" : 4
						}

					}
,
					"showname" : 0,
					"shownumber" : 0,
					"varname" : "live.gain~[1]"
				}

			}
, 			{
				"box" : 				{
					"focusbordercolor" : [ 0.631372549019608, 0.63921568627451, 0.662745098039216, 0.0 ],
					"id" : "obj-1",
					"maxclass" : "live.toggle",
					"numinlets" : 1,
					"numoutlets" : 1,
					"outlettype" : [ "" ],
					"parameter_enable" : 1,
					"patching_rect" : [ 19.695462644100189, 4.712042033672333, 20.942409038543701, 13.612565875053406 ],
					"saved_attribute_attributes" : 					{
						"focusbordercolor" : 						{
							"expression" : ""
						}
,
						"valueof" : 						{
							"parameter_enum" : [ "off", "on" ],
							"parameter_longname" : "mxr-a_active",
							"parameter_mmax" : 1,
							"parameter_modmode" : 0,
							"parameter_shortname" : "mxr-a_active",
							"parameter_type" : 2
						}

					}
,
					"varname" : "live.toggle"
				}

			}
, 			{
				"box" : 				{
					"focusbordercolor" : [ 0.631372549019608, 0.63921568627451, 0.662745098039216, 0.0 ],
					"id" : "obj-35",
					"lastchannelcount" : 0,
					"maxclass" : "live.gain~",
					"numinlets" : 2,
					"numoutlets" : 5,
					"outlettype" : [ "signal", "signal", "", "float", "list" ],
					"parameter_enable" : 1,
					"patching_rect" : [ 279.444457769393921, 10.555556058883667, 43.0, 141.0 ],
					"saved_attribute_attributes" : 					{
						"focusbordercolor" : 						{
							"expression" : ""
						}
,
						"valueof" : 						{
							"parameter_initial" : [ -32.0 ],
							"parameter_initial_enable" : 1,
							"parameter_longname" : "mxr-mstr_lvl",
							"parameter_mmax" : 6.0,
							"parameter_mmin" : -70.0,
							"parameter_modmode" : 3,
							"parameter_shortname" : "mxr-mstr_lvl",
							"parameter_type" : 0,
							"parameter_unitstyle" : 4
						}

					}
,
					"showname" : 0,
					"shownumber" : 0,
					"varname" : "live.gain~[4]"
				}

			}
, 			{
				"box" : 				{
					"focusbordercolor" : [ 0.631372549019608, 0.63921568627451, 0.662745098039216, 0.0 ],
					"id" : "obj-20",
					"maxclass" : "live.dial",
					"numinlets" : 1,
					"numoutlets" : 2,
					"outlettype" : [ "", "float" ],
					"parameter_enable" : 1,
					"patching_rect" : [ 16.66666716337204, 118.000003516674042, 27.0, 34.0 ],
					"saved_attribute_attributes" : 					{
						"focusbordercolor" : 						{
							"expression" : ""
						}
,
						"valueof" : 						{
							"parameter_initial" : [ 0 ],
							"parameter_initial_enable" : 1,
							"parameter_longname" : "mxr-a_pan",
							"parameter_mmax" : 50.0,
							"parameter_mmin" : -50.0,
							"parameter_modmode" : 4,
							"parameter_shortname" : "mxr-a_pan",
							"parameter_type" : 1,
							"parameter_unitstyle" : 0
						}

					}
,
					"showname" : 0,
					"shownumber" : 0,
					"triangle" : 1,
					"varname" : "live.dial"
				}

			}
, 			{
				"box" : 				{
					"focusbordercolor" : [ 0.631372549019608, 0.63921568627451, 0.662745098039216, 0.0 ],
					"id" : "obj-10",
					"lastchannelcount" : 0,
					"maxclass" : "live.gain~",
					"numinlets" : 2,
					"numoutlets" : 5,
					"outlettype" : [ "signal", "signal", "", "float", "list" ],
					"parameter_enable" : 1,
					"patching_rect" : [ 5.66666716337204, 17.801047682762146, 49.0, 102.0 ],
					"saved_attribute_attributes" : 					{
						"focusbordercolor" : 						{
							"expression" : ""
						}
,
						"valueof" : 						{
							"parameter_initial" : [ -17 ],
							"parameter_initial_enable" : 1,
							"parameter_longname" : "mxr-a_lvl",
							"parameter_mmax" : 6.0,
							"parameter_mmin" : -70.0,
							"parameter_modmode" : 3,
							"parameter_shortname" : "mxr-a_lvl",
							"parameter_type" : 0,
							"parameter_unitstyle" : 4
						}

					}
,
					"showname" : 0,
					"shownumber" : 0,
					"varname" : "live.gain~"
				}

			}
, 			{
				"box" : 				{
					"angle" : 270.0,
					"bgcolor" : [ 0.298039215686275, 0.298039215686275, 0.298039215686275, 1.0 ],
					"border" : 2,
					"bordercolor" : [ 0.125490196078431, 0.125490196078431, 0.125490196078431, 0.4 ],
					"id" : "obj-97",
					"maxclass" : "panel",
					"mode" : 0,
					"numinlets" : 1,
					"numoutlets" : 0,
					"patching_rect" : [ 6.111111402511597, 1.666666746139526, 316.111126184463501, 164.358974292874336 ],
					"proportion" : 0.39,
					"saved_attribute_attributes" : 					{
						"bgfillcolor" : 						{
							"expression" : ""
						}

					}

				}

			}
 ],
		"lines" : [ 			{
				"patchline" : 				{
					"destination" : [ "obj-13", 0 ],
					"hidden" : 1,
					"midpoints" : [ 29.195462644100189, 0.0, 0.0, 0.0, 0.0, 276.0, 37.666667163372033, 276.0 ],
					"source" : [ "obj-1", 0 ]
				}

			}
, 			{
				"patchline" : 				{
					"destination" : [ "obj-21", 0 ],
					"hidden" : 1,
					"midpoints" : [ 37.666667163372033, 120.0, 0.0, 120.0, 0.0, 276.0, 181.768897294998169, 276.0 ],
					"source" : [ "obj-10", 3 ]
				}

			}
, 			{
				"patchline" : 				{
					"destination" : [ "obj-17", 0 ],
					"hidden" : 1,
					"midpoints" : [ 162.675398409366608, 120.0, 168.0, 120.0, 168.0, 276.0, 159.0, 276.0, 159.0, 429.0, 181.768897294998169, 429.0 ],
					"source" : [ "obj-11", 3 ]
				}

			}
, 			{
				"patchline" : 				{
					"destination" : [ "obj-13", 1 ],
					"midpoints" : [ 231.348726272583008, 276.0, 92.66666716337204, 276.0 ],
					"source" : [ "obj-12", 0 ]
				}

			}
, 			{
				"patchline" : 				{
					"destination" : [ "obj-14", 1 ],
					"midpoints" : [ 256.070993649959576, 327.0, 92.66666716337204, 327.0 ],
					"source" : [ "obj-12", 1 ]
				}

			}
, 			{
				"patchline" : 				{
					"destination" : [ "obj-15", 1 ],
					"midpoints" : [ 280.793261027336143, 375.0, 92.66666716337204, 375.0 ],
					"source" : [ "obj-12", 2 ]
				}

			}
, 			{
				"patchline" : 				{
					"destination" : [ "obj-16", 1 ],
					"midpoints" : [ 305.515528404712654, 429.0, 92.66666716337204, 429.0 ],
					"source" : [ "obj-12", 3 ]
				}

			}
, 			{
				"patchline" : 				{
					"destination" : [ "obj-17", 1 ],
					"midpoints" : [ 404.404597914218925, 429.0, 236.768897294998169, 429.0 ],
					"source" : [ "obj-12", 7 ]
				}

			}
, 			{
				"patchline" : 				{
					"destination" : [ "obj-18", 1 ],
					"midpoints" : [ 379.682330536842358, 375.0, 236.768897294998169, 375.0 ],
					"source" : [ "obj-12", 6 ]
				}

			}
, 			{
				"patchline" : 				{
					"destination" : [ "obj-19", 1 ],
					"midpoints" : [ 354.96006315946579, 327.0, 236.768897294998169, 327.0 ],
					"source" : [ "obj-12", 5 ]
				}

			}
, 			{
				"patchline" : 				{
					"destination" : [ "obj-21", 1 ],
					"midpoints" : [ 330.237795782089222, 276.0, 236.768897294998169, 276.0 ],
					"source" : [ "obj-12", 4 ]
				}

			}
, 			{
				"patchline" : 				{
					"destination" : [ "obj-23", 1 ],
					"midpoints" : [ 701.071806442737625, 258.0, 771.0, 258.0, 771.0, 132.0, 751.166699409484863, 132.0 ],
					"source" : [ "obj-12", 19 ]
				}

			}
, 			{
				"patchline" : 				{
					"destination" : [ "obj-37", 1 ],
					"midpoints" : [ 503.29366742372514, 552.0, 363.659646034240723, 552.0 ],
					"source" : [ "obj-12", 11 ]
				}

			}
, 			{
				"patchline" : 				{
					"destination" : [ "obj-38", 1 ],
					"midpoints" : [ 453.849132668972004, 552.0, 181.306715726852417, 552.0 ],
					"source" : [ "obj-12", 9 ]
				}

			}
, 			{
				"patchline" : 				{
					"destination" : [ "obj-39", 1 ],
					"midpoints" : [ 478.571400046348572, 552.0, 275.424357175827026, 552.0 ],
					"source" : [ "obj-12", 10 ]
				}

			}
, 			{
				"patchline" : 				{
					"destination" : [ "obj-40", 1 ],
					"midpoints" : [ 429.126865291595436, 552.0, 93.071426868438721, 552.0 ],
					"source" : [ "obj-12", 8 ]
				}

			}
, 			{
				"patchline" : 				{
					"destination" : [ "obj-41", 1 ],
					"midpoints" : [ 528.015934801101707, 663.0, 91.571426868438721, 663.0 ],
					"source" : [ "obj-12", 12 ]
				}

			}
, 			{
				"patchline" : 				{
					"destination" : [ "obj-43", 1 ],
					"midpoints" : [ 552.738202178478218, 663.0, 179.806715726852417, 663.0 ],
					"source" : [ "obj-12", 13 ]
				}

			}
, 			{
				"patchline" : 				{
					"destination" : [ "obj-45", 1 ],
					"midpoints" : [ 602.182736933231354, 663.0, 362.159646034240723, 663.0 ],
					"source" : [ "obj-12", 15 ]
				}

			}
, 			{
				"patchline" : 				{
					"destination" : [ "obj-47", 1 ],
					"midpoints" : [ 577.460469555854843, 663.0, 273.924357175827026, 663.0 ],
					"source" : [ "obj-12", 14 ]
				}

			}
, 			{
				"patchline" : 				{
					"destination" : [ "obj-50", 1 ],
					"midpoints" : [ 626.905004310607865, 711.0, 387.189056396484375, 711.0 ],
					"source" : [ "obj-12", 16 ]
				}

			}
, 			{
				"patchline" : 				{
					"destination" : [ "obj-59", 1 ],
					"midpoints" : [ 651.627271687984489, 765.0, 123.662305533885956, 765.0 ],
					"source" : [ "obj-12", 17 ]
				}

			}
, 			{
				"patchline" : 				{
					"destination" : [ "obj-61", 1 ],
					"midpoints" : [ 676.349539065361, 765.0, 214.934777677059174, 765.0 ],
					"source" : [ "obj-12", 18 ]
				}

			}
, 			{
				"patchline" : 				{
					"destination" : [ "obj-30", 0 ],
					"hidden" : 1,
					"midpoints" : [ 276.33504855632782, 165.0, 549.0, 165.0, 549.0, 138.0, 573.94447135925293, 138.0 ],
					"source" : [ "obj-185", 0 ]
				}

			}
, 			{
				"patchline" : 				{
					"destination" : [ "obj-23", 0 ],
					"hidden" : 1,
					"midpoints" : [ 269.292314231395721, 165.0, 549.0, 165.0, 549.0, 129.0, 696.166699409484863, 129.0 ],
					"source" : [ "obj-187", 0 ]
				}

			}
, 			{
				"patchline" : 				{
					"destination" : [ "obj-14", 0 ],
					"hidden" : 1,
					"midpoints" : [ 71.803666889667511, 0.0, 0.0, 0.0, 0.0, 327.0, 37.66666716337204, 327.0 ],
					"source" : [ "obj-2", 0 ]
				}

			}
, 			{
				"patchline" : 				{
					"destination" : [ "obj-32", 0 ],
					"hidden" : 1,
					"midpoints" : [ 26.16666716337204, 276.0, 15.0, 276.0, 15.0, 492.0, 38.071426868438721, 492.0 ],
					"source" : [ "obj-20", 0 ]
				}

			}
, 			{
				"patchline" : 				{
					"destination" : [ "obj-49", 0 ],
					"hidden" : 1,
					"midpoints" : [ 241.737178266048431, 45.0, 258.0, 45.0, 258.0, 6.0, 454.5, 6.0 ],
					"source" : [ "obj-22", 0 ]
				}

			}
, 			{
				"patchline" : 				{
					"destination" : [ "obj-42", 0 ],
					"hidden" : 1,
					"midpoints" : [ 237.75, 74.923828125, 222.0, 74.923828125, 222.0, 174.0, 15.0, 174.0, 15.0, 600.0, 36.571426868438721, 600.0 ],
					"source" : [ "obj-24", 0 ]
				}

			}
, 			{
				"patchline" : 				{
					"destination" : [ "obj-33", 0 ],
					"hidden" : 1,
					"midpoints" : [ 68.662305533885956, 276.0, 126.170163154602051, 276.0 ],
					"source" : [ "obj-3", 0 ]
				}

			}
, 			{
				"patchline" : 				{
					"destination" : [ "obj-187", 0 ],
					"hidden" : 1,
					"midpoints" : [ 573.94447135925293, 177.0, 306.0, 177.0, 306.0, 162.0, 264.0, 162.0, 264.0, 105.0, 255.0, 105.0, 255.0, 72.0, 269.292314231395721, 72.0 ],
					"source" : [ "obj-30", 0 ]
				}

			}
, 			{
				"patchline" : 				{
					"destination" : [ "obj-40", 0 ],
					"source" : [ "obj-32", 0 ]
				}

			}
, 			{
				"patchline" : 				{
					"destination" : [ "obj-38", 0 ],
					"source" : [ "obj-33", 0 ]
				}

			}
, 			{
				"patchline" : 				{
					"destination" : [ "obj-37", 0 ],
					"source" : [ "obj-34", 0 ]
				}

			}
, 			{
				"patchline" : 				{
					"destination" : [ "obj-50", 0 ],
					"hidden" : 1,
					"midpoints" : [ 306.944457769393921, 213.0, 207.0, 213.0, 207.0, 276.0, 387.0, 276.0, 387.0, 711.0, 332.189056396484375, 711.0 ],
					"source" : [ "obj-35", 3 ]
				}

			}
, 			{
				"patchline" : 				{
					"destination" : [ "obj-39", 0 ],
					"source" : [ "obj-36", 0 ]
				}

			}
, 			{
				"patchline" : 				{
					"destination" : [ "obj-19", 0 ],
					"hidden" : 1,
					"midpoints" : [ 80.167540788650513, 120.0, 87.0, 120.0, 87.0, 276.0, 159.0, 276.0, 159.0, 327.0, 181.768897294998169, 327.0 ],
					"source" : [ "obj-4", 3 ]
				}

			}
, 			{
				"patchline" : 				{
					"destination" : [ "obj-41", 0 ],
					"source" : [ "obj-42", 0 ]
				}

			}
, 			{
				"patchline" : 				{
					"destination" : [ "obj-43", 0 ],
					"source" : [ "obj-44", 0 ]
				}

			}
, 			{
				"patchline" : 				{
					"destination" : [ "obj-45", 0 ],
					"source" : [ "obj-46", 0 ]
				}

			}
, 			{
				"patchline" : 				{
					"destination" : [ "obj-47", 0 ],
					"source" : [ "obj-48", 0 ]
				}

			}
, 			{
				"patchline" : 				{
					"destination" : [ "obj-24", 0 ],
					"hidden" : 1,
					"midpoints" : [ 454.5, 69.0, 333.0, 69.0, 333.0, 168.0, 222.0, 168.0, 222.0, 9.0, 237.75, 9.0 ],
					"source" : [ "obj-49", 0 ]
				}

			}
, 			{
				"patchline" : 				{
					"destination" : [ "obj-15", 0 ],
					"hidden" : 1,
					"midpoints" : [ 112.117804288864136, 0.0, 0.0, 0.0, 0.0, 375.0, 37.66666716337204, 375.0 ],
					"source" : [ "obj-5", 0 ]
				}

			}
, 			{
				"patchline" : 				{
					"destination" : [ "obj-59", 0 ],
					"hidden" : 1,
					"midpoints" : [ 196.306343108415604, 0.0, 216.0, 0.0, 216.0, 12.0, 222.0, 12.0, 222.0, 174.0, 12.0, 174.0, 12.0, 765.0, 68.662305533885956, 765.0 ],
					"source" : [ "obj-55", 0 ]
				}

			}
, 			{
				"patchline" : 				{
					"destination" : [ "obj-61", 0 ],
					"hidden" : 1,
					"midpoints" : [ 204.268897294998169, 120.0, 210.0, 120.0, 210.0, 174.0, 159.0, 174.0, 159.0, 492.0, 195.0, 492.0, 195.0, 786.0, 159.934777677059174, 786.0 ],
					"source" : [ "obj-57", 3 ]
				}

			}
, 			{
				"patchline" : 				{
					"destination" : [ "obj-36", 0 ],
					"hidden" : 1,
					"midpoints" : [ 108.976442933082581, 276.0, 159.0, 276.0, 159.0, 492.0, 220.424357175827026, 492.0 ],
					"source" : [ "obj-6", 0 ]
				}

			}
, 			{
				"patchline" : 				{
					"destination" : [ "obj-12", 0 ],
					"source" : [ "obj-60", 0 ]
				}

			}
, 			{
				"patchline" : 				{
					"destination" : [ "obj-66", 0 ],
					"hidden" : 1,
					"midpoints" : [ 241.737178266048431, 87.0, 255.0, 87.0, 255.0, 117.0, 264.0, 117.0, 264.0, 162.0, 432.0, 162.0, 432.0, 72.0, 454.5, 72.0 ],
					"source" : [ "obj-64", 0 ]
				}

			}
, 			{
				"patchline" : 				{
					"destination" : [ "obj-44", 0 ],
					"hidden" : 1,
					"midpoints" : [ 237.75, 84.0, 222.0, 84.0, 222.0, 174.0, 114.0, 174.0, 114.0, 501.0, 111.0, 501.0, 111.0, 600.0, 124.806715726852417, 600.0 ],
					"source" : [ "obj-65", 0 ]
				}

			}
, 			{
				"patchline" : 				{
					"destination" : [ "obj-65", 0 ],
					"hidden" : 1,
					"midpoints" : [ 454.5, 99.0, 333.0, 99.0, 333.0, 168.0, 222.0, 168.0, 222.0, 51.0, 237.75, 51.0 ],
					"source" : [ "obj-66", 0 ]
				}

			}
, 			{
				"patchline" : 				{
					"destination" : [ "obj-69", 0 ],
					"hidden" : 1,
					"midpoints" : [ 241.987178266048431, 126.0, 264.0, 126.0, 264.0, 162.0, 432.0, 162.0, 432.0, 105.0, 454.5, 105.0 ],
					"source" : [ "obj-67", 0 ]
				}

			}
, 			{
				"patchline" : 				{
					"destination" : [ "obj-48", 0 ],
					"hidden" : 1,
					"midpoints" : [ 238.0, 123.0, 222.0, 123.0, 222.0, 174.0, 159.0, 174.0, 159.0, 492.0, 207.0, 492.0, 207.0, 600.0, 218.924357175827026, 600.0 ],
					"source" : [ "obj-68", 0 ]
				}

			}
, 			{
				"patchline" : 				{
					"destination" : [ "obj-68", 0 ],
					"hidden" : 1,
					"midpoints" : [ 454.5, 132.0, 333.0, 132.0, 333.0, 168.0, 222.0, 168.0, 222.0, 90.0, 238.0, 90.0 ],
					"source" : [ "obj-69", 0 ]
				}

			}
, 			{
				"patchline" : 				{
					"destination" : [ "obj-18", 0 ],
					"hidden" : 1,
					"midpoints" : [ 120.481678187847137, 120.0, 132.0, 120.0, 132.0, 375.0, 181.768897294998169, 375.0 ],
					"source" : [ "obj-7", 3 ]
				}

			}
, 			{
				"patchline" : 				{
					"destination" : [ "obj-72", 0 ],
					"hidden" : 1,
					"midpoints" : [ 241.987178266048431, 168.0, 432.0, 168.0, 432.0, 138.0, 454.5, 138.0 ],
					"source" : [ "obj-70", 0 ]
				}

			}
, 			{
				"patchline" : 				{
					"destination" : [ "obj-46", 0 ],
					"hidden" : 1,
					"midpoints" : [ 238.0, 276.0, 294.0, 276.0, 294.0, 600.0, 307.159646034240723, 600.0 ],
					"source" : [ "obj-71", 0 ]
				}

			}
, 			{
				"patchline" : 				{
					"destination" : [ "obj-71", 0 ],
					"hidden" : 1,
					"midpoints" : [ 454.5, 168.0, 222.0, 168.0, 222.0, 129.0, 238.0, 129.0 ],
					"source" : [ "obj-72", 0 ]
				}

			}
, 			{
				"patchline" : 				{
					"destination" : [ "obj-16", 0 ],
					"hidden" : 1,
					"midpoints" : [ 154.526182591915131, 0.0, 0.0, 0.0, 0.0, 429.0, 37.66666716337204, 429.0 ],
					"source" : [ "obj-8", 0 ]
				}

			}
, 			{
				"patchline" : 				{
					"destination" : [ "obj-34", 0 ],
					"hidden" : 1,
					"midpoints" : [ 151.170163154602051, 153.0, 141.0, 153.0, 141.0, 492.0, 308.659646034240723, 492.0 ],
					"source" : [ "obj-9", 0 ]
				}

			}
 ],
		"saved_attribute_attributes" : 		{
			"default_plcolor" : 			{
				"expression" : ""
			}

		}

	}

}
