{
	"patcher" : 	{
		"fileversion" : 1,
		"appversion" : 		{
			"major" : 9,
			"minor" : 0,
			"revision" : 8,
			"architecture" : "x64",
			"modernui" : 1
		}
,
		"classnamespace" : "box",
		"rect" : [ 34.0, 100.0, 796.0, 983.0 ],
		"gridsize" : [ 15.0, 15.0 ],
		"boxes" : [ 			{
				"box" : 				{
					"id" : "obj-23",
					"maxclass" : "newobj",
					"numinlets" : 1,
					"numoutlets" : 2,
					"outlettype" : [ "", "" ],
					"patching_rect" : [ 136.0, 585.0, 100.0, 22.0 ],
					"save" : [ "#N", "thispatcher", ";", "#Q", "end", ";" ],
					"text" : "thispatcher"
				}

			}
, 			{
				"box" : 				{
					"comment" : "thisPatcher",
					"id" : "obj-22",
					"index" : 1,
					"maxclass" : "inlet",
					"numinlets" : 0,
					"numoutlets" : 1,
					"outlettype" : [ "" ],
					"patching_rect" : [ 136.0, 510.0, 30.0, 30.0 ]
				}

			}
, 			{
				"box" : 				{
					"id" : "obj-21",
					"linecount" : 2,
					"maxclass" : "newobj",
					"numinlets" : 7,
					"numoutlets" : 7,
					"outlettype" : [ "", "", "", "", "", "", "" ],
					"patching_rect" : [ 555.0, 255.0, 100.0, 35.0 ],
					"text" : "route 9 10 27 28 29 30"
				}

			}
, 			{
				"box" : 				{
					"id" : "obj-20",
					"maxclass" : "newobj",
					"numinlets" : 0,
					"numoutlets" : 1,
					"outlettype" : [ "" ],
					"patching_rect" : [ 555.0, 195.0, 100.0, 22.0 ],
					"text" : "r ---serumJS"
				}

			}
, 			{
				"box" : 				{
					"id" : "obj-13",
					"maxclass" : "newobj",
					"numinlets" : 2,
					"numoutlets" : 1,
					"outlettype" : [ "" ],
					"patching_rect" : [ 271.0, 417.0, 74.0, 22.0 ],
					"saved_object_attributes" : 					{
						"_persistence" : 1,
						"normalized" : 0,
						"smoothing" : 1.0
					}
,
					"text" : "live.remote~"
				}

			}
, 			{
				"box" : 				{
					"id" : "obj-14",
					"maxclass" : "newobj",
					"numinlets" : 2,
					"numoutlets" : 1,
					"outlettype" : [ "" ],
					"patching_rect" : [ 271.0, 345.0, 74.0, 22.0 ],
					"saved_object_attributes" : 					{
						"_persistence" : 1,
						"normalized" : 0,
						"smoothing" : 1.0
					}
,
					"text" : "live.remote~"
				}

			}
, 			{
				"box" : 				{
					"id" : "obj-10",
					"maxclass" : "newobj",
					"numinlets" : 2,
					"numoutlets" : 1,
					"outlettype" : [ "" ],
					"patching_rect" : [ 136.0, 417.0, 74.0, 22.0 ],
					"saved_object_attributes" : 					{
						"_persistence" : 1,
						"normalized" : 0,
						"smoothing" : 1.0
					}
,
					"text" : "live.remote~"
				}

			}
, 			{
				"box" : 				{
					"id" : "obj-12",
					"maxclass" : "newobj",
					"numinlets" : 2,
					"numoutlets" : 1,
					"outlettype" : [ "" ],
					"patching_rect" : [ 136.0, 345.0, 74.0, 22.0 ],
					"saved_object_attributes" : 					{
						"_persistence" : 1,
						"normalized" : 0,
						"smoothing" : 1.0
					}
,
					"text" : "live.remote~"
				}

			}
, 			{
				"box" : 				{
					"id" : "obj-9",
					"maxclass" : "newobj",
					"numinlets" : 2,
					"numoutlets" : 1,
					"outlettype" : [ "" ],
					"patching_rect" : [ 15.0, 417.0, 74.0, 22.0 ],
					"saved_object_attributes" : 					{
						"_persistence" : 1,
						"normalized" : 0,
						"smoothing" : 1.0
					}
,
					"text" : "live.remote~"
				}

			}
, 			{
				"box" : 				{
					"id" : "obj-54",
					"maxclass" : "newobj",
					"numinlets" : 2,
					"numoutlets" : 1,
					"outlettype" : [ "" ],
					"patching_rect" : [ 15.0, 345.0, 74.0, 22.0 ],
					"saved_object_attributes" : 					{
						"_persistence" : 1,
						"normalized" : 0,
						"smoothing" : 1.0
					}
,
					"text" : "live.remote~"
				}

			}
, 			{
				"box" : 				{
					"id" : "obj-17",
					"maxclass" : "newobj",
					"numinlets" : 6,
					"numoutlets" : 1,
					"outlettype" : [ "" ],
					"patching_rect" : [ 271.0, 250.0, 90.0, 22.0 ],
					"text" : "scale 0 69 0. 1."
				}

			}
, 			{
				"box" : 				{
					"id" : "obj-18",
					"maxclass" : "newobj",
					"numinlets" : 6,
					"numoutlets" : 1,
					"outlettype" : [ "" ],
					"patching_rect" : [ 271.0, 205.0, 90.0, 22.0 ],
					"text" : "scale 0 69 0. 1."
				}

			}
, 			{
				"box" : 				{
					"id" : "obj-15",
					"maxclass" : "newobj",
					"numinlets" : 6,
					"numoutlets" : 1,
					"outlettype" : [ "" ],
					"patching_rect" : [ 136.0, 250.0, 90.0, 22.0 ],
					"text" : "scale 0 69 0. 1."
				}

			}
, 			{
				"box" : 				{
					"id" : "obj-16",
					"maxclass" : "newobj",
					"numinlets" : 6,
					"numoutlets" : 1,
					"outlettype" : [ "" ],
					"patching_rect" : [ 136.0, 205.0, 90.0, 22.0 ],
					"text" : "scale 0 69 0. 1."
				}

			}
, 			{
				"box" : 				{
					"id" : "obj-59",
					"maxclass" : "newobj",
					"numinlets" : 6,
					"numoutlets" : 1,
					"outlettype" : [ "" ],
					"patching_rect" : [ 15.0, 250.0, 90.0, 22.0 ],
					"text" : "scale 0 69 0. 1."
				}

			}
, 			{
				"box" : 				{
					"id" : "obj-40",
					"maxclass" : "newobj",
					"numinlets" : 6,
					"numoutlets" : 1,
					"outlettype" : [ "" ],
					"patching_rect" : [ 15.0, 205.0, 90.0, 22.0 ],
					"text" : "scale 0 69 0. 1."
				}

			}
, 			{
				"box" : 				{
					"id" : "obj-5",
					"maxclass" : "incdec",
					"numinlets" : 1,
					"numoutlets" : 1,
					"outlettype" : [ "float" ],
					"parameter_enable" : 0,
					"patching_rect" : [ 356.100005306303501, 36.000000536441803, 20.0, 24.0 ]
				}

			}
, 			{
				"box" : 				{
					"id" : "obj-6",
					"maxclass" : "live.menu",
					"numinlets" : 1,
					"numoutlets" : 3,
					"outlettype" : [ "", "", "float" ],
					"parameter_enable" : 1,
					"patching_rect" : [ 279.0, 41.0, 74.0, 15.0 ],
					"saved_attribute_attributes" : 					{
						"valueof" : 						{
							"parameter_enum" : [ "Off", "Sync", "Bend +", "Bend -", "Bend +/-", "PWM", "Asym +", "Asym -", "Asym +/-", "Flip", "Mirror", "Remap 1", "Remap 2", "Remap 3", "Remap 4", "Quantize", "Odd/Even", "LPF", "HPF", "Tube", "Soft Clip", "Hard Clip", "Diode 1", "Diode 2", "Linear Fold", "Sine Fold", "Zero-Square", "Asym", "Rectify", "Sine Shaper", "Stomp Box", "Tape Sat", "Soft Sat", "FM (B)", "FM (C)", "FM (Noise)", "FM (Sub)", "FM (Filter 1)", "FM (Filter 2)", "FME (B)", "FME (C)", "FME (Noise)", "FME (Sub)", "FME (Filter 1)", "FME (Filter 2)", "FML (B)", "FML (C)", "FML (Noise)", "FML (Sub)", "FML (Filter 1)", "FML (Filter 2)", "PD (B)", "PD (C)", "PD (Noise)", "PD (Sub)", "PD (Filter 1)", "PD (Filter 2)", "PD (Self)", "AM (B)", "AM (C)", "AM (Noise)", "AM (Sub)", "AM (Filter 1)", "AM (Filter 2)", "RM (B)", "RM (C)", "RM (Noise)", "RM (Sub)", "RM (Filter 1)", "RM (Filter 2)" ],
							"parameter_longname" : "live.menu[4]",
							"parameter_mmax" : 69,
							"parameter_modmode" : 0,
							"parameter_shortname" : "live.menu",
							"parameter_type" : 2
						}

					}
,
					"varname" : "live.menu[4]"
				}

			}
, 			{
				"box" : 				{
					"id" : "obj-7",
					"maxclass" : "incdec",
					"numinlets" : 1,
					"numoutlets" : 1,
					"outlettype" : [ "float" ],
					"parameter_enable" : 0,
					"patching_rect" : [ 356.000005304813385, 6.000000089406967, 20.0, 24.0 ]
				}

			}
, 			{
				"box" : 				{
					"id" : "obj-8",
					"maxclass" : "live.menu",
					"numinlets" : 1,
					"numoutlets" : 3,
					"outlettype" : [ "", "", "float" ],
					"parameter_enable" : 1,
					"patching_rect" : [ 279.012320816516876, 9.876542329788208, 74.0, 15.0 ],
					"saved_attribute_attributes" : 					{
						"valueof" : 						{
							"parameter_enum" : [ "Off", "Sync", "Bend +", "Bend -", "Bend +/-", "PWM", "Asym +", "Asym -", "Asym +/-", "Flip", "Mirror", "Remap 1", "Remap 2", "Remap 3", "Remap 4", "Quantize", "Odd/Even", "LPF", "HPF", "Tube", "Soft Clip", "Hard Clip", "Diode 1", "Diode 2", "Linear Fold", "Sine Fold", "Zero-Square", "Asym", "Rectify", "Sine Shaper", "Stomp Box", "Tape Sat", "Soft Sat", "FM (B)", "FM (C)", "FM (Noise)", "FM (Sub)", "FM (Filter 1)", "FM (Filter 2)", "FME (B)", "FME (C)", "FME (Noise)", "FME (Sub)", "FME (Filter 1)", "FME (Filter 2)", "FML (B)", "FML (C)", "FML (Noise)", "FML (Sub)", "FML (Filter 1)", "FML (Filter 2)", "PD (B)", "PD (C)", "PD (Noise)", "PD (Sub)", "PD (Filter 1)", "PD (Filter 2)", "PD (Self)", "AM (B)", "AM (C)", "AM (Noise)", "AM (Sub)", "AM (Filter 1)", "AM (Filter 2)", "RM (B)", "RM (C)", "RM (Noise)", "RM (Sub)", "RM (Filter 1)", "RM (Filter 2)" ],
							"parameter_longname" : "live.menu[5]",
							"parameter_mmax" : 69,
							"parameter_modmode" : 0,
							"parameter_shortname" : "live.menu",
							"parameter_type" : 2
						}

					}
,
					"varname" : "live.menu[5]"
				}

			}
, 			{
				"box" : 				{
					"id" : "obj-1",
					"maxclass" : "incdec",
					"numinlets" : 1,
					"numoutlets" : 1,
					"outlettype" : [ "float" ],
					"parameter_enable" : 0,
					"patching_rect" : [ 221.0, 36.0, 20.0, 24.0 ]
				}

			}
, 			{
				"box" : 				{
					"id" : "obj-2",
					"maxclass" : "live.menu",
					"numinlets" : 1,
					"numoutlets" : 3,
					"outlettype" : [ "", "", "float" ],
					"parameter_enable" : 1,
					"patching_rect" : [ 144.0, 41.0, 74.0, 15.0 ],
					"saved_attribute_attributes" : 					{
						"valueof" : 						{
							"parameter_enum" : [ "Off", "Sync", "Bend +", "Bend -", "Bend +/-", "PWM", "Asym +", "Asym -", "Asym +/-", "Flip", "Mirror", "Remap 1", "Remap 2", "Remap 3", "Remap 4", "Quantize", "Odd/Even", "LPF", "HPF", "Tube", "Soft Clip", "Hard Clip", "Diode 1", "Diode 2", "Linear Fold", "Sine Fold", "Zero-Square", "Asym", "Rectify", "Sine Shaper", "Stomp Box", "Tape Sat", "Soft Sat", "FM (B)", "FM (C)", "FM (Noise)", "FM (Sub)", "FM (Filter 1)", "FM (Filter 2)", "FME (B)", "FME (C)", "FME (Noise)", "FME (Sub)", "FME (Filter 1)", "FME (Filter 2)", "FML (B)", "FML (C)", "FML (Noise)", "FML (Sub)", "FML (Filter 1)", "FML (Filter 2)", "PD (B)", "PD (C)", "PD (Noise)", "PD (Sub)", "PD (Filter 1)", "PD (Filter 2)", "PD (Self)", "AM (B)", "AM (C)", "AM (Noise)", "AM (Sub)", "AM (Filter 1)", "AM (Filter 2)", "RM (B)", "RM (C)", "RM (Noise)", "RM (Sub)", "RM (Filter 1)", "RM (Filter 2)" ],
							"parameter_longname" : "live.menu[2]",
							"parameter_mmax" : 69,
							"parameter_modmode" : 0,
							"parameter_shortname" : "live.menu",
							"parameter_type" : 2
						}

					}
,
					"varname" : "live.menu[2]"
				}

			}
, 			{
				"box" : 				{
					"id" : "obj-3",
					"maxclass" : "incdec",
					"numinlets" : 1,
					"numoutlets" : 1,
					"outlettype" : [ "float" ],
					"parameter_enable" : 0,
					"patching_rect" : [ 221.200003296136856, 6.000000089406967, 20.0, 24.0 ]
				}

			}
, 			{
				"box" : 				{
					"id" : "obj-4",
					"maxclass" : "live.menu",
					"numinlets" : 1,
					"numoutlets" : 3,
					"outlettype" : [ "", "", "float" ],
					"parameter_enable" : 1,
					"patching_rect" : [ 143.749996572732925, 9.583333104848862, 74.0, 15.0 ],
					"saved_attribute_attributes" : 					{
						"valueof" : 						{
							"parameter_enum" : [ "Off", "Sync", "Bend +", "Bend -", "Bend +/-", "PWM", "Asym +", "Asym -", "Asym +/-", "Flip", "Mirror", "Remap 1", "Remap 2", "Remap 3", "Remap 4", "Quantize", "Odd/Even", "LPF", "HPF", "Tube", "Soft Clip", "Hard Clip", "Diode 1", "Diode 2", "Linear Fold", "Sine Fold", "Zero-Square", "Asym", "Rectify", "Sine Shaper", "Stomp Box", "Tape Sat", "Soft Sat", "FM (B)", "FM (C)", "FM (Noise)", "FM (Sub)", "FM (Filter 1)", "FM (Filter 2)", "FME (B)", "FME (C)", "FME (Noise)", "FME (Sub)", "FME (Filter 1)", "FME (Filter 2)", "FML (B)", "FML (C)", "FML (Noise)", "FML (Sub)", "FML (Filter 1)", "FML (Filter 2)", "PD (B)", "PD (C)", "PD (Noise)", "PD (Sub)", "PD (Filter 1)", "PD (Filter 2)", "PD (Self)", "AM (B)", "AM (C)", "AM (Noise)", "AM (Sub)", "AM (Filter 1)", "AM (Filter 2)", "RM (B)", "RM (C)", "RM (Noise)", "RM (Sub)", "RM (Filter 1)", "RM (Filter 2)" ],
							"parameter_longname" : "live.menu[3]",
							"parameter_mmax" : 69,
							"parameter_modmode" : 0,
							"parameter_shortname" : "live.menu",
							"parameter_type" : 2
						}

					}
,
					"varname" : "live.menu[3]"
				}

			}
, 			{
				"box" : 				{
					"id" : "obj-44",
					"maxclass" : "incdec",
					"numinlets" : 1,
					"numoutlets" : 1,
					"outlettype" : [ "float" ],
					"parameter_enable" : 0,
					"patching_rect" : [ 86.0, 36.0, 20.0, 24.0 ]
				}

			}
, 			{
				"box" : 				{
					"id" : "obj-46",
					"maxclass" : "live.menu",
					"numinlets" : 1,
					"numoutlets" : 3,
					"outlettype" : [ "", "", "float" ],
					"parameter_enable" : 1,
					"patching_rect" : [ 9.0, 41.0, 74.0, 15.0 ],
					"saved_attribute_attributes" : 					{
						"valueof" : 						{
							"parameter_enum" : [ "Off", "Sync", "Bend +", "Bend -", "Bend +/-", "PWM", "Asym +", "Asym -", "Asym +/-", "Flip", "Mirror", "Remap 1", "Remap 2", "Remap 3", "Remap 4", "Quantize", "Odd/Even", "LPF", "HPF", "Tube", "Soft Clip", "Hard Clip", "Diode 1", "Diode 2", "Linear Fold", "Sine Fold", "Zero-Square", "Asym", "Rectify", "Sine Shaper", "Stomp Box", "Tape Sat", "Soft Sat", "FM (B)", "FM (C)", "FM (Noise)", "FM (Sub)", "FM (Filter 1)", "FM (Filter 2)", "FME (B)", "FME (C)", "FME (Noise)", "FME (Sub)", "FME (Filter 1)", "FME (Filter 2)", "FML (B)", "FML (C)", "FML (Noise)", "FML (Sub)", "FML (Filter 1)", "FML (Filter 2)", "PD (B)", "PD (C)", "PD (Noise)", "PD (Sub)", "PD (Filter 1)", "PD (Filter 2)", "PD (Self)", "AM (B)", "AM (C)", "AM (Noise)", "AM (Sub)", "AM (Filter 1)", "AM (Filter 2)", "RM (B)", "RM (C)", "RM (Noise)", "RM (Sub)", "RM (Filter 1)", "RM (Filter 2)" ],
							"parameter_longname" : "live.menu[1]",
							"parameter_mmax" : 69,
							"parameter_modmode" : 0,
							"parameter_shortname" : "live.menu",
							"parameter_type" : 2
						}

					}
,
					"varname" : "live.menu[1]"
				}

			}
, 			{
				"box" : 				{
					"id" : "obj-42",
					"maxclass" : "incdec",
					"numinlets" : 1,
					"numoutlets" : 1,
					"outlettype" : [ "float" ],
					"parameter_enable" : 0,
					"patching_rect" : [ 86.0, 6.0, 20.0, 24.0 ]
				}

			}
, 			{
				"box" : 				{
					"id" : "obj-11",
					"maxclass" : "live.menu",
					"numinlets" : 1,
					"numoutlets" : 3,
					"outlettype" : [ "", "", "float" ],
					"parameter_enable" : 1,
					"patching_rect" : [ 9.0, 10.0, 74.0, 15.0 ],
					"saved_attribute_attributes" : 					{
						"valueof" : 						{
							"parameter_enum" : [ "Off", "Sync", "Bend +", "Bend -", "Bend +/-", "PWM", "Asym +", "Asym -", "Asym +/-", "Flip", "Mirror", "Remap 1", "Remap 2", "Remap 3", "Remap 4", "Quantize", "Odd/Even", "LPF", "HPF", "Tube", "Soft Clip", "Hard Clip", "Diode 1", "Diode 2", "Linear Fold", "Sine Fold", "Zero-Square", "Asym", "Rectify", "Sine Shaper", "Stomp Box", "Tape Sat", "Soft Sat", "FM (B)", "FM (C)", "FM (Noise)", "FM (Sub)", "FM (Filter 1)", "FM (Filter 2)", "FME (B)", "FME (C)", "FME (Noise)", "FME (Sub)", "FME (Filter 1)", "FME (Filter 2)", "FML (B)", "FML (C)", "FML (Noise)", "FML (Sub)", "FML (Filter 1)", "FML (Filter 2)", "PD (B)", "PD (C)", "PD (Noise)", "PD (Sub)", "PD (Filter 1)", "PD (Filter 2)", "PD (Self)", "AM (B)", "AM (C)", "AM (Noise)", "AM (Sub)", "AM (Filter 1)", "AM (Filter 2)", "RM (B)", "RM (C)", "RM (Noise)", "RM (Sub)", "RM (Filter 1)", "RM (Filter 2)" ],
							"parameter_longname" : "live.menu",
							"parameter_mmax" : 69,
							"parameter_modmode" : 0,
							"parameter_shortname" : "live.menu",
							"parameter_type" : 2
						}

					}
,
					"varname" : "live.menu"
				}

			}
 ],
		"lines" : [ 			{
				"patchline" : 				{
					"destination" : [ "obj-2", 0 ],
					"hidden" : 1,
					"midpoints" : [ 230.5, 71.9999960064888, 138.399996012449265, 71.9999960064888, 138.399996012449265, 35.9999960064888, 153.5, 35.9999960064888 ],
					"source" : [ "obj-1", 0 ]
				}

			}
, 			{
				"patchline" : 				{
					"destination" : [ "obj-40", 0 ],
					"hidden" : 1,
					"midpoints" : [ 18.5, 36.0, 6.0, 36.0, 6.0, 192.0, 24.5, 192.0 ],
					"order" : 1,
					"source" : [ "obj-11", 0 ]
				}

			}
, 			{
				"patchline" : 				{
					"destination" : [ "obj-42", 0 ],
					"hidden" : 1,
					"midpoints" : [ 18.5, 60.770276218652725, 112.464169651269913, 60.770276218652725, 112.464169651269913, 21.770276218652725, 95.5, 21.770276218652725 ],
					"order" : 0,
					"source" : [ "obj-11", 0 ]
				}

			}
, 			{
				"patchline" : 				{
					"destination" : [ "obj-10", 0 ],
					"hidden" : 1,
					"source" : [ "obj-15", 0 ]
				}

			}
, 			{
				"patchline" : 				{
					"destination" : [ "obj-12", 0 ],
					"hidden" : 1,
					"source" : [ "obj-16", 0 ]
				}

			}
, 			{
				"patchline" : 				{
					"destination" : [ "obj-13", 0 ],
					"hidden" : 1,
					"midpoints" : [ 280.5, 330.0, 258.0, 330.0, 258.0, 402.0, 280.5, 402.0 ],
					"source" : [ "obj-17", 0 ]
				}

			}
, 			{
				"patchline" : 				{
					"destination" : [ "obj-14", 0 ],
					"hidden" : 1,
					"midpoints" : [ 280.5, 237.0, 258.0, 237.0, 258.0, 330.0, 280.5, 330.0 ],
					"source" : [ "obj-18", 0 ]
				}

			}
, 			{
				"patchline" : 				{
					"destination" : [ "obj-1", 0 ],
					"hidden" : 1,
					"midpoints" : [ 153.5, 71.9999960064888, 240.399996012449265, 71.9999960064888, 240.399996012449265, 32.9999960064888, 230.5, 32.9999960064888 ],
					"order" : 0,
					"source" : [ "obj-2", 0 ]
				}

			}
, 			{
				"patchline" : 				{
					"destination" : [ "obj-15", 0 ],
					"hidden" : 1,
					"midpoints" : [ 153.5, 192.0, 123.0, 192.0, 123.0, 237.0, 145.5, 237.0 ],
					"order" : 1,
					"source" : [ "obj-2", 0 ]
				}

			}
, 			{
				"patchline" : 				{
					"destination" : [ "obj-21", 0 ],
					"source" : [ "obj-20", 0 ]
				}

			}
, 			{
				"patchline" : 				{
					"destination" : [ "obj-10", 1 ],
					"midpoints" : [ 605.0, 330.0, 222.0, 330.0, 222.0, 402.0, 200.5, 402.0 ],
					"source" : [ "obj-21", 3 ]
				}

			}
, 			{
				"patchline" : 				{
					"destination" : [ "obj-12", 1 ],
					"midpoints" : [ 591.5, 330.0, 200.5, 330.0 ],
					"source" : [ "obj-21", 2 ]
				}

			}
, 			{
				"patchline" : 				{
					"destination" : [ "obj-13", 1 ],
					"midpoints" : [ 632.0, 414.0, 335.5, 414.0 ],
					"source" : [ "obj-21", 5 ]
				}

			}
, 			{
				"patchline" : 				{
					"destination" : [ "obj-14", 1 ],
					"midpoints" : [ 618.5, 330.0, 335.5, 330.0 ],
					"source" : [ "obj-21", 4 ]
				}

			}
, 			{
				"patchline" : 				{
					"destination" : [ "obj-54", 1 ],
					"midpoints" : [ 564.5, 330.0, 79.5, 330.0 ],
					"source" : [ "obj-21", 0 ]
				}

			}
, 			{
				"patchline" : 				{
					"destination" : [ "obj-9", 1 ],
					"midpoints" : [ 578.0, 330.0, 99.0, 330.0, 99.0, 402.0, 79.5, 402.0 ],
					"source" : [ "obj-21", 1 ]
				}

			}
, 			{
				"patchline" : 				{
					"destination" : [ "obj-23", 0 ],
					"source" : [ "obj-22", 0 ]
				}

			}
, 			{
				"patchline" : 				{
					"destination" : [ "obj-4", 0 ],
					"hidden" : 1,
					"midpoints" : [ 230.700003296136856, 61.270276308059692, 130.664172947406769, 61.270276308059692, 130.664172947406769, 31.270276308059692, 153.249996572732925, 31.270276308059692 ],
					"source" : [ "obj-3", 0 ]
				}

			}
, 			{
				"patchline" : 				{
					"destination" : [ "obj-16", 0 ],
					"hidden" : 1,
					"midpoints" : [ 153.249996572732925, 27.0, 129.0, 27.0, 129.0, 192.0, 145.5, 192.0 ],
					"order" : 1,
					"source" : [ "obj-4", 0 ]
				}

			}
, 			{
				"patchline" : 				{
					"destination" : [ "obj-3", 0 ],
					"hidden" : 1,
					"midpoints" : [ 153.249996572732925, 61.270276308059692, 247.664172947406769, 61.270276308059692, 247.664172947406769, 22.270276308059692, 230.700003296136856, 22.270276308059692 ],
					"order" : 0,
					"source" : [ "obj-4", 0 ]
				}

			}
, 			{
				"patchline" : 				{
					"destination" : [ "obj-54", 0 ],
					"hidden" : 1,
					"midpoints" : [ 24.5, 237.0, 0.0, 237.0, 0.0, 330.0, 24.5, 330.0 ],
					"source" : [ "obj-40", 0 ]
				}

			}
, 			{
				"patchline" : 				{
					"destination" : [ "obj-11", 0 ],
					"hidden" : 1,
					"midpoints" : [ 95.5, 60.770276218652725, -4.535830348730087, 60.770276218652725, -4.535830348730087, 30.770276218652725, 18.5, 30.770276218652725 ],
					"source" : [ "obj-42", 0 ]
				}

			}
, 			{
				"patchline" : 				{
					"destination" : [ "obj-46", 0 ],
					"hidden" : 1,
					"midpoints" : [ 95.5, 71.4999960064888, 3.399996012449265, 71.4999960064888, 3.399996012449265, 35.4999960064888, 18.5, 35.4999960064888 ],
					"source" : [ "obj-44", 0 ]
				}

			}
, 			{
				"patchline" : 				{
					"destination" : [ "obj-44", 0 ],
					"hidden" : 1,
					"midpoints" : [ 18.5, 71.4999960064888, 105.399996012449265, 71.4999960064888, 105.399996012449265, 32.4999960064888, 95.5, 32.4999960064888 ],
					"order" : 0,
					"source" : [ "obj-46", 0 ]
				}

			}
, 			{
				"patchline" : 				{
					"destination" : [ "obj-59", 0 ],
					"hidden" : 1,
					"midpoints" : [ 18.5, 192.0, 0.0, 192.0, 0.0, 237.0, 24.5, 237.0 ],
					"order" : 1,
					"source" : [ "obj-46", 0 ]
				}

			}
, 			{
				"patchline" : 				{
					"destination" : [ "obj-6", 0 ],
					"hidden" : 1,
					"midpoints" : [ 365.600005306303501, 72.4999960064888, 273.399996012449265, 72.4999960064888, 273.399996012449265, 36.4999960064888, 288.5, 36.4999960064888 ],
					"source" : [ "obj-5", 0 ]
				}

			}
, 			{
				"patchline" : 				{
					"destination" : [ "obj-9", 0 ],
					"hidden" : 1,
					"midpoints" : [ 24.5, 330.0, 0.0, 330.0, 0.0, 402.0, 24.5, 402.0 ],
					"source" : [ "obj-59", 0 ]
				}

			}
, 			{
				"patchline" : 				{
					"destination" : [ "obj-17", 0 ],
					"hidden" : 1,
					"midpoints" : [ 288.5, 192.0, 258.0, 192.0, 258.0, 237.0, 280.5, 237.0 ],
					"order" : 1,
					"source" : [ "obj-6", 0 ]
				}

			}
, 			{
				"patchline" : 				{
					"destination" : [ "obj-5", 0 ],
					"hidden" : 1,
					"midpoints" : [ 288.5, 72.4999960064888, 375.399996012449265, 72.4999960064888, 375.399996012449265, 33.4999960064888, 365.600005306303501, 33.4999960064888 ],
					"order" : 0,
					"source" : [ "obj-6", 0 ]
				}

			}
, 			{
				"patchline" : 				{
					"destination" : [ "obj-8", 0 ],
					"hidden" : 1,
					"midpoints" : [ 365.500005304813385, 61.770276218652725, 265.464169651269913, 61.770276218652725, 265.464169651269913, 31.770276218652725, 288.512320816516876, 31.770276218652725 ],
					"source" : [ "obj-7", 0 ]
				}

			}
, 			{
				"patchline" : 				{
					"destination" : [ "obj-18", 0 ],
					"hidden" : 1,
					"midpoints" : [ 288.512320816516876, 27.0, 264.0, 27.0, 264.0, 192.0, 280.5, 192.0 ],
					"order" : 1,
					"source" : [ "obj-8", 0 ]
				}

			}
, 			{
				"patchline" : 				{
					"destination" : [ "obj-7", 0 ],
					"hidden" : 1,
					"midpoints" : [ 288.512320816516876, 61.770276218652725, 382.464169651269913, 61.770276218652725, 382.464169651269913, 22.770276218652725, 365.500005304813385, 22.770276218652725 ],
					"order" : 0,
					"source" : [ "obj-8", 0 ]
				}

			}
 ],
		"saved_attribute_attributes" : 		{
			"default_plcolor" : 			{
				"expression" : ""
			}

		}

	}

}
