{
	"patcher" : 	{
		"fileversion" : 1,
		"appversion" : 		{
			"major" : 9,
			"minor" : 0,
			"revision" : 7,
			"architecture" : "x64",
			"modernui" : 1
		}
,
		"classnamespace" : "box",
		"rect" : [ 898.0, 100.0, 796.0, 983.0 ],
		"gridsize" : [ 15.0, 15.0 ],
		"boxes" : [ 			{
				"box" : 				{
					"id" : "obj-129",
					"linecount" : 2,
					"maxclass" : "message",
					"numinlets" : 2,
					"numoutlets" : 1,
					"outlettype" : [ "" ],
					"patching_rect" : [ 1017.0, 891.0, 79.0, 35.0 ],
					"presentation_linecount" : 2,
					"text" : "offset -1288 -75"
				}

			}
, 			{
				"box" : 				{
					"id" : "obj-105",
					"maxclass" : "newobj",
					"numinlets" : 2,
					"numoutlets" : 1,
					"outlettype" : [ "" ],
					"patching_rect" : [ 1478.0, 510.0, 77.268634527921677, 22.0 ],
					"saved_object_attributes" : 					{
						"_persistence" : 1,
						"normalized" : 0,
						"smoothing" : 1.0
					}
,
					"text" : "live.remote~"
				}

			}
, 			{
				"box" : 				{
					"id" : "obj-106",
					"maxclass" : "newobj",
					"numinlets" : 2,
					"numoutlets" : 1,
					"outlettype" : [ "" ],
					"patching_rect" : [ 1386.0, 510.0, 77.268634527921677, 22.0 ],
					"saved_object_attributes" : 					{
						"_persistence" : 1,
						"normalized" : 0,
						"smoothing" : 1.0
					}
,
					"text" : "live.remote~"
				}

			}
, 			{
				"box" : 				{
					"id" : "obj-107",
					"maxclass" : "newobj",
					"numinlets" : 2,
					"numoutlets" : 1,
					"outlettype" : [ "" ],
					"patching_rect" : [ 1293.0, 510.0, 77.268634527921677, 22.0 ],
					"saved_object_attributes" : 					{
						"_persistence" : 1,
						"normalized" : 0,
						"smoothing" : 1.0
					}
,
					"text" : "live.remote~"
				}

			}
, 			{
				"box" : 				{
					"id" : "obj-108",
					"maxclass" : "newobj",
					"numinlets" : 2,
					"numoutlets" : 1,
					"outlettype" : [ "" ],
					"patching_rect" : [ 1567.0, 422.0, 77.268634527921677, 22.0 ],
					"saved_object_attributes" : 					{
						"_persistence" : 1,
						"normalized" : 0,
						"smoothing" : 1.0
					}
,
					"text" : "live.remote~"
				}

			}
, 			{
				"box" : 				{
					"id" : "obj-109",
					"maxclass" : "newobj",
					"numinlets" : 2,
					"numoutlets" : 1,
					"outlettype" : [ "" ],
					"patching_rect" : [ 1478.0, 422.0, 77.268634527921677, 22.0 ],
					"saved_object_attributes" : 					{
						"_persistence" : 1,
						"normalized" : 0,
						"smoothing" : 1.0
					}
,
					"text" : "live.remote~"
				}

			}
, 			{
				"box" : 				{
					"id" : "obj-110",
					"maxclass" : "newobj",
					"numinlets" : 2,
					"numoutlets" : 1,
					"outlettype" : [ "" ],
					"patching_rect" : [ 1386.0, 422.0, 77.268634527921677, 22.0 ],
					"saved_object_attributes" : 					{
						"_persistence" : 1,
						"normalized" : 0,
						"smoothing" : 1.0
					}
,
					"text" : "live.remote~"
				}

			}
, 			{
				"box" : 				{
					"id" : "obj-111",
					"maxclass" : "newobj",
					"numinlets" : 2,
					"numoutlets" : 1,
					"outlettype" : [ "" ],
					"patching_rect" : [ 1293.0, 422.0, 77.268634527921677, 22.0 ],
					"saved_object_attributes" : 					{
						"_persistence" : 1,
						"normalized" : 0,
						"smoothing" : 1.0
					}
,
					"text" : "live.remote~"
				}

			}
, 			{
				"box" : 				{
					"id" : "obj-114",
					"maxclass" : "comment",
					"numinlets" : 1,
					"numoutlets" : 0,
					"patching_rect" : [ 1421.0, 128.0, 40.624998450279236, 20.0 ],
					"text" : "R Crv",
					"textjustification" : 1
				}

			}
, 			{
				"box" : 				{
					"id" : "obj-115",
					"maxclass" : "comment",
					"numinlets" : 1,
					"numoutlets" : 0,
					"patching_rect" : [ 1332.0, 128.0, 40.624998450279236, 20.0 ],
					"text" : "D Crv",
					"textjustification" : 1
				}

			}
, 			{
				"box" : 				{
					"id" : "obj-116",
					"maxclass" : "comment",
					"numinlets" : 1,
					"numoutlets" : 0,
					"patching_rect" : [ 1287.0, 128.0, 40.624998450279236, 20.0 ],
					"text" : "A Crv",
					"textjustification" : 1
				}

			}
, 			{
				"box" : 				{
					"id" : "obj-117",
					"maxclass" : "newobj",
					"numinlets" : 8,
					"numoutlets" : 8,
					"outlettype" : [ "", "", "", "", "", "", "", "" ],
					"patching_rect" : [ 1283.0, 691.0, 240.0, 22.0 ],
					"text" : "route 29 30 31 32 33 34 35"
				}

			}
, 			{
				"box" : 				{
					"focusbordercolor" : [ 0.631372549019608, 0.63921568627451, 0.662745098039216, 0.0 ],
					"id" : "obj-118",
					"maxclass" : "live.dial",
					"numinlets" : 1,
					"numoutlets" : 2,
					"outlettype" : [ "", "float" ],
					"parameter_enable" : 1,
					"patching_rect" : [ 1428.0, 150.0, 27.0, 28.0 ],
					"saved_attribute_attributes" : 					{
						"focusbordercolor" : 						{
							"expression" : ""
						}
,
						"valueof" : 						{
							"parameter_longname" : "live.dial[48]",
							"parameter_mmax" : 1.0,
							"parameter_modmode" : 3,
							"parameter_shortname" : "live.dial",
							"parameter_type" : 0,
							"parameter_unitstyle" : 1
						}

					}
,
					"showname" : 0,
					"shownumber" : 0,
					"varname" : "live.dial[30]"
				}

			}
, 			{
				"box" : 				{
					"focusbordercolor" : [ 0.631372549019608, 0.63921568627451, 0.662745098039216, 0.0 ],
					"id" : "obj-119",
					"maxclass" : "live.dial",
					"numinlets" : 1,
					"numoutlets" : 2,
					"outlettype" : [ "", "float" ],
					"parameter_enable" : 1,
					"patching_rect" : [ 1338.0, 150.0, 27.0, 28.0 ],
					"saved_attribute_attributes" : 					{
						"focusbordercolor" : 						{
							"expression" : ""
						}
,
						"valueof" : 						{
							"parameter_longname" : "live.dial[49]",
							"parameter_mmax" : 1.0,
							"parameter_modmode" : 3,
							"parameter_shortname" : "live.dial",
							"parameter_type" : 0,
							"parameter_unitstyle" : 1
						}

					}
,
					"showname" : 0,
					"shownumber" : 0,
					"varname" : "live.dial[31]"
				}

			}
, 			{
				"box" : 				{
					"focusbordercolor" : [ 0.631372549019608, 0.63921568627451, 0.662745098039216, 0.0 ],
					"id" : "obj-120",
					"maxclass" : "live.dial",
					"numinlets" : 1,
					"numoutlets" : 2,
					"outlettype" : [ "", "float" ],
					"parameter_enable" : 1,
					"patching_rect" : [ 1294.0, 150.0, 27.0, 28.0 ],
					"saved_attribute_attributes" : 					{
						"focusbordercolor" : 						{
							"expression" : ""
						}
,
						"valueof" : 						{
							"parameter_longname" : "live.dial[50]",
							"parameter_mmax" : 1.0,
							"parameter_modmode" : 3,
							"parameter_shortname" : "live.dial",
							"parameter_type" : 0,
							"parameter_unitstyle" : 1
						}

					}
,
					"showname" : 0,
					"shownumber" : 0,
					"varname" : "live.dial[32]"
				}

			}
, 			{
				"box" : 				{
					"id" : "obj-121",
					"maxclass" : "comment",
					"numinlets" : 1,
					"numoutlets" : 0,
					"patching_rect" : [ 1432.0, 75.0, 20.0, 20.0 ],
					"text" : "R",
					"textjustification" : 1
				}

			}
, 			{
				"box" : 				{
					"id" : "obj-122",
					"maxclass" : "comment",
					"numinlets" : 1,
					"numoutlets" : 0,
					"patching_rect" : [ 1387.0, 75.0, 20.0, 20.0 ],
					"text" : "S",
					"textjustification" : 1
				}

			}
, 			{
				"box" : 				{
					"id" : "obj-123",
					"maxclass" : "comment",
					"numinlets" : 1,
					"numoutlets" : 0,
					"patching_rect" : [ 1342.0, 75.0, 20.0, 20.0 ],
					"text" : "D",
					"textjustification" : 1
				}

			}
, 			{
				"box" : 				{
					"focusbordercolor" : [ 0.631372549019608, 0.63921568627451, 0.662745098039216, 0.0 ],
					"id" : "obj-124",
					"maxclass" : "live.dial",
					"numinlets" : 1,
					"numoutlets" : 2,
					"outlettype" : [ "", "float" ],
					"parameter_enable" : 1,
					"patching_rect" : [ 1429.0, 96.0, 27.0, 28.0 ],
					"saved_attribute_attributes" : 					{
						"focusbordercolor" : 						{
							"expression" : ""
						}
,
						"valueof" : 						{
							"parameter_longname" : "live.dial[51]",
							"parameter_mmax" : 1.0,
							"parameter_modmode" : 3,
							"parameter_shortname" : "live.dial",
							"parameter_type" : 0,
							"parameter_unitstyle" : 1
						}

					}
,
					"showname" : 0,
					"shownumber" : 0,
					"varname" : "live.dial[33]"
				}

			}
, 			{
				"box" : 				{
					"focusbordercolor" : [ 0.631372549019608, 0.63921568627451, 0.662745098039216, 0.0 ],
					"id" : "obj-125",
					"maxclass" : "live.dial",
					"numinlets" : 1,
					"numoutlets" : 2,
					"outlettype" : [ "", "float" ],
					"parameter_enable" : 1,
					"patching_rect" : [ 1384.0, 96.0, 27.0, 28.0 ],
					"saved_attribute_attributes" : 					{
						"focusbordercolor" : 						{
							"expression" : ""
						}
,
						"valueof" : 						{
							"parameter_longname" : "live.dial[52]",
							"parameter_mmax" : 1.0,
							"parameter_modmode" : 3,
							"parameter_shortname" : "live.dial",
							"parameter_type" : 0,
							"parameter_unitstyle" : 1
						}

					}
,
					"showname" : 0,
					"shownumber" : 0,
					"varname" : "live.dial[34]"
				}

			}
, 			{
				"box" : 				{
					"focusbordercolor" : [ 0.631372549019608, 0.63921568627451, 0.662745098039216, 0.0 ],
					"id" : "obj-126",
					"maxclass" : "live.dial",
					"numinlets" : 1,
					"numoutlets" : 2,
					"outlettype" : [ "", "float" ],
					"parameter_enable" : 1,
					"patching_rect" : [ 1339.0, 96.0, 27.0, 28.0 ],
					"saved_attribute_attributes" : 					{
						"focusbordercolor" : 						{
							"expression" : ""
						}
,
						"valueof" : 						{
							"parameter_longname" : "live.dial[53]",
							"parameter_mmax" : 1.0,
							"parameter_modmode" : 3,
							"parameter_shortname" : "live.dial",
							"parameter_type" : 0,
							"parameter_unitstyle" : 1
						}

					}
,
					"showname" : 0,
					"shownumber" : 0,
					"varname" : "live.dial[35]"
				}

			}
, 			{
				"box" : 				{
					"id" : "obj-127",
					"maxclass" : "comment",
					"numinlets" : 1,
					"numoutlets" : 0,
					"patching_rect" : [ 1298.0, 75.0, 20.0, 20.0 ],
					"text" : "A",
					"textjustification" : 1
				}

			}
, 			{
				"box" : 				{
					"focusbordercolor" : [ 0.631372549019608, 0.63921568627451, 0.662745098039216, 0.0 ],
					"id" : "obj-128",
					"maxclass" : "live.dial",
					"numinlets" : 1,
					"numoutlets" : 2,
					"outlettype" : [ "", "float" ],
					"parameter_enable" : 1,
					"patching_rect" : [ 1294.0, 97.0, 27.0, 28.0 ],
					"saved_attribute_attributes" : 					{
						"focusbordercolor" : 						{
							"expression" : ""
						}
,
						"valueof" : 						{
							"parameter_initial" : [ 0.0 ],
							"parameter_initial_enable" : 1,
							"parameter_longname" : "live.dial[54]",
							"parameter_mmax" : 1.0,
							"parameter_modmode" : 3,
							"parameter_shortname" : "live.dial",
							"parameter_type" : 0,
							"parameter_unitstyle" : 1
						}

					}
,
					"showname" : 0,
					"shownumber" : 0,
					"varname" : "live.dial[36]"
				}

			}
, 			{
				"box" : 				{
					"id" : "obj-103",
					"linecount" : 2,
					"maxclass" : "message",
					"numinlets" : 2,
					"numoutlets" : 1,
					"outlettype" : [ "" ],
					"patching_rect" : [ 917.0, 891.0, 79.0, 35.0 ],
					"presentation_linecount" : 2,
					"text" : "offset -867 -75"
				}

			}
, 			{
				"box" : 				{
					"id" : "obj-49",
					"maxclass" : "newobj",
					"numinlets" : 2,
					"numoutlets" : 1,
					"outlettype" : [ "" ],
					"patching_rect" : [ 1147.0, 510.0, 77.268634527921677, 22.0 ],
					"saved_object_attributes" : 					{
						"_persistence" : 1,
						"normalized" : 0,
						"smoothing" : 1.0
					}
,
					"text" : "live.remote~"
				}

			}
, 			{
				"box" : 				{
					"id" : "obj-50",
					"maxclass" : "newobj",
					"numinlets" : 2,
					"numoutlets" : 1,
					"outlettype" : [ "" ],
					"patching_rect" : [ 1057.0, 510.0, 77.268634527921677, 22.0 ],
					"saved_object_attributes" : 					{
						"_persistence" : 1,
						"normalized" : 0,
						"smoothing" : 1.0
					}
,
					"text" : "live.remote~"
				}

			}
, 			{
				"box" : 				{
					"id" : "obj-56",
					"maxclass" : "newobj",
					"numinlets" : 2,
					"numoutlets" : 1,
					"outlettype" : [ "" ],
					"patching_rect" : [ 965.0, 510.0, 77.268634527921677, 22.0 ],
					"saved_object_attributes" : 					{
						"_persistence" : 1,
						"normalized" : 0,
						"smoothing" : 1.0
					}
,
					"text" : "live.remote~"
				}

			}
, 			{
				"box" : 				{
					"id" : "obj-57",
					"maxclass" : "newobj",
					"numinlets" : 2,
					"numoutlets" : 1,
					"outlettype" : [ "" ],
					"patching_rect" : [ 872.0, 510.0, 77.268634527921677, 22.0 ],
					"saved_object_attributes" : 					{
						"_persistence" : 1,
						"normalized" : 0,
						"smoothing" : 1.0
					}
,
					"text" : "live.remote~"
				}

			}
, 			{
				"box" : 				{
					"id" : "obj-58",
					"maxclass" : "newobj",
					"numinlets" : 2,
					"numoutlets" : 1,
					"outlettype" : [ "" ],
					"patching_rect" : [ 1146.0, 422.0, 77.268634527921677, 22.0 ],
					"saved_object_attributes" : 					{
						"_persistence" : 1,
						"normalized" : 0,
						"smoothing" : 1.0
					}
,
					"text" : "live.remote~"
				}

			}
, 			{
				"box" : 				{
					"id" : "obj-59",
					"maxclass" : "newobj",
					"numinlets" : 2,
					"numoutlets" : 1,
					"outlettype" : [ "" ],
					"patching_rect" : [ 1057.0, 422.0, 77.268634527921677, 22.0 ],
					"saved_object_attributes" : 					{
						"_persistence" : 1,
						"normalized" : 0,
						"smoothing" : 1.0
					}
,
					"text" : "live.remote~"
				}

			}
, 			{
				"box" : 				{
					"id" : "obj-73",
					"maxclass" : "newobj",
					"numinlets" : 2,
					"numoutlets" : 1,
					"outlettype" : [ "" ],
					"patching_rect" : [ 965.0, 422.0, 77.268634527921677, 22.0 ],
					"saved_object_attributes" : 					{
						"_persistence" : 1,
						"normalized" : 0,
						"smoothing" : 1.0
					}
,
					"text" : "live.remote~"
				}

			}
, 			{
				"box" : 				{
					"id" : "obj-74",
					"maxclass" : "newobj",
					"numinlets" : 2,
					"numoutlets" : 1,
					"outlettype" : [ "" ],
					"patching_rect" : [ 872.0, 422.0, 77.268634527921677, 22.0 ],
					"saved_object_attributes" : 					{
						"_persistence" : 1,
						"normalized" : 0,
						"smoothing" : 1.0
					}
,
					"text" : "live.remote~"
				}

			}
, 			{
				"box" : 				{
					"id" : "obj-75",
					"maxclass" : "comment",
					"numinlets" : 1,
					"numoutlets" : 0,
					"patching_rect" : [ 958.0, 128.0, 38.0, 20.0 ],
					"text" : "vMod",
					"textjustification" : 1
				}

			}
, 			{
				"box" : 				{
					"focusbordercolor" : [ 0.631372549019608, 0.63921568627451, 0.662745098039216, 0.0 ],
					"id" : "obj-76",
					"maxclass" : "live.dial",
					"numinlets" : 1,
					"numoutlets" : 2,
					"outlettype" : [ "", "float" ],
					"parameter_enable" : 1,
					"patching_rect" : [ 963.0, 149.0, 27.0, 28.0 ],
					"saved_attribute_attributes" : 					{
						"focusbordercolor" : 						{
							"expression" : ""
						}
,
						"valueof" : 						{
							"parameter_initial" : [ 0.5 ],
							"parameter_initial_enable" : 1,
							"parameter_longname" : "live.dial[34]",
							"parameter_mmax" : 1.0,
							"parameter_modmode" : 3,
							"parameter_shortname" : "live.dial",
							"parameter_type" : 0,
							"parameter_unitstyle" : 1
						}

					}
,
					"showname" : 0,
					"shownumber" : 0,
					"varname" : "live.dial[18]"
				}

			}
, 			{
				"box" : 				{
					"id" : "obj-77",
					"maxclass" : "comment",
					"numinlets" : 1,
					"numoutlets" : 0,
					"patching_rect" : [ 1000.0, 128.0, 40.624998450279236, 20.0 ],
					"text" : "R Crv",
					"textjustification" : 1
				}

			}
, 			{
				"box" : 				{
					"id" : "obj-78",
					"maxclass" : "comment",
					"numinlets" : 1,
					"numoutlets" : 0,
					"patching_rect" : [ 911.0, 128.0, 40.624998450279236, 20.0 ],
					"text" : "D Crv",
					"textjustification" : 1
				}

			}
, 			{
				"box" : 				{
					"id" : "obj-79",
					"maxclass" : "comment",
					"numinlets" : 1,
					"numoutlets" : 0,
					"patching_rect" : [ 866.0, 128.0, 40.624998450279236, 20.0 ],
					"text" : "A Crv",
					"textjustification" : 1
				}

			}
, 			{
				"box" : 				{
					"id" : "obj-80",
					"maxclass" : "newobj",
					"numinlets" : 9,
					"numoutlets" : 9,
					"outlettype" : [ "", "", "", "", "", "", "", "", "" ],
					"patching_rect" : [ 862.0, 691.0, 240.0, 22.0 ],
					"text" : "route 21 22 23 24 25 26 27 28"
				}

			}
, 			{
				"box" : 				{
					"focusbordercolor" : [ 0.631372549019608, 0.63921568627451, 0.662745098039216, 0.0 ],
					"id" : "obj-89",
					"maxclass" : "live.dial",
					"numinlets" : 1,
					"numoutlets" : 2,
					"outlettype" : [ "", "float" ],
					"parameter_enable" : 1,
					"patching_rect" : [ 1007.0, 150.0, 27.0, 28.0 ],
					"saved_attribute_attributes" : 					{
						"focusbordercolor" : 						{
							"expression" : ""
						}
,
						"valueof" : 						{
							"parameter_longname" : "live.dial[35]",
							"parameter_mmax" : 1.0,
							"parameter_modmode" : 3,
							"parameter_shortname" : "live.dial",
							"parameter_type" : 0,
							"parameter_unitstyle" : 1
						}

					}
,
					"showname" : 0,
					"shownumber" : 0,
					"varname" : "live.dial[19]"
				}

			}
, 			{
				"box" : 				{
					"focusbordercolor" : [ 0.631372549019608, 0.63921568627451, 0.662745098039216, 0.0 ],
					"id" : "obj-93",
					"maxclass" : "live.dial",
					"numinlets" : 1,
					"numoutlets" : 2,
					"outlettype" : [ "", "float" ],
					"parameter_enable" : 1,
					"patching_rect" : [ 917.0, 150.0, 27.0, 28.0 ],
					"saved_attribute_attributes" : 					{
						"focusbordercolor" : 						{
							"expression" : ""
						}
,
						"valueof" : 						{
							"parameter_longname" : "live.dial[41]",
							"parameter_mmax" : 1.0,
							"parameter_modmode" : 3,
							"parameter_shortname" : "live.dial",
							"parameter_type" : 0,
							"parameter_unitstyle" : 1
						}

					}
,
					"showname" : 0,
					"shownumber" : 0,
					"varname" : "live.dial[24]"
				}

			}
, 			{
				"box" : 				{
					"focusbordercolor" : [ 0.631372549019608, 0.63921568627451, 0.662745098039216, 0.0 ],
					"id" : "obj-94",
					"maxclass" : "live.dial",
					"numinlets" : 1,
					"numoutlets" : 2,
					"outlettype" : [ "", "float" ],
					"parameter_enable" : 1,
					"patching_rect" : [ 873.0, 150.0, 27.0, 28.0 ],
					"saved_attribute_attributes" : 					{
						"focusbordercolor" : 						{
							"expression" : ""
						}
,
						"valueof" : 						{
							"parameter_longname" : "live.dial[42]",
							"parameter_mmax" : 1.0,
							"parameter_modmode" : 3,
							"parameter_shortname" : "live.dial",
							"parameter_type" : 0,
							"parameter_unitstyle" : 1
						}

					}
,
					"showname" : 0,
					"shownumber" : 0,
					"varname" : "live.dial[25]"
				}

			}
, 			{
				"box" : 				{
					"id" : "obj-95",
					"maxclass" : "comment",
					"numinlets" : 1,
					"numoutlets" : 0,
					"patching_rect" : [ 1011.0, 75.0, 20.0, 20.0 ],
					"text" : "R",
					"textjustification" : 1
				}

			}
, 			{
				"box" : 				{
					"id" : "obj-96",
					"maxclass" : "comment",
					"numinlets" : 1,
					"numoutlets" : 0,
					"patching_rect" : [ 966.0, 75.0, 20.0, 20.0 ],
					"text" : "S",
					"textjustification" : 1
				}

			}
, 			{
				"box" : 				{
					"id" : "obj-97",
					"maxclass" : "comment",
					"numinlets" : 1,
					"numoutlets" : 0,
					"patching_rect" : [ 921.0, 75.0, 20.0, 20.0 ],
					"text" : "D",
					"textjustification" : 1
				}

			}
, 			{
				"box" : 				{
					"focusbordercolor" : [ 0.631372549019608, 0.63921568627451, 0.662745098039216, 0.0 ],
					"id" : "obj-98",
					"maxclass" : "live.dial",
					"numinlets" : 1,
					"numoutlets" : 2,
					"outlettype" : [ "", "float" ],
					"parameter_enable" : 1,
					"patching_rect" : [ 1008.0, 96.0, 27.0, 28.0 ],
					"saved_attribute_attributes" : 					{
						"focusbordercolor" : 						{
							"expression" : ""
						}
,
						"valueof" : 						{
							"parameter_longname" : "live.dial[43]",
							"parameter_mmax" : 1.0,
							"parameter_modmode" : 3,
							"parameter_shortname" : "live.dial",
							"parameter_type" : 0,
							"parameter_unitstyle" : 1
						}

					}
,
					"showname" : 0,
					"shownumber" : 0,
					"varname" : "live.dial[26]"
				}

			}
, 			{
				"box" : 				{
					"focusbordercolor" : [ 0.631372549019608, 0.63921568627451, 0.662745098039216, 0.0 ],
					"id" : "obj-99",
					"maxclass" : "live.dial",
					"numinlets" : 1,
					"numoutlets" : 2,
					"outlettype" : [ "", "float" ],
					"parameter_enable" : 1,
					"patching_rect" : [ 963.0, 96.0, 27.0, 28.0 ],
					"saved_attribute_attributes" : 					{
						"focusbordercolor" : 						{
							"expression" : ""
						}
,
						"valueof" : 						{
							"parameter_longname" : "live.dial[44]",
							"parameter_mmax" : 1.0,
							"parameter_modmode" : 3,
							"parameter_shortname" : "live.dial",
							"parameter_type" : 0,
							"parameter_unitstyle" : 1
						}

					}
,
					"showname" : 0,
					"shownumber" : 0,
					"varname" : "live.dial[27]"
				}

			}
, 			{
				"box" : 				{
					"focusbordercolor" : [ 0.631372549019608, 0.63921568627451, 0.662745098039216, 0.0 ],
					"id" : "obj-100",
					"maxclass" : "live.dial",
					"numinlets" : 1,
					"numoutlets" : 2,
					"outlettype" : [ "", "float" ],
					"parameter_enable" : 1,
					"patching_rect" : [ 918.0, 96.0, 27.0, 28.0 ],
					"saved_attribute_attributes" : 					{
						"focusbordercolor" : 						{
							"expression" : ""
						}
,
						"valueof" : 						{
							"parameter_longname" : "live.dial[45]",
							"parameter_mmax" : 1.0,
							"parameter_modmode" : 3,
							"parameter_shortname" : "live.dial",
							"parameter_type" : 0,
							"parameter_unitstyle" : 1
						}

					}
,
					"showname" : 0,
					"shownumber" : 0,
					"varname" : "live.dial[28]"
				}

			}
, 			{
				"box" : 				{
					"id" : "obj-101",
					"maxclass" : "comment",
					"numinlets" : 1,
					"numoutlets" : 0,
					"patching_rect" : [ 877.0, 75.0, 20.0, 20.0 ],
					"text" : "A",
					"textjustification" : 1
				}

			}
, 			{
				"box" : 				{
					"focusbordercolor" : [ 0.631372549019608, 0.63921568627451, 0.662745098039216, 0.0 ],
					"id" : "obj-102",
					"maxclass" : "live.dial",
					"numinlets" : 1,
					"numoutlets" : 2,
					"outlettype" : [ "", "float" ],
					"parameter_enable" : 1,
					"patching_rect" : [ 873.0, 97.0, 27.0, 28.0 ],
					"saved_attribute_attributes" : 					{
						"focusbordercolor" : 						{
							"expression" : ""
						}
,
						"valueof" : 						{
							"parameter_initial" : [ 0.0 ],
							"parameter_initial_enable" : 1,
							"parameter_longname" : "live.dial[46]",
							"parameter_mmax" : 1.0,
							"parameter_modmode" : 3,
							"parameter_shortname" : "live.dial",
							"parameter_type" : 0,
							"parameter_unitstyle" : 1
						}

					}
,
					"showname" : 0,
					"shownumber" : 0,
					"varname" : "live.dial[29]"
				}

			}
, 			{
				"box" : 				{
					"id" : "obj-92",
					"maxclass" : "newobj",
					"numinlets" : 2,
					"numoutlets" : 1,
					"outlettype" : [ "" ],
					"patching_rect" : [ 460.0, 576.0, 77.268634527921677, 22.0 ],
					"saved_object_attributes" : 					{
						"_persistence" : 1,
						"normalized" : 0,
						"smoothing" : 1.0
					}
,
					"text" : "live.remote~"
				}

			}
, 			{
				"box" : 				{
					"id" : "obj-90",
					"maxclass" : "comment",
					"numinlets" : 1,
					"numoutlets" : 0,
					"patching_rect" : [ 520.0, 180.874999165534973, 43.0, 20.0 ],
					"text" : "Depth",
					"textjustification" : 1
				}

			}
, 			{
				"box" : 				{
					"focusbordercolor" : [ 0.631372549019608, 0.63921568627451, 0.662745098039216, 0.0 ],
					"id" : "obj-91",
					"maxclass" : "live.dial",
					"numinlets" : 1,
					"numoutlets" : 2,
					"outlettype" : [ "", "float" ],
					"parameter_enable" : 1,
					"patching_rect" : [ 528.0, 201.874999165534973, 27.0, 28.0 ],
					"saved_attribute_attributes" : 					{
						"focusbordercolor" : 						{
							"expression" : ""
						}
,
						"valueof" : 						{
							"parameter_initial" : [ 0.5 ],
							"parameter_initial_enable" : 1,
							"parameter_longname" : "live.dial[36]",
							"parameter_mmax" : 1.0,
							"parameter_modmode" : 3,
							"parameter_shortname" : "live.dial",
							"parameter_type" : 0,
							"parameter_unitstyle" : 1
						}

					}
,
					"showname" : 0,
					"shownumber" : 0,
					"varname" : "live.dial[16]"
				}

			}
, 			{
				"box" : 				{
					"id" : "obj-52",
					"maxclass" : "newobj",
					"numinlets" : 2,
					"numoutlets" : 1,
					"outlettype" : [ "" ],
					"patching_rect" : [ 735.0, 510.0, 77.268634527921677, 22.0 ],
					"saved_object_attributes" : 					{
						"_persistence" : 1,
						"normalized" : 0,
						"smoothing" : 1.0
					}
,
					"text" : "live.remote~"
				}

			}
, 			{
				"box" : 				{
					"id" : "obj-53",
					"maxclass" : "newobj",
					"numinlets" : 2,
					"numoutlets" : 1,
					"outlettype" : [ "" ],
					"patching_rect" : [ 645.0, 510.0, 77.268634527921677, 22.0 ],
					"saved_object_attributes" : 					{
						"_persistence" : 1,
						"normalized" : 0,
						"smoothing" : 1.0
					}
,
					"text" : "live.remote~"
				}

			}
, 			{
				"box" : 				{
					"id" : "obj-54",
					"maxclass" : "newobj",
					"numinlets" : 2,
					"numoutlets" : 1,
					"outlettype" : [ "" ],
					"patching_rect" : [ 553.0, 510.0, 77.268634527921677, 22.0 ],
					"saved_object_attributes" : 					{
						"_persistence" : 1,
						"normalized" : 0,
						"smoothing" : 1.0
					}
,
					"text" : "live.remote~"
				}

			}
, 			{
				"box" : 				{
					"id" : "obj-55",
					"maxclass" : "newobj",
					"numinlets" : 2,
					"numoutlets" : 1,
					"outlettype" : [ "" ],
					"patching_rect" : [ 460.0, 510.0, 77.268634527921677, 22.0 ],
					"saved_object_attributes" : 					{
						"_persistence" : 1,
						"normalized" : 0,
						"smoothing" : 1.0
					}
,
					"text" : "live.remote~"
				}

			}
, 			{
				"box" : 				{
					"id" : "obj-60",
					"maxclass" : "newobj",
					"numinlets" : 2,
					"numoutlets" : 1,
					"outlettype" : [ "" ],
					"patching_rect" : [ 734.0, 422.0, 77.268634527921677, 22.0 ],
					"saved_object_attributes" : 					{
						"_persistence" : 1,
						"normalized" : 0,
						"smoothing" : 1.0
					}
,
					"text" : "live.remote~"
				}

			}
, 			{
				"box" : 				{
					"id" : "obj-61",
					"maxclass" : "newobj",
					"numinlets" : 2,
					"numoutlets" : 1,
					"outlettype" : [ "" ],
					"patching_rect" : [ 645.0, 422.0, 77.268634527921677, 22.0 ],
					"saved_object_attributes" : 					{
						"_persistence" : 1,
						"normalized" : 0,
						"smoothing" : 1.0
					}
,
					"text" : "live.remote~"
				}

			}
, 			{
				"box" : 				{
					"id" : "obj-62",
					"maxclass" : "newobj",
					"numinlets" : 2,
					"numoutlets" : 1,
					"outlettype" : [ "" ],
					"patching_rect" : [ 553.0, 422.0, 77.268634527921677, 22.0 ],
					"saved_object_attributes" : 					{
						"_persistence" : 1,
						"normalized" : 0,
						"smoothing" : 1.0
					}
,
					"text" : "live.remote~"
				}

			}
, 			{
				"box" : 				{
					"id" : "obj-63",
					"maxclass" : "newobj",
					"numinlets" : 2,
					"numoutlets" : 1,
					"outlettype" : [ "" ],
					"patching_rect" : [ 460.0, 422.0, 77.268634527921677, 22.0 ],
					"saved_object_attributes" : 					{
						"_persistence" : 1,
						"normalized" : 0,
						"smoothing" : 1.0
					}
,
					"text" : "live.remote~"
				}

			}
, 			{
				"box" : 				{
					"id" : "obj-64",
					"maxclass" : "comment",
					"numinlets" : 1,
					"numoutlets" : 0,
					"patching_rect" : [ 546.0, 128.0, 38.0, 20.0 ],
					"text" : "vMod",
					"textjustification" : 1
				}

			}
, 			{
				"box" : 				{
					"focusbordercolor" : [ 0.631372549019608, 0.63921568627451, 0.662745098039216, 0.0 ],
					"id" : "obj-65",
					"maxclass" : "live.dial",
					"numinlets" : 1,
					"numoutlets" : 2,
					"outlettype" : [ "", "float" ],
					"parameter_enable" : 1,
					"patching_rect" : [ 551.0, 149.0, 27.0, 28.0 ],
					"saved_attribute_attributes" : 					{
						"focusbordercolor" : 						{
							"expression" : ""
						}
,
						"valueof" : 						{
							"parameter_initial" : [ 0.5 ],
							"parameter_initial_enable" : 1,
							"parameter_longname" : "live.dial[29]",
							"parameter_mmax" : 1.0,
							"parameter_modmode" : 3,
							"parameter_shortname" : "live.dial",
							"parameter_type" : 0,
							"parameter_unitstyle" : 1
						}

					}
,
					"showname" : 0,
					"shownumber" : 0,
					"varname" : "live.dial[12]"
				}

			}
, 			{
				"box" : 				{
					"id" : "obj-66",
					"maxclass" : "comment",
					"numinlets" : 1,
					"numoutlets" : 0,
					"patching_rect" : [ 588.0, 128.0, 40.624998450279236, 20.0 ],
					"text" : "R Crv",
					"textjustification" : 1
				}

			}
, 			{
				"box" : 				{
					"id" : "obj-67",
					"maxclass" : "comment",
					"numinlets" : 1,
					"numoutlets" : 0,
					"patching_rect" : [ 499.0, 128.0, 40.624998450279236, 20.0 ],
					"text" : "D Crv",
					"textjustification" : 1
				}

			}
, 			{
				"box" : 				{
					"id" : "obj-68",
					"maxclass" : "comment",
					"numinlets" : 1,
					"numoutlets" : 0,
					"patching_rect" : [ 454.0, 128.0, 40.624998450279236, 20.0 ],
					"text" : "A Crv",
					"textjustification" : 1
				}

			}
, 			{
				"box" : 				{
					"id" : "obj-69",
					"maxclass" : "newobj",
					"numinlets" : 10,
					"numoutlets" : 10,
					"outlettype" : [ "", "", "", "", "", "", "", "", "", "" ],
					"patching_rect" : [ 450.0, 691.0, 240.0, 22.0 ],
					"text" : "route 12 13 14 15 16 17 18 19 20"
				}

			}
, 			{
				"box" : 				{
					"focusbordercolor" : [ 0.631372549019608, 0.63921568627451, 0.662745098039216, 0.0 ],
					"id" : "obj-70",
					"maxclass" : "live.dial",
					"numinlets" : 1,
					"numoutlets" : 2,
					"outlettype" : [ "", "float" ],
					"parameter_enable" : 1,
					"patching_rect" : [ 595.0, 150.0, 27.0, 28.0 ],
					"saved_attribute_attributes" : 					{
						"focusbordercolor" : 						{
							"expression" : ""
						}
,
						"valueof" : 						{
							"parameter_longname" : "live.dial[30]",
							"parameter_mmax" : 1.0,
							"parameter_modmode" : 3,
							"parameter_shortname" : "live.dial",
							"parameter_type" : 0,
							"parameter_unitstyle" : 1
						}

					}
,
					"showname" : 0,
					"shownumber" : 0,
					"varname" : "live.dial[13]"
				}

			}
, 			{
				"box" : 				{
					"focusbordercolor" : [ 0.631372549019608, 0.63921568627451, 0.662745098039216, 0.0 ],
					"id" : "obj-71",
					"maxclass" : "live.dial",
					"numinlets" : 1,
					"numoutlets" : 2,
					"outlettype" : [ "", "float" ],
					"parameter_enable" : 1,
					"patching_rect" : [ 505.0, 150.0, 27.0, 28.0 ],
					"saved_attribute_attributes" : 					{
						"focusbordercolor" : 						{
							"expression" : ""
						}
,
						"valueof" : 						{
							"parameter_longname" : "live.dial[31]",
							"parameter_mmax" : 1.0,
							"parameter_modmode" : 3,
							"parameter_shortname" : "live.dial",
							"parameter_type" : 0,
							"parameter_unitstyle" : 1
						}

					}
,
					"showname" : 0,
					"shownumber" : 0,
					"varname" : "live.dial[14]"
				}

			}
, 			{
				"box" : 				{
					"focusbordercolor" : [ 0.631372549019608, 0.63921568627451, 0.662745098039216, 0.0 ],
					"id" : "obj-72",
					"maxclass" : "live.dial",
					"numinlets" : 1,
					"numoutlets" : 2,
					"outlettype" : [ "", "float" ],
					"parameter_enable" : 1,
					"patching_rect" : [ 461.0, 150.0, 27.0, 28.0 ],
					"saved_attribute_attributes" : 					{
						"focusbordercolor" : 						{
							"expression" : ""
						}
,
						"valueof" : 						{
							"parameter_longname" : "live.dial[32]",
							"parameter_mmax" : 1.0,
							"parameter_modmode" : 3,
							"parameter_shortname" : "live.dial",
							"parameter_type" : 0,
							"parameter_unitstyle" : 1
						}

					}
,
					"showname" : 0,
					"shownumber" : 0,
					"varname" : "live.dial[15]"
				}

			}
, 			{
				"box" : 				{
					"id" : "obj-81",
					"maxclass" : "comment",
					"numinlets" : 1,
					"numoutlets" : 0,
					"patching_rect" : [ 599.0, 75.0, 20.0, 20.0 ],
					"text" : "R",
					"textjustification" : 1
				}

			}
, 			{
				"box" : 				{
					"id" : "obj-82",
					"maxclass" : "comment",
					"numinlets" : 1,
					"numoutlets" : 0,
					"patching_rect" : [ 554.0, 75.0, 20.0, 20.0 ],
					"text" : "S",
					"textjustification" : 1
				}

			}
, 			{
				"box" : 				{
					"id" : "obj-83",
					"maxclass" : "comment",
					"numinlets" : 1,
					"numoutlets" : 0,
					"patching_rect" : [ 509.0, 75.0, 20.0, 20.0 ],
					"text" : "D",
					"textjustification" : 1
				}

			}
, 			{
				"box" : 				{
					"focusbordercolor" : [ 0.631372549019608, 0.63921568627451, 0.662745098039216, 0.0 ],
					"id" : "obj-84",
					"maxclass" : "live.dial",
					"numinlets" : 1,
					"numoutlets" : 2,
					"outlettype" : [ "", "float" ],
					"parameter_enable" : 1,
					"patching_rect" : [ 596.0, 96.0, 27.0, 28.0 ],
					"saved_attribute_attributes" : 					{
						"focusbordercolor" : 						{
							"expression" : ""
						}
,
						"valueof" : 						{
							"parameter_longname" : "live.dial[37]",
							"parameter_mmax" : 1.0,
							"parameter_modmode" : 3,
							"parameter_shortname" : "live.dial",
							"parameter_type" : 0,
							"parameter_unitstyle" : 1
						}

					}
,
					"showname" : 0,
					"shownumber" : 0,
					"varname" : "live.dial[20]"
				}

			}
, 			{
				"box" : 				{
					"focusbordercolor" : [ 0.631372549019608, 0.63921568627451, 0.662745098039216, 0.0 ],
					"id" : "obj-85",
					"maxclass" : "live.dial",
					"numinlets" : 1,
					"numoutlets" : 2,
					"outlettype" : [ "", "float" ],
					"parameter_enable" : 1,
					"patching_rect" : [ 551.0, 96.0, 27.0, 28.0 ],
					"saved_attribute_attributes" : 					{
						"focusbordercolor" : 						{
							"expression" : ""
						}
,
						"valueof" : 						{
							"parameter_longname" : "live.dial[38]",
							"parameter_mmax" : 1.0,
							"parameter_modmode" : 3,
							"parameter_shortname" : "live.dial",
							"parameter_type" : 0,
							"parameter_unitstyle" : 1
						}

					}
,
					"showname" : 0,
					"shownumber" : 0,
					"varname" : "live.dial[21]"
				}

			}
, 			{
				"box" : 				{
					"focusbordercolor" : [ 0.631372549019608, 0.63921568627451, 0.662745098039216, 0.0 ],
					"id" : "obj-86",
					"maxclass" : "live.dial",
					"numinlets" : 1,
					"numoutlets" : 2,
					"outlettype" : [ "", "float" ],
					"parameter_enable" : 1,
					"patching_rect" : [ 506.0, 96.0, 27.0, 28.0 ],
					"saved_attribute_attributes" : 					{
						"focusbordercolor" : 						{
							"expression" : ""
						}
,
						"valueof" : 						{
							"parameter_longname" : "live.dial[39]",
							"parameter_mmax" : 1.0,
							"parameter_modmode" : 3,
							"parameter_shortname" : "live.dial",
							"parameter_type" : 0,
							"parameter_unitstyle" : 1
						}

					}
,
					"showname" : 0,
					"shownumber" : 0,
					"varname" : "live.dial[22]"
				}

			}
, 			{
				"box" : 				{
					"id" : "obj-87",
					"maxclass" : "comment",
					"numinlets" : 1,
					"numoutlets" : 0,
					"patching_rect" : [ 465.0, 75.0, 20.0, 20.0 ],
					"text" : "A",
					"textjustification" : 1
				}

			}
, 			{
				"box" : 				{
					"focusbordercolor" : [ 0.631372549019608, 0.63921568627451, 0.662745098039216, 0.0 ],
					"id" : "obj-88",
					"maxclass" : "live.dial",
					"numinlets" : 1,
					"numoutlets" : 2,
					"outlettype" : [ "", "float" ],
					"parameter_enable" : 1,
					"patching_rect" : [ 461.0, 97.0, 27.0, 28.0 ],
					"saved_attribute_attributes" : 					{
						"focusbordercolor" : 						{
							"expression" : ""
						}
,
						"valueof" : 						{
							"parameter_initial" : [ 0.0 ],
							"parameter_initial_enable" : 1,
							"parameter_longname" : "live.dial[40]",
							"parameter_mmax" : 1.0,
							"parameter_modmode" : 3,
							"parameter_shortname" : "live.dial",
							"parameter_type" : 0,
							"parameter_unitstyle" : 1
						}

					}
,
					"showname" : 0,
					"shownumber" : 0,
					"varname" : "live.dial[23]"
				}

			}
, 			{
				"box" : 				{
					"id" : "obj-51",
					"linecount" : 2,
					"maxclass" : "message",
					"numinlets" : 2,
					"numoutlets" : 1,
					"outlettype" : [ "" ],
					"patching_rect" : [ 822.0, 891.0, 79.0, 35.0 ],
					"text" : "offset -455 -75"
				}

			}
, 			{
				"box" : 				{
					"id" : "obj-44",
					"maxclass" : "newobj",
					"numinlets" : 2,
					"numoutlets" : 1,
					"outlettype" : [ "" ],
					"patching_rect" : [ 330.0, 510.614034652709961, 77.268634527921677, 22.0 ],
					"saved_object_attributes" : 					{
						"_persistence" : 1,
						"normalized" : 0,
						"smoothing" : 1.0
					}
,
					"text" : "live.remote~"
				}

			}
, 			{
				"box" : 				{
					"id" : "obj-45",
					"maxclass" : "newobj",
					"numinlets" : 2,
					"numoutlets" : 1,
					"outlettype" : [ "" ],
					"patching_rect" : [ 239.649123668670654, 510.614034652709961, 77.268634527921677, 22.0 ],
					"saved_object_attributes" : 					{
						"_persistence" : 1,
						"normalized" : 0,
						"smoothing" : 1.0
					}
,
					"text" : "live.remote~"
				}

			}
, 			{
				"box" : 				{
					"id" : "obj-46",
					"maxclass" : "newobj",
					"numinlets" : 2,
					"numoutlets" : 1,
					"outlettype" : [ "" ],
					"patching_rect" : [ 148.421054363250732, 510.614034652709961, 77.268634527921677, 22.0 ],
					"saved_object_attributes" : 					{
						"_persistence" : 1,
						"normalized" : 0,
						"smoothing" : 1.0
					}
,
					"text" : "live.remote~"
				}

			}
, 			{
				"box" : 				{
					"id" : "obj-47",
					"maxclass" : "newobj",
					"numinlets" : 2,
					"numoutlets" : 1,
					"outlettype" : [ "" ],
					"patching_rect" : [ 55.438599109649658, 510.614034652709961, 77.268634527921677, 22.0 ],
					"saved_object_attributes" : 					{
						"_persistence" : 1,
						"normalized" : 0,
						"smoothing" : 1.0
					}
,
					"text" : "live.remote~"
				}

			}
, 			{
				"box" : 				{
					"id" : "obj-36",
					"maxclass" : "newobj",
					"numinlets" : 2,
					"numoutlets" : 1,
					"outlettype" : [ "" ],
					"patching_rect" : [ 330.0, 465.0, 77.268634527921677, 22.0 ],
					"saved_object_attributes" : 					{
						"_persistence" : 1,
						"normalized" : 0,
						"smoothing" : 1.0
					}
,
					"text" : "live.remote~"
				}

			}
, 			{
				"box" : 				{
					"id" : "obj-40",
					"maxclass" : "newobj",
					"numinlets" : 2,
					"numoutlets" : 1,
					"outlettype" : [ "" ],
					"patching_rect" : [ 239.649123668670654, 465.0, 77.268634527921677, 22.0 ],
					"saved_object_attributes" : 					{
						"_persistence" : 1,
						"normalized" : 0,
						"smoothing" : 1.0
					}
,
					"text" : "live.remote~"
				}

			}
, 			{
				"box" : 				{
					"id" : "obj-42",
					"maxclass" : "newobj",
					"numinlets" : 2,
					"numoutlets" : 1,
					"outlettype" : [ "" ],
					"patching_rect" : [ 148.421054363250732, 465.0, 77.268634527921677, 22.0 ],
					"saved_object_attributes" : 					{
						"_persistence" : 1,
						"normalized" : 0,
						"smoothing" : 1.0
					}
,
					"text" : "live.remote~"
				}

			}
, 			{
				"box" : 				{
					"id" : "obj-43",
					"maxclass" : "newobj",
					"numinlets" : 2,
					"numoutlets" : 1,
					"outlettype" : [ "" ],
					"patching_rect" : [ 55.438599109649658, 465.0, 77.268634527921677, 22.0 ],
					"saved_object_attributes" : 					{
						"_persistence" : 1,
						"normalized" : 0,
						"smoothing" : 1.0
					}
,
					"text" : "live.remote~"
				}

			}
, 			{
				"box" : 				{
					"id" : "obj-34",
					"maxclass" : "newobj",
					"numinlets" : 2,
					"numoutlets" : 1,
					"outlettype" : [ "" ],
					"patching_rect" : [ 329.122807025909424, 422.894737243652344, 77.268634527921677, 22.0 ],
					"saved_object_attributes" : 					{
						"_persistence" : 1,
						"normalized" : 0,
						"smoothing" : 1.0
					}
,
					"text" : "live.remote~"
				}

			}
, 			{
				"box" : 				{
					"id" : "obj-32",
					"maxclass" : "newobj",
					"numinlets" : 2,
					"numoutlets" : 1,
					"outlettype" : [ "" ],
					"patching_rect" : [ 239.649123668670654, 422.894737243652344, 77.268634527921677, 22.0 ],
					"saved_object_attributes" : 					{
						"_persistence" : 1,
						"normalized" : 0,
						"smoothing" : 1.0
					}
,
					"text" : "live.remote~"
				}

			}
, 			{
				"box" : 				{
					"id" : "obj-31",
					"maxclass" : "newobj",
					"numinlets" : 2,
					"numoutlets" : 1,
					"outlettype" : [ "" ],
					"patching_rect" : [ 148.421054363250732, 422.894737243652344, 77.268634527921677, 22.0 ],
					"saved_object_attributes" : 					{
						"_persistence" : 1,
						"normalized" : 0,
						"smoothing" : 1.0
					}
,
					"text" : "live.remote~"
				}

			}
, 			{
				"box" : 				{
					"id" : "obj-30",
					"maxclass" : "newobj",
					"numinlets" : 2,
					"numoutlets" : 1,
					"outlettype" : [ "" ],
					"patching_rect" : [ 55.438599109649658, 422.894737243652344, 77.268634527921677, 22.0 ],
					"saved_object_attributes" : 					{
						"_persistence" : 1,
						"normalized" : 0,
						"smoothing" : 1.0
					}
,
					"text" : "live.remote~"
				}

			}
, 			{
				"box" : 				{
					"id" : "obj-25",
					"maxclass" : "newobj",
					"numinlets" : 0,
					"numoutlets" : 1,
					"outlettype" : [ "" ],
					"patching_rect" : [ 44.072916373610497, 600.0, 100.0, 22.0 ],
					"text" : "r --s2JS"
				}

			}
, 			{
				"box" : 				{
					"id" : "obj-21",
					"maxclass" : "comment",
					"numinlets" : 1,
					"numoutlets" : 0,
					"patching_rect" : [ 140.645827978849411, 180.0, 38.0, 20.0 ],
					"text" : "vMod",
					"textjustification" : 1
				}

			}
, 			{
				"box" : 				{
					"focusbordercolor" : [ 0.631372549019608, 0.63921568627451, 0.662745098039216, 0.0 ],
					"id" : "obj-22",
					"maxclass" : "live.dial",
					"numinlets" : 1,
					"numoutlets" : 2,
					"outlettype" : [ "", "float" ],
					"parameter_enable" : 1,
					"patching_rect" : [ 145.895827263593674, 201.874999165534973, 27.0, 28.0 ],
					"saved_attribute_attributes" : 					{
						"focusbordercolor" : 						{
							"expression" : ""
						}
,
						"valueof" : 						{
							"parameter_initial" : [ 0.5 ],
							"parameter_initial_enable" : 1,
							"parameter_longname" : "live.dial[28]",
							"parameter_mmax" : 1.0,
							"parameter_modmode" : 3,
							"parameter_shortname" : "live.dial",
							"parameter_type" : 0,
							"parameter_unitstyle" : 1
						}

					}
,
					"showname" : 0,
					"shownumber" : 0,
					"varname" : "live.dial[9]"
				}

			}
, 			{
				"box" : 				{
					"id" : "obj-20",
					"maxclass" : "comment",
					"numinlets" : 1,
					"numoutlets" : 0,
					"patching_rect" : [ 183.291660189628601, 180.0, 40.624998450279236, 20.0 ],
					"text" : "R Crv",
					"textjustification" : 1
				}

			}
, 			{
				"box" : 				{
					"id" : "obj-19",
					"maxclass" : "comment",
					"numinlets" : 1,
					"numoutlets" : 0,
					"patching_rect" : [ 93.708330273628235, 180.0, 40.624998450279236, 20.0 ],
					"text" : "D Crv",
					"textjustification" : 1
				}

			}
, 			{
				"box" : 				{
					"id" : "obj-10",
					"maxclass" : "comment",
					"numinlets" : 1,
					"numoutlets" : 0,
					"patching_rect" : [ 49.187500774860382, 180.0, 40.624998450279236, 20.0 ],
					"text" : "A Crv",
					"textjustification" : 1
				}

			}
, 			{
				"box" : 				{
					"id" : "obj-8",
					"maxclass" : "newobj",
					"numinlets" : 13,
					"numoutlets" : 13,
					"outlettype" : [ "", "", "", "", "", "", "", "", "", "", "", "", "" ],
					"patching_rect" : [ 44.072916373610497, 691.228069305419922, 220.941194534301758, 22.0 ],
					"text" : "route 0 1 2 3 4 5 6 7 8 9 10 11"
				}

			}
, 			{
				"box" : 				{
					"id" : "obj-41",
					"maxclass" : "comment",
					"numinlets" : 1,
					"numoutlets" : 0,
					"patching_rect" : [ 1395.0, 360.0, 150.0, 20.0 ]
				}

			}
, 			{
				"box" : 				{
					"id" : "obj-39",
					"maxclass" : "message",
					"numinlets" : 2,
					"numoutlets" : 1,
					"outlettype" : [ "" ],
					"patching_rect" : [ 726.0, 891.0, 79.0, 22.0 ],
					"text" : "offset -50 -75"
				}

			}
, 			{
				"box" : 				{
					"id" : "obj-38",
					"maxclass" : "newobj",
					"numinlets" : 5,
					"numoutlets" : 5,
					"outlettype" : [ "bang", "bang", "bang", "bang", "" ],
					"patching_rect" : [ 726.0, 831.0, 80.0, 22.0 ],
					"text" : "select 0 1 2 3"
				}

			}
, 			{
				"box" : 				{
					"focusbordercolor" : [ 0.631372549019608, 0.63921568627451, 0.662745098039216, 0.0 ],
					"id" : "obj-33",
					"maxclass" : "live.dial",
					"numinlets" : 1,
					"numoutlets" : 2,
					"outlettype" : [ "", "float" ],
					"parameter_enable" : 1,
					"patching_rect" : [ 190.104159414768219, 202.083325624465942, 27.0, 28.0 ],
					"saved_attribute_attributes" : 					{
						"focusbordercolor" : 						{
							"expression" : ""
						}
,
						"valueof" : 						{
							"parameter_longname" : "live.dial[9]",
							"parameter_mmax" : 1.0,
							"parameter_modmode" : 3,
							"parameter_shortname" : "live.dial",
							"parameter_type" : 0,
							"parameter_unitstyle" : 1
						}

					}
,
					"showname" : 0,
					"shownumber" : 0,
					"varname" : "live.dial[8]"
				}

			}
, 			{
				"box" : 				{
					"focusbordercolor" : [ 0.631372549019608, 0.63921568627451, 0.662745098039216, 0.0 ],
					"id" : "obj-35",
					"maxclass" : "live.dial",
					"numinlets" : 1,
					"numoutlets" : 2,
					"outlettype" : [ "", "float" ],
					"parameter_enable" : 1,
					"patching_rect" : [ 100.520829498767853, 202.083325624465942, 27.0, 28.0 ],
					"saved_attribute_attributes" : 					{
						"focusbordercolor" : 						{
							"expression" : ""
						}
,
						"valueof" : 						{
							"parameter_longname" : "live.dial[11]",
							"parameter_mmax" : 1.0,
							"parameter_modmode" : 3,
							"parameter_shortname" : "live.dial",
							"parameter_type" : 0,
							"parameter_unitstyle" : 1
						}

					}
,
					"showname" : 0,
					"shownumber" : 0,
					"varname" : "live.dial[10]"
				}

			}
, 			{
				"box" : 				{
					"focusbordercolor" : [ 0.631372549019608, 0.63921568627451, 0.662745098039216, 0.0 ],
					"id" : "obj-37",
					"maxclass" : "live.dial",
					"numinlets" : 1,
					"numoutlets" : 2,
					"outlettype" : [ "", "float" ],
					"parameter_enable" : 1,
					"patching_rect" : [ 55.833332926034927, 202.000000655651093, 27.0, 28.0 ],
					"saved_attribute_attributes" : 					{
						"focusbordercolor" : 						{
							"expression" : ""
						}
,
						"valueof" : 						{
							"parameter_longname" : "live.dial[12]",
							"parameter_mmax" : 1.0,
							"parameter_modmode" : 3,
							"parameter_shortname" : "live.dial",
							"parameter_type" : 0,
							"parameter_unitstyle" : 1
						}

					}
,
					"showname" : 0,
					"shownumber" : 0,
					"varname" : "live.dial[11]"
				}

			}
, 			{
				"box" : 				{
					"id" : "obj-29",
					"maxclass" : "comment",
					"numinlets" : 1,
					"numoutlets" : 0,
					"patching_rect" : [ 189.583326101303101, 128.124995112419128, 30.000000894069672, 20.0 ],
					"text" : "Vel",
					"textjustification" : 1
				}

			}
, 			{
				"box" : 				{
					"id" : "obj-28",
					"maxclass" : "comment",
					"numinlets" : 1,
					"numoutlets" : 0,
					"patching_rect" : [ 144.270827829837799, 128.124995112419128, 30.000000894069672, 20.0 ],
					"text" : "Vel",
					"textjustification" : 1
				}

			}
, 			{
				"box" : 				{
					"id" : "obj-27",
					"maxclass" : "comment",
					"numinlets" : 1,
					"numoutlets" : 0,
					"patching_rect" : [ 99.479162871837616, 128.124995112419128, 30.000000894069672, 20.0 ],
					"text" : "Vel",
					"textjustification" : 1
				}

			}
, 			{
				"box" : 				{
					"focusbordercolor" : [ 0.631372549019608, 0.63921568627451, 0.662745098039216, 0.0 ],
					"id" : "obj-12",
					"maxclass" : "live.dial",
					"numinlets" : 1,
					"numoutlets" : 2,
					"outlettype" : [ "", "float" ],
					"parameter_enable" : 1,
					"patching_rect" : [ 190.624992728233337, 149.999994277954102, 27.0, 28.0 ],
					"saved_attribute_attributes" : 					{
						"focusbordercolor" : 						{
							"expression" : ""
						}
,
						"valueof" : 						{
							"parameter_initial" : [ 0.5 ],
							"parameter_initial_enable" : 1,
							"parameter_longname" : "live.dial[5]",
							"parameter_mmax" : 1.0,
							"parameter_modmode" : 3,
							"parameter_shortname" : "live.dial",
							"parameter_type" : 0,
							"parameter_unitstyle" : 1
						}

					}
,
					"showname" : 0,
					"shownumber" : 0,
					"varname" : "live.dial[4]"
				}

			}
, 			{
				"box" : 				{
					"focusbordercolor" : [ 0.631372549019608, 0.63921568627451, 0.662745098039216, 0.0 ],
					"id" : "obj-14",
					"maxclass" : "live.dial",
					"numinlets" : 1,
					"numoutlets" : 2,
					"outlettype" : [ "", "float" ],
					"parameter_enable" : 1,
					"patching_rect" : [ 145.833327770233154, 149.999994277954102, 27.0, 28.0 ],
					"saved_attribute_attributes" : 					{
						"focusbordercolor" : 						{
							"expression" : ""
						}
,
						"valueof" : 						{
							"parameter_initial" : [ 0.5 ],
							"parameter_initial_enable" : 1,
							"parameter_longname" : "live.dial[6]",
							"parameter_mmax" : 1.0,
							"parameter_modmode" : 3,
							"parameter_shortname" : "live.dial",
							"parameter_type" : 0,
							"parameter_unitstyle" : 1
						}

					}
,
					"showname" : 0,
					"shownumber" : 0,
					"varname" : "live.dial[5]"
				}

			}
, 			{
				"box" : 				{
					"focusbordercolor" : [ 0.631372549019608, 0.63921568627451, 0.662745098039216, 0.0 ],
					"id" : "obj-23",
					"maxclass" : "live.dial",
					"numinlets" : 1,
					"numoutlets" : 2,
					"outlettype" : [ "", "float" ],
					"parameter_enable" : 1,
					"patching_rect" : [ 101.041662812232971, 149.999994277954102, 27.0, 28.0 ],
					"saved_attribute_attributes" : 					{
						"focusbordercolor" : 						{
							"expression" : ""
						}
,
						"valueof" : 						{
							"parameter_initial" : [ 0.5 ],
							"parameter_initial_enable" : 1,
							"parameter_longname" : "live.dial[7]",
							"parameter_mmax" : 1.0,
							"parameter_modmode" : 3,
							"parameter_shortname" : "live.dial",
							"parameter_type" : 0,
							"parameter_unitstyle" : 1
						}

					}
,
					"showname" : 0,
					"shownumber" : 0,
					"varname" : "live.dial[6]"
				}

			}
, 			{
				"box" : 				{
					"id" : "obj-24",
					"maxclass" : "comment",
					"numinlets" : 1,
					"numoutlets" : 0,
					"patching_rect" : [ 54.499999552965164, 128.0, 30.000000894069672, 20.0 ],
					"text" : "Vel",
					"textjustification" : 1
				}

			}
, 			{
				"box" : 				{
					"focusbordercolor" : [ 0.631372549019608, 0.63921568627451, 0.662745098039216, 0.0 ],
					"id" : "obj-26",
					"maxclass" : "live.dial",
					"numinlets" : 1,
					"numoutlets" : 2,
					"outlettype" : [ "", "float" ],
					"parameter_enable" : 1,
					"patching_rect" : [ 56.0, 150.0, 27.0, 28.0 ],
					"saved_attribute_attributes" : 					{
						"focusbordercolor" : 						{
							"expression" : ""
						}
,
						"valueof" : 						{
							"parameter_initial" : [ 0.5 ],
							"parameter_initial_enable" : 1,
							"parameter_longname" : "live.dial[8]",
							"parameter_mmax" : 1.0,
							"parameter_modmode" : 3,
							"parameter_shortname" : "live.dial",
							"parameter_type" : 0,
							"parameter_unitstyle" : 1
						}

					}
,
					"showname" : 0,
					"shownumber" : 0,
					"varname" : "live.dial[7]"
				}

			}
, 			{
				"box" : 				{
					"id" : "obj-18",
					"maxclass" : "comment",
					"numinlets" : 1,
					"numoutlets" : 0,
					"patching_rect" : [ 193.749992609024048, 74.999997138977051, 20.0, 20.0 ],
					"text" : "R",
					"textjustification" : 1
				}

			}
, 			{
				"box" : 				{
					"id" : "obj-17",
					"maxclass" : "comment",
					"numinlets" : 1,
					"numoutlets" : 0,
					"patching_rect" : [ 148.958327651023865, 74.999997138977051, 20.0, 20.0 ],
					"text" : "S",
					"textjustification" : 1
				}

			}
, 			{
				"box" : 				{
					"id" : "obj-16",
					"maxclass" : "comment",
					"numinlets" : 1,
					"numoutlets" : 0,
					"patching_rect" : [ 103.645829379558563, 74.999997138977051, 20.0, 20.0 ],
					"text" : "D",
					"textjustification" : 1
				}

			}
, 			{
				"box" : 				{
					"focusbordercolor" : [ 0.631372549019608, 0.63921568627451, 0.662745098039216, 0.0 ],
					"id" : "obj-15",
					"maxclass" : "live.dial",
					"numinlets" : 1,
					"numoutlets" : 2,
					"outlettype" : [ "", "float" ],
					"parameter_enable" : 1,
					"patching_rect" : [ 190.624992728233337, 96.874996304512024, 27.0, 28.0 ],
					"saved_attribute_attributes" : 					{
						"focusbordercolor" : 						{
							"expression" : ""
						}
,
						"valueof" : 						{
							"parameter_longname" : "live.dial[3]",
							"parameter_mmax" : 1.0,
							"parameter_modmode" : 3,
							"parameter_shortname" : "live.dial",
							"parameter_type" : 0,
							"parameter_unitstyle" : 1
						}

					}
,
					"showname" : 0,
					"shownumber" : 0,
					"varname" : "live.dial[3]"
				}

			}
, 			{
				"box" : 				{
					"focusbordercolor" : [ 0.631372549019608, 0.63921568627451, 0.662745098039216, 0.0 ],
					"id" : "obj-13",
					"maxclass" : "live.dial",
					"numinlets" : 1,
					"numoutlets" : 2,
					"outlettype" : [ "", "float" ],
					"parameter_enable" : 1,
					"patching_rect" : [ 145.833327770233154, 96.874996304512024, 27.0, 28.0 ],
					"saved_attribute_attributes" : 					{
						"focusbordercolor" : 						{
							"expression" : ""
						}
,
						"valueof" : 						{
							"parameter_longname" : "live.dial[2]",
							"parameter_mmax" : 1.0,
							"parameter_modmode" : 3,
							"parameter_shortname" : "live.dial",
							"parameter_type" : 0,
							"parameter_unitstyle" : 1
						}

					}
,
					"showname" : 0,
					"shownumber" : 0,
					"varname" : "live.dial[2]"
				}

			}
, 			{
				"box" : 				{
					"focusbordercolor" : [ 0.631372549019608, 0.63921568627451, 0.662745098039216, 0.0 ],
					"id" : "obj-11",
					"maxclass" : "live.dial",
					"numinlets" : 1,
					"numoutlets" : 2,
					"outlettype" : [ "", "float" ],
					"parameter_enable" : 1,
					"patching_rect" : [ 101.041662812232971, 96.874996304512024, 27.0, 28.0 ],
					"saved_attribute_attributes" : 					{
						"focusbordercolor" : 						{
							"expression" : ""
						}
,
						"valueof" : 						{
							"parameter_longname" : "live.dial[4]",
							"parameter_mmax" : 1.0,
							"parameter_modmode" : 3,
							"parameter_shortname" : "live.dial",
							"parameter_type" : 0,
							"parameter_unitstyle" : 1
						}

					}
,
					"showname" : 0,
					"shownumber" : 0,
					"varname" : "live.dial[1]"
				}

			}
, 			{
				"box" : 				{
					"id" : "obj-9",
					"maxclass" : "comment",
					"numinlets" : 1,
					"numoutlets" : 0,
					"patching_rect" : [ 60.0, 75.0, 20.0, 20.0 ],
					"text" : "A",
					"textjustification" : 1
				}

			}
, 			{
				"box" : 				{
					"focusbordercolor" : [ 0.631372549019608, 0.63921568627451, 0.662745098039216, 0.0 ],
					"id" : "obj-4",
					"maxclass" : "live.dial",
					"numinlets" : 1,
					"numoutlets" : 2,
					"outlettype" : [ "", "float" ],
					"parameter_enable" : 1,
					"patching_rect" : [ 56.0, 97.0, 27.0, 28.0 ],
					"saved_attribute_attributes" : 					{
						"focusbordercolor" : 						{
							"expression" : ""
						}
,
						"valueof" : 						{
							"parameter_initial" : [ 0.0 ],
							"parameter_initial_enable" : 1,
							"parameter_longname" : "live.dial[1]",
							"parameter_mmax" : 1.0,
							"parameter_modmode" : 3,
							"parameter_shortname" : "live.dial",
							"parameter_type" : 0,
							"parameter_unitstyle" : 1
						}

					}
,
					"showname" : 0,
					"shownumber" : 0,
					"varname" : "live.dial"
				}

			}
, 			{
				"box" : 				{
					"comment" : "",
					"id" : "obj-6",
					"index" : 2,
					"maxclass" : "inlet",
					"numinlets" : 0,
					"numoutlets" : 1,
					"outlettype" : [ "" ],
					"patching_rect" : [ 726.0, 756.0, 30.0, 30.0 ]
				}

			}
, 			{
				"box" : 				{
					"id" : "obj-5",
					"maxclass" : "newobj",
					"numinlets" : 1,
					"numoutlets" : 2,
					"outlettype" : [ "", "" ],
					"patching_rect" : [ 726.0, 996.0, 67.0, 22.0 ],
					"save" : [ "#N", "thispatcher", ";", "#Q", "end", ";" ],
					"text" : "thispatcher"
				}

			}
, 			{
				"box" : 				{
					"comment" : "",
					"id" : "obj-3",
					"index" : 1,
					"maxclass" : "outlet",
					"numinlets" : 1,
					"numoutlets" : 0,
					"patching_rect" : [ 83.500001043081284, 930.0, 30.0, 30.0 ]
				}

			}
, 			{
				"box" : 				{
					"comment" : "",
					"id" : "obj-1",
					"index" : 1,
					"maxclass" : "inlet",
					"numinlets" : 0,
					"numoutlets" : 1,
					"outlettype" : [ "" ],
					"patching_rect" : [ 60.0, 15.0, 30.0, 30.0 ]
				}

			}
 ],
		"lines" : [ 			{
				"patchline" : 				{
					"destination" : [ "obj-73", 0 ],
					"hidden" : 1,
					"midpoints" : [ 927.5, 126.0, 913.0, 126.0, 913.0, 123.0, 907.0, 123.0, 907.0, 408.0, 974.5, 408.0 ],
					"source" : [ "obj-100", 0 ]
				}

			}
, 			{
				"patchline" : 				{
					"destination" : [ "obj-74", 0 ],
					"hidden" : 1,
					"midpoints" : [ 882.5, 126.0, 853.0, 126.0, 853.0, 408.0, 881.5, 408.0 ],
					"source" : [ "obj-102", 0 ]
				}

			}
, 			{
				"patchline" : 				{
					"destination" : [ "obj-5", 0 ],
					"source" : [ "obj-103", 0 ]
				}

			}
, 			{
				"patchline" : 				{
					"destination" : [ "obj-31", 0 ],
					"hidden" : 1,
					"midpoints" : [ 110.541662812232971, 126.0, 90.0, 126.0, 90.0, 408.0, 157.921054363250732, 408.0 ],
					"source" : [ "obj-11", 0 ]
				}

			}
, 			{
				"patchline" : 				{
					"destination" : [ "obj-105", 1 ],
					"midpoints" : [ 1481.928571428571331, 723.0, 1556.0, 723.0, 1556.0, 507.0, 1545.768634527921677, 507.0 ],
					"source" : [ "obj-117", 6 ]
				}

			}
, 			{
				"patchline" : 				{
					"destination" : [ "obj-106", 1 ],
					"midpoints" : [ 1450.35714285714289, 723.0, 1535.0, 723.0, 1535.0, 543.0, 1463.0, 543.0, 1463.0, 507.0, 1453.768634527921677, 507.0 ],
					"source" : [ "obj-117", 5 ]
				}

			}
, 			{
				"patchline" : 				{
					"destination" : [ "obj-107", 1 ],
					"midpoints" : [ 1418.785714285714221, 723.0, 1268.0, 723.0, 1268.0, 495.0, 1360.768634527921677, 495.0 ],
					"source" : [ "obj-117", 4 ]
				}

			}
, 			{
				"patchline" : 				{
					"destination" : [ "obj-108", 1 ],
					"midpoints" : [ 1387.214285714285779, 723.0, 1655.0, 723.0, 1655.0, 417.0, 1634.768634527921677, 417.0 ],
					"source" : [ "obj-117", 3 ]
				}

			}
, 			{
				"patchline" : 				{
					"destination" : [ "obj-109", 1 ],
					"midpoints" : [ 1355.64285714285711, 723.0, 1268.0, 723.0, 1268.0, 408.0, 1545.768634527921677, 408.0 ],
					"source" : [ "obj-117", 2 ]
				}

			}
, 			{
				"patchline" : 				{
					"destination" : [ "obj-110", 1 ],
					"midpoints" : [ 1324.071428571428669, 723.0, 1268.0, 723.0, 1268.0, 408.0, 1453.768634527921677, 408.0 ],
					"source" : [ "obj-117", 1 ]
				}

			}
, 			{
				"patchline" : 				{
					"destination" : [ "obj-111", 1 ],
					"midpoints" : [ 1292.5, 714.0, 1268.0, 714.0, 1268.0, 408.0, 1360.768634527921677, 408.0 ],
					"source" : [ "obj-117", 0 ]
				}

			}
, 			{
				"patchline" : 				{
					"destination" : [ "obj-105", 0 ],
					"hidden" : 1,
					"midpoints" : [ 1437.5, 408.0, 1475.0, 408.0, 1475.0, 495.0, 1487.5, 495.0 ],
					"source" : [ "obj-118", 0 ]
				}

			}
, 			{
				"patchline" : 				{
					"destination" : [ "obj-106", 0 ],
					"hidden" : 1,
					"midpoints" : [ 1347.5, 408.0, 1382.0, 408.0, 1382.0, 495.0, 1395.5, 495.0 ],
					"source" : [ "obj-119", 0 ]
				}

			}
, 			{
				"patchline" : 				{
					"destination" : [ "obj-36", 0 ],
					"hidden" : 1,
					"midpoints" : [ 200.124992728233337, 177.0, 324.0, 177.0, 324.0, 462.0, 339.5, 462.0 ],
					"source" : [ "obj-12", 0 ]
				}

			}
, 			{
				"patchline" : 				{
					"destination" : [ "obj-107", 0 ],
					"hidden" : 1,
					"midpoints" : [ 1303.5, 408.0, 1280.0, 408.0, 1280.0, 495.0, 1302.5, 495.0 ],
					"source" : [ "obj-120", 0 ]
				}

			}
, 			{
				"patchline" : 				{
					"destination" : [ "obj-108", 0 ],
					"hidden" : 1,
					"midpoints" : [ 1438.5, 126.0, 1424.0, 126.0, 1424.0, 177.0, 1576.5, 177.0 ],
					"source" : [ "obj-124", 0 ]
				}

			}
, 			{
				"patchline" : 				{
					"destination" : [ "obj-109", 0 ],
					"hidden" : 1,
					"midpoints" : [ 1393.5, 126.0, 1376.0, 126.0, 1376.0, 230.609375, 1406.0, 230.609375, 1406.0, 408.0, 1487.5, 408.0 ],
					"source" : [ "obj-125", 0 ]
				}

			}
, 			{
				"patchline" : 				{
					"destination" : [ "obj-110", 0 ],
					"hidden" : 1,
					"midpoints" : [ 1348.5, 126.0, 1334.0, 126.0, 1334.0, 123.0, 1328.0, 123.0, 1328.0, 408.0, 1395.5, 408.0 ],
					"source" : [ "obj-126", 0 ]
				}

			}
, 			{
				"patchline" : 				{
					"destination" : [ "obj-111", 0 ],
					"hidden" : 1,
					"midpoints" : [ 1303.5, 126.0, 1274.0, 126.0, 1274.0, 408.0, 1302.5, 408.0 ],
					"source" : [ "obj-128", 0 ]
				}

			}
, 			{
				"patchline" : 				{
					"destination" : [ "obj-5", 0 ],
					"source" : [ "obj-129", 0 ]
				}

			}
, 			{
				"patchline" : 				{
					"destination" : [ "obj-32", 0 ],
					"hidden" : 1,
					"midpoints" : [ 155.333327770233154, 126.0, 135.0, 126.0, 135.0, 408.0, 249.149123668670654, 408.0 ],
					"source" : [ "obj-13", 0 ]
				}

			}
, 			{
				"patchline" : 				{
					"destination" : [ "obj-40", 0 ],
					"hidden" : 1,
					"midpoints" : [ 155.333327770233154, 177.0, 234.0, 177.0, 234.0, 462.0, 249.149123668670654, 462.0 ],
					"source" : [ "obj-14", 0 ]
				}

			}
, 			{
				"patchline" : 				{
					"destination" : [ "obj-34", 0 ],
					"hidden" : 1,
					"midpoints" : [ 200.124992728233337, 126.0, 186.0, 126.0, 186.0, 177.0, 338.622807025909424, 177.0 ],
					"source" : [ "obj-15", 0 ]
				}

			}
, 			{
				"patchline" : 				{
					"destination" : [ "obj-44", 0 ],
					"hidden" : 1,
					"midpoints" : [ 155.395827263593674, 408.0, 324.0, 408.0, 324.0, 507.0, 339.5, 507.0 ],
					"source" : [ "obj-22", 0 ]
				}

			}
, 			{
				"patchline" : 				{
					"destination" : [ "obj-42", 0 ],
					"hidden" : 1,
					"midpoints" : [ 110.541662812232971, 177.0, 135.0, 177.0, 135.0, 408.0, 144.0, 408.0, 144.0, 459.0, 157.921054363250732, 459.0 ],
					"source" : [ "obj-23", 0 ]
				}

			}
, 			{
				"patchline" : 				{
					"destination" : [ "obj-8", 0 ],
					"source" : [ "obj-25", 0 ]
				}

			}
, 			{
				"patchline" : 				{
					"destination" : [ "obj-43", 0 ],
					"hidden" : 1,
					"midpoints" : [ 65.5, 180.0, 51.0, 180.0, 51.0, 177.0, 36.0, 177.0, 36.0, 462.0, 64.938599109649658, 462.0 ],
					"source" : [ "obj-26", 0 ]
				}

			}
, 			{
				"patchline" : 				{
					"destination" : [ "obj-45", 0 ],
					"hidden" : 1,
					"midpoints" : [ 199.604159414768219, 408.0, 234.0, 408.0, 234.0, 507.0, 249.149123668670654, 507.0 ],
					"source" : [ "obj-33", 0 ]
				}

			}
, 			{
				"patchline" : 				{
					"destination" : [ "obj-46", 0 ],
					"hidden" : 1,
					"midpoints" : [ 110.020829498767853, 408.0, 144.0, 408.0, 144.0, 504.0, 157.921054363250732, 504.0 ],
					"source" : [ "obj-35", 0 ]
				}

			}
, 			{
				"patchline" : 				{
					"destination" : [ "obj-47", 0 ],
					"hidden" : 1,
					"midpoints" : [ 65.333332926034927, 408.0, 42.0, 408.0, 42.0, 507.0, 64.938599109649658, 507.0 ],
					"source" : [ "obj-37", 0 ]
				}

			}
, 			{
				"patchline" : 				{
					"destination" : [ "obj-103", 0 ],
					"source" : [ "obj-38", 2 ]
				}

			}
, 			{
				"patchline" : 				{
					"destination" : [ "obj-129", 0 ],
					"source" : [ "obj-38", 3 ]
				}

			}
, 			{
				"patchline" : 				{
					"destination" : [ "obj-39", 0 ],
					"source" : [ "obj-38", 0 ]
				}

			}
, 			{
				"patchline" : 				{
					"destination" : [ "obj-51", 0 ],
					"source" : [ "obj-38", 1 ]
				}

			}
, 			{
				"patchline" : 				{
					"destination" : [ "obj-5", 0 ],
					"source" : [ "obj-39", 0 ]
				}

			}
, 			{
				"patchline" : 				{
					"destination" : [ "obj-30", 0 ],
					"hidden" : 1,
					"midpoints" : [ 65.5, 126.0, 36.0, 126.0, 36.0, 408.0, 64.938599109649658, 408.0 ],
					"source" : [ "obj-4", 0 ]
				}

			}
, 			{
				"patchline" : 				{
					"destination" : [ "obj-5", 0 ],
					"source" : [ "obj-51", 0 ]
				}

			}
, 			{
				"patchline" : 				{
					"destination" : [ "obj-38", 0 ],
					"source" : [ "obj-6", 0 ]
				}

			}
, 			{
				"patchline" : 				{
					"destination" : [ "obj-52", 0 ],
					"hidden" : 1,
					"midpoints" : [ 560.5, 177.0, 573.0, 177.0, 573.0, 408.0, 729.0, 408.0, 729.0, 495.0, 744.5, 495.0 ],
					"source" : [ "obj-65", 0 ]
				}

			}
, 			{
				"patchline" : 				{
					"destination" : [ "obj-52", 1 ],
					"midpoints" : [ 631.388888888888914, 723.0, 822.0, 723.0, 822.0, 507.0, 802.768634527921677, 507.0 ],
					"source" : [ "obj-69", 7 ]
				}

			}
, 			{
				"patchline" : 				{
					"destination" : [ "obj-53", 1 ],
					"midpoints" : [ 606.833333333333371, 723.0, 723.0, 723.0, 723.0, 507.0, 712.768634527921677, 507.0 ],
					"source" : [ "obj-69", 6 ]
				}

			}
, 			{
				"patchline" : 				{
					"destination" : [ "obj-54", 1 ],
					"midpoints" : [ 582.277777777777828, 723.0, 702.0, 723.0, 702.0, 543.0, 630.0, 543.0, 630.0, 507.0, 620.768634527921677, 507.0 ],
					"source" : [ "obj-69", 5 ]
				}

			}
, 			{
				"patchline" : 				{
					"destination" : [ "obj-55", 1 ],
					"midpoints" : [ 557.722222222222172, 723.0, 435.0, 723.0, 435.0, 495.0, 527.768634527921677, 495.0 ],
					"source" : [ "obj-69", 4 ]
				}

			}
, 			{
				"patchline" : 				{
					"destination" : [ "obj-60", 1 ],
					"midpoints" : [ 533.166666666666629, 723.0, 822.0, 723.0, 822.0, 417.0, 801.768634527921677, 417.0 ],
					"source" : [ "obj-69", 3 ]
				}

			}
, 			{
				"patchline" : 				{
					"destination" : [ "obj-61", 1 ],
					"midpoints" : [ 508.611111111111086, 723.0, 435.0, 723.0, 435.0, 408.0, 712.768634527921677, 408.0 ],
					"source" : [ "obj-69", 2 ]
				}

			}
, 			{
				"patchline" : 				{
					"destination" : [ "obj-62", 1 ],
					"midpoints" : [ 484.055555555555543, 723.0, 435.0, 723.0, 435.0, 408.0, 620.768634527921677, 408.0 ],
					"source" : [ "obj-69", 1 ]
				}

			}
, 			{
				"patchline" : 				{
					"destination" : [ "obj-63", 1 ],
					"midpoints" : [ 459.5, 714.0, 435.0, 714.0, 435.0, 408.0, 527.768634527921677, 408.0 ],
					"source" : [ "obj-69", 0 ]
				}

			}
, 			{
				"patchline" : 				{
					"destination" : [ "obj-80", 0 ],
					"midpoints" : [ 680.5, 714.0, 849.0, 714.0, 849.0, 687.0, 871.5, 687.0 ],
					"source" : [ "obj-69", 9 ]
				}

			}
, 			{
				"patchline" : 				{
					"destination" : [ "obj-92", 1 ],
					"midpoints" : [ 655.944444444444457, 723.0, 702.0, 723.0, 702.0, 573.0, 527.768634527921677, 573.0 ],
					"source" : [ "obj-69", 8 ]
				}

			}
, 			{
				"patchline" : 				{
					"destination" : [ "obj-53", 0 ],
					"hidden" : 1,
					"midpoints" : [ 604.5, 408.0, 642.0, 408.0, 642.0, 495.0, 654.5, 495.0 ],
					"source" : [ "obj-70", 0 ]
				}

			}
, 			{
				"patchline" : 				{
					"destination" : [ "obj-54", 0 ],
					"hidden" : 1,
					"midpoints" : [ 514.5, 408.0, 549.0, 408.0, 549.0, 495.0, 562.5, 495.0 ],
					"source" : [ "obj-71", 0 ]
				}

			}
, 			{
				"patchline" : 				{
					"destination" : [ "obj-55", 0 ],
					"hidden" : 1,
					"midpoints" : [ 470.5, 408.0, 447.0, 408.0, 447.0, 495.0, 469.5, 495.0 ],
					"source" : [ "obj-72", 0 ]
				}

			}
, 			{
				"patchline" : 				{
					"destination" : [ "obj-49", 0 ],
					"hidden" : 1,
					"midpoints" : [ 972.5, 177.0, 985.0, 177.0, 985.0, 408.0, 1141.0, 408.0, 1141.0, 495.0, 1156.5, 495.0 ],
					"source" : [ "obj-76", 0 ]
				}

			}
, 			{
				"patchline" : 				{
					"destination" : [ "obj-30", 1 ],
					"midpoints" : [ 53.572916373610497, 714.0, 30.0, 714.0, 30.0, 408.0, 123.207233637571335, 408.0 ],
					"source" : [ "obj-8", 0 ]
				}

			}
, 			{
				"patchline" : 				{
					"destination" : [ "obj-31", 1 ],
					"midpoints" : [ 70.401349251468972, 723.0, 30.0, 723.0, 30.0, 408.0, 216.189688891172409, 408.0 ],
					"source" : [ "obj-8", 1 ]
				}

			}
, 			{
				"patchline" : 				{
					"destination" : [ "obj-32", 1 ],
					"midpoints" : [ 87.229782129327447, 723.0, 30.0, 723.0, 30.0, 408.0, 307.417758196592331, 408.0 ],
					"source" : [ "obj-8", 2 ]
				}

			}
, 			{
				"patchline" : 				{
					"destination" : [ "obj-34", 1 ],
					"midpoints" : [ 104.058215007185936, 723.0, 417.0, 723.0, 417.0, 417.0, 396.8914415538311, 417.0 ],
					"source" : [ "obj-8", 3 ]
				}

			}
, 			{
				"patchline" : 				{
					"destination" : [ "obj-36", 1 ],
					"midpoints" : [ 171.371946518619836, 723.0, 417.0, 723.0, 417.0, 462.0, 397.768634527921677, 462.0 ],
					"source" : [ "obj-8", 7 ]
				}

			}
, 			{
				"patchline" : 				{
					"destination" : [ "obj-40", 1 ],
					"midpoints" : [ 154.543513640761375, 723.0, 318.0, 723.0, 318.0, 462.0, 307.417758196592331, 462.0 ],
					"source" : [ "obj-8", 6 ]
				}

			}
, 			{
				"patchline" : 				{
					"destination" : [ "obj-42", 1 ],
					"midpoints" : [ 137.715080762902915, 723.0, 276.0, 723.0, 276.0, 543.0, 225.0, 543.0, 225.0, 462.0, 216.189688891172409, 462.0 ],
					"source" : [ "obj-8", 5 ]
				}

			}
, 			{
				"patchline" : 				{
					"destination" : [ "obj-43", 1 ],
					"midpoints" : [ 120.886647885044411, 723.0, 30.0, 723.0, 30.0, 462.0, 123.207233637571335, 462.0 ],
					"source" : [ "obj-8", 4 ]
				}

			}
, 			{
				"patchline" : 				{
					"destination" : [ "obj-44", 1 ],
					"midpoints" : [ 238.685678030053765, 723.0, 417.0, 723.0, 417.0, 507.0, 397.768634527921677, 507.0 ],
					"source" : [ "obj-8", 11 ]
				}

			}
, 			{
				"patchline" : 				{
					"destination" : [ "obj-45", 1 ],
					"midpoints" : [ 221.857245152195304, 723.0, 318.0, 723.0, 318.0, 507.0, 307.417758196592331, 507.0 ],
					"source" : [ "obj-8", 10 ]
				}

			}
, 			{
				"patchline" : 				{
					"destination" : [ "obj-46", 1 ],
					"midpoints" : [ 205.028812274336815, 723.0, 276.0, 723.0, 276.0, 543.0, 225.0, 543.0, 225.0, 507.0, 216.189688891172409, 507.0 ],
					"source" : [ "obj-8", 9 ]
				}

			}
, 			{
				"patchline" : 				{
					"destination" : [ "obj-47", 1 ],
					"midpoints" : [ 188.200379396478326, 723.0, 276.0, 723.0, 276.0, 543.0, 132.0, 543.0, 132.0, 507.0, 123.207233637571335, 507.0 ],
					"source" : [ "obj-8", 8 ]
				}

			}
, 			{
				"patchline" : 				{
					"destination" : [ "obj-69", 0 ],
					"midpoints" : [ 255.514110907912254, 714.0, 435.0, 714.0, 435.0, 687.0, 459.5, 687.0 ],
					"source" : [ "obj-8", 12 ]
				}

			}
, 			{
				"patchline" : 				{
					"destination" : [ "obj-117", 0 ],
					"midpoints" : [ 1092.5, 714.0, 1269.0, 714.0, 1269.0, 687.0, 1292.5, 687.0 ],
					"source" : [ "obj-80", 8 ]
				}

			}
, 			{
				"patchline" : 				{
					"destination" : [ "obj-49", 1 ],
					"midpoints" : [ 1064.875, 723.0, 1234.0, 723.0, 1234.0, 507.0, 1214.768634527921677, 507.0 ],
					"source" : [ "obj-80", 7 ]
				}

			}
, 			{
				"patchline" : 				{
					"destination" : [ "obj-50", 1 ],
					"midpoints" : [ 1037.25, 723.0, 1135.0, 723.0, 1135.0, 507.0, 1124.768634527921677, 507.0 ],
					"source" : [ "obj-80", 6 ]
				}

			}
, 			{
				"patchline" : 				{
					"destination" : [ "obj-56", 1 ],
					"midpoints" : [ 1009.625, 723.0, 1114.0, 723.0, 1114.0, 543.0, 1042.0, 543.0, 1042.0, 507.0, 1032.768634527921677, 507.0 ],
					"source" : [ "obj-80", 5 ]
				}

			}
, 			{
				"patchline" : 				{
					"destination" : [ "obj-57", 1 ],
					"midpoints" : [ 982.0, 723.0, 847.0, 723.0, 847.0, 495.0, 939.768634527921677, 495.0 ],
					"source" : [ "obj-80", 4 ]
				}

			}
, 			{
				"patchline" : 				{
					"destination" : [ "obj-58", 1 ],
					"midpoints" : [ 954.375, 723.0, 1234.0, 723.0, 1234.0, 417.0, 1213.768634527921677, 417.0 ],
					"source" : [ "obj-80", 3 ]
				}

			}
, 			{
				"patchline" : 				{
					"destination" : [ "obj-59", 1 ],
					"midpoints" : [ 926.75, 723.0, 847.0, 723.0, 847.0, 408.0, 1124.768634527921677, 408.0 ],
					"source" : [ "obj-80", 2 ]
				}

			}
, 			{
				"patchline" : 				{
					"destination" : [ "obj-73", 1 ],
					"midpoints" : [ 899.125, 723.0, 847.0, 723.0, 847.0, 408.0, 1032.768634527921677, 408.0 ],
					"source" : [ "obj-80", 1 ]
				}

			}
, 			{
				"patchline" : 				{
					"destination" : [ "obj-74", 1 ],
					"midpoints" : [ 871.5, 714.0, 847.0, 714.0, 847.0, 408.0, 939.768634527921677, 408.0 ],
					"source" : [ "obj-80", 0 ]
				}

			}
, 			{
				"patchline" : 				{
					"destination" : [ "obj-60", 0 ],
					"hidden" : 1,
					"midpoints" : [ 605.5, 126.0, 591.0, 126.0, 591.0, 177.0, 743.5, 177.0 ],
					"source" : [ "obj-84", 0 ]
				}

			}
, 			{
				"patchline" : 				{
					"destination" : [ "obj-61", 0 ],
					"hidden" : 1,
					"midpoints" : [ 560.5, 126.0, 543.0, 126.0, 543.0, 177.0, 573.0, 177.0, 573.0, 408.0, 654.5, 408.0 ],
					"source" : [ "obj-85", 0 ]
				}

			}
, 			{
				"patchline" : 				{
					"destination" : [ "obj-62", 0 ],
					"hidden" : 1,
					"midpoints" : [ 515.5, 126.0, 501.0, 126.0, 501.0, 123.0, 495.0, 123.0, 495.0, 408.0, 562.5, 408.0 ],
					"source" : [ "obj-86", 0 ]
				}

			}
, 			{
				"patchline" : 				{
					"destination" : [ "obj-63", 0 ],
					"hidden" : 1,
					"midpoints" : [ 470.5, 126.0, 441.0, 126.0, 441.0, 408.0, 469.5, 408.0 ],
					"source" : [ "obj-88", 0 ]
				}

			}
, 			{
				"patchline" : 				{
					"destination" : [ "obj-50", 0 ],
					"hidden" : 1,
					"midpoints" : [ 1016.5, 408.0, 1054.0, 408.0, 1054.0, 495.0, 1066.5, 495.0 ],
					"source" : [ "obj-89", 0 ]
				}

			}
, 			{
				"patchline" : 				{
					"destination" : [ "obj-92", 0 ],
					"hidden" : 1,
					"midpoints" : [ 537.5, 408.0, 447.0, 408.0, 447.0, 561.0, 469.5, 561.0 ],
					"source" : [ "obj-91", 0 ]
				}

			}
, 			{
				"patchline" : 				{
					"destination" : [ "obj-56", 0 ],
					"hidden" : 1,
					"midpoints" : [ 926.5, 408.0, 961.0, 408.0, 961.0, 495.0, 974.5, 495.0 ],
					"source" : [ "obj-93", 0 ]
				}

			}
, 			{
				"patchline" : 				{
					"destination" : [ "obj-57", 0 ],
					"hidden" : 1,
					"midpoints" : [ 882.5, 408.0, 859.0, 408.0, 859.0, 495.0, 881.5, 495.0 ],
					"source" : [ "obj-94", 0 ]
				}

			}
, 			{
				"patchline" : 				{
					"destination" : [ "obj-58", 0 ],
					"hidden" : 1,
					"midpoints" : [ 1017.5, 126.0, 1003.0, 126.0, 1003.0, 177.0, 1155.5, 177.0 ],
					"source" : [ "obj-98", 0 ]
				}

			}
, 			{
				"patchline" : 				{
					"destination" : [ "obj-59", 0 ],
					"hidden" : 1,
					"midpoints" : [ 972.5, 126.0, 955.0, 126.0, 955.0, 177.0, 985.0, 177.0, 985.0, 408.0, 1066.5, 408.0 ],
					"source" : [ "obj-99", 0 ]
				}

			}
 ],
		"saved_attribute_attributes" : 		{
			"default_plcolor" : 			{
				"expression" : ""
			}

		}

	}

}
