{
	"patcher" : 	{
		"fileversion" : 1,
		"appversion" : 		{
			"major" : 9,
			"minor" : 0,
			"revision" : 9,
			"architecture" : "x64",
			"modernui" : 1
		}
,
		"classnamespace" : "box",
		"rect" : [ 898.0, 96.0, 352.0, 987.0 ],
		"gridsize" : [ 15.0, 15.0 ],
		"boxes" : [ 			{
				"box" : 				{
					"id" : "obj-40",
					"maxclass" : "comment",
					"numinlets" : 1,
					"numoutlets" : 0,
					"patching_rect" : [ 107.933046370744705, 105.612243890762329, 24.0, 20.0 ],
					"text" : "pw",
					"textjustification" : 1
				}

			}
, 			{
				"box" : 				{
					"focusbordercolor" : [ 0.631372549019608, 0.63921568627451, 0.662745098039216, 0.0 ],
					"id" : "obj-41",
					"maxclass" : "live.dial",
					"numinlets" : 1,
					"numoutlets" : 2,
					"outlettype" : [ "", "float" ],
					"parameter_enable" : 1,
					"patching_rect" : [ 106.433046370744705, 127.612244546413422, 27.0, 28.0 ],
					"saved_attribute_attributes" : 					{
						"focusbordercolor" : 						{
							"expression" : ""
						}
,
						"valueof" : 						{
							"parameter_longname" : "a_pw",
							"parameter_mmax" : 50.0,
							"parameter_modmode" : 4,
							"parameter_shortname" : "a_pw",
							"parameter_type" : 1,
							"parameter_unitstyle" : 0
						}

					}
,
					"showname" : 0,
					"shownumber" : 0,
					"varname" : "live.dial[7]"
				}

			}
, 			{
				"box" : 				{
					"id" : "obj-37",
					"maxclass" : "comment",
					"numinlets" : 1,
					"numoutlets" : 0,
					"patching_rect" : [ 12.0, 114.0, 33.0, 20.0 ],
					"text" : "sync",
					"textjustification" : 1
				}

			}
, 			{
				"box" : 				{
					"focusbordercolor" : [ 0.631372549019608, 0.63921568627451, 0.662745098039216, 0.0 ],
					"id" : "obj-36",
					"maxclass" : "live.toggle",
					"numinlets" : 1,
					"numoutlets" : 1,
					"outlettype" : [ "" ],
					"parameter_enable" : 1,
					"patching_rect" : [ 18.166666984558105, 134.278910338878632, 20.666666030883789, 14.666667103767395 ],
					"saved_attribute_attributes" : 					{
						"focusbordercolor" : 						{
							"expression" : ""
						}
,
						"valueof" : 						{
							"parameter_enum" : [ "off", "on" ],
							"parameter_longname" : "live.toggle",
							"parameter_mmax" : 1,
							"parameter_modmode" : 0,
							"parameter_shortname" : "live.toggle",
							"parameter_type" : 2
						}

					}
,
					"varname" : "live.toggle"
				}

			}
, 			{
				"box" : 				{
					"id" : "obj-33",
					"maxclass" : "comment",
					"numinlets" : 1,
					"numoutlets" : 0,
					"patching_rect" : [ 47.959183216094971, 105.612243890762329, 52.0, 20.0 ],
					"presentation_linecount" : 2,
					"text" : "synFreq",
					"textjustification" : 1
				}

			}
, 			{
				"box" : 				{
					"focusbordercolor" : [ 0.631372549019608, 0.63921568627451, 0.662745098039216, 0.0 ],
					"id" : "obj-34",
					"maxclass" : "live.dial",
					"numinlets" : 1,
					"numoutlets" : 2,
					"outlettype" : [ "", "float" ],
					"parameter_enable" : 1,
					"patching_rect" : [ 60.459183216094971, 127.612243890762329, 27.0, 28.0 ],
					"saved_attribute_attributes" : 					{
						"focusbordercolor" : 						{
							"expression" : ""
						}
,
						"valueof" : 						{
							"parameter_longname" : "a_synFreq",
							"parameter_mmax" : 100.0,
							"parameter_modmode" : 4,
							"parameter_shortname" : "a_synFreq",
							"parameter_type" : 1,
							"parameter_unitstyle" : 0
						}

					}
,
					"showname" : 0,
					"shownumber" : 0,
					"varname" : "live.dial[6]"
				}

			}
, 			{
				"box" : 				{
					"id" : "obj-30",
					"maxclass" : "comment",
					"numinlets" : 1,
					"numoutlets" : 0,
					"patching_rect" : [ 161.741880416870117, 3.563218832015991, 20.0, 20.0 ],
					"text" : "wt",
					"textjustification" : 1
				}

			}
, 			{
				"box" : 				{
					"focusbordercolor" : [ 0.631372549019608, 0.63921568627451, 0.662745098039216, 0.0 ],
					"id" : "obj-31",
					"maxclass" : "live.dial",
					"numinlets" : 1,
					"numoutlets" : 2,
					"outlettype" : [ "", "float" ],
					"parameter_enable" : 1,
					"patching_rect" : [ 158.241880416870117, 23.434947818517685, 27.0, 28.0 ],
					"saved_attribute_attributes" : 					{
						"focusbordercolor" : 						{
							"expression" : ""
						}
,
						"valueof" : 						{
							"parameter_longname" : "a_wt",
							"parameter_mmax" : 100.0,
							"parameter_modmode" : 4,
							"parameter_shortname" : "a_wt",
							"parameter_type" : 1,
							"parameter_unitstyle" : 0
						}

					}
,
					"showname" : 0,
					"shownumber" : 0,
					"varname" : "live.dial[5]"
				}

			}
, 			{
				"box" : 				{
					"id" : "obj-27",
					"maxclass" : "comment",
					"numinlets" : 1,
					"numoutlets" : 0,
					"patching_rect" : [ 100.948905050754547, 14.537137717008591, 37.0, 20.0 ],
					"presentation_linecount" : 2,
					"text" : "wave",
					"textjustification" : 1
				}

			}
, 			{
				"box" : 				{
					"id" : "obj-26",
					"maxclass" : "live.menu",
					"numinlets" : 1,
					"numoutlets" : 3,
					"outlettype" : [ "", "", "float" ],
					"parameter_enable" : 1,
					"patching_rect" : [ 90.0, 36.434947818517685, 59.446260750293732, 15.0 ],
					"saved_attribute_attributes" : 					{
						"valueof" : 						{
							"parameter_enum" : [ "ramp_up", "ramp_down", "pulse", "triangle" ],
							"parameter_longname" : "a_wave",
							"parameter_mmax" : 3,
							"parameter_modmode" : 0,
							"parameter_shortname" : "a_wave",
							"parameter_type" : 2
						}

					}
,
					"varname" : "live.menu"
				}

			}
, 			{
				"box" : 				{
					"id" : "obj-22",
					"linecount" : 2,
					"maxclass" : "newobj",
					"numinlets" : 6,
					"numoutlets" : 1,
					"outlettype" : [ "" ],
					"patching_rect" : [ 645.0, 210.114940524101257, 60.344826579093933, 35.0 ],
					"presentation_linecount" : 2,
					"text" : "scale 0 100 0. 1."
				}

			}
, 			{
				"box" : 				{
					"id" : "obj-23",
					"maxclass" : "comment",
					"numinlets" : 1,
					"numoutlets" : 0,
					"patching_rect" : [ 149.344984352588654, 55.021836340427399, 45.0, 20.0 ],
					"text" : "spread",
					"textjustification" : 1
				}

			}
, 			{
				"box" : 				{
					"focusbordercolor" : [ 0.631372549019608, 0.63921568627451, 0.662745098039216, 0.0 ],
					"id" : "obj-24",
					"maxclass" : "live.dial",
					"numinlets" : 1,
					"numoutlets" : 2,
					"outlettype" : [ "", "float" ],
					"parameter_enable" : 1,
					"patching_rect" : [ 158.231446981430054, 75.0, 27.0, 28.0 ],
					"saved_attribute_attributes" : 					{
						"focusbordercolor" : 						{
							"expression" : ""
						}
,
						"valueof" : 						{
							"parameter_longname" : "a_unison_spread",
							"parameter_mmax" : 100.0,
							"parameter_modmode" : 4,
							"parameter_shortname" : "a_unison_spread",
							"parameter_type" : 1,
							"parameter_unitstyle" : 0
						}

					}
,
					"showname" : 0,
					"shownumber" : 0,
					"varname" : "live.dial[4]"
				}

			}
, 			{
				"box" : 				{
					"id" : "obj-19",
					"linecount" : 2,
					"maxclass" : "newobj",
					"numinlets" : 6,
					"numoutlets" : 1,
					"outlettype" : [ "" ],
					"patching_rect" : [ 570.0, 210.114940524101257, 60.344826579093933, 35.0 ],
					"presentation_linecount" : 2,
					"text" : "scale 0 100 0. 1."
				}

			}
, 			{
				"box" : 				{
					"id" : "obj-20",
					"maxclass" : "comment",
					"numinlets" : 1,
					"numoutlets" : 0,
					"patching_rect" : [ 97.379916697740555, 55.021836340427399, 45.0, 20.0 ],
					"presentation_linecount" : 2,
					"text" : "detune",
					"textjustification" : 1
				}

			}
, 			{
				"box" : 				{
					"focusbordercolor" : [ 0.631372549019608, 0.63921568627451, 0.662745098039216, 0.0 ],
					"id" : "obj-21",
					"maxclass" : "live.dial",
					"numinlets" : 1,
					"numoutlets" : 2,
					"outlettype" : [ "", "float" ],
					"parameter_enable" : 1,
					"patching_rect" : [ 106.266379326581955, 75.0, 27.0, 28.0 ],
					"saved_attribute_attributes" : 					{
						"focusbordercolor" : 						{
							"expression" : ""
						}
,
						"valueof" : 						{
							"parameter_longname" : "a_unison_detune",
							"parameter_mmax" : 100.0,
							"parameter_modmode" : 4,
							"parameter_shortname" : "a_unison_detune",
							"parameter_type" : 1,
							"parameter_unitstyle" : 0
						}

					}
,
					"showname" : 0,
					"shownumber" : 0,
					"varname" : "live.dial[3]"
				}

			}
, 			{
				"box" : 				{
					"id" : "obj-18",
					"linecount" : 3,
					"maxclass" : "newobj",
					"numinlets" : 6,
					"numoutlets" : 1,
					"outlettype" : [ "" ],
					"patching_rect" : [ 105.229883551597595, 255.0, 56.321838140487671, 49.0 ],
					"text" : "scale -128 128 0. 1."
				}

			}
, 			{
				"box" : 				{
					"id" : "obj-17",
					"maxclass" : "comment",
					"numinlets" : 1,
					"numoutlets" : 0,
					"patching_rect" : [ 50.632183313369751, 3.563218832015991, 28.0, 20.0 ],
					"text" : "fine",
					"textjustification" : 1
				}

			}
, 			{
				"box" : 				{
					"id" : "obj-14",
					"maxclass" : "message",
					"numinlets" : 2,
					"numoutlets" : 1,
					"outlettype" : [ "" ],
					"patching_rect" : [ 375.0, 27.126436829566956, 50.0, 22.0 ],
					"text" : "128"
				}

			}
, 			{
				"box" : 				{
					"focusbordercolor" : [ 0.631372549019608, 0.63921568627451, 0.662745098039216, 0.0 ],
					"id" : "obj-271",
					"maxclass" : "live.button",
					"numinlets" : 1,
					"numoutlets" : 1,
					"outlettype" : [ "" ],
					"parameter_enable" : 1,
					"patching_rect" : [ 58.951967507600784, 44.978167802095413, 11.987178266048431, 11.025641039013863 ],
					"saved_attribute_attributes" : 					{
						"focusbordercolor" : 						{
							"expression" : ""
						}
,
						"valueof" : 						{
							"parameter_enum" : [ "off", "on" ],
							"parameter_invisible" : 2,
							"parameter_longname" : "live.button[12]",
							"parameter_mmax" : 1,
							"parameter_modmode" : 0,
							"parameter_shortname" : "live.button",
							"parameter_type" : 2
						}

					}
,
					"varname" : "live.button[8]"
				}

			}
, 			{
				"box" : 				{
					"bgcolor" : [ 0.094117647058824, 0.098039215686275, 0.117647058823529, 0.0 ],
					"id" : "obj-272",
					"maxclass" : "dial",
					"min" : -128.0,
					"mode" : 5,
					"needlecolor" : [ 0.4, 0.92156862745098, 1.0, 1.0 ],
					"numinlets" : 1,
					"numoutlets" : 1,
					"outlettype" : [ "float" ],
					"outlinecolor" : [ 0.066666666666667, 0.070588235294118, 0.07843137254902, 1.0 ],
					"parameter_enable" : 1,
					"patching_rect" : [ 47.823672324419022, 20.626436829566956, 33.617021977901459, 33.617021977901459 ],
					"saved_attribute_attributes" : 					{
						"valueof" : 						{
							"parameter_initial" : [ 0 ],
							"parameter_initial_enable" : 1,
							"parameter_longname" : "a_warp2Mod_m4",
							"parameter_mmax" : 128.0,
							"parameter_mmin" : -128.0,
							"parameter_modmax" : 128.0,
							"parameter_modmin" : -128.0,
							"parameter_modmode" : 4,
							"parameter_shortname" : "a_warp2Mod_m4",
							"parameter_type" : 0,
							"parameter_unitstyle" : 0
						}

					}
,
					"size" : 257.0,
					"thickness" : 60.0,
					"varname" : "dial[9]"
				}

			}
, 			{
				"box" : 				{
					"id" : "obj-12",
					"linecount" : 2,
					"maxclass" : "newobj",
					"numinlets" : 6,
					"numoutlets" : 1,
					"outlettype" : [ "" ],
					"patching_rect" : [ 15.0, 255.0, 61.0, 35.0 ],
					"text" : "scale -36 36 0. 1."
				}

			}
, 			{
				"box" : 				{
					"id" : "obj-10",
					"linecount" : 2,
					"maxclass" : "newobj",
					"numinlets" : 6,
					"numoutlets" : 1,
					"outlettype" : [ "" ],
					"patching_rect" : [ 495.287355065345764, 210.114940524101257, 60.344826579093933, 35.0 ],
					"text" : "scale 0 100 0. 1."
				}

			}
, 			{
				"box" : 				{
					"id" : "obj-9",
					"linecount" : 2,
					"maxclass" : "newobj",
					"numinlets" : 6,
					"numoutlets" : 1,
					"outlettype" : [ "" ],
					"patching_rect" : [ 420.0, 210.114940524101257, 60.344826579093933, 35.0 ],
					"text" : "scale 0 32 0. 1."
				}

			}
, 			{
				"box" : 				{
					"id" : "obj-5",
					"maxclass" : "comment",
					"numinlets" : 1,
					"numoutlets" : 0,
					"patching_rect" : [ 11.551724195480347, 3.563218832015991, 34.0, 20.0 ],
					"text" : "semi",
					"textjustification" : 1
				}

			}
, 			{
				"box" : 				{
					"focusbordercolor" : [ 0.631372549019608, 0.63921568627451, 0.662745098039216, 0.0 ],
					"id" : "obj-6",
					"maxclass" : "live.dial",
					"numinlets" : 1,
					"numoutlets" : 2,
					"outlettype" : [ "", "float" ],
					"parameter_enable" : 1,
					"patching_rect" : [ 15.051724195480347, 23.434947818517685, 27.0, 28.0 ],
					"saved_attribute_attributes" : 					{
						"focusbordercolor" : 						{
							"expression" : ""
						}
,
						"valueof" : 						{
							"parameter_longname" : "a_semi",
							"parameter_mmax" : 36.0,
							"parameter_mmin" : -36.0,
							"parameter_modmax" : 36.0,
							"parameter_modmin" : -36.0,
							"parameter_modmode" : 4,
							"parameter_shortname" : "a_semi",
							"parameter_type" : 1,
							"parameter_unitstyle" : 0
						}

					}
,
					"showname" : 0,
					"shownumber" : 0,
					"varname" : "live.dial[2]"
				}

			}
, 			{
				"box" : 				{
					"id" : "obj-3",
					"maxclass" : "comment",
					"numinlets" : 1,
					"numoutlets" : 0,
					"patching_rect" : [ 55.021836340427399, 55.021836340427399, 38.0, 20.0 ],
					"text" : "blend",
					"textjustification" : 1
				}

			}
, 			{
				"box" : 				{
					"id" : "obj-4",
					"maxclass" : "comment",
					"numinlets" : 1,
					"numoutlets" : 0,
					"patching_rect" : [ 6.5, 55.021836340427399, 44.0, 20.0 ],
					"text" : "unison",
					"textjustification" : 1
				}

			}
, 			{
				"box" : 				{
					"focusbordercolor" : [ 0.631372549019608, 0.63921568627451, 0.662745098039216, 0.0 ],
					"id" : "obj-2",
					"maxclass" : "live.dial",
					"numinlets" : 1,
					"numoutlets" : 2,
					"outlettype" : [ "", "float" ],
					"parameter_enable" : 1,
					"patching_rect" : [ 60.414849042892456, 75.0, 27.0, 28.0 ],
					"saved_attribute_attributes" : 					{
						"focusbordercolor" : 						{
							"expression" : ""
						}
,
						"valueof" : 						{
							"parameter_longname" : "a_unison_blend",
							"parameter_mmax" : 100.0,
							"parameter_modmode" : 4,
							"parameter_shortname" : "a_unison_blend",
							"parameter_type" : 1,
							"parameter_unitstyle" : 0
						}

					}
,
					"showname" : 0,
					"shownumber" : 0,
					"varname" : "live.dial[1]"
				}

			}
, 			{
				"box" : 				{
					"focusbordercolor" : [ 0.631372549019608, 0.63921568627451, 0.662745098039216, 0.0 ],
					"id" : "obj-1",
					"maxclass" : "live.dial",
					"numinlets" : 1,
					"numoutlets" : 2,
					"outlettype" : [ "", "float" ],
					"parameter_enable" : 1,
					"patching_rect" : [ 15.0, 75.0, 27.0, 37.0 ],
					"saved_attribute_attributes" : 					{
						"focusbordercolor" : 						{
							"expression" : ""
						}
,
						"valueof" : 						{
							"parameter_initial" : [ 1 ],
							"parameter_initial_enable" : 1,
							"parameter_longname" : "a_unison",
							"parameter_mmax" : 32.0,
							"parameter_modmax" : 32.0,
							"parameter_modmode" : 4,
							"parameter_shortname" : "a_unison",
							"parameter_type" : 1,
							"parameter_unitstyle" : 0
						}

					}
,
					"showname" : 0,
					"varname" : "live.dial"
				}

			}
 ],
		"lines" : [ 			{
				"patchline" : 				{
					"destination" : [ "obj-9", 0 ],
					"hidden" : 1,
					"midpoints" : [ 24.5, 129.160919904708862, 429.5, 129.160919904708862 ],
					"source" : [ "obj-1", 0 ]
				}

			}
, 			{
				"patchline" : 				{
					"destination" : [ "obj-272", 0 ],
					"hidden" : 1,
					"midpoints" : [ 384.5, 109.563218832015991, 45.051724195480347, 109.563218832015991, 45.051724195480347, 22.563218832015991, 57.323672324419022, 22.563218832015991 ],
					"source" : [ "obj-14", 0 ]
				}

			}
, 			{
				"patchline" : 				{
					"destination" : [ "obj-10", 0 ],
					"hidden" : 1,
					"midpoints" : [ 69.914849042892456, 195.160919904708862, 504.787355065345764, 195.160919904708862 ],
					"source" : [ "obj-2", 0 ]
				}

			}
, 			{
				"patchline" : 				{
					"destination" : [ "obj-19", 0 ],
					"hidden" : 1,
					"midpoints" : [ 115.766379326581955, 195.160919904708862, 579.5, 195.160919904708862 ],
					"source" : [ "obj-21", 0 ]
				}

			}
, 			{
				"patchline" : 				{
					"destination" : [ "obj-22", 0 ],
					"hidden" : 1,
					"midpoints" : [ 167.731446981430054, 195.160919904708862, 654.5, 195.160919904708862 ],
					"source" : [ "obj-24", 0 ]
				}

			}
, 			{
				"patchline" : 				{
					"destination" : [ "obj-14", 0 ],
					"hidden" : 1,
					"midpoints" : [ 64.939145773649216, 82.563218832015991, 384.5, 82.563218832015991 ],
					"source" : [ "obj-271", 0 ]
				}

			}
, 			{
				"patchline" : 				{
					"destination" : [ "obj-18", 0 ],
					"hidden" : 1,
					"midpoints" : [ 57.323672324419022, 135.0, 114.729883551597595, 135.0 ],
					"source" : [ "obj-272", 0 ]
				}

			}
, 			{
				"patchline" : 				{
					"destination" : [ "obj-12", 0 ],
					"hidden" : 1,
					"midpoints" : [ 24.551724195480347, 130.563218832015991, 24.5, 130.563218832015991 ],
					"source" : [ "obj-6", 0 ]
				}

			}
 ],
		"parameters" : 		{
			"obj-1" : [ "a_unison", "a_unison", 0 ],
			"obj-2" : [ "a_unison_blend", "a_unison_blend", 0 ],
			"obj-21" : [ "a_unison_detune", "a_unison_detune", 0 ],
			"obj-24" : [ "a_unison_spread", "a_unison_spread", 0 ],
			"obj-26" : [ "a_wave", "a_wave", 0 ],
			"obj-271" : [ "live.button[12]", "live.button", 0 ],
			"obj-272" : [ "a_warp2Mod_m4", "a_warp2Mod_m4", 0 ],
			"obj-31" : [ "a_wt", "a_wt", 0 ],
			"obj-34" : [ "a_synFreq", "a_synFreq", 0 ],
			"obj-36" : [ "live.toggle", "live.toggle", 0 ],
			"obj-41" : [ "a_pw", "a_pw", 0 ],
			"obj-6" : [ "a_semi", "a_semi", 0 ],
			"inherited_shortname" : 1
		}
,
		"dependency_cache" : [  ],
		"autosave" : 0
	}

}
